<svg width="236" height="367" viewBox="0 0 236 367" fill="none" xmlns="http://www.w3.org/2000/svg">
<path d="M91.6471 220.269L91.542 220.243L91.5945 220.201L91.6471 220.269Z" fill="#C79E70"/>
<path d="M225.857 71.4938C218.375 53.9997 206.664 38.5923 191.753 26.6258C176.843 14.6593 159.191 6.50016 140.347 2.86561C121.504 -0.76894 102.047 0.232375 83.6862 5.78154C65.3255 11.3307 48.6236 21.2578 35.0485 34.6902C21.4734 48.1226 11.4409 64.649 5.83282 82.8168C0.224721 100.984 -0.787228 120.237 2.88592 138.883C6.55908 157.528 14.8049 174.995 26.8984 189.748C38.992 204.502 54.5631 216.09 72.2429 223.494L72.6059 223.646C80.8665 227.099 99.4493 241.038 104.685 265.725C115.677 317.577 103.456 337.963 99.7891 344.138C99.7891 344.138 95.8659 346.818 92.6919 347.468C92.4591 347.506 92.2301 347.564 92.0078 347.643V347.675C91.6914 348.449 90.9514 350.033 90.0113 351.981L89.9555 352.096C87.2888 357.87 83.5285 366.03 83.5285 366.03L156.594 365.722C156.594 365.722 150.809 354.467 147.784 347.049C147.784 347.049 147.579 347.049 147.235 346.97C145.163 346.625 143.279 345.57 141.911 343.991C135.572 329.043 129.248 306.143 134.716 264.874C135.185 261.274 135.897 257.709 136.848 254.204C138.095 249.625 139.774 245.172 141.864 240.905C142.51 239.576 143.172 238.297 143.852 237.069L144.201 236.433C144.847 235.395 145.655 234.462 146.593 233.671C151.051 229.632 159.554 225.147 163.416 223.54L163.486 223.507C192.107 211.511 214.749 188.768 226.441 160.271C238.133 131.773 237.919 99.8497 225.848 71.5076L225.857 71.4938ZM9.96984 116.622C9.96984 57.6743 58.2768 9.8935 117.865 9.8935C132.034 9.88806 146.065 12.6452 159.156 18.0073C172.248 23.3695 184.144 31.2316 194.163 41.1444C204.183 51.0572 212.131 62.8264 217.552 75.7796C222.974 88.7327 225.762 102.616 225.759 116.636C225.759 175.602 177.457 223.401 117.865 223.401C109.023 223.408 100.214 222.341 91.6355 220.224H91.6029H91.5797H91.5424C68.2236 214.422 47.532 201.078 32.7532 182.31C17.9743 163.543 9.95548 140.428 9.96984 116.636V116.622Z" fill="#C79E70"/>
<path d="M223.664 73.1793C207.417 32.7663 167.222 4.14203 123.187 2.45202C99.5595 1.21329 75.8808 8.39239 56.2695 21.2816C39.874 32.1861 26.4848 47.341 17.3819 64.6509C-7.99551 112.934 -1.60578 155.75 37.0211 192.544C40.8466 196.182 66.3404 211.548 79.3991 219.902C90.5125 227.021 99.164 238.179 100.244 240.509C120.483 284.256 110.58 332.005 104.372 339.805C103.057 341.458 101.512 342.917 99.7829 344.139L99.741 344.171L99.6433 344.235C98.755 344.856 97.8217 345.412 96.851 345.898C96.7067 345.976 96.5625 346.045 96.4228 346.109C96.0785 346.28 95.7434 346.432 95.4269 346.57C94.5561 346.938 93.6604 347.246 92.7463 347.491C92.2809 347.611 92.0203 347.666 91.9738 347.675L89.9819 351.981L89.9261 352.096C87.2594 357.87 83.4991 366.03 83.4991 366.03L156.564 365.722C156.564 365.722 150.808 354.467 147.783 347.049C147.598 347.032 147.415 347.006 147.234 346.971C145.932 346.706 144.695 346.191 143.594 345.456C143.259 345.233 142.937 344.99 142.631 344.728C142.575 344.687 142.524 344.64 142.468 344.59L142.286 344.424L142.058 344.208C140.085 342.269 138.624 338.76 137.325 334.408C135.068 326.861 125.691 290.887 136.86 254.204C138.24 249.668 139.916 245.226 141.877 240.905C142.161 240.274 142.454 239.648 142.752 239.022C143.077 238.346 143.449 237.694 143.864 237.069C144.676 235.855 145.593 234.714 146.605 233.657C156.192 223.48 176.781 214.491 182.44 211.125C229.639 183.039 245.76 124.497 223.664 73.1793ZM113.209 223.908C106.053 223.587 98.9469 222.56 91.997 220.841H91.9039C68.9609 215.133 48.5504 202.12 33.815 183.807C19.0796 165.493 10.8364 142.895 10.3546 119.491C9.09807 59.8802 57.9262 10.5061 118.203 10.4922C146.275 10.4745 173.247 21.2879 193.39 40.6351C213.533 59.9822 225.258 86.3382 226.074 114.103C227.903 176.883 176.599 226.786 113.209 223.908Z" fill="#EFD7B3"/>
<path d="M147.241 346.975C138.138 350.862 128.83 352.082 120.737 352.082C117.05 352.077 113.368 351.837 109.712 351.364C103.95 350.614 98.273 349.324 92.758 347.509H92.6836C93.6194 347.256 94.5394 346.948 95.4387 346.588C95.7551 346.459 96.0902 346.307 96.4346 346.128L96.8488 345.911C101.255 347.191 105.755 348.131 110.308 348.725C119.043 349.858 131.418 350.056 143.569 345.469C144.681 346.206 145.928 346.718 147.241 346.975Z" fill="#C79E70"/>
<ellipse cx="118" cy="117" rx="108" ry="107" fill="#FBFBFB"/>
</svg>
