<svg xmlns="http://www.w3.org/2000/svg" xmlns:xlink="http://www.w3.org/1999/xlink" viewBox="0 0 520 810">
  <defs>
    <filter id="luminosity-noclip" x="8.21" y="9.41" width="502" height="795" filterUnits="userSpaceOnUse" color-interpolation-filters="sRGB">
      <feFlood flood-color="#fff" result="bg"/>
      <feBlend in="SourceGraphic" in2="bg"/>
    </filter>
    <mask id="mask" x="8.21" y="9.41" width="502" height="795" maskUnits="userSpaceOnUse">
      <g filter="url(#luminosity-noclip)">
        <image width="502" height="795" transform="translate(8.21 9.41)" xlink:href="beer_data1.png"/>
      </g>
    </mask>
    <filter id="luminosity-noclip-2" x="203.21" y="754.41" width="122" height="19" filterUnits="userSpaceOnUse" color-interpolation-filters="sRGB">
      <feFlood flood-color="#fff" result="bg"/>
      <feBlend in="SourceGraphic" in2="bg"/>
    </filter>
    <mask id="mask-2" x="203.21" y="754.41" width="122" height="19" maskUnits="userSpaceOnUse">
      <g filter="url(#luminosity-noclip-2)">
        <image width="122" height="19" transform="translate(203.21 754.41)" xlink:href="beer_data2.png"/>
      </g>
    </mask>
  </defs>
  <g id="icon">
    <g>
      <circle cx="259.82" cy="259.43" r="231.84" fill="#fa1"/>
      <g>
        <path d="M163.09,372.06l-.05,12.5-21.06.1H128.62v-.77s6.68,1.08,6.68-4.13-.25-22.48-.25-22.48-.77-3.42-6.17-3l-.1-.87,33.34.1.06,12.5h-.92s-.61-10.51-7.5-11.22c-2.9-.31-11.78-.2-11.78-.2v14.73c1.23-.1,9.54-.92,9.69-9.79l1.28,0V380h-1.43s-.31-10.66-9.54-9.74v13.26s9.54.1,12.7-.21c6.88-.71,7.5-11.22,7.5-11.22Z" fill="#392400"/>
        <path d="M310.25,372.06l-.05,12.5-21.06.1H275.78v-.77s6.68,1.08,6.68-4.13-.25-22.48-.25-22.48-.77-3.42-6.17-3l-.11-.87,33.35.1.05,12.5h-.91s-.62-10.51-7.5-11.22c-2.91-.31-11.78-.2-11.78-.2v14.73c1.22-.1,9.54-.92,9.69-9.79l1.27,0V380h-1.42s-.31-10.66-9.54-9.74v13.26s9.54.1,12.7-.21c6.88-.71,7.49-11.22,7.49-11.22Z" fill="#392400"/>
        <path d="M391.19,372.06l-.05,12.5-21.06.1H356.72v-.77s6.68,1.08,6.68-4.13-.26-22.48-.26-22.48-.76-3.42-6.17-3l-.1-.87,33.35.1,0,12.5h-.92s-.61-10.51-7.49-11.22c-2.91-.31-11.78-.2-11.78-.2v14.73c1.22-.1,9.53-.92,9.69-9.79l1.27,0V380h-1.43s-.3-10.66-9.53-9.74v13.26s9.53.1,12.69-.21c6.89-.71,7.5-11.22,7.5-11.22Z" fill="#392400"/>
        <path d="M337.58,384.62l-7.35,0H316.87v-.77s6.68,1.08,6.68-4.13-.25-22.48-.25-22.48-.77-3.42-6.17-3l-.1-.87,33.34.1.06,12.5h-.92s-.61-10.51-7.5-11.22c-2.9-.31-11.78-.2-11.78-.2l-.38,13.36c1.22-.1,9.15.31,9.3-8.56l1.13,0,.12,18.27-1.25,0s-.1-9.52-9.33-8.6l.41,14.52h7.34Z" fill="#392400"/>
        <path d="M203.68,372.06l-.05,12.5-21.06.1H169.21v-.77s6.68,1.08,6.68-4.13-.25-22.48-.25-22.48-.77-3.42-6.17-3l-.1-.87,21.37,0v1s-8.07-.73-8.07,3c0,4.16-.1,26.08-.1,26.08s9.54.1,12.7-.21c6.88-.71,7.5-11.22,7.5-11.22Z" fill="#392400"/>
        <path d="M264.41,357.43c0,.36-.15,24.48-.15,24.48,1.22,2.6,7.8,2,7.8,2v1L250.7,385l.1-.87c5.4.41,6.32-3.11,6.63-3.26V369.67H240.34c0,6.12-.05,12.24-.05,12.24,1.23,2.6,7.8,2,7.8,2v1l-21.36.06.1-.87c5.41.41,6.32-3.11,6.63-3.26V357.28s-.76-3.42-6.17-3l-.1-.87,21.36.05v1s-8.1-.76-8.1,3c0,.2,0,5.35-.11,10.86h17.09v-11s-.77-3.42-6.17-3l-.11-.87,21.37.05v1S264.41,353.66,264.41,357.43Z" fill="#392400"/>
      </g>
      <g>
        <path d="M273.12,125.35a1,1,0,0,1-.31.24C273.21,125.61,273.53,125.55,273.12,125.35Z" fill="#392400"/>
        <path d="M344.34,134.7l-1.54.33C343.15,135.06,345.11,134.58,344.34,134.7Z" fill="#392400"/>
        <path d="M345.75,134.82a1.75,1.75,0,0,0-1.07-.17A1.49,1.49,0,0,0,345.75,134.82Z" fill="#392400"/>
        <path d="M340,135.38c-.57.05-1.13.08-1.7.08A2.56,2.56,0,0,0,340,135.38Z" fill="#392400"/>
        <path d="M354.33,143.77c.1-.1.2-.21.3-.3C354.53,143.37,354.38,143.65,354.33,143.77Z" fill="#392400"/>
        <path d="M297.68,134.19h0Z" fill="#392400"/>
        <path d="M298.11,134c.11,0,.13,0,.09-.11A.31.31,0,0,0,298.11,134Z" fill="#392400"/>
        <path d="M282.32,129.81a.77.77,0,0,0-.31.35C282.41,130,283.05,130.09,282.32,129.81Z" fill="#392400"/>
        <path d="M244.06,115.83c.16.19.32.44.58.51A1,1,0,0,0,244.06,115.83Z" fill="#392400"/>
        <path d="M362.34,124.79c-62.41,51.67-27.21-126.23-119.48-21.14-17.38-11.78-48.17,8.57-38.12,32.68,8.28,29.77,39.92,29.59,37,60,3.93-3.75,7.52-29.59-2.23-29.68-20.57-31.47,12.53-25.92,11.45,17.94,21.78,10.94-32-75.36,44.77-33.71,12.67,5.13-9.39,7.32-1.08,16.31,23.47,6.82,6.65.32,4.92,24.79-.8,40.87-39.89,26.46-52.09-2.55,8.7,42.83,35.56,15.9,41.59,66.72,18.06-15.79,26.88,20.5,35.82,33.63,3.27,2.11.54,9.21,4.5,10.05,21.81,4.65,10.63-10.21,5.92-22.63.18-16.64-25.65-17-23.3-32.73,8.89-29.35-12.74-3.19-14-17.71-5.31-14.08,9.71-24.6,11.83-38.27C314.93,156.66,358.24,160.14,362.34,124.79ZM240.07,111a0,0,0,0,0,0,0S240,111,240.07,111Zm-24.84-5s0,0,0,0Zm29.5,11.56c-2.47.44-44,10.42-34.53.49C215.3,107.38,239.26,102.43,244.73,117.56Zm54.75,17.58c-5.69-.07-30.37-8.69-26.15-10.38C275.88,129,307.54,134.75,299.48,135.14Zm-41.89,70.13s0-.05,0-.09S257.58,205.24,257.59,205.27Z" fill="#392400"/>
        <path d="M235.16,119.68l.3-.16A.88.88,0,0,0,235.16,119.68Z" fill="#392400"/>
        <path d="M211.13,121.73c-.43.12-.3.08.05.06C211.15,121.74,211.2,121.72,211.13,121.73Z" fill="#392400"/>
        <path d="M213.1,121.75c.05-.08,0,0-.09-.07Z" fill="#392400"/>
        <path d="M210.27,118.52c.09.11.11,0,.16-.06S210.34,118.48,210.27,118.52Z" fill="#392400"/>
        <path d="M225.78,166c.21.34.41,0,.75.13A1.18,1.18,0,0,0,225.78,166Z" fill="#392400"/>
        <path d="M170.49,289.31c-1.07-11.84-3.42-22.07-3-33.46-2.82,3.94-8.58,17.77-6.71,21.86,4.58-2.45,3.9-9.76,5.4-12.69C167.31,271.85,167.3,317.26,170.49,289.31Z" fill="#392400"/>
        <path d="M163.31,294c-1.41-4.65,1.77-11-1.6-13.78-4.6-4-3.54,14.55-4.41,18.27C159.28,302.45,166,298.9,163.31,294Z" fill="#392400"/>
        <path d="M279.91,195.62s0,0-.05,0S280,195.67,279.91,195.62Z" fill="#392400"/>
        <path d="M282.48,201.87c-5.16.61,2.46,5.22,4.38,3.54,2.64-1.66,4.15-5.82,8-6.16-3.35-1.9-20.88-5.53-20.35-2.06C276.23,198.64,285.69,199.45,282.48,201.87Z" fill="#392400"/>
        <path d="M261.43,158.74c2,3.24,32.76,8.78,22.47-1C280.73,156.06,260.79,153.3,261.43,158.74Z" fill="#392400"/>
        <path d="M281.58,151.73c-4.13-3.39-19.44-3.9-18.86.72C267.69,150,281.38,157,281.58,151.73Z" fill="#392400"/>
        <path d="M220.76,121.56c-.13-.36-.12,0-.2.18C220.64,121.74,220.77,121.65,220.76,121.56Z" fill="#392400"/>
        <path d="M182.89,295.32c-.55-7.13-3.52-58.63-5.92-42,.44,11.89,4.15,25.21-.37,35.65,5.63-.93,3.08,6.51,4,10C182.24,302.76,185.13,296.71,182.89,295.32Z" fill="#392400"/>
        <path d="M166.16,267.05c.13.77.22,1.56.38,2.33A15.71,15.71,0,0,0,166.16,267.05Z" fill="#392400"/>
        <path d="M166.26,291c-.26-2.2.11-15.27-2.21-11.06C164,285.42,167.76,310.33,166.26,291Zm.35,8a.17.17,0,0,0,0,0Z" fill="#392400"/>
        <path d="M282.42,183.39c-13.29-3.24,23.64,18.07,8.44-10.59C293.75,182.14,291.69,187.48,282.42,183.39Z" fill="#392400"/>
        <path d="M274.58,155.4l.08,0A.11.11,0,0,0,274.58,155.4Z" fill="#392400"/>
        <path d="M276.51,155.22a2.63,2.63,0,0,1,.55.2A.59.59,0,0,0,276.51,155.22Z" fill="#392400"/>
        <path d="M294.41,189.68c-5.86,2-28.31-6.88-21.12,4.33C278.7,191,304.21,200.64,294.41,189.68Z" fill="#392400"/>
        <path d="M274.29,155.43l-.11,0S274.24,155.45,274.29,155.43Z" fill="#392400"/>
        <path d="M277,155.42h0C277.11,155.43,277,155.4,277,155.42Z" fill="#392400"/>
        <path d="M277.21,155.64c.06-.12-.09-.1-.17-.13C277.07,155.66,277,155.93,277.21,155.64Z" fill="#392400"/>
        <path d="M214.77,295.27c-3.57-9.62,4.31-33.16-7.09-35.36-3-.49,4.55,11.22,3,16.46C211.73,279.86,214.06,308.89,214.77,295.27Zm-.36-.06c.11-.08-.06.05-.08.05ZM212.7,289Z" fill="#392400"/>
        <path d="M185.43,289.22c.06,0,0,.18.07.28A2.86,2.86,0,0,1,185.43,289.22Z" fill="#392400"/>
        <path d="M254.24,238.71l.15,0C254.52,238.64,254.31,238.7,254.24,238.71Z" fill="#392400"/>
        <path d="M235.91,226.2a2.59,2.59,0,0,0-.53-.1A.87.87,0,0,1,235.91,226.2Zm14.65,5.64c.85-1.54,2.28,4,.81,3.29A5.78,5.78,0,0,0,250.56,231.84Zm-33.44,36Zm.07.18a.75.75,0,0,0,.14.17A.75.75,0,0,1,217.19,268.07Zm0-.06s-.07-.15,0-.07A.14.14,0,0,0,217.17,268Zm7.07-29.43c.83,2.86,5,5.77,3.87,7.9-.64-5.73-6.06-3-8.43-6.94C221.41,238.37,222.35,236.69,224.24,238.58Zm33.54,9.53c-1-8.47-4.4-1.56-9.33-3.68C235.94,240.77,269.46,238.05,257.78,248.11Zm-71,7.34c.1,1.05.19,2.08.29,3.1C187,257.54,186.89,256.51,186.79,255.45Zm-.08-1.63c-.12-.85-.2-1.65-.28-2.41A19.84,19.84,0,0,0,186.71,253.82Z" fill="#392400"/>
        <path d="M293.65,291.15c-10.51-20.31-32.84-66.68-55.06-67,2.95-4.84-7.36-11.51-5.93,1.6.41,3.68.92-.66,3.78,1.45,5.37,3.69,17.6-5.27,7.36,10.73-18.8.21,5,2.51,13,.25-4,3.77-25.36,1.86-20.57,4.36-6.11,1-6.69-19.08-14.84-7.93-9.08,3.59-35.8-.09-35,16.82-.72-7.85.56-10.68-6.8-2.58,1.88,7.89.4,9.14,4.51,2.67.47,8.59,1,16,1.62,22.12a2.23,2.23,0,0,0-2.3-.94c.59,8,2.2,39,3.5,17.67-.9-2-.58-5.76-.4-9.28,2.16,17.73,4,15,.73-20.31,3.89,38.11,11.43,55.4,2.41-3.92,1.06-47.25,4.48,64.05,8.5,36.82,1.05-15.39-7.42-37.95-2.42-49.86,7.31-.3,10.74,14,10.46,5.59,3.79-2,4.92,8.19,6.23,10.72,5.71,11.85,1.09,28.85,6.35,39.7,6.15-.38,14,2.7,11.88-6.72.11-.88-.92-2-1.52-.88-4.63,6.7-2.9,2.56-4.16-2.77-2.36-11-14.84-27.8-3.15-37.34,3.09,3.12,10.72-.76,8.44,4.94-1.3,12.19,3.43,31,4.86,42.71C242.56,297.05,311.88,308.07,293.65,291.15ZM186.43,251.41c.08.76.16,1.56.28,2.41A19.84,19.84,0,0,1,186.43,251.41Z" fill="#392400"/>
        <path d="M236.93,241.08c.31-.07.63-.15.94-.19A2.63,2.63,0,0,0,236.93,241.08Z" fill="#392400"/>
        <path d="M199.33,267.8c.22-.25-.11-.13-.25,0Z" fill="#392400"/>
        <path d="M231.41,227.78a.57.57,0,0,0,.18,0C231.56,227.65,231.51,227.67,231.41,227.78Z" fill="#392400"/>
      </g>
    </g>
  </g>
  <g id="tap">
    <g>
      <g>
        <path d="M203.35,484.83l-.2-.05.1-.08Z" fill="#c79e70"/>
        <path d="M491.76,161.77A251.84,251.84,0,1,0,161.68,491.85l.78.33c17.75,7.5,57.68,37.77,68.93,91.38,23.62,112.6-2.64,156.87-10.52,170.28l0,0s-8.43,5.82-15.25,7.23a8.49,8.49,0,0,0-1.47.38l0,.07c-.68,1.68-2.27,5.12-4.29,9.35l-.12.25c-5.73,12.54-13.81,30.26-13.81,30.26l157-.67S330.5,776.27,324,760.16c0,0-.44,0-1.18-.17a19.29,19.29,0,0,1-11.44-6.47c-13.62-32.46-27.21-82.19-15.46-171.81a176.3,176.3,0,0,1,4.58-23.17,164.19,164.19,0,0,1,10.78-28.88q2.08-4.33,4.27-8.33l.75-1.38a25.38,25.38,0,0,1,5.14-6c9.58-8.77,27.85-18.51,36.15-22l.15-.07a252.13,252.13,0,0,0,134-330.08Zm-463.89,98C27.87,131.76,131.67,28,259.71,28A231.75,231.75,0,0,1,491.55,259.8c0,128.05-103.79,231.85-231.84,231.85a232.12,232.12,0,0,1-56.36-6.9l-.07,0h-.05l-.08,0A231.81,231.81,0,0,1,27.87,259.8Z" fill="#c79e70"/>
      </g>
      <g mask="url(#mask)">
        <path d="M487.05,165.43C452.14,77.67,365.77,15.51,271.15,11.84,220.38,9.15,169.5,24.74,127.36,52.73c-35.23,23.68-64,56.59-83.56,94.18C-10.73,251.76,3,344.74,86,424.64c8.22,7.9,63,41.27,91.06,59.41,23.88,15.46,42.47,39.69,44.79,44.75,43.49,95,22.21,198.69,8.87,215.63a48.19,48.19,0,0,1-9.86,9.41l-.09.07-.21.14a47.61,47.61,0,0,1-6,3.61c-.31.17-.62.32-.92.46-.74.37-1.46.7-2.14,1a43.79,43.79,0,0,1-5.76,2c-1,.26-1.56.38-1.66.4h0l-4.28,9.35-.12.25c-5.73,12.54-13.81,30.26-13.81,30.26l157-.67S330.5,776.27,324,760.16a11.13,11.13,0,0,1-1.18-.17A21.81,21.81,0,0,1,315,756.7a21.49,21.49,0,0,1-2.07-1.58c-.12-.09-.23-.19-.35-.3l-.39-.36-.49-.47c-4.24-4.21-7.38-11.83-10.17-21.28-4.85-16.39-25-94.51-1-174.17a237.92,237.92,0,0,1,10.78-28.88c.61-1.37,1.24-2.73,1.88-4.09a35.49,35.49,0,0,1,2.39-4.24,54.58,54.58,0,0,1,5.89-7.41c20.6-22.1,64.84-41.62,77-48.93C499.89,404,534.53,276.87,487.05,165.43ZM249.71,492.75a231.12,231.12,0,0,1-45.58-6.66l-.2,0A231.81,231.81,0,0,1,28.7,266C26,136.55,130.92,29.33,260.44,29.3a231.74,231.74,0,0,1,231.79,225C496.16,390.63,385.92,499,249.71,492.75Z" fill="#efd7b3"/>
      </g>
      <g mask="url(#mask-2)">
        <path d="M322.83,760c-19.56,8.44-39.56,11.09-56.95,11.09a184.2,184.2,0,0,1-23.69-1.56,196.76,196.76,0,0,1-36.43-8.37l-.16,0a53.16,53.16,0,0,0,5.92-2c.68-.28,1.4-.61,2.14-1l.89-.47h0a191.63,191.63,0,0,0,28.92,6.11c18.77,2.46,45.36,2.89,71.47-7.07A21.81,21.81,0,0,0,322.83,760Z" fill="#c79e70"/>
      </g>
    </g>
  </g>
</svg>
