<svg xmlns="http://www.w3.org/2000/svg" xmlns:xlink="http://www.w3.org/1999/xlink" viewBox="0 0 520 810">
  <defs>
    <filter id="luminosity-noclip" x="8.21" y="9.41" width="502" height="795" filterUnits="userSpaceOnUse" color-interpolation-filters="sRGB">
      <feFlood flood-color="#fff" result="bg"/>
      <feBlend in="SourceGraphic" in2="bg"/>
    </filter>
    <mask id="mask" x="8.21" y="9.41" width="502" height="795" maskUnits="userSpaceOnUse">
      <g filter="url(#luminosity-noclip)">
        <image width="502" height="795" transform="translate(8.21 9.41)" xlink:href="beer_data1.png"/>
      </g>
    </mask>
    <filter id="luminosity-noclip-2" x="203.21" y="754.41" width="122" height="19" filterUnits="userSpaceOnUse" color-interpolation-filters="sRGB">
      <feFlood flood-color="#fff" result="bg"/>
      <feBlend in="SourceGraphic" in2="bg"/>
    </filter>
    <mask id="mask-2" x="203.21" y="754.41" width="122" height="19" maskUnits="userSpaceOnUse">
      <g filter="url(#luminosity-noclip-2)">
        <image width="122" height="19" transform="translate(203.21 754.41)" xlink:href="beer_data2.png"/>
      </g>
    </mask>
  </defs>
  <g id="icon">
    <g>
      <g>
        <path d="M493,259.24H26.7c.18,128.6,104.53,232.82,233.19,232.82S492.83,387.84,493,259.24Z" fill="#ff0f90"/>
        <g>
          <path d="M259.74,26.49C131.15,26.49,26.8,130.71,26.62,259.31H213.11a10.86,10.86,0,0,1,.06-1.43,27.23,27.23,0,0,1,.25-3.3,42,42,0,0,1,2.42-10.45,15.9,15.9,0,0,1,1.06-2.86,27,27,0,0,1,2-4,46.37,46.37,0,0,1,27-22.08,23.28,23.28,0,0,1,3.35-.87A45.53,45.53,0,0,1,259.74,213a46.57,46.57,0,0,1,40.92,24.19,33.9,33.9,0,0,1,1.93,4,16.69,16.69,0,0,1,1.06,2.86,42,42,0,0,1,2.42,10.45,29.42,29.42,0,0,1,.25,3.3,10.86,10.86,0,0,1,.06,1.43H492.87C492.68,130.71,388.4,26.49,259.74,26.49Z" fill="#dc1d30"/>
          <path d="M259.74,73.13c-102.85,0-186.36,83.26-186.55,186.18H213.11a10.86,10.86,0,0,1,.06-1.43,27.23,27.23,0,0,1,.25-3.3,42,42,0,0,1,2.42-10.45,15.9,15.9,0,0,1,1.06-2.86,27,27,0,0,1,2-4,46.37,46.37,0,0,1,27-22.08,23.28,23.28,0,0,1,3.35-.87A45.53,45.53,0,0,1,259.74,213a46.57,46.57,0,0,1,40.92,24.19,33.9,33.9,0,0,1,1.93,4,16.69,16.69,0,0,1,1.06,2.86,42,42,0,0,1,2.42,10.45,29.42,29.42,0,0,1,.25,3.3,10.86,10.86,0,0,1,.06,1.43H446.23A186.44,186.44,0,0,0,259.74,73.13Z" fill="#fff000"/>
          <path d="M259.74,119.76A139.9,139.9,0,0,0,119.83,259.31h93.28a10.86,10.86,0,0,1,.06-1.43,27.23,27.23,0,0,1,.25-3.3,42,42,0,0,1,2.42-10.45,15.9,15.9,0,0,1,1.06-2.86,27,27,0,0,1,2-4,46.37,46.37,0,0,1,27-22.08,23.28,23.28,0,0,1,3.35-.87A45.53,45.53,0,0,1,259.74,213a46.57,46.57,0,0,1,40.92,24.19,33.9,33.9,0,0,1,1.93,4,16.69,16.69,0,0,1,1.06,2.86,42,42,0,0,1,2.42,10.45,29.42,29.42,0,0,1,.25,3.3,10.86,10.86,0,0,1,.06,1.43H399.6A139.81,139.81,0,0,0,259.74,119.76Z" fill="#00a64d"/>
          <path d="M259.74,166.4a93.23,93.23,0,0,0-93.27,92.91h46.64a10.86,10.86,0,0,1,.06-1.43,27.23,27.23,0,0,1,.25-3.3,42,42,0,0,1,2.42-10.45,15.9,15.9,0,0,1,1.06-2.86,27,27,0,0,1,2-4,46.37,46.37,0,0,1,27-22.08,23.28,23.28,0,0,1,3.35-.87A45.53,45.53,0,0,1,259.74,213a46.57,46.57,0,0,1,40.92,24.19,33.9,33.9,0,0,1,1.93,4,16.69,16.69,0,0,1,1.06,2.86,42,42,0,0,1,2.42,10.45,29.42,29.42,0,0,1,.25,3.3,10.86,10.86,0,0,1,.06,1.43H353A93.2,93.2,0,0,0,259.74,166.4Z" fill="#007dc3"/>
        </g>
      </g>
      <rect x="139.19" y="376.67" width="8.16" height="5.1" transform="translate(342.25 26.03) rotate(50.09)"/>
      <rect x="120.78" y="388.36" width="8.16" height="5.1" transform="translate(354.75 50.98) rotate(51.78)"/>
      <rect x="96.92" y="394.71" width="11.64" height="5.1" transform="matrix(0.62, 0.79, -0.79, 0.62, 351.31, 70.78)"/>
      <polygon points="120.29 422.54 113.07 413.99 118.61 410 124.84 418.17 120.29 422.54"/>
      <polygon points="134.07 424.8 126.15 416.95 131.85 412.57 138.51 420.41 134.07 424.8"/>
      <polygon points="136.39 437.32 127.75 429.26 132.21 423.21 140.06 431.53 136.39 437.32"/>
      <polygon points="143.38 437.61 141.57 440.43 151.28 447.36 154.1 443.6 143.38 437.61 143.38 437.61"/>
      <polygon points="160.82 446.98 158.62 451.44 168.41 456.83 170.73 452.75 160.82 446.98 160.82 446.98"/>
      <polygon points="179.85 434.54 174.7 459.91 186.05 465.69 188.16 461.11 182.53 431.43 179.85 434.54"/>
      <path d="M189.36,416.09s7.67,2.13-.71,14.31l8.3-.16.87-12.09-3.8-4.43-4.9-.08Z"/>
      <polygon points="207.21 416.1 210.61 416.34 210.53 433.25 211.66 447.25 209.88 455.59 214.61 472.08 214.82 475.08 202.11 471.28 208.1 447.01 207.21 416.1"/>
      <polygon points="266.9 425.58 266.53 435.65 258.44 435.28 256.89 479.05 246.13 478.99 247.19 434.84 241.53 434.59 241.78 424.89 266.9 425.58"/>
      <polygon points="272.62 425.03 283.67 423.79 302.8 475.9 289.73 477.46 280.87 435.77 280.4 459.88 289.11 466.1 290.2 469.99 281.33 470.3 280.09 479.32 269.36 480.26 272.62 425.03"/>
      <polygon points="293.84 422.03 300.29 420.67 314.89 464.65 326.1 464.48 327.46 469.57 308.95 474.16 293.84 422.03"/>
      <polygon points="311.33 416.93 330.18 410.48 333.74 417.95 324.91 422.54 332.38 436.12 340.53 436.29 341.55 438.33 335.1 441.05 341.89 453.61 350.72 456.33 351.57 458.7 333.23 466.01 311.33 416.93"/>
      <polygon points="342.15 400.65 345.3 398.16 370.02 446.78 365.88 449.6 342.15 400.65"/>
      <polygon points="355.92 407.95 382.47 436.99 386.12 433.84 357.25 404.96 355.92 407.95"/>
      <polygon points="358.2 387.3 362.12 383.22 399.28 422.52 397.24 425.21 358.2 387.3"/>
      <polygon points="370.96 374.04 374.37 369.6 416.28 402.86 414.81 406.16 370.96 374.04"/>
      <circle cx="259.81" cy="233.51" r="40.69" fill="#fff896"/>
      <path d="M154.11,376.16l-7.4,5.53-5.16-6.09L132,382.75l4.05,5.22-7.78,5.48s-2.61-3.74-3.73-5.1l-18.16,13.49-7-9.33s42-31.71,42.78-31.71Z" fill="#fff"/>
      <path d="M158.83,380.64l-43.71,31.9,7.15,8.14,6.65-5.47,5.23,5.1-4.48,6.4,8.33,8.15,30.54-45.27Zm-19,33-4.11-4.05,18-15Z" fill="#fff"/>
      <path d="M274.29,423.07l-2.85,54,10.83-.4s-.36-9.12,0-8.62,7.26-.83,7.26-.83l2.14,7.52,11.57-1.32L287.36,421.2Zm13.6,35.6-5.73.63-.24-23.44Z" fill="#fff"/>
      <path d="M343.69,399.27,368,447.64l9.21-5.71s-4.82-7.74-4.3-7.46,5.89-4.31,5.89-4.31l5.58,5.47,9.41-6.88-39.62-37.57Zm29.43,24.21-4.66,3.38L356.65,406.6Z" fill="#fff"/>
      <rect x="136.09" y="413.41" width="54.76" height="12.2" transform="translate(-274.17 313.75) rotate(-55.13)" fill="#fff"/>
      <line x1="261.44" y1="423.73" x2="249.25" y2="423.36" fill="#fff"/>
      <polygon points="268.53 423.92 268.22 433.55 261.13 433.37 259.76 477.64 247.57 477.27 248.94 433 243.22 432.81 243.47 423.17 249.25 423.36 261.44 423.73 268.53 423.92" fill="#fff"/>
      <polygon points="295.65 420.2 307.05 416.88 319.02 458.94 326.04 457.25 329.01 466.85 310.44 472.15 295.65 420.2" fill="#fff"/>
      <polygon points="360.15 385.27 368.28 376.63 399.96 406.78 405.15 401.76 412.58 408.52 399.28 422.52 360.15 385.27" fill="#fff"/>
      <polygon points="312.94 414.63 331.69 406.53 335.42 415.49 327.63 419.23 332.22 429.1 339.16 426.6 342.89 435.56 336.59 438.5 341.83 449.76 349.08 447.09 353.14 456.27 334.67 463.96 312.94 414.63" fill="#fff"/>
      <polygon points="371.86 372.77 383.79 356.2 391.6 361.98 386.83 369.19 395.83 375.3 400.5 369.59 408.31 375.37 404.41 381.13 414.68 388.11 419.54 382.09 427.73 387.89 415.82 403.96 371.86 372.77" fill="#fff"/>
      <path d="M184.27,403.58,159.83,449.1l9.82,5.6,12.26-22.26-5.41,25.49,11.31,5.66L192,437.85s8.4-1.06,12.25-10.45S207.9,409.86,184.27,403.58Zm9.14,20.77c-3.48,7.65-8.21,4.6-9.45,3.86,0,0,7.09-13.19,7.15-13.19C192.73,415.65,196.15,418.38,193.41,424.35Z" fill="#fff"/>
      <polygon points="208.86 413.7 220.91 417.6 219.42 435.94 228.32 419.63 239.62 422.78 221.09 450.4 214.61 472.08 202.56 468.37 209.6 447.06 208.86 413.7" fill="#fff"/>
      <g>
        <g>
          <path d="M211.28,236.18c-6,1.61-11.73,2.6-16.13-4.4-4.21-6.67-3.31-17.13-4.35-24.69-1-7.19-2.93-14.38-7.76-20.06-4.07-4.73-12.72-5.77-20.86-5.49.24.14.38.24.57.33a1.57,1.57,0,0,1-.05.48c-.47,1.75-4.63,2.27-8.56,2.22l-1,.24c-.76-.05-1.19-.1-1.23-.1a10.17,10.17,0,0,0-1.37.38c-.9.24-2.13.61-3.17.95a9.3,9.3,0,0,1-3.6.28c-.14,0-.28,0-.42,0a39.4,39.4,0,0,0-14.24.52c-7.62,1.94,2.79-5.11,5.11-3.64a7.4,7.4,0,0,1,3.5-2.22,6.47,6.47,0,0,1,3.5-.29c3.5.62-2.75-3-5.63-4.63-.81-.47-1.37-.76-1.37-.76s14.23,1.23,15.94,1.94-.66-2.79-.66-2.79,5,.71,7.94,2.7a8.75,8.75,0,0,0,5.49,1.46c8.23-.57,27.53.14,29.8,18.5a8.19,8.19,0,0,0,3,5.34l5.34,4.35a8.64,8.64,0,0,1,2.51,10.08c-1.61,3.78-3.08,8.7-1.75,12.06,2.41,6.25,5.68,1.42,5.68,1.42S213.08,227.85,211.28,236.18Z" fill="#9a9c9c"/>
          <path d="M250,324.49c-.38.52-.62.81-.62.81s-4.21,5.43-5.15-3.32c0,0-15.61,4.73-10.88-3.78a24,24,0,0,0-4.78-1.8c0-1.65.19-3.31.23-5.2.1-4.16.57-10,3.46-10.64,2.65,4.39,7.76,2.27,10,4.16,1.84,1.56.8,7,3.07,10.41A42.26,42.26,0,0,1,250,324.49Z" fill="#9a9c9c"/>
          <g>
            <path d="M395.81,215.55c-.38-2.22-1.42-1.09-2.13-3-.8-2.13-1.09-7.48-2.6-9.46-2.08-2.8-3.78-4.69-4.49-6.34-.86-2-1.56-2.94-1.71-5.16-.14-1.7-1.89-3.69-4-5.34a22,22,0,0,0-3.64-2.28l-3.6,1.14-.66.24-1.94-.52-1-.24c-3.93.05-8.09-.47-8.56-2.22a1.57,1.57,0,0,1,0-.48c.19-.09.33-.19.57-.33-8.09-.28-16.8.76-20.86,5.49-4.83,5.68-6.77,12.87-7.76,20.06-1,7.56-.14,18-4.35,24.69-4.4,7-10.17,6-16.13,4.4a71.21,71.21,0,0,0-7.53-1.85c-6.52-.94-19.2.19-25.21,3-7.52,3.55-12.11,7.14-14.38,12.72-2.22,5.16-2.36,12-1,22.24.05.42.14.89.19,1.32v.05c1.42,9.17,4.68,17.74,4.12,27.1-.43,6.67.37,10.31-.9,15.56a26.61,26.61,0,0,1-1.19,3.93,14,14,0,0,0-4.87,8.42,14.24,14.24,0,0,0-4.92-8.42,27.73,27.73,0,0,1-1.18-3.93c-1.28-5.25-.47-8.89-.9-15.56-.57-9.36,2.7-18,4.12-27.1v-.1c0-.42.14-.85.19-1.27,1.32-10.13,1.18-17-1-22.14-2.27-5.63-6.9-9.23-14.42-12.82-6-2.84-18.69-4-25.22-3a71.65,71.65,0,0,0-7.52,1.85c-6,1.61-11.73,2.6-16.13-4.4-4.21-6.67-3.31-17.13-4.35-24.69-1-7.19-2.93-14.38-7.76-20.06-4.07-4.73-12.72-5.77-20.86-5.49.24.14.38.24.57.33a1.57,1.57,0,0,1-.05.48c-.47,1.75-4.63,2.27-8.56,2.22l-1,.24-1.94.52-.66-.24c-.9.24-2.13.61-3.17.95a9.3,9.3,0,0,1-3.6.28c-.14,0-.28,0-.42,0-2.13,1.61-3.88,3.6-4,5.3-.14,2.22-.85,3.12-1.75,5.16-.71,1.65-2.36,3.54-4.49,6.34-1.52,2-1.8,7.33-2.6,9.46-.71,1.93-1.75.8-2.13,3-.57,3.12.66,7.33,3.12,9.42-.52-.67-1-2.7-.33-3.74s3.26.19,3.45.14c4.45.29,7.76-8.84,11.92-4.35.19-.38.38-.71.57-1,3.36-5.68,9-6,13.72-10-.52,4.3-2.51,8.8-3.55,12.58a103.6,103.6,0,0,0-3.36,15c-.71,5.44-1,8.13.29,13.34-5.35,7-7.53,20.2-3.79,29.66,2.7,6.85,7,11.44,12.92,16.27.37,3.4,2.36,14.43,3.54,17.74,2.6,7.42,7.43,12.15,7.43,21.19,0,7.9,3.74,11.73,4.21,19.58.28,5.73,4,14.9-1.33,22.47-2.12,3-7.14,5.91-2.22,8.61,3.5,1.89,6.15-.95,8.28-3.74,3.45-4.54,2.46-10,3.22-15.42,1.08-7.85-1.75-19.68-2.37-31.93-.24-4.54-2.36-1.94-2.36-4.54,0-14.28-.9-14.14-1.47-28.05,0,0,4.87,1,6.67.76.38,6.86,2.18,14.19,3.55,20.67,1.94,9.13.19,15.75,1.42,24.88.33,2.32-.1,6.91.19,10.31a22.74,22.74,0,0,1-.9,8.71,64.1,64.1,0,0,1-3.69,9.69c-2,4-4.21,8.71,1.08,8.42,6.25-.38,5.07-4.21,8.94-7.23,4.26-3.32.34-10.88.1-15.09,0-.67-.1-7.15-.1-7.15,0-5,1.14-11.3,1.42-16.27.9-17.22,2.27-23.7,3-35.24.52.1,5.87.14,6.39.14a18.38,18.38,0,0,0,.85,5.77c1.7,6.58,2.74,9.75,7.33,14.57,2.51,2.65,6.15,7.62,6.81,10.27,1.23,5-3.21,10.69-5.77,16-1.7,3.59-5.11,8.84-7.14,12.25-1.75,3-4.4,6.86-5.44,10.26-.76,2.37-2.37,7.62-.62,10.08,1.38,1.79,3.65.75,5.87.75,1.94.05,4.3-3.69,5.11-7.33.57-2.69-.57-5.2,1-6.62,2.37-2.08,2.89-2.08,3-3.74.62-8.51,5.16-15.13,10.27-21.57,3.45-4.35,8.23-7.61,5.86-11.16-1.7-2.6-4.78-6-6-8.66a11.63,11.63,0,0,1-.94-5.77c0-1.65.19-3.31.23-5.2.1-4.16.57-10,3.46-10.64,2.65,4.39,7.76,2.27,10,4.16,1.84,1.56.8,7,3.07,10.41a42.26,42.26,0,0,1,4.64,9.36,8.34,8.34,0,0,1,.52,2.7c-.15,5,3.31,12.91,6.15,17.45,1.89,3,1,6.81.56,10.41-.42,3.12-3.64,4.82-4.25,7.85-.24,1.18,1.7,2.79,1.79,4.92.1,2.46-4.25,1.89-.28,7.47a9.83,9.83,0,0,0,3.5,2.37,13.18,13.18,0,0,0,4,1h.14a11.43,11.43,0,0,0,3.93-.95c.05,0,.09,0,.14,0a9.62,9.62,0,0,0,3.6-2.42c4-5.58-.43-5-.29-7.47.1-2.13,2-3.74,1.75-4.92-.61-3-3.83-4.73-4.26-7.85-.47-3.6-1.27-7.43.57-10.41,2.84-4.54,6.34-12.49,6.2-17.45a9,9,0,0,1,.47-2.65,41.23,41.23,0,0,1,4.64-9.41c2.27-3.36,1.28-8.85,3.07-10.41,2.32-1.89,7.43.23,10-4.16,2.89.66,3.36,6.48,3.45,10.64.05,1.89.24,3.55.24,5.2a11.53,11.53,0,0,1-.95,5.77c-1.23,2.7-4.3,6.06-6,8.66-2.37,3.55,2.41,6.81,5.86,11.16,5.11,6.44,9.7,13.06,10.27,21.57.09,1.66.66,1.66,3,3.74,1.56,1.42.42,3.93,1,6.62.75,3.64,3.17,7.38,5.06,7.33,2.27,0,4.54,1,5.86-.75,1.8-2.46.15-7.71-.61-10.08-1-3.4-3.64-7.24-5.39-10.26-2-3.41-5.49-8.66-7.19-12.25-2.51-5.3-7-11-5.77-16,.66-2.65,4.3-7.62,6.81-10.27,4.59-4.82,5.63-8,7.33-14.57a18.68,18.68,0,0,0,.85-5.77c.52,0,5.87,0,6.39-.14.8,11.54,2.13,18,3.07,35.24.24,5,1.42,11.31,1.42,16.27,0,0-.09,6.48-.14,7.15-.24,4.21-4.16,11.77.14,15.09,3.83,3,2.65,6.85,8.89,7.23,5.3.29,3.08-4.4,1.09-8.42A76.9,76.9,0,0,1,333,364a22.74,22.74,0,0,1-.9-8.71c.29-3.4-.14-8,.19-10.31,1.23-9.13-.52-15.75,1.42-24.88,1.37-6.48,3.17-13.81,3.55-20.67,1.8.23,6.67-.76,6.67-.76-.57,13.91-1.42,13.77-1.42,28.05,0,2.6-2.13,0-2.41,4.54-.62,12.25-3.41,24.08-2.37,31.93.76,5.39-.19,10.88,3.27,15.42,2.13,2.79,4.77,5.63,8.27,3.74,4.92-2.7-.14-5.63-2.27-8.61-5.29-7.57-1.6-16.74-1.27-22.47.42-7.85,4.16-11.68,4.16-19.58,0-9,4.82-13.77,7.43-21.19,1.18-3.31,3.17-14.34,3.54-17.74,6-4.83,10.22-9.42,12.92-16.27,3.73-9.46,1.61-22.61-3.74-29.66,1.32-5.21,1-7.9.24-13.34a104.94,104.94,0,0,0-3.36-15c-1-3.78-3-8.28-3.55-12.58,4.73,4.07,10.41,4.35,13.77,10,.18.33.37.66.56,1,4.12-4.49,7.48,4.64,11.88,4.35.19,0,2.74-1.18,3.45-.14s.19,3-.24,3.69A10.75,10.75,0,0,0,395.81,215.55Zm-245-22.47c-2.79-2.69,3.12-5.34,4.21-2a2.21,2.21,0,0,1,2.41,1C159.25,196.25,150.5,197.86,150.78,193.08Zm222.66,0c.28,4.78-8.42,3.17-6.63-1a2.26,2.26,0,0,1,2.42-1C370.31,187.74,376.23,190.39,373.44,193.08Z" fill="#e5eaea"/>
            <path d="M146.57,217c-.28.52-.56,1-.85,1.47s-.47.85-.76,1.27a15.64,15.64,0,0,1-1.08,1.71c-.38.52-.76,1.08-1.19,1.6-.28.38-.56.71-.89,1.09s-.67.62-1,.9a3.82,3.82,0,0,1-1.37.81.56.56,0,0,1-.38.14c-.09,0-.24,0-.38.09a1.53,1.53,0,0,1-.71.1h-.33a6.1,6.1,0,0,1-1.13-.19,4.64,4.64,0,0,1-1-.33,1.11,1.11,0,0,1-.43-.48.34.34,0,0,0-.19-.28.2.2,0,0,0-.19-.19l-.05,0a1.43,1.43,0,0,0-1.6-.23,2.79,2.79,0,0,0-.81.47c0,.05,0,.05-.09.09a.41.41,0,0,1-.29.15c-.09,0-.09,0-.14,0s-.09-.1-.14-.14c-.52-.67-1-2.7-.33-3.74s3.26.19,3.45.14C139.1,221.66,142.41,212.53,146.57,217Z" fill="#e5eaea"/>
            <path d="M150.78,193.08c-2.79-2.69,3.12-5.34,4.21-2a2.21,2.21,0,0,1,2.41,1C159.25,196.25,150.5,197.86,150.78,193.08Z" fill="#e5eaea"/>
            <path d="M162.75,181.87a1.57,1.57,0,0,1-.05.48c-.47,1.75-4.63,2.27-8.56,2.22l-1,.24-1.94.52-.66-.24c-.9.24-2.13.61-3.17.95a9.3,9.3,0,0,1-3.6.28c-.14,0-.28,0-.42,0A18.07,18.07,0,0,1,147,184H147a11.09,11.09,0,0,1,2.84-1.08,98.54,98.54,0,0,1,12.3-1.33h0C162.42,181.68,162.56,181.78,162.75,181.87Z" fill="#e5eaea"/>
            <path d="M266.06,377.75a5.66,5.66,0,0,1-2.18.86,7.19,7.19,0,0,1-1.75.09A11.43,11.43,0,0,0,266.06,377.75Z" fill="#e5eaea"/>
          </g>
          <path d="M146.57,217c-.28.52-.56,1-.85,1.47s-.47.85-.76,1.27a15.64,15.64,0,0,1-1.08,1.71c-.38.52-.76,1.08-1.19,1.6-.28.38-.56.71-.89,1.09s-.67.62-1,.9a3.82,3.82,0,0,1-1.37.81.56.56,0,0,1-.38.14c-.09,0-.24,0-.38.09a1.53,1.53,0,0,1-.71.1h-.33a6.1,6.1,0,0,1-1.13-.19,4.64,4.64,0,0,1-1-.33,1.11,1.11,0,0,1-.43-.48,1.16,1.16,0,0,1-.19-.28l-.19-.19-.05,0a1.43,1.43,0,0,0-1.6-.23,2.79,2.79,0,0,0-.81.47c0,.05,0,.05-.09.09l-.14.15a.11.11,0,0,1-.15,0c-.09,0-.09,0-.14,0s-.09-.1-.14-.14c-.52-.67-1-2.7-.33-3.74s3.26.19,3.45.14C139.1,221.66,142.41,212.53,146.57,217Z" fill="#ff9198"/>
          <path d="M150.78,193.08c-2.79-2.69,3.12-5.34,4.21-2a2.21,2.21,0,0,1,2.41,1C159.25,196.25,150.5,197.86,150.78,193.08Z" fill="#ff9198"/>
          <path d="M162.75,181.87a1.57,1.57,0,0,1-.05.48c-.47,1.75-4.63,2.27-8.56,2.22l-1,.24-1.94.52-.66-.24L147,184H147l-9.22-3-37.8-12.4L135.6,176l22.51,4.73h.15a15,15,0,0,1,3.88.8h0C162.42,181.68,162.56,181.78,162.75,181.87Z" fill="#ff9198"/>
        </g>
        <g>
          <path d="M395.1,186.79a41.43,41.43,0,0,0-14.19-.56,22,22,0,0,0-3.64-2.28l-3.6,1.14a10.17,10.17,0,0,0-1.37-.38c-.05,0-.47,0-1.23.1l-1-.24c-3.93.05-8.09-.47-8.56-2.22a1.57,1.57,0,0,1,0-.48c.19-.09.33-.19.57-.33-8.09-.28-16.8.76-20.86,5.49-4.83,5.68-6.77,12.87-7.76,20.06-1,7.56-.14,18-4.35,24.69-4.4,7-10.17,6-16.13,4.4-1.75-8.33,3.78-5.87,3.78-5.87s3.22,4.83,5.68-1.42c1.27-3.36-.19-8.28-1.8-12.06a8.64,8.64,0,0,1,2.51-10.08l5.34-4.35a8.26,8.26,0,0,0,3.08-5.34c2.27-18.36,21.52-19.07,29.75-18.5a8.93,8.93,0,0,0,5.53-1.46c3-2,7.9-2.7,7.9-2.7s-2.31,3.55-.61,2.79S390,175.25,390,175.25s-.57.29-1.37.76c-2.89,1.61-9.13,5.25-5.63,4.63a6.47,6.47,0,0,1,3.5.29,7.4,7.4,0,0,1,3.5,2.22C392.31,181.68,402.72,188.73,395.1,186.79Z" fill="#9a9c9c"/>
          <path d="M265.82,250.08c-2.22,5.16-2.36,12-1,22.24.05.42.14.89.19,1.32v.05c1.42,9.17,4.68,17.74,4.12,27.1-.43,6.67.37,10.31-.9,15.56-2-2.88-3.5-5.48-3-6,1.18-1.18-.24-4-1.66-6.14s-.7-6.15,1.66-7.57.24-6.15.24-6.15a11.52,11.52,0,0,1-3.27-3.88,11.89,11.89,0,0,1-3.31,3.88s-2.13,4.73.24,6.15,3.07,5.44,1.65,7.57-2.83,5-1.65,6.14c.47.48-1,3.08-3,6-1.28-5.25-.47-8.89-.9-15.56-.57-9.36,2.7-18,4.12-27.1v-.1c0-.42.14-.85.19-1.27,1.32-10.13,1.18-17-1-22.14-2.27-5.63-6.9-9.23-14.42-12.82,0,0,12-2.55,18.11,3.31,6.1-5.86,18.07-3.31,18.07-3.31C272.68,240.91,268.09,244.5,265.82,250.08Z" fill="#9a9c9c"/>
          <path d="M290.94,318.2c4.73,8.51-10.88,3.78-10.88,3.78-.95,8.75-5.2,3.32-5.2,3.32l-.62-.76a41.23,41.23,0,0,1,4.64-9.41c2.27-3.36,1.28-8.85,3.07-10.41,2.32-1.89,7.43.23,10-4.16,2.89.66,3.36,6.48,3.45,10.64.05,1.89.24,3.55.24,5.2A22.91,22.91,0,0,0,290.94,318.2Z" fill="#9a9c9c"/>
          <g>
            <path d="M262,378.7a6.31,6.31,0,0,1-1.65-.09,6.5,6.5,0,0,1-2.37-.95A13.18,13.18,0,0,0,262,378.7Z" fill="#e5eaea"/>
            <path d="M373.44,193.08c.28,4.78-8.42,3.17-6.63-1a2.26,2.26,0,0,1,2.42-1C370.31,187.74,376.23,190.39,373.44,193.08Z" fill="#e5eaea"/>
            <path d="M377.27,184l-3.6,1.14-.66.24-1.94-.52-1-.24c-3.93.05-8.09-.47-8.56-2.22a1.57,1.57,0,0,1,0-.48c.19-.09.33-.19.57-.33h0a97.48,97.48,0,0,1,12.3,1.33A11.33,11.33,0,0,1,377.27,184Z" fill="#e5eaea"/>
            <path d="M392.78,224.92l0,.05a1.33,1.33,0,0,0-.19.14c-.1.09-.24,0-.43-.1l-.05,0a1.42,1.42,0,0,0-.38-.24,2,2,0,0,0-1.08-.43.85.85,0,0,0-.38.1,3.14,3.14,0,0,0-.38.14,1.17,1.17,0,0,0-.19.14c-.33.14-.42.38-.57.66a1.07,1.07,0,0,1-.33.34,4.64,4.64,0,0,1-1,.33,6.1,6.1,0,0,1-1.13.19h-.33a1.25,1.25,0,0,1-.71-.1,1.86,1.86,0,0,1-.71-.23,4,4,0,0,1-1.47-.86,2.34,2.34,0,0,1-.62-.56c-.18-.19-.42-.43-.61-.67a28.18,28.18,0,0,1-3.36-4.87c-.28-.52-.61-1-.9-1.56,0-.09-.14-.24-.19-.33,4.12-4.49,7.48,4.64,11.88,4.35.19,0,2.74-1.18,3.45-.14S393.21,224.21,392.78,224.92Z" fill="#e5eaea"/>
          </g>
          <path d="M392.78,224.92l0,.05c-.19.23-.34.28-.48.19l-.14-.15-.05,0a1.42,1.42,0,0,0-.38-.24,2,2,0,0,0-1.08-.43.85.85,0,0,0-.38.1.67.67,0,0,0-.38.14,1.17,1.17,0,0,0-.19.14,4,4,0,0,0-.57.66,1.07,1.07,0,0,1-.33.34,4.64,4.64,0,0,1-1,.33,6.1,6.1,0,0,1-1.13.19h-.33a1.25,1.25,0,0,1-.71-.1,1.86,1.86,0,0,1-.71-.23,4,4,0,0,1-1.47-.86,2.34,2.34,0,0,1-.62-.56c-.18-.19-.42-.43-.61-.67a28.18,28.18,0,0,1-3.36-4.87c-.28-.52-.61-1-.9-1.56,0-.09-.14-.24-.19-.33,4.12-4.49,7.48,4.64,11.88,4.35.19,0,2.74-1.18,3.45-.14S393.21,224.21,392.78,224.92Z" fill="#ff9198"/>
          <path d="M373.44,193.08c.28,4.78-8.42,3.17-6.63-1a2.26,2.26,0,0,1,2.42-1C370.31,187.74,376.23,190.39,373.44,193.08Z" fill="#ff9198"/>
          <path d="M424.29,168.53l-37.8,12.4-9.22,3-3.6,1.14-.66.24-1.94-.52-1-.24c-3.93.05-8.09-.47-8.56-2.22a1.57,1.57,0,0,1,0-.48c.19-.09.33-.19.57-.33h0a15,15,0,0,1,3.88-.8h.14L388.62,176Z" fill="#ff9198"/>
        </g>
      </g>
    </g>
  </g>
  <g id="tap">
    <g>
      <g>
        <path d="M203.35,484.83l-.2-.05.1-.08Z" fill="#c79e70"/>
        <path d="M491.76,161.77A251.84,251.84,0,1,0,161.68,491.85l.78.33c17.75,7.5,57.68,37.77,68.93,91.38,23.62,112.6-2.64,156.87-10.52,170.28l0,0s-8.43,5.82-15.25,7.23a8.49,8.49,0,0,0-1.47.38l0,.07c-.68,1.68-2.27,5.12-4.29,9.35l-.12.25c-5.73,12.54-13.81,30.26-13.81,30.26l157-.67S330.5,776.27,324,760.16c0,0-.44,0-1.18-.17a19.29,19.29,0,0,1-11.44-6.47c-13.62-32.46-27.21-82.19-15.46-171.81a176.3,176.3,0,0,1,4.58-23.17,164.19,164.19,0,0,1,10.78-28.88q2.08-4.33,4.27-8.33l.75-1.38a25.38,25.38,0,0,1,5.14-6c9.58-8.77,27.85-18.51,36.15-22l.15-.07a252.13,252.13,0,0,0,134-330.08Zm-463.89,98C27.87,131.76,131.67,28,259.71,28A231.75,231.75,0,0,1,491.55,259.8c0,128.05-103.79,231.85-231.84,231.85a232.12,232.12,0,0,1-56.36-6.9l-.07,0h-.05l-.08,0A231.81,231.81,0,0,1,27.87,259.8Z" fill="#c79e70"/>
      </g>
      <g mask="url(#mask)">
        <path d="M487.05,165.43C452.14,77.67,365.77,15.51,271.15,11.84,220.38,9.15,169.5,24.74,127.36,52.73c-35.23,23.68-64,56.59-83.56,94.18C-10.73,251.76,3,344.74,86,424.64c8.22,7.9,63,41.27,91.06,59.41,23.88,15.46,42.47,39.69,44.79,44.75,43.49,95,22.21,198.69,8.87,215.63a48.19,48.19,0,0,1-9.86,9.41l-.09.07-.21.14a47.61,47.61,0,0,1-6,3.61c-.31.17-.62.32-.92.46-.74.37-1.46.7-2.14,1a43.79,43.79,0,0,1-5.76,2c-1,.26-1.56.38-1.66.4h0l-4.28,9.35-.12.25c-5.73,12.54-13.81,30.26-13.81,30.26l157-.67S330.5,776.27,324,760.16a11.13,11.13,0,0,1-1.18-.17A21.81,21.81,0,0,1,315,756.7a21.49,21.49,0,0,1-2.07-1.58c-.12-.09-.23-.19-.35-.3l-.39-.36-.49-.47c-4.24-4.21-7.38-11.83-10.17-21.28-4.85-16.39-25-94.51-1-174.17a237.92,237.92,0,0,1,10.78-28.88c.61-1.37,1.24-2.73,1.88-4.09a35.49,35.49,0,0,1,2.39-4.24,54.58,54.58,0,0,1,5.89-7.41c20.6-22.1,64.84-41.62,77-48.93C499.89,404,534.53,276.87,487.05,165.43ZM249.71,492.75a231.12,231.12,0,0,1-45.58-6.66l-.2,0A231.81,231.81,0,0,1,28.7,266C26,136.55,130.92,29.33,260.44,29.3a231.74,231.74,0,0,1,231.79,225C496.16,390.63,385.92,499,249.71,492.75Z" fill="#efd7b3"/>
      </g>
      <g mask="url(#mask-2)">
        <path d="M322.83,760c-19.56,8.44-39.56,11.09-56.95,11.09a184.2,184.2,0,0,1-23.69-1.56,196.76,196.76,0,0,1-36.43-8.37l-.16,0a53.16,53.16,0,0,0,5.92-2c.68-.28,1.4-.61,2.14-1l.89-.47h0a191.63,191.63,0,0,0,28.92,6.11c18.77,2.46,45.36,2.89,71.47-7.07A21.81,21.81,0,0,0,322.83,760Z" fill="#c79e70"/>
      </g>
    </g>
  </g>
</svg>
