<svg xmlns="http://www.w3.org/2000/svg" xmlns:xlink="http://www.w3.org/1999/xlink" viewBox="0 0 520 810">
  <defs>
    <filter id="luminosity-noclip" x="8.21" y="9.41" width="502" height="795" filterUnits="userSpaceOnUse" color-interpolation-filters="sRGB">
      <feFlood flood-color="#fff" result="bg"/>
      <feBlend in="SourceGraphic" in2="bg"/>
    </filter>
    <mask id="mask" x="8.21" y="9.41" width="502" height="795" maskUnits="userSpaceOnUse">
      <g filter="url(#luminosity-noclip)">
        <image width="502" height="795" transform="translate(8.21 9.41)" xlink:href="beer_data1.png"/>
      </g>
    </mask>
    <filter id="luminosity-noclip-2" x="203.21" y="754.41" width="122" height="19" filterUnits="userSpaceOnUse" color-interpolation-filters="sRGB">
      <feFlood flood-color="#fff" result="bg"/>
      <feBlend in="SourceGraphic" in2="bg"/>
    </filter>
    <mask id="mask-2" x="203.21" y="754.41" width="122" height="19" maskUnits="userSpaceOnUse">
      <g filter="url(#luminosity-noclip-2)">
        <image width="122" height="19" transform="translate(203.21 754.41)" xlink:href="beer_data2.png"/>
      </g>
    </mask>
  </defs>
  <g style="isolation: isolate">
    <g id="icon">
      <g>
        <circle cx="259.47" cy="260.04" r="232.06" fill="#b57342"/>
        <g>
          <path d="M406.59,202.68c.12,1.64,1.69,2.09,1.82,3.48a14.52,14.52,0,0,0,1.8-6.62,13.48,13.48,0,0,1,1.51,6.62c-.08,1.16-.42,3.25-1.64,3.09-1.56-.21-3.82.07-4.68-1.88-1-2.28-1.71-4.69-2.59-7.16,1.48,0,1.75,1.49,3.26,1.59-1.44-2.48-.77-4.9-.37-7.33.06-.38,0-.82.45-1a.6.6,0,0,1,.81.28c1.18,2.34,2.83,4.53,2.46,7.37C409.19,202.94,408.53,203.3,406.59,202.68Z" fill="#5c3c27"/>
          <path d="M385,192.76c-1.58-2.42-.74-5.1-1-8,2.89,2.4,5.35,4.68,4.95,8.58-.1,1-.3,1-2.13,1.37a26.5,26.5,0,0,1,2.95,2.95v-6.18c2.46,1.69,3.65,5.29,2.73,7.52a1.68,1.68,0,0,1-.37.58c-1.39-.52-2.81,1.08-4.06.17a10.27,10.27,0,0,1-4.56-7l0,0h1.43c0,.52.21.93.83.89.11,0,.3-.19.29-.25C385.93,192.83,385.43,192.81,385,192.76Z" fill="#5c3c27"/>
          <path d="M398.37,223.52c-1.87-.63-3-4.22-1.95-6.39.89-1.8,1.95-3.53,3.16-5.67.39,3.08,1.46,5.73.17,8.46a1,1,0,0,0,.15,1.25,6.63,6.63,0,0,1-.24,8.74c-1.07,1.17-1.42.56-1.8-.37a6.68,6.68,0,0,1,.63-5.91l.18-.3Z" fill="#5c3c27"/>
          <path d="M419.6,262.08c-.56,1.85-1.06,3.74-2.88,4.84-.64-.15-1.54.28-1.82-.69a1.77,1.77,0,0,1,.63-2.14c1.7-1,2-2.37,1.75-4.27-.34-2.39,2-3.09,3.31-4.46l.2-.25-.25.2c-1.82-.64-2-3.83-.06-5.26a44.47,44.47,0,0,1,4.84-2.8c-.48,1.55-.95,3.1-1.43,4.65-.64.59-1.32,1.14-1.9,1.77s0,.94.51,1.19a24.77,24.77,0,0,1-1.94,5.28c-.68.42-1.56.52-2.06,1.24Z" fill="#5c3c27"/>
          <path d="M414.65,222.51c.19,3.15.29,5.69-1.27,7.94-.23.33-.55.73-.28,1.07,1.67,2.13.16,4.31.06,6.43-.08,1.74-2,2.07-3.25,2.82-.35.21-.8-.15-.81-.62,0-1.94-.61-4.05,1.6-5.34.81-.47,1.72-.92,1.63-2.15-1-.5-1.5,1.84-2.55.39-.61-.83-.24-4.82.56-5.69A32.82,32.82,0,0,0,414.65,222.51Z" fill="#5c3c27"/>
          <path d="M412.39,240.9c-.88,2.17-.19,4.79-1.95,6.7-1.93.8-4.12-.08-5.41-.74-2.28-1.16-1-4.14-1.33-6.91,1.82,1.87,3.39,3.28,3.53,6.39C408.79,243.6,409.64,241.24,412.39,240.9Z" fill="#5c3c27"/>
          <path d="M403.49,229.75c2.11,2.46,5.24,4.27,4.54,8.18-.19,1.06.19,2.69-1.16,2.77a2.65,2.65,0,0,1-2.55-2.68A50.07,50.07,0,0,0,403.49,229.75Z" fill="#5c3c27"/>
          <path d="M393.61,222.6c-.09,1.06.78,1.52,1.38,2.11,1.59,1.59,1.56,3.58,1.46,5.58-.05,1-.83,1.14-1.55.79a3.46,3.46,0,0,1-2.18-2.37c-.42-2.19-.84-4.39-2.54-6.06a.8.8,0,0,1-.19-1.07c.43-.54.88,0,1.25.16.77.38,1.38,1.14,2.38.88Z" fill="#5c3c27"/>
          <path d="M394.09,213.69c-.09.66.15,1.31-.56,1.57a1.47,1.47,0,0,1-1.55-.37c-2.06-1.85-4.33-3.52-5.61-6.1-.18-.36-.5-.73-.28-1.09.36-.61.84-.17,1.23,0,2.42,1.2,5.56,1.41,6.46,4.7C393.91,212.89,394,213.35,394.09,213.69Z" fill="#5c3c27"/>
          <path d="M402.11,206c2.06,2.13,4.09,3.2,5.51,5.08,1.28,1.69,1,3.53.79,5.29-.17,1.44-1,.37-1.43,0C404.21,213.75,403.08,210.33,402.11,206Z" fill="#5c3c27"/>
          <path d="M402.58,215.21a23.9,23.9,0,0,1,5.34,3.71c1.72,1.59,1.1,3.58.93,5.39-.1,1.09-1.06.58-1.61.07C404.68,222,403.72,218.91,402.58,215.21Z" fill="#5c3c27"/>
          <path d="M383.63,199.46c3.25,1.4,7.25,1.79,8,6.1.1.63.84,1.46,0,2s-1.58-.1-2.19-.58a20.13,20.13,0,0,1-4.65-5.45C384.38,200.83,384,200.14,383.63,199.46Z" fill="#5c3c27"/>
          <path d="M388.31,214.44c4.12.94,7,3.7,7.2,6.88.12,1.64-.46,2.06-1.9,1.28v0c-1.43-2.35-4.4-3.54-4.92-6.58-.09-.55-.24-1.08-.37-1.62Z" fill="#5c3c27"/>
          <path d="M403.4,222.27a34.64,34.64,0,0,1,4.6,4.38c1.18,1.59.54,3.68.33,5.53-.07.66-.79.23-1.1-.1C404.74,229.41,403,226.43,403.4,222.27Z" fill="#5c3c27"/>
          <path d="M424.4,228.88c1.21-.34.79-1.57,1.41-2.72a46.76,46.76,0,0,1,0,5.08c-.15,1.3-.39,3.31-1.9,3.14-1.32-.16-3.24-.53-3.83-2.56a11.2,11.2,0,0,1,.08-5.54l2.78,5.34a2.2,2.2,0,0,0,1-2.28l0,0,.5-.5Z" fill="#5c3c27"/>
          <path d="M397,204.34c1.2,3,2.1,5.78.65,8.7-.32.64-.59,1.38-1.5,1.3s-1-.75-1.25-1.32c-.66-1.43-1-2.83.25-4.19C396.22,207.66,396,205.86,397,204.34Z" fill="#5c3c27"/>
          <path d="M414,214.49c.07,2.41.62,4.82-.29,7.14a5.69,5.69,0,0,1-2.53,3.08c-.58.32-.89-.33-1-.75-.29-1.55-.82-3.26.42-4.55A13.9,13.9,0,0,0,414,214.49Z" fill="#5c3c27"/>
          <path d="M413.44,259.17c-.06-2.7.73-5.37.42-8.09,2.68,1.4,3.88,6.55,2.12,8.91-.59.8-1.41.53-2.16.64h0C413.89,260.1,414,259.56,413.44,259.17Z" fill="#5c3c27"/>
          <path d="M420.6,244.93c-.14.48-.31,1.09-.48,1.7-.34,1.15-1.23,1.3-1.64.35-.94-2.14-2.37-4.17-2.19-6.7.07-1,.53-1.78,1.39-.82C419,241,420.54,242.49,420.6,244.93Z" fill="#5c3c27"/>
          <path d="M412.89,207.61c-.6,3.14.95,6.7-1.62,9.43-.38.4-.68,1.08-1.27,1s-.44-.92-.47-1.44c-.12-2.32-.25-4.59,1.83-6.35A9.43,9.43,0,0,0,412.89,207.61Z" fill="#5c3c27"/>
          <path d="M394.17,197.55c1.12,3.92,2.46,7.51-.53,10.91C391.19,204.76,392.72,201.34,394.17,197.55Z" fill="#5c3c27"/>
          <path d="M418,231c1.95,3,4.47,5.06,3.18,8.63-.15.41-.1,1.08-.75,1-.3,0-.61-.47-.8-.79A11.75,11.75,0,0,1,418,231Z" fill="#5c3c27"/>
          <path d="M423.94,229.34c-2-.63-3-2.71-2.29-5.19a38.13,38.13,0,0,1,1.67-4c1.47,3,2,5.82,1.08,8.77l0,0-.5.5Z" fill="#5c3c27"/>
          <path d="M415.3,250v-5.75c1.15,1.59,2.43,3.11,3.42,4.8.85,1.44,0,3-.54,4.28-.34.84-1.1.24-1.35-.41A7.66,7.66,0,0,0,415.3,250Z" fill="#5c3c27"/>
          <path d="M425.88,240.41c-.21,1.6-.42,3.2-.62,4.8-.64.59-1.27,1.2-1.92,1.78-.46.4-.84,1.15-1.57.87s-.7-1.16-.68-1.86a3.23,3.23,0,0,1,1.35-2.65C423.64,242.44,424.74,241.4,425.88,240.41Z" fill="#5c3c27"/>
          <path d="M395.54,238.5c-.58-1.75-2.27-3-2.22-5.06,0-.53-.38-1.15.27-1.49s1.06.17,1.43.57c1,1.13,2.54,1.91,2.44,3.86-.07,1.38-.52,2.11-1.93,2.11Z" fill="#5c3c27"/>
          <path d="M395.53,238.49c.33,1,1.23,1.43,1.83,2.16a2.93,2.93,0,0,1,.35,2.93.85.85,0,0,1-.93.6,2.58,2.58,0,0,1-2-1.81c-.47-1.4-.71-2.88-1.08-4.44l1.88.57Z" fill="#5c3c27"/>
          <path d="M426.17,234.58c-.43,2.23-.58,4.54-2.41,6.21-.39.36-.72,1.07-1.34.78s-.41-1.14-.35-1.72C422.32,237.28,424.3,236,426.17,234.58Z" fill="#5c3c27"/>
          <path d="M403.33,246.91c1.49,1.73,2.64,3.2,2.31,5.31-.09.59.18,1.45-.7,1.53a1.51,1.51,0,0,1-1.58-1.49C403.24,250.61,403.33,248.94,403.33,246.91Z" fill="#5c3c27"/>
          <path d="M411.88,264l.51-3.82,1.44.46h0c.15,1,.37,2,.44,3,.06.84.21,2-.94,2.14S412.18,264.76,411.88,264Z" fill="#5c3c27"/>
        </g>
        <g>
          <path d="M118.33,202.68c-.12,1.64-1.69,2.09-1.82,3.48a14.66,14.66,0,0,1-1.81-6.62,13.47,13.47,0,0,0-1.5,6.62c.08,1.16.42,3.25,1.64,3.09,1.56-.21,3.82.07,4.67-1.88,1-2.28,1.72-4.69,2.59-7.16-1.47,0-1.74,1.49-3.25,1.59,1.44-2.48.76-4.9.37-7.33-.06-.38,0-.82-.45-1a.59.59,0,0,0-.81.28c-1.19,2.34-2.83,4.53-2.46,7.37C115.73,202.94,116.38,203.3,118.33,202.68Z" fill="#5c3c27"/>
          <path d="M140,192.76c1.58-2.42.74-5.1,1-8-2.89,2.4-5.34,4.68-4.94,8.58.1,1,.3,1,2.13,1.37a26.5,26.5,0,0,0-3,2.95v-6.18c-2.46,1.69-3.65,5.29-2.73,7.52a1.87,1.87,0,0,0,.36.58c1.4-.52,2.82,1.08,4.06.17a10.25,10.25,0,0,0,4.57-7l0,0H140c0,.52-.2.93-.82.89-.11,0-.31-.19-.29-.25C139,192.83,139.48,192.81,140,192.76Z" fill="#5c3c27"/>
          <path d="M126.55,223.52c1.87-.63,3-4.22,2-6.39-.9-1.8-2-3.53-3.16-5.67-.39,3.08-1.47,5.73-.18,8.46a1,1,0,0,1-.14,1.25,6.63,6.63,0,0,0,.24,8.74c1.06,1.17,1.42.56,1.8-.37a6.68,6.68,0,0,0-.63-5.91l-.18-.3Z" fill="#5c3c27"/>
          <path d="M105.32,262.08c.55,1.85,1.06,3.74,2.88,4.84.64-.15,1.54.28,1.82-.69a1.78,1.78,0,0,0-.63-2.14c-1.7-1-2-2.37-1.75-4.27.34-2.39-2-3.09-3.31-4.46l-.21-.25.26.2c1.81-.64,2-3.83.06-5.26a44.47,44.47,0,0,0-4.84-2.8q.7,2.33,1.43,4.65c.64.59,1.31,1.14,1.9,1.77s0,.94-.51,1.19a24.24,24.24,0,0,0,1.94,5.28c.68.42,1.56.52,2.06,1.24Z" fill="#5c3c27"/>
          <path d="M110.27,222.51c-.19,3.15-.3,5.69,1.26,7.94.23.33.56.73.29,1.07-1.68,2.13-.17,4.31-.06,6.43.08,1.74,2,2.07,3.25,2.82.35.21.79-.15.8-.62,0-1.94.62-4.05-1.6-5.34-.8-.47-1.71-.92-1.62-2.15,1-.5,1.5,1.84,2.55.39.61-.83.24-4.82-.57-5.69A32.8,32.8,0,0,1,110.27,222.51Z" fill="#5c3c27"/>
          <path d="M112.53,240.9c.88,2.17.19,4.79,2,6.7,1.93.8,4.12-.08,5.41-.74,2.28-1.16,1-4.14,1.33-6.91-1.82,1.87-3.39,3.28-3.53,6.39C116.13,243.6,115.27,241.24,112.53,240.9Z" fill="#5c3c27"/>
          <path d="M121.43,229.75c-2.11,2.46-5.24,4.27-4.54,8.18.19,1.06-.19,2.69,1.16,2.77A2.65,2.65,0,0,0,120.6,238,49,49,0,0,1,121.43,229.75Z" fill="#5c3c27"/>
          <path d="M131.31,222.6c.09,1.06-.78,1.52-1.38,2.11-1.59,1.59-1.56,3.58-1.47,5.58,0,1,.84,1.14,1.56.79a3.48,3.48,0,0,0,2.18-2.37c.42-2.19.84-4.39,2.53-6.06a.79.79,0,0,0,.2-1.07c-.43-.54-.88,0-1.26.16-.76.38-1.37,1.14-2.37.88Z" fill="#5c3c27"/>
          <path d="M130.82,213.69c.09.66-.14,1.31.57,1.57a1.47,1.47,0,0,0,1.55-.37c2.06-1.85,4.33-3.52,5.61-6.1.18-.36.5-.73.28-1.09-.36-.61-.85-.17-1.23,0-2.42,1.2-5.57,1.41-6.46,4.7C131,212.89,130.91,213.35,130.82,213.69Z" fill="#5c3c27"/>
          <path d="M122.81,206c-2.06,2.13-4.09,3.2-5.51,5.08-1.28,1.69-1,3.53-.79,5.29.16,1.44,1,.37,1.43,0C120.7,213.75,121.84,210.33,122.81,206Z" fill="#5c3c27"/>
          <path d="M122.34,215.21a23.9,23.9,0,0,0-5.34,3.71c-1.72,1.59-1.1,3.58-.93,5.39.1,1.09,1.06.58,1.61.07C120.24,222,121.2,218.91,122.34,215.21Z" fill="#5c3c27"/>
          <path d="M141.29,199.46c-3.26,1.4-7.25,1.79-8,6.1-.11.63-.85,1.46,0,2s1.59-.1,2.2-.58a19.92,19.92,0,0,0,4.64-5.45C140.54,200.83,140.91,200.14,141.29,199.46Z" fill="#5c3c27"/>
          <path d="M136.61,214.44c-4.12.94-7,3.7-7.21,6.88-.12,1.64.47,2.06,1.91,1.28v0c1.43-2.35,4.4-3.54,4.91-6.58.1-.55.25-1.08.38-1.62Z" fill="#5c3c27"/>
          <path d="M121.51,222.27a35.91,35.91,0,0,0-4.6,4.38c-1.17,1.59-.53,3.68-.32,5.53.07.66.79.23,1.09-.1C120.18,229.41,121.93,226.43,121.51,222.27Z" fill="#5c3c27"/>
          <path d="M100.51,228.88c-1.2-.34-.78-1.57-1.41-2.72a44.15,44.15,0,0,0,.05,5.08c.15,1.3.39,3.31,1.89,3.14,1.33-.16,3.25-.53,3.84-2.56a11.32,11.32,0,0,0-.08-5.54L102,231.62a2.18,2.18,0,0,1-1-2.28l0,0-.5-.5Z" fill="#5c3c27"/>
          <path d="M127.94,204.34c-1.21,3-2.1,5.78-.65,8.7.32.64.59,1.38,1.5,1.3s1-.75,1.24-1.32c.67-1.43,1-2.83-.24-4.19C128.7,207.66,128.94,205.86,127.94,204.34Z" fill="#5c3c27"/>
          <path d="M110.87,214.49c-.06,2.41-.61,4.82.3,7.14a5.69,5.69,0,0,0,2.53,3.08c.58.32.88-.33,1-.75.29-1.55.82-3.26-.42-4.55A14.05,14.05,0,0,1,110.87,214.49Z" fill="#5c3c27"/>
          <path d="M111.48,259.17c.06-2.7-.74-5.37-.42-8.09-2.68,1.4-3.88,6.55-2.12,8.91.59.8,1.41.53,2.16.64h0A1.4,1.4,0,0,1,111.48,259.17Z" fill="#5c3c27"/>
          <path d="M104.32,244.93c.14.48.31,1.09.48,1.7.34,1.15,1.23,1.3,1.64.35.94-2.14,2.36-4.17,2.19-6.7-.07-1-.53-1.78-1.4-.82C105.88,241,104.37,242.49,104.32,244.93Z" fill="#5c3c27"/>
          <path d="M112,207.61c.6,3.14-1,6.7,1.62,9.43.38.4.67,1.08,1.27,1s.44-.92.47-1.44c.12-2.32.24-4.59-1.83-6.35A9.43,9.43,0,0,1,112,207.61Z" fill="#5c3c27"/>
          <path d="M130.75,197.55c-1.13,3.92-2.46,7.51.53,10.91C133.72,204.76,132.2,201.34,130.75,197.55Z" fill="#5c3c27"/>
          <path d="M106.94,231c-2,3-4.47,5.06-3.18,8.63.15.41.1,1.08.75,1,.3,0,.61-.47.8-.79A11.75,11.75,0,0,0,106.94,231Z" fill="#5c3c27"/>
          <path d="M101,229.34c2-.63,3-2.71,2.29-5.19a36.36,36.36,0,0,0-1.68-4c-1.46,3-2,5.82-1.08,8.77v0l.5.5Z" fill="#5c3c27"/>
          <path d="M109.62,250v-5.75c-1.15,1.59-2.43,3.11-3.43,4.8-.84,1.44,0,3,.55,4.28.33.84,1.1.24,1.35-.41A7.66,7.66,0,0,1,109.62,250Z" fill="#5c3c27"/>
          <path d="M99,240.41c.21,1.6.41,3.2.62,4.8.64.59,1.27,1.2,1.92,1.78.46.4.84,1.15,1.57.87s.7-1.16.68-1.86a3.23,3.23,0,0,0-1.35-2.65C101.28,242.44,100.18,241.4,99,240.41Z" fill="#5c3c27"/>
          <path d="M129.37,238.5c.59-1.75,2.28-3,2.23-5.06,0-.53.38-1.15-.27-1.49s-1.07.17-1.43.57c-1,1.13-2.54,1.91-2.44,3.86.07,1.38.52,2.11,1.93,2.11Z" fill="#5c3c27"/>
          <path d="M129.39,238.49c-.33,1-1.23,1.43-1.83,2.16a3,3,0,0,0-.36,2.93.86.86,0,0,0,.94.6,2.6,2.6,0,0,0,2-1.81c.47-1.4.71-2.88,1.08-4.44l-1.89.57Z" fill="#5c3c27"/>
          <path d="M98.74,234.58c.44,2.23.58,4.54,2.42,6.21.38.36.72,1.07,1.34.78s.4-1.14.35-1.72C102.6,237.28,100.62,236,98.74,234.58Z" fill="#5c3c27"/>
          <path d="M121.59,246.91c-1.49,1.73-2.64,3.2-2.31,5.31.09.59-.18,1.45.7,1.53a1.51,1.51,0,0,0,1.57-1.49C121.68,250.61,121.59,248.94,121.59,246.91Z" fill="#5c3c27"/>
          <path d="M113,264l-.51-3.82-1.44.46h0c-.15,1-.37,2-.45,3-.05.84-.2,2,.94,2.14S112.74,264.76,113,264Z" fill="#5c3c27"/>
        </g>
        <rect x="151.17" y="77.18" width="220.69" height="367.9" rx="84.09" fill="#fff"/>
        <rect x="156.96" y="83.44" width="210.15" height="356.52" rx="84.09" fill="#5c3c27"/>
        <path d="M286.29,149.66s8,23.27,7.33,36l37.43-4.32,4-41.39Z" fill="#a57b5f"/>
        <path d="M278.85,149s-3.3,15.21-6.06,28.32L230,175.14,224.52,144Z" fill="#a57b5f"/>
        <rect x="170.34" y="293.28" width="0.15" height="0.15" fill="#9cdde5"/>
        <rect x="170.34" y="293.28" width="0.15" height="0.15" fill="#9cdde5"/>
        <path d="M234.15,83.61h-.21c-3.36,1.35-14.73,46.6-26.11,65.23,0,0,84.36,18.38,137.93-5.43,0,0-18.64-32.61-19.15-45-.19-4.4-10.23-9.45-24.07-13.23a84.67,84.67,0,0,0-16-1.55Z" fill="#be4c4c"/>
        <path d="M230.12,174.76l42.73,2.5s-2.31,29.55-5.87,34.18c0,0-.54,11.22-3.57,13.53s-11,12.47-12.1,14.07-23,39.88-23.21,40.83-34.44,0-34.44,0S205.12,237.62,221.1,224C236.24,211.16,230.12,174.76,230.12,174.76Z" fill="#a9d4d9"/>
        <path d="M293.62,185.68s37-3.4,37.43-4.32-2.67,25.57,3.06,38.47A153.7,153.7,0,0,1,340.79,239a90.35,90.35,0,0,1,3.43,22.35l.53,18.46H315.28s-8.6-33.36-8.39-38.28-3.48-13.1-8.19-23.33c-2.25-4.9-2.38-12.92-3.09-19.57C294.85,191.37,293.62,185.68,293.62,185.68Z" fill="#a9d4d9"/>
        <path d="M201.67,374.11l-3.08.89c-.05-.27-.11-.54-.17-.82a17.82,17.82,0,0,0,2.4-1.06c2.08-1.25,1.3-2.21.25-4-2.62-4.52-5.44-.86-7.56-.25-4.19,1.22-10.95-1.06-12.46-5.29-2.23-6.23-3.42-12.68-4.64-19.12a53.93,53.93,0,0,1-1.22-8.53c-.07-2.88,1.53-4.38,4.17-4.47,6.64-.21,13.3-.09,20-.14,1.28,0,1.69.64,1.66,1.79A171.56,171.56,0,0,0,202.06,353c.41,4.62,1.4,9.27,4,13.34.3.48.6,1,.86,1.45,1.22,2.34.94,3.25-1.33,4.58a4.68,4.68,0,0,0-.86.81A4.77,4.77,0,0,0,201.67,374.11Z" fill="#a9d4d9"/>
        <path d="M320.54,376.68a4.52,4.52,0,0,1,.38-4.18c4-6.58,5.23-14,6.9-21.35a41.89,41.89,0,0,1,1.4-5.34,12.32,12.32,0,0,0,.13-9.13,5.81,5.81,0,0,1,0-3.28c.28-1.59,1.24-2.09,2.53-1.65a9.47,9.47,0,0,0,4.46.12,42.42,42.42,0,0,1,12.6.83c1.77.32,2.16,2,2.37,3.52a11.57,11.57,0,0,1,0,2.88c-1,7.94-.3,15.91-.57,23.87a15.1,15.1,0,0,1-1.62,6.21c-.82,1.7-1.94,3-4.13,2.26-.08,0-.19-.09-.23-.07-3.06,2.28-4.26-.79-6.07-2.1-.32-.23-.61-.53-.94-.74-3.07-1.95-3.43-1.92-5.53,1-1.4,2-2.51,4-5.53,3.93C324.3,373.4,322.31,374.72,320.54,376.68Z" fill="#a9d4d9"/>
        <path d="M326.92,375.16c2.09,1.61,5.27-.49,7.22,2.27a3.27,3.27,0,0,1,.56,3.31c-.52,1.17-1.82.65-2.75.34-2.45-.82-5-.46-7.5-.91-1.17-.21-2.68-.15-2.83-1.57a2.34,2.34,0,0,1,2.43-2.66A16.72,16.72,0,0,0,326.92,375.16Z" fill="#a9d4d9"/>
        <rect x="139.12" y="280.26" width="247.4" height="51.86" fill="#fff"/>
        <path d="M109.4,290.5l5.16,24.94-5.16,25.79h42.71v-51S109.83,290.07,109.4,290.5Z" fill="#fff"/>
        <path d="M414.39,290.5l-5.16,24.94,5.16,25.79h-42.7v-51S414,290.07,414.39,290.5Z" fill="#fff"/>
        <path d="M115.37,294.43l4.36,21.08-4.36,21.81h36.11V294.19S115.74,294.07,115.37,294.43Z" fill="#b84843"/>
        <path d="M408.75,294.43l-4.36,21.08,4.36,21.81h-36.1V294.19S408.39,294.07,408.75,294.43Z" fill="#b84843"/>
        <rect x="141.56" y="284.54" width="241.13" height="42.07" fill="#b84843"/>
        <g>
          <g opacity="0.75" style="mix-blend-mode: multiply">
            <rect x="165.37" y="317.77" width="0.15" height="0.15"/>
            <rect x="159.88" y="317.77" width="0.15" height="0.15"/>
            <rect x="165.37" y="317.77" width="0.15" height="0.15"/>
            <rect x="174.35" y="308.58" width="0.15" height="0.15"/>
            <rect x="174.35" y="308.58" width="0.15" height="0.15"/>
            <path d="M179.78,295.28v22.64h-5.43v-9.19h.15v-.15h-.15v.15h-8.83v9h-.15v.15H160v-.15h-.15V295.28h5.64v9.19l8.83-.05v-9h.15v-.15Z"/>
            <path d="M229.69,313v5.2H216.9V318l0-4.9a.76.76,0,0,1,0-.15c0-5.94-.09-11.86-.13-17.79V295h5.65V313Z"/>
            <path d="M247.45,313v5.2H234.66V318l0-4.9a.76.76,0,0,1,0-.15c0-5.94-.09-11.86-.13-17.79V295h5.65V313Z"/>
            <path d="M292,305.27a6.26,6.26,0,0,0,1.79-4.41c0-2.27-1.46-5.37-4.15-5.7-1.45-.17-10.79-.07-10.79-.07v.15q0,7.08.13,14.17h0c0,1.82.07,3.62.12,5.44h0c0,.91,0,1.81.07,2.73a.38.38,0,0,0,0,.15H291a5.4,5.4,0,0,0,5.26-3.86l0,0C297.23,310.22,295.27,306.88,292,305.27Zm-7.57-5.83,2,0a2.28,2.28,0,1,1,0,4.5h-2Zm2.84,14.37-2.84,0v-5.63c.66,0,2.19.05,2.84.05a2.82,2.82,0,1,1,0,5.55Z"/>
            <path d="M300.57,317.68l-.06.15h-.19l.06-.15Z"/>
            <rect x="357.88" y="317.95" width="0.15" height="0.15"/>
            <rect x="357.88" y="317.95" width="0.15" height="0.15"/>
            <path d="M363.29,305.9l-.1.12-.1-.12.09-.12Z"/>
            <path d="M300.57,317.68l-.06.15h-.19l.06-.15Z"/>
            <path d="M323.56,317.68q-3.75-11.08-7.48-22.15a.88.88,0,0,0-.05-.15H314.4l-5.72,0h-.19l-.06.15q-2.51,6.87-5,13.75l-.06.15c-.57,1.58-1.14,3.14-1.7,4.7l-.06.15-1.24,3.43h.19l-.06.15h5.92l.06-.15,1.24-3.43h8.64l1.15,3.43.05.15h6A.88.88,0,0,0,323.56,317.68Zm-14-8.43,2.67-7.3,2.46,7.3Z"/>
            <path d="M274,317.68l-7.47-22.15a.88.88,0,0,0-.05-.15h-1.64l-5.71,0H259l-.06.15q-2.5,6.87-5,13.75l-.06.15c-.57,1.58-1.14,3.14-1.7,4.7l-.06.15-1.24,3.43H251l-.06.15h5.93l.06-.15,1.24-3.43h8.64l1.15,3.43,0,.15h6A.88.88,0,0,0,274,317.68Zm-14-8.43,2.66-7.3,2.47,7.3Z"/>
            <path d="M373.84,318.1h-7.77l-.13-.15L358,308.79V318h-.15v.15h-6.2V318l0-9.53v-.5c0-1,0-1.94,0-2.9,0-.17,0-.33,0-.49l0-9.11v-.15H358v8.82l6.4-8.67.11-.15h6.58l-.11.15q-3.87,5.24-7.72,10.48l-.11-.12-.09.12.1.12.1-.12L373.7,318A1.92,1.92,0,0,1,373.84,318.1Z"/>
            <path d="M363.29,305.9l-.1.12-.1-.12.09-.12Z"/>
            <path d="M204.76,306.59a6.54,6.54,0,1,1-6.53-6.54A6.53,6.53,0,0,1,204.76,306.59Z" fill="none" stroke="#000" stroke-miterlimit="10" stroke-width="0.06"/>
            <path d="M198.22,294.16a12.6,12.6,0,0,0-12.37,10.2.4.4,0,0,0,0,.15,12.1,12.1,0,0,0-.21,2.26,12.61,12.61,0,1,0,12.61-12.61Zm0,19a6.54,6.54,0,1,1,6.53-6.53A6.54,6.54,0,0,1,198.23,313.12Z" stroke="#000" stroke-miterlimit="10" stroke-width="0.08"/>
            <path d="M204.76,306.59a6.54,6.54,0,1,1-6.53-6.54A6.53,6.53,0,0,1,204.76,306.59Z" fill="none" stroke="#000" stroke-miterlimit="10" stroke-width="0.08"/>
            <path d="M289.07,301.73a2.47,2.47,0,0,1-2.64,2.24h-2v-4.54l2,0A2.48,2.48,0,0,1,289.07,301.73Z" fill="none" stroke="#000" stroke-miterlimit="10" stroke-width="0.08"/>
            <path d="M290.57,311a3.07,3.07,0,0,1-3.29,2.77l-2.84,0v-5.63c.66,0,2.19.05,2.84.05A3.07,3.07,0,0,1,290.57,311Z" fill="none" stroke="#000" stroke-miterlimit="10" stroke-width="0.07"/>
            <path d="M334,306.51a6.08,6.08,0,0,0,11.66,2.43,2.5,2.5,0,0,0,.15-.38v8.36l-.15.09a12,12,0,0,1-6,1.58,12.08,12.08,0,1,1,6-22.58l.15.09v8.37a2.5,2.5,0,0,0-.15-.38A6.08,6.08,0,0,0,334,306.51Z"/>
            <path d="M290.57,311a3.07,3.07,0,0,1-3.29,2.77l-2.84,0v-5.63c.66,0,2.19.05,2.84.05A3.07,3.07,0,0,1,290.57,311Z" fill="none" stroke="#000" stroke-miterlimit="10" stroke-width="0.05"/>
            <path d="M289.07,301.73a2.47,2.47,0,0,1-2.64,2.24h-2v-4.54l2,0A2.48,2.48,0,0,1,289.07,301.73Z" fill="none" stroke="#000" stroke-miterlimit="10" stroke-width="0.04"/>
          </g>
          <g>
            <rect x="161.36" y="315.77" width="0.15" height="0.15" fill="#9cdde5"/>
            <rect x="155.88" y="315.77" width="0.15" height="0.15" fill="#9cdde5"/>
            <rect x="161.36" y="315.77" width="0.15" height="0.15" fill="#9cdde5"/>
            <rect x="170.34" y="306.58" width="0.15" height="0.15" fill="#9cdde5"/>
            <rect x="170.34" y="306.58" width="0.15" height="0.15" fill="#9cdde5"/>
            <path d="M175.78,293.28v22.64h-5.44v-9.19h.15v-.15h-.15v.15h-8.83v9h-.15v.15H156v-.15h-.15V293.28h5.63v9.19l8.83-.05v-9h.15v-.15Z" fill="#9cdde5"/>
            <path d="M225.68,311v5.2H212.89V316l0-4.9a.76.76,0,0,1,0-.15q-.06-8.91-.13-17.79V293h5.66V311Z" fill="#9cdde5"/>
            <path d="M243.44,311v5.2H230.65V316l0-4.9a.76.76,0,0,1,0-.15q-.06-8.91-.13-17.79V293h5.66V311Z" fill="#9cdde5"/>
            <path d="M288,303.27a6.28,6.28,0,0,0,1.8-4.42c0-2.26-1.47-5.36-4.16-5.69-1.44-.17-10.78-.07-10.78-.07v.15q0,7.08.12,14.17h0c0,1.81.07,3.62.12,5.44h0c0,.91,0,1.81.07,2.73a.38.38,0,0,0,0,.15H287a5.41,5.41,0,0,0,5.27-3.86l0,0C293.23,308.22,291.27,304.88,288,303.27Zm-7.56-5.83,2,0a2.28,2.28,0,1,1,0,4.5h-2Zm2.84,14.37-2.84,0v-5.63c.66,0,2.19.05,2.84.05a2.81,2.81,0,1,1,0,5.55Z" fill="#9cdde5"/>
            <path d="M296.56,315.68l-.06.15h-.19l.06-.15Z" fill="#9cdde5"/>
            <rect x="353.88" y="315.95" width="0.15" height="0.15" fill="#9cdde5"/>
            <rect x="353.88" y="315.95" width="0.15" height="0.15" fill="#9cdde5"/>
            <path d="M359.28,303.9l-.09.12-.1-.12.09-.12Z" fill="#9cdde5"/>
            <path d="M296.56,315.68l-.06.15h-.19l.06-.15Z" fill="#9cdde5"/>
            <path d="M319.55,315.68l-7.47-22.15a.88.88,0,0,0-.05-.15h-1.64l-5.71,0h-.19l-.06.15q-2.51,6.87-5,13.75l-.06.15c-.57,1.57-1.14,3.13-1.7,4.7l-.06.15-1.24,3.43h.19l-.06.15h5.93l.06-.15,1.24-3.43h8.64l1.15,3.43.05.15h6A.88.88,0,0,0,319.55,315.68Zm-14-8.43,2.66-7.31,2.47,7.31Z" fill="#9cdde5"/>
            <path d="M270,315.68q-3.74-11.08-7.48-22.15a.88.88,0,0,0,0-.15h-1.63l-5.71,0H255l-.06.15q-2.52,6.87-5,13.75l-.06.15c-.57,1.57-1.14,3.13-1.7,4.7l-.06.15-1.24,3.43H247l-.06.15h5.92l.06-.15,1.24-3.43h8.64l1.15,3.43,0,.15h6A.88.88,0,0,0,270,315.68Zm-14-8.43,2.66-7.31,2.46,7.31Z" fill="#9cdde5"/>
            <g>
              <path d="M369.83,316.1h-7.77l-.13-.15-7.9-9.16V316h-.15v.15h-6.2V316l0-9.53v-.5c0-1,0-1.94,0-2.9,0-.17,0-.33,0-.49,0-3,0-6.08,0-9.11v-.15H354v8.82l6.39-8.67.11-.15h6.59l-.11.15-7.73,10.48-.1-.12-.09.12.1.12.09-.12L369.7,316Z" fill="#9cdde5"/>
              <path d="M359.28,303.9l-.09.12-.1-.12.09-.12Z" fill="#9cdde5"/>
            </g>
            <path d="M200.76,304.59a6.54,6.54,0,1,1-6.54-6.54A6.53,6.53,0,0,1,200.76,304.59Z" fill="none" stroke="#9cdde5" stroke-miterlimit="10" stroke-width="0.06"/>
            <path d="M194.21,292.16a12.61,12.61,0,0,0-12.37,10.2.4.4,0,0,0,0,.15,12.1,12.1,0,0,0-.21,2.26,12.62,12.62,0,1,0,12.61-12.61Zm0,19a6.54,6.54,0,1,1,6.54-6.53A6.54,6.54,0,0,1,194.22,311.12Z" fill="#9cdde5" stroke="#9cdde5" stroke-miterlimit="10" stroke-width="0.08"/>
            <path d="M200.76,304.59a6.54,6.54,0,1,1-6.54-6.54A6.53,6.53,0,0,1,200.76,304.59Z" fill="none" stroke="#9cdde5" stroke-miterlimit="10" stroke-width="0.08"/>
            <path d="M285.07,299.72a2.47,2.47,0,0,1-2.64,2.25h-2v-4.54l2,0A2.47,2.47,0,0,1,285.07,299.72Z" fill="none" stroke="#9cdde5" stroke-miterlimit="10" stroke-width="0.08"/>
            <path d="M286.56,309a3.07,3.07,0,0,1-3.28,2.78l-2.84,0v-5.63c.66,0,2.19.05,2.84.05A3.06,3.06,0,0,1,286.56,309Z" fill="none" stroke="#9cdde5" stroke-miterlimit="10" stroke-width="0.07"/>
            <path d="M330,304.51a6.08,6.08,0,0,0,11.66,2.43,2.5,2.5,0,0,0,.15-.38v8.36l-.15.09a11.92,11.92,0,0,1-6,1.58,12.08,12.08,0,1,1,6-22.58l.15.09v8.37a2.5,2.5,0,0,0-.15-.38A6.08,6.08,0,0,0,330,304.51Z" fill="#9cdde5"/>
            <path d="M286.56,309a3.07,3.07,0,0,1-3.28,2.78l-2.84,0v-5.63c.66,0,2.19.05,2.84.05A3.06,3.06,0,0,1,286.56,309Z" fill="none" stroke="#9cdde5" stroke-miterlimit="10" stroke-width="0.05"/>
            <path d="M285.07,299.72a2.47,2.47,0,0,1-2.64,2.25h-2v-4.54l2,0A2.47,2.47,0,0,1,285.07,299.72Z" fill="none" stroke="#9cdde5" stroke-miterlimit="10" stroke-width="0.04"/>
          </g>
        </g>
        <g>
          <path d="M303.41,382.31c.28-.42.47-.59.51-.79.11-.56.18-1.16.89-1.24a1,1,0,0,1,1,.6,1.47,1.47,0,0,1-.4,1.75,3.14,3.14,0,0,1-3.24,1,3.93,3.93,0,0,1-3.07-3,8.51,8.51,0,0,1-.45-3.74c.45-2.25.41-4-2.2-4.7a1,1,0,0,1-.5-1.42c.31-.75.88-.59,1.34-.15s.66.21.93-.14c.68-.88.44-4.93-.36-5.75a1.31,1.31,0,0,0-1.48-.51,1.4,1.4,0,0,0-.92,1.31c.06,3.75-.61,7.52.38,11.23a2.09,2.09,0,0,0,1.33,1.57c.44.17,1,.37.77,1a1.12,1.12,0,0,1-1.19.64c-1.51-.09-3-.36-4.52-.42s-3.27-.57-2.95,2c.06.53-.36.87-.87,1a1.63,1.63,0,0,1-1.89-.73,32.83,32.83,0,0,1-1.41-3.14c-1.42.58-2.76,1.5-4.46,1.38-3.78-.27-6-2.39-7.17-6a9.65,9.65,0,0,1,1-7.95,7.53,7.53,0,0,1,9-3.72c1.09.35,2.06,1,3-.26a.58.58,0,0,1,.84-.14c.4.34.19.73,0,1.09a7.67,7.67,0,0,0-.86,3.46c0,.52.11,1.27-.7,1.26s-.79-.69-.92-1.25a3.69,3.69,0,0,0-.94-2.17,3.09,3.09,0,0,0-4-.19c-1.57,1.05-2.3,3.13-1.56,4.41s2.85.78,4.32.1c.41-.19.67-.69,1.32-.5.07,1.38.14,2.79.2,4.2,0,.41,0,.82-.46,1s-.75-.07-1-.44c-.87-1.59-2.38-.89-3.66-1a.89.89,0,0,0-.64.26c-.77.78.19,4.87,1.39,5.76,1.57,1.16,2.84.59,3.91-.8a7.22,7.22,0,0,0,1.28-2.57c.13-.51.27-1.23,1-1.07s.69.81.73,1.36c.12,1.73-.23,3.54.95,5.35a4.54,4.54,0,0,1,2.22-2.59c1-.41,1.17-1.47,1.18-2.45.05-3,.05-6.08.09-9.12a2.66,2.66,0,0,0-1.15-2.26.93.93,0,0,1-.38-1.25.87.87,0,0,1,1.26-.28c1.43,1.08,2.9.51,4.38.23a7.79,7.79,0,0,1,3.8.26c3.81,1.21,4.92,4.73,2.35,7.73-.79.91-1.4,1.3.12,2.16,2.25,1.29,2.19,3.53,1.63,5.74C302.84,379.65,302.3,380.86,303.41,382.31Z" fill="#fefdfd"/>
          <path d="M246.89,372.83c-.41.28-.76.4-.88.63-.84,1.56-1.64,2.8-2.69.13a.88.88,0,0,0-.94-.61c-.5.09-.44.61-.56.95-.89,2.54-.43,3.69,2.17,5.26a2.26,2.26,0,0,1-2.34.81c-1.9-.47-3.74-.82-5.56.31a1.07,1.07,0,0,1-1.61-.54c-.19-.6.42-.92,1-1.14a6.47,6.47,0,0,0,4.11-4.89c.12-.51.27-1-.15-1.26s-.66.14-.89.52a.75.75,0,0,1-1.22.18c-.45-.38-.23-.88,0-1.31a2,2,0,0,1,1.47-1.15c3.11-.3,2.83-3,3.5-5,.39-1.11-.55-1.27-1.38-1.44s-2-.39-1.44-1.63c.46-1.06,1.23-.27,2-.12a15.72,15.72,0,0,0,8.47-.22c.64-.22,1.2-.66,1.61.12s-.25,1.15-.75,1.55c-2.06,1.61-1.51,5.51.94,6.56a3.25,3.25,0,0,1,1.73,1.22c.48.83.53,1.77-.78,1.42-1.48-.39-1.24.24-1,1.16.42,1.67,1,3.22,2.67,4.05.42.2,1.05.27.86.91a1.14,1.14,0,0,1-1.2.64c-1.43-.09-2.85-.27-4.28-.4a4.36,4.36,0,0,0-3,.33c-.54.35-1.18.82-1.65.06a1.11,1.11,0,0,1,.62-1.6C248.25,377.05,247.38,375,246.89,372.83Zm-2.3-7.92c-.67,1.93-1.33,3.54-1.76,5.2-.35,1.34,1,2,1.77,2.07a1.59,1.59,0,0,0,1.82-1.87A15.23,15.23,0,0,0,244.59,364.91Zm6.69,7.67.17.31c.06-.06.16-.12.16-.16a1.2,1.2,0,0,0-.16-.32Z" fill="#fefdfd"/>
          <path d="M261.3,370.25c.2,2,.32,4,.63,5.92.2,1.32.8,2.49,2.42,2.51s1.76-1.22,2-2.29c.38-1.56.65-3.15-.2-4.67-.25-.46-.62-.82-1.14-.64s-.47.6-.21,1c.4.62.51,1.2-.26,1.61a1.09,1.09,0,0,1-1.31-.28,1.7,1.7,0,0,1-.27-2,3.69,3.69,0,0,1,3.45-2.21,4.11,4.11,0,0,1,4.11,2.37,5.87,5.87,0,0,1-1.05,6.63c-2.95,3-8.83,2.54-11.27-.89a11,11,0,0,1,.61-12.67,6.78,6.78,0,0,1,7.12-2.17c1.1.26,2,.8,3.09-.12.46-.4,1.32-.07.95.68a11.37,11.37,0,0,0-.73,4c-.06.45-.11,1-.74,1.08s-.72-.45-.87-.93c-.47-1.57-.6-3.6-2.92-3.43-2.47.17-2.82,2.25-3.19,4.16C261.39,368.63,261.38,369.44,261.3,370.25Z" fill="#fefdfd"/>
          <path d="M225.61,363c1.32-.32,3.16.28,4.75-.8a.84.84,0,0,1,1.38.36c.27.67-.25,1-.74,1.31a1.78,1.78,0,0,1-.91.27c-3-.21-3.61,1.5-3.39,4.06.2,2.38.16,4.78.34,7.17.08,1.15,0,2.75,1.65,2.71,1.34,0,1.06-1.53,1.3-2.48.32-1.23.62-2.47,1-3.7a2.77,2.77,0,0,1,2-1.92.94.94,0,0,1,1.24.42.78.78,0,0,1-.2,1.07c-2.44,1.76-1.68,4.14-1,6.26.54,1.64,0,2-1.38,2.17a17.67,17.67,0,0,1-4.76-.18c-1.7-.2-3.49-.83-5.06.52a.86.86,0,0,1-1.28,0,.92.92,0,0,1,.1-1.47c2.11-1.2,1.74-3.25,1.83-5.1.12-2.47.08-4.94.1-7.42a2.05,2.05,0,0,0-.43-1.56c-.44-.47-1.61-.6-1-1.55.42-.7,1.32-.26,2-.27S224.52,362.93,225.61,363Z" fill="#fefdfd"/>
        </g>
      </g>
    </g>
    <g id="tap">
      <g>
        <g>
          <path d="M203.35,484.83l-.2-.05.1-.08Z" fill="#c79e70"/>
          <path d="M491.76,161.77A251.84,251.84,0,1,0,161.68,491.85l.78.33c17.75,7.5,57.68,37.77,68.93,91.38,23.62,112.6-2.64,156.87-10.52,170.28l0,0s-8.43,5.82-15.25,7.23a8.49,8.49,0,0,0-1.47.38l0,.07c-.68,1.68-2.27,5.12-4.29,9.35l-.12.25c-5.73,12.54-13.81,30.26-13.81,30.26l157-.67S330.5,776.27,324,760.16c0,0-.44,0-1.18-.17a19.29,19.29,0,0,1-11.44-6.47c-13.62-32.46-27.21-82.19-15.46-171.81a176.3,176.3,0,0,1,4.58-23.17,164.19,164.19,0,0,1,10.78-28.88q2.08-4.33,4.27-8.33l.75-1.38a25.38,25.38,0,0,1,5.14-6c9.58-8.77,27.85-18.51,36.15-22l.15-.07a252.13,252.13,0,0,0,134-330.08Zm-463.89,98C27.87,131.76,131.67,28,259.71,28A231.75,231.75,0,0,1,491.55,259.8c0,128.05-103.79,231.85-231.84,231.85a232.12,232.12,0,0,1-56.36-6.9l-.07,0h-.05l-.08,0A231.81,231.81,0,0,1,27.87,259.8Z" fill="#c79e70"/>
        </g>
        <g mask="url(#mask)">
          <path d="M487.05,165.43C452.14,77.67,365.77,15.51,271.15,11.84,220.38,9.15,169.5,24.74,127.36,52.73c-35.23,23.68-64,56.59-83.56,94.18C-10.73,251.76,3,344.74,86,424.64c8.22,7.9,63,41.27,91.06,59.41,23.88,15.46,42.47,39.69,44.79,44.75,43.49,95,22.21,198.69,8.87,215.63a48.19,48.19,0,0,1-9.86,9.41l-.09.07-.21.14a47.61,47.61,0,0,1-6,3.61c-.31.17-.62.32-.92.46-.74.37-1.46.7-2.14,1a43.79,43.79,0,0,1-5.76,2c-1,.26-1.56.38-1.66.4h0l-4.28,9.35-.12.25c-5.73,12.54-13.81,30.26-13.81,30.26l157-.67S330.5,776.27,324,760.16a11.13,11.13,0,0,1-1.18-.17A21.81,21.81,0,0,1,315,756.7a21.49,21.49,0,0,1-2.07-1.58c-.12-.09-.23-.19-.35-.3l-.39-.36-.49-.47c-4.24-4.21-7.38-11.83-10.17-21.28-4.85-16.39-25-94.51-1-174.17a237.92,237.92,0,0,1,10.78-28.88c.61-1.37,1.24-2.73,1.88-4.09a35.49,35.49,0,0,1,2.39-4.24,54.58,54.58,0,0,1,5.89-7.41c20.6-22.1,64.84-41.62,77-48.93C499.89,404,534.53,276.87,487.05,165.43ZM249.71,492.75a231.12,231.12,0,0,1-45.58-6.66l-.2,0A231.81,231.81,0,0,1,28.7,266C26,136.55,130.92,29.33,260.44,29.3a231.74,231.74,0,0,1,231.79,225C496.16,390.63,385.92,499,249.71,492.75Z" fill="#efd7b3"/>
        </g>
        <g mask="url(#mask-2)">
          <path d="M322.83,760c-19.56,8.44-39.56,11.09-56.95,11.09a184.2,184.2,0,0,1-23.69-1.56,196.76,196.76,0,0,1-36.43-8.37l-.16,0a53.16,53.16,0,0,0,5.92-2c.68-.28,1.4-.61,2.14-1l.89-.47h0a191.63,191.63,0,0,0,28.92,6.11c18.77,2.46,45.36,2.89,71.47-7.07A21.81,21.81,0,0,0,322.83,760Z" fill="#c79e70"/>
        </g>
      </g>
    </g>
  </g>
</svg>
