<svg xmlns="http://www.w3.org/2000/svg" xmlns:xlink="http://www.w3.org/1999/xlink" viewBox="0 0 520 810">
  <defs>
    <filter id="luminosity-noclip" x="8.21" y="9.41" width="502" height="795" filterUnits="userSpaceOnUse" color-interpolation-filters="sRGB">
      <feFlood flood-color="#fff" result="bg"/>
      <feBlend in="SourceGraphic" in2="bg"/>
    </filter>
    <mask id="mask" x="8.21" y="9.41" width="502" height="795" maskUnits="userSpaceOnUse">
      <g filter="url(#luminosity-noclip)">
        <image width="502" height="795" transform="translate(8.21 9.41)" xlink:href="beer_data1.png"/>
      </g>
    </mask>
    <filter id="luminosity-noclip-2" x="203.21" y="754.41" width="122" height="19" filterUnits="userSpaceOnUse" color-interpolation-filters="sRGB">
      <feFlood flood-color="#fff" result="bg"/>
      <feBlend in="SourceGraphic" in2="bg"/>
    </filter>
    <mask id="mask-2" x="203.21" y="754.41" width="122" height="19" maskUnits="userSpaceOnUse">
      <g filter="url(#luminosity-noclip-2)">
        <image width="122" height="19" transform="translate(203.21 754.41)" xlink:href="beer_data2.png"/>
      </g>
    </mask>
  </defs>
  <g id="icon">
    <g>
      <circle cx="259.88" cy="259.52" r="232.41" fill="#529740"/>
      <g>
        <g>
          <path d="M208,402.34l-.18-.15a2.61,2.61,0,0,0-1.85-.65,3.2,3.2,0,0,0,.48-.26c.06,0,.1,0,.11-.07a2.75,2.75,0,0,0,1.51-2.29,2.42,2.42,0,0,0-.69-1.65l-.08-.08a3.14,3.14,0,0,0-1.26-.78l-.26-.07a.08.08,0,0,0-.07,0l-.24,0h0c-1.2-.08-4-.05-4.7-.05h-5v1h1.7v10h-1.7v1.19c.41,0,9,.17,10.58,0C209.06,408.43,209.23,403.53,208,402.34Zm-7.24-5.07h1.61a2,2,0,0,1,2,2v.06a2.11,2.11,0,0,1-2.15,1.86c-.61,0-1.14,0-1.46.05ZM205,405a2.63,2.63,0,0,1-2.66,2.24h-1.57v-4.87c.44,0,1.1,0,1.69,0a2.45,2.45,0,0,1,2.55,2.57S205,405,205,405Z" fill="#453509"/>
          <rect x="271.18" y="396.23" width="0.15" height="0.15" fill="#453509"/>
          <rect x="290.56" y="396.23" width="6.45" height="0.15" fill="#453509"/>
          <path d="M308.71,397l-.11-.09a3.6,3.6,0,0,0-2.09-.63h-8.07v1.18H300v10h-1.59v1.07h6.61v-1.07H303.2v-4.46a5.32,5.32,0,0,0,5.21-.25,3.83,3.83,0,0,0,1.62-2.91A3.69,3.69,0,0,0,308.71,397Zm-3.66,4.77-.09,0-.06,0a4.23,4.23,0,0,1-1.7.18v-4.77a6.44,6.44,0,0,1,1.7,0l.15,0,.18,0a2.28,2.28,0,0,1,1.61,1.38A2.49,2.49,0,0,1,305.05,401.72Z" fill="#453509"/>
          <path d="M283.44,408.29h.06v.09Z" fill="#453509"/>
          <rect x="290.56" y="408.29" width="6.45" height="0.15" fill="#453509"/>
          <path d="M214.6,397.14V397h3.52a.58.58,0,0,1,.13.15" fill="#453509"/>
          <polyline points="214.75 396.99 214.6 396.99 214.6 397.14 214.6 401.29" fill="#453509"/>
          <path d="M218.28,397.18v0h0a.58.58,0,0,0-.13-.15H214.6v4.45H217a.87.87,0,0,0,.13-.15,1.15,1.15,0,0,0,.21-.33,1.8,1.8,0,0,0,.11-1h.83v3.87h-.81a2.35,2.35,0,0,0-.13-.57,1.55,1.55,0,0,0-.33-.57.75.75,0,0,0-.16-.15H214.6v4.8h3.68l.15-.11,0,0a3.74,3.74,0,0,0,1.31-2.34h.43v3.41H209.79v-.92h1.69V397h-1.69v-.61h10.43v3.06h-1a4.89,4.89,0,0,0-.83-2.05A1.37,1.37,0,0,0,218.28,397.18Z" fill="#453509"/>
          <path d="M232.07,405.11v3.18H222v-.92h1.71V397H222v-.61h6.55V397h-1.66v10.37H229l.39-.15a3.7,3.7,0,0,0,1.52-1.1,3,3,0,0,0,.51-1Z" fill="#453509"/>
          <path d="M246.78,402.19v.55a2.64,2.64,0,0,0-1,.59,2.49,2.49,0,0,0-.4.46,1.58,1.58,0,0,0-.15.24v2.59a6.64,6.64,0,0,1-2.15,1.67l-.3.15a2.09,2.09,0,0,1-.41.17l-.16.06-.16.07a5.94,5.94,0,0,1-4.9-.3,1.35,1.35,0,0,1-.26-.15,1.65,1.65,0,0,1-.25-.15,7.8,7.8,0,0,1-3.15-4.63,5.46,5.46,0,0,1,1.28-4.87,7.45,7.45,0,0,1,1.67-1.45,7.7,7.7,0,0,1,3.14-1.19,9.45,9.45,0,0,1,1.22-.09c1.53,0,2.93.13,4,1.29v2.33h-1.11a.83.83,0,0,0,0-.15,3.17,3.17,0,0,0-1.59-1.81,2.78,2.78,0,0,0-2.83-.38c-1.48.85-2,2.7-2.2,4.28a6.18,6.18,0,0,0,1.45,4.89,3.18,3.18,0,0,0,2.54,1.19,1.89,1.89,0,0,0,1.1-.57l.14-.15c0-.81,0-1.62,0-2.42v-.35c0-.08-.1-.16-.15-.24a2.2,2.2,0,0,0-1.86-.89v-.74Z" fill="#453509"/>
          <polygon points="252.9 407.41 254.71 407.41 254.71 408.29 247.95 408.29 247.95 407.41 249.74 407.41 249.74 397.22 247.95 397.22 247.95 396.38 254.71 396.38 254.71 397.22 252.9 397.22 252.9 407.41" fill="#453509"/>
          <rect x="269.73" y="407.26" width="0.15" height="0.15" fill="#453509"/>
          <rect x="271.18" y="407.26" width="0.15" height="0.15" fill="#453509"/>
          <rect x="272.27" y="407.26" width="0.15" height="0.15" fill="#453509"/>
          <rect x="273.96" y="407.26" width="0.15" height="0.15" fill="#453509"/>
          <path d="M267.88,407.26l-1.36-3.09-.07-.15-.16-.37-.07-.15-3.11-7.12-.07-.15h-2.21a1,1,0,0,1-.07.15c-.18.42-.38.83-.57,1.25a1.42,1.42,0,0,1-.08.18c-.87,1.9-1.75,3.79-2.62,5.69l-.07.15c-.06.13-.11.25-.17.37l-.07.15-1.42,3.09h-.55v1.18h4.54v-1.18H257.5c.48-1,1-2.06,1.43-3.09h4l1.35,3.09H262.2v1.18h6.59v-1.18Zm-8.64-3.76c.58-1.24,1.15-2.49,1.72-3.73l1.63,3.73Z" fill="#453509"/>
          <path d="M323,407.26l-1.35-3.09-.07-.15-.16-.37-.07-.15-3.12-7.12-.07-.15H316a1,1,0,0,1-.07.15c-.18.42-.38.83-.57,1.25a1.42,1.42,0,0,1-.08.18c-.87,1.9-1.74,3.79-2.62,5.69l-.07.15c-.06.13-.11.25-.17.37l-.07.15-1.42,3.09h-.55v1.18h.15v.05l0-.05h4.37v-1.18h-2.25c.49-1,1-2.06,1.43-3.09h4l1.35,3.09h-2v1.18H324v-1.18Zm-8.64-3.76c.58-1.24,1.15-2.49,1.72-3.73.54,1.24,1.1,2.49,1.64,3.73Z" fill="#453509"/>
          <rect x="269.73" y="397.02" width="0.15" height="0.15" fill="#453509"/>
          <rect x="269.73" y="407.26" width="0.15" height="0.15" fill="#453509"/>
          <rect x="273.96" y="407.26" width="0.15" height="0.15" fill="#453509"/>
          <path d="M279.47,407.76V408l-.15-.22v-.26Z" fill="#453509"/>
          <rect x="283.5" y="397.02" width="0.15" height="0.15" fill="#453509"/>
          <rect x="281.81" y="397.02" width="0.15" height="0.15" fill="#453509"/>
          <rect x="272.27" y="407.26" width="0.15" height="0.15" fill="#453509"/>
          <rect x="271.18" y="396.23" width="0.15" height="0.15" fill="#453509"/>
          <rect x="271.18" y="407.26" width="0.15" height="0.15" fill="#453509"/>
          <rect x="269.73" y="397.02" width="0.15" height="0.15" fill="#453509"/>
          <rect x="281.81" y="397.02" width="0.15" height="0.15" fill="#453509"/>
          <rect x="283.5" y="397.02" width="0.15" height="0.15" fill="#453509"/>
          <rect x="290.56" y="396.23" width="0.15" height="1.18" fill="#453509"/>
          <rect x="290.56" y="407.37" width="0.15" height="1.07" fill="#453509"/>
          <rect x="296.86" y="396.23" width="0.15" height="1.18" fill="#453509"/>
          <rect x="296.86" y="407.37" width="0.15" height="1.07" fill="#453509"/>
          <rect x="290.56" y="407.37" width="1.92" height="0.15" fill="#453509"/>
          <rect x="295.26" y="407.37" width="1.74" height="0.15" fill="#453509"/>
          <rect x="290.56" y="397.26" width="1.92" height="0.15" fill="#453509"/>
          <rect x="295.26" y="397.26" width="1.74" height="0.15" fill="#453509"/>
          <rect x="295.26" y="396.23" width="0.15" height="0.15" fill="#453509"/>
          <rect x="295.26" y="397.26" width="0.15" height="10.26" fill="#453509"/>
          <rect x="295.26" y="408.29" width="0.15" height="0.15" fill="#453509"/>
          <polygon points="295.26 407.52 296.86 407.52 296.86 408.29 290.71 408.29 290.71 407.52 292.49 407.52 292.49 397.26 290.71 397.26 290.71 396.38 296.86 396.38 296.86 397.26 295.26 397.26 295.26 407.52" fill="#453509"/>
          <rect x="292.34" y="396.23" width="0.15" height="0.15" fill="#453509"/>
          <rect x="292.34" y="397.26" width="0.15" height="10.26" fill="#453509"/>
          <rect x="292.34" y="408.29" width="0.15" height="0.15" fill="#453509"/>
          <path d="M279.47,407.76V408l-.15-.22v-.26Z" fill="#453509"/>
          <path d="M279.32,396.23v.94h1.47v7.24l-1.32-1.94-.15-.22c-1.16-1.7-2.31-3.38-3.46-5.08l-.1-.15-.44-.64-.1-.15h-3.89v.15h-.15v-.15h-1.45V397h.15v.15h1.3v10.09h.15v.15h-.15v-.15h-1.3v.15h-.15v1h4.38v-1H274v-.15h-1.54v.15h-.15v-.15h.15v-9.58l6.52,9.58.1.15.28.39v-.26l.15.22V408l.18.27.11.15H282V397.17h-.15V397H282v.15h1.54V397h.15v-.79Zm-7.05,1,0,0h0Z" fill="#453509"/>
        </g>
        <g>
          <g>
            <path d="M190.8,440a.36.36,0,0,0,0,.09,3.59,3.59,0,0,1-1.58,1.75,3.49,3.49,0,0,1-2.28.36l-.12,0,.06-.09a5.06,5.06,0,0,1,1.53-1.81,2.53,2.53,0,0,1,2.33-.33Z" fill="#453509"/>
            <g>
              <path d="M211.41,425s0,0-.07,0a.27.27,0,0,1-.1-.06s0,0,.07-.05Z" fill="#453509"/>
              <path d="M211.35,426.91l-.06.11-.19.1.07-.12h0Z" fill="#453509"/>
              <path d="M224.66,430.49h0Z" fill="#453509"/>
              <path d="M256.82,424.71s0,.05-.08.07a19.1,19.1,0,0,1-3.66,2.76c-4.58,2.65-10,3.45-15.19,3.28-4.14-.12-9.08-1.47-13.22-.32h0a3,3,0,0,0-.32.1l-.21.07-.45.07a34.09,34.09,0,0,0-4.33,1,35,35,0,0,0-16.54,11.06l.2-.41a23.18,23.18,0,0,1,12.61-10.7,28.6,28.6,0,0,1,2.85-.91l.62-.17-.55.05a48.35,48.35,0,0,0-11.36,2.53l-.13,0-.14.05-.14.05a.59.59,0,0,1,0,.13,4.56,4.56,0,0,1-1.36,2.48,8.29,8.29,0,0,1-3.3,1.48c.14-1.17.28-2.39,1.16-3.07l.13-.1-.16,0-.37,0a5.46,5.46,0,0,1-1.49-.39,1.4,1.4,0,0,1-.73-1.12l-.06-.32a.93.93,0,0,0,0-.1,7.9,7.9,0,0,1,3.32-.55,6.72,6.72,0,0,1,2.64,1.05l.41-.13.11,0a70.07,70.07,0,0,1,24.93-3.28h0c1.26,0,2.52,0,3.79,0a18.29,18.29,0,0,0,3.37-.31c-2.73-.49-5.43-1.18-8.08-1.71-.74-.15-1.49-.28-2.24-.39h0c-2.79.21-5.61.08-8.42.22-3.17.15-6.9.65-9.3,2.9l-.14.14c0-.07,0-.13,0-.19.69-2.5,4-2.9,6.28-3.17l4.52-.54c-.87,0-1.75-.06-2.63-.07a31.77,31.77,0,0,0-5.81.1l-.2,0-.13,0a7.58,7.58,0,0,0-1.17-.24l-.08.1a5.52,5.52,0,0,0-.4.66l-.18.08h0l-.07.12.19-.1c-.29.54-.49,1.11-.74,1.69a2.33,2.33,0,0,1-1.51,1.47,5.08,5.08,0,0,1-2.23,0s-.05,0-.05,0c0-.7.81-.94,1.23-1.33a14.4,14.4,0,0,0,1.38-2,6.62,6.62,0,0,1,.59-.7c-.89.09-1.74.33-2.47-.34-.33-.31-.58-.7-.93-1s-.81-.39-1-.8.15-.6.4-.84l.75-.73.08-.08.12,0a14.09,14.09,0,0,1,2.81,1.16l.16.08h0l.18.22a6.5,6.5,0,0,0,.63.66,4.85,4.85,0,0,0,.59.45s0,0-.07.05a.27.27,0,0,0,.1.06s0,0,.07,0a5.19,5.19,0,0,0,.86.41l.12,0a13.48,13.48,0,0,0,4.31.5c2.36,0,4.74,0,7.11.13h0l.64,0q1.51.08,3,.27c.8.1,1.59.24,2.37.38l.39.07a64.65,64.65,0,0,0,8.16,1.27,25,25,0,0,0,3.87-.09h0l.27,0h0a26.11,26.11,0,0,0,12.22-4.65l.09-.06a.71.71,0,0,0,.09.07c.35.29.7.56,1.07.81l.09.07.6.4Z" fill="#453509"/>
              <path d="M211.41,425s0,0-.07,0a.27.27,0,0,1-.1-.06s0,0,.07-.05Z" fill="#453509"/>
              <path d="M211.35,426.91l-.06.11-.19.1.07-.12h0Z" fill="#453509"/>
              <path d="M200.92,427.09s0,0,0,0v0Z" fill="#453509"/>
              <path d="M196.47,427.38l-.09.07a5.68,5.68,0,0,1-4.41,1l-.16,0,.12-.09a6.84,6.84,0,0,1,1.87-1,3.61,3.61,0,0,1,2.55.05Z" fill="#453509"/>
              <path d="M196.41,430.72a5.36,5.36,0,0,1-1.13-.13c.31.05.62.09.93.11Z" fill="#453509"/>
              <path d="M200.92,427.09s0,0,0,0v0Z" fill="#453509"/>
              <path d="M200.92,427.09s0,0,0,0v0Z" fill="#453509"/>
              <path d="M200.92,427.09s0,0,0,0v0Z" fill="#453509"/>
              <path d="M206.37,426.66a1.17,1.17,0,0,1-.05.11c-.29.62-.57,1.24-.83,1.88h0a.58.58,0,0,0-.05.14l-.15.08a10.25,10.25,0,0,1-4.7,1.11h-.12a.39.39,0,0,0,.06-.11l.81-1.62.06-.13c.14-.27.28-.55.41-.83l.07-.11.12,0h0l.15,0c1.35-.19,2.71-.34,4.07-.46Z" fill="#453509"/>
              <path d="M206.31,426.28a17.4,17.4,0,0,1-4,.28h-.11c-.22,0-.44,0-.66-.05a.52.52,0,0,1-.1-.11l-.07-.09a5.26,5.26,0,0,1-1.05-2.95c1.35.21,2.87-.31,4.09.43A6.32,6.32,0,0,1,206.31,426.28Z" fill="#453509"/>
              <path d="M200.5,429.07a2.45,2.45,0,0,1-.65.77l-.14.1a3.47,3.47,0,0,1-.93.44h0a5.55,5.55,0,0,1-2.26.33s-.05,0-.06,0h0l-.2,0c-.31,0-.62-.06-.93-.11h-.09l-.53-.09h-.1c-.5-.08-1-.17-1.5-.21a13.42,13.42,0,0,0-3.35.13c-3.64.54-7,2.16-10.55,3l-.37.08.36-.19A31.33,31.33,0,0,1,195,429.45h0a4.63,4.63,0,0,1,1.4-1.35,6.25,6.25,0,0,1,1.63-.71,5.76,5.76,0,0,1-1.36-.22l-.12,0-.51-.18a4.16,4.16,0,0,1-1.67-1.25c-2.82,1.08-5.94,1.35-8.8,2.34-1.77.61-3.6,1.79-5.55,1.4a2.63,2.63,0,0,1-2.15-2s0-.08,0-.12l.1.05c1.66.89,3.53.51,5.29.06,1.48-.39,3-.75,4.49-1,1.87-.33,4.36-.43,6.2-1.37a3.42,3.42,0,0,1-.22-.61.43.43,0,0,1,0-.11l.1,0,1.45-.21h0l.16,0,.84-.12a4.71,4.71,0,0,1,2.71.13,4,4,0,0,1,1.78,2.38l0,.07h0a1.59,1.59,0,0,1,.07.2.34.34,0,0,1,0,.08h0v0h0a1,1,0,0,1,0,.17v.09h0v0h0a.15.15,0,0,1,0,.07A4.33,4.33,0,0,1,200.5,429.07Z" fill="#453509"/>
              <path d="M191.68,414.4l-.11,0,0-.09.1,0Z" fill="#453509"/>
              <path d="M201.68,436.71a2.85,2.85,0,0,1-.85,1.83,5.82,5.82,0,0,1-4,1.22h-.11a.45.45,0,0,1,0-.12,5.21,5.21,0,0,1,.5-3,4.45,4.45,0,0,1-.91-.31c-.64-.3-1.73-1-1.77-1.82v-.12a.27.27,0,0,0,.13,0c1.34-.19,2.61-.75,4-.86a5.14,5.14,0,0,1,3.09.87.41.41,0,0,1,.11.07l0,.09A15.56,15.56,0,0,0,201.68,436.71Z" fill="#453509"/>
              <path d="M191.32,412.75l-.11.05a.37.37,0,0,1,0-.11l.11-.06A.25.25,0,0,0,191.32,412.75Z" fill="#453509"/>
              <path d="M191.68,414.4l-.11,0,0-.09c0-.1-.07-.19-.1-.29s0-.07,0-.11l.1,0,0,.1a1.45,1.45,0,0,0,.11.29Z" fill="#453509"/>
              <path d="M191.32,412.75l-.11.05a.37.37,0,0,1,0-.11l.11-.06A.25.25,0,0,0,191.32,412.75Z" fill="#453509"/>
              <path d="M195.2,441.11a6.53,6.53,0,0,1-3.16,1.68.41.41,0,0,1,0-.09c-.05-.1-.08-.19-.12-.29a55.63,55.63,0,0,0-8,4.09,74.73,74.73,0,0,1-6.74,4.39l-.29.16a3.15,3.15,0,0,1,.25-.28c4.06-4.23,9.29-7.07,14.51-9.69,0,0,0,0,0,0q0-.3,0-.6a3.43,3.43,0,0,1,.31-1.22l-.5-.05-.1,0a4.09,4.09,0,0,1-1.11-.35,2.82,2.82,0,0,1-.77-.56c-2,2.57-5.29,4.06-8,5.73-2.15,1.3-5.77,4.2-8.55,3.26a1.15,1.15,0,0,1-.17-.06,1.55,1.55,0,0,0,.23-.06c3.32-.79,6.4-2.76,9.29-4.47,1.5-.89,3-1.81,4.43-2.78a9.44,9.44,0,0,0,2.42-2.11,2.67,2.67,0,0,1-.22-.45l.1,0,.54-.22.15-.06.64-.23a.84.84,0,0,0,.14-.06c1.89-.63,4-1,5.6.25l.11.09A5.3,5.3,0,0,1,195.2,441.11Z" fill="#453509"/>
              <path d="M191.52,414a.19.19,0,0,0-.09,0s0-.07,0-.11l.1,0Z" fill="#453509"/>
              <path d="M224.66,430.49h0Z" fill="#453509"/>
            </g>
          </g>
          <g>
            <g>
              <path d="M306.9,422.39l.08,0,.09-.06-.07-.05Z" fill="#453509"/>
              <path d="M307.09,424.26l.07.11.19.1a.33.33,0,0,0-.07-.13h0Z" fill="#453509"/>
              <path d="M294.06,428.77h0Z" fill="#453509"/>
              <path d="M261.58,425.22s0,0,.08.07a18.87,18.87,0,0,0,3.84,2.49c4.76,2.34,10.17,2.75,15.39,2.23,4.12-.41,9-2.1,13.16-1.24h0l.33.07.22.06a3.87,3.87,0,0,1,.45.05,33,33,0,0,1,4.39.73,35,35,0,0,1,17.27,9.89c-.08-.13-.15-.26-.24-.39a23.18,23.18,0,0,0-13.31-9.81c-1-.28-1.93-.52-2.91-.71l-.63-.13.55,0a47.86,47.86,0,0,1,11.51,1.74l.13,0,.15.05.13,0a.56.56,0,0,1,0,.12,4.61,4.61,0,0,0,1.53,2.39,8.31,8.31,0,0,0,3.39,1.24c-.22-1.15-.44-2.36-1.36-3l-.14-.09.15,0,.37-.07a5.35,5.35,0,0,0,1.46-.49,1.38,1.38,0,0,0,.65-1.17c0-.1,0-.21,0-.32a.44.44,0,0,1,0-.1,7.79,7.79,0,0,0-3.35-.32,6.54,6.54,0,0,0-2.56,1.23l-.42-.1-.12,0a70,70,0,0,0-25.09-1.55h0c-1.25.1-2.51.21-3.77.29a19.2,19.2,0,0,1-3.39-.07c2.69-.69,5.33-1.56,7.94-2.27.73-.2,1.47-.38,2.21-.54h0c2.8,0,5.6-.31,8.41-.36,3.18-.07,6.93.17,9.48,2.25l.15.13c0-.06,0-.13-.05-.18-.87-2.45-4.23-2.62-6.48-2.73l-4.56-.22c.88-.1,1.75-.19,2.62-.26a32.51,32.51,0,0,1,5.81-.3l.21,0,.12-.05a8.88,8.88,0,0,1,1.15-.32l.09.1a6.37,6.37,0,0,1,.44.62l.19.08h0a.33.33,0,0,1,.07.13l-.19-.1c.32.53.57,1.08.85,1.64a2.34,2.34,0,0,0,1.61,1.36,5.1,5.1,0,0,0,2.23-.15.07.07,0,0,0,0-.05c0-.69-.87-.87-1.31-1.24a13.24,13.24,0,0,1-1.52-1.89,8,8,0,0,0-.64-.66c.9,0,1.76.22,2.45-.51.3-.33.52-.73.85-1s.78-.44.92-.86-.19-.59-.46-.82l-.8-.67a.35.35,0,0,0-.09-.07l-.11,0a14.44,14.44,0,0,0-2.73,1.35.71.71,0,0,0-.14.1h0a1.88,1.88,0,0,1-.16.23,5.53,5.53,0,0,1-.58.7,5,5,0,0,1-.56.49l.07.05-.09.06-.08,0a5,5,0,0,1-.83.48l-.11.05a13.62,13.62,0,0,1-4.26.79c-2.36.22-4.74.35-7.09.62h0l-.62.07c-1,.12-2,.28-3,.48-.78.15-1.56.34-2.34.54l-.38.09a63.77,63.77,0,0,1-8.05,1.84,23.88,23.88,0,0,1-3.87.17h0l-.27,0h0a26,26,0,0,1-12.51-3.79l-.09-.06a.34.34,0,0,1-.09.08,12.13,12.13,0,0,1-1,.89l-.09.07c-.18.15-.37.3-.57.44Z" fill="#453509"/>
              <path d="M306.9,422.39l.08,0,.09-.06-.07-.05Z" fill="#453509"/>
              <path d="M307.09,424.26l.07.11.19.1a.33.33,0,0,0-.07-.13h0Z" fill="#453509"/>
              <path d="M317.51,423.72s0,0,0,0v0Z" fill="#453509"/>
              <path d="M322,423.71l.11.06a5.64,5.64,0,0,0,4.46.68l.15,0-.12-.08a6.35,6.35,0,0,0-1.94-.9,3.53,3.53,0,0,0-2.54.22Z" fill="#453509"/>
              <path d="M322.26,427a4.62,4.62,0,0,0,1.11-.2,9.12,9.12,0,0,1-.91.17Z" fill="#453509"/>
              <path d="M317.51,423.72s0,0,0,0v0Z" fill="#453509"/>
              <path d="M317.51,423.72s0,0,0,0v0Z" fill="#453509"/>
              <path d="M317.51,423.72s0,0,0,0v0Z" fill="#453509"/>
              <path d="M312,423.68l.06.1c.34.6.65,1.2,1,1.82h0a1,1,0,0,1,.06.14l.16.07a10.22,10.22,0,0,0,4.76.77h.11l-.06-.1-.92-1.56c0-.05-.05-.09-.07-.13-.16-.26-.32-.54-.47-.8l-.07-.11h-.29c-1.36-.1-2.73-.16-4.1-.18Z" fill="#453509"/>
              <path d="M312.08,423.3a17.35,17.35,0,0,0,4,0h.12l.65-.09a.51.51,0,0,0,.09-.13A.28.28,0,0,0,317,423a5.15,5.15,0,0,0,.85-3c-1.33.3-2.88-.11-4.05.72A6.31,6.31,0,0,0,312.08,423.3Z" fill="#453509"/>
              <path d="M318.06,425.67a2.48,2.48,0,0,0,.71.73l.14.08a3.38,3.38,0,0,0,1,.38h0a5.46,5.46,0,0,0,2.28.17s.05,0,.06,0h0l.2,0a9.12,9.12,0,0,0,.91-.17l.1,0,.52-.12h0l.1,0c.49-.12,1-.24,1.48-.32a13.91,13.91,0,0,1,3.35-.1c3.67.29,7.13,1.67,10.73,2.29a2.5,2.5,0,0,0,.38.06l-.37-.16a31.22,31.22,0,0,0-16.12-2.76h0a4.54,4.54,0,0,0-1.49-1.26,6.45,6.45,0,0,0-1.68-.59,6.21,6.21,0,0,0,1.34-.31.43.43,0,0,0,.12,0,5.32,5.32,0,0,0,.5-.21,4.36,4.36,0,0,0,1.58-1.37c2.88.88,6,.94,8.94,1.73,1.81.49,3.71,1.53,5.64,1a2.65,2.65,0,0,0,2-2.16.62.62,0,0,1,0-.13.21.21,0,0,1-.1.06c-1.59,1-3.49.75-5.27.42-1.51-.28-3-.54-4.55-.7-1.89-.2-4.38-.13-6.28-.94a2.66,2.66,0,0,0,.17-.63.18.18,0,0,0,0-.1h-.1l-1.46-.12h-.16l-.86-.06a4.55,4.55,0,0,0-2.68.32,3.89,3.89,0,0,0-1.61,2.48.16.16,0,0,0,0,.09h0a0,0,0,0,0,0,0h0l-.06.19a.24.24,0,0,1,0,.08h0v0h0a.88.88,0,0,0,0,.17v.08h0v0h0s0,.05,0,.07A4.51,4.51,0,0,0,318.06,425.67Z" fill="#453509"/>
              <path d="M325.85,410.43l.11,0a.29.29,0,0,0,0-.1l-.1,0Z" fill="#453509"/>
              <path d="M317.42,433.37a2.85,2.85,0,0,0,1,1.77,5.75,5.75,0,0,0,4,.94h.11V436a5.25,5.25,0,0,0-.71-2.93,5,5,0,0,0,.89-.38c.61-.34,1.66-1.13,1.64-1.94a.41.41,0,0,0,0-.11l-.13,0c-1.35-.1-2.65-.57-4-.58a5.22,5.22,0,0,0-3,1.08l-.1.07a.17.17,0,0,1,0,.1A15.28,15.28,0,0,1,317.42,433.37Z" fill="#453509"/>
              <path d="M326.09,408.76l.12,0v-.12l-.12,0A.13.13,0,0,1,326.09,408.76Z" fill="#453509"/>
              <path d="M325.85,410.43l.11,0a.29.29,0,0,0,0-.1,1.4,1.4,0,0,0,.09-.29.45.45,0,0,1,0-.11l-.1,0a.43.43,0,0,0,0,.11c0,.1-.06.2-.1.3Z" fill="#453509"/>
              <path d="M326.09,408.76l.12,0v-.12l-.12,0A.13.13,0,0,1,326.09,408.76Z" fill="#453509"/>
              <path d="M327.82,437a5.82,5.82,0,0,0-.05-.6,3.39,3.39,0,0,0-.39-1.2l.49-.08.11,0a3.64,3.64,0,0,0,1.07-.43,2.71,2.71,0,0,0,.74-.61c2.16,2.43,5.56,3.68,8.42,5.16,2.24,1.15,6.05,3.79,8.75,2.67l.18-.08-.24,0c-3.36-.56-6.57-2.31-9.58-3.82-1.56-.78-3.09-1.6-4.61-2.46a9.46,9.46,0,0,1-2.56-1.94,2.72,2.72,0,0,0,.19-.47l-.1,0c-.19-.07-.37-.13-.56-.18l-.15,0-.65-.19-.15,0c-1.93-.51-4-.68-5.57.63a.48.48,0,0,1-.11.09c0,1.41.09,2.94,1.14,4a6.5,6.5,0,0,0,3.27,1.46l.22-.37a37.38,37.38,0,0,1,8.22,3.5,74.58,74.58,0,0,0,7,3.91l.3.14a3.38,3.38,0,0,0-.27-.26c-4.34-3.94-9.76-6.41-15.14-8.66" fill="#453509"/>
              <path d="M326,410l.09,0a.45.45,0,0,1,0-.11l-.1,0A.43.43,0,0,0,326,410Z" fill="#453509"/>
              <path d="M294.06,428.77h0Z" fill="#453509"/>
            </g>
            <path d="M328,435.54a.39.39,0,0,1,0,.09,3.52,3.52,0,0,0,4,1.9l.12,0-.06-.1a5.36,5.36,0,0,0-1.63-1.72,2.5,2.5,0,0,0-2.34-.2A.21.21,0,0,0,328,435.54Z" fill="#453509"/>
          </g>
        </g>
        <g>
          <path d="M255.32,435.67h0s0,0,0,0Z" fill="#453509"/>
          <path d="M255.19,435.72h0v0Z" fill="#453509"/>
          <path d="M255.32,435.67h0s0,0,0,0Z" fill="#453509"/>
          <path d="M255.32,435.8s0,0,0,0h0Z" fill="#453509"/>
          <path d="M254.56,435.84V436a6.17,6.17,0,0,1-.15,1.22,10.56,10.56,0,0,1-.68,1.88,15.34,15.34,0,0,0-1.89,2.29,3.19,3.19,0,0,0-.26,3.06c.37.79,1,1.61.51,2.46a.75.75,0,0,1-.07.12s0,0,0,0a2,2,0,0,1-.61.57,5.25,5.25,0,0,0-.61-1.7c-.86-1.58-1.72-2.92-1.6-4.8a7.41,7.41,0,0,1,4.62-6.16,7.21,7.21,0,0,1,.74.36A5.06,5.06,0,0,1,254.56,435.84Z" fill="#453509"/>
          <path d="M258.87,439.21a5.59,5.59,0,0,1-2.29,3.92,5.63,5.63,0,0,0,.31-1.24,1.24,1.24,0,0,0,0-.27,4.28,4.28,0,0,0,.4-2.89,5.11,5.11,0,0,0-1.69-2.81,2.5,2.5,0,0,0,.07-.26,2.69,2.69,0,0,0,.62-.34,2.26,2.26,0,0,0,.47-.51A5.83,5.83,0,0,1,258.87,439.21Z" fill="#453509"/>
          <path d="M255.19,435.72h0v0Z" fill="#453509"/>
          <path d="M255.32,435.68h0Z" fill="#453509"/>
          <path d="M256.8,441.6a1.45,1.45,0,0,1,0,.29,5.1,5.1,0,0,1-.37,1.39,2.29,2.29,0,0,1-.1.23,5.93,5.93,0,0,1-3.43,3.12,5.68,5.68,0,0,0,.09-.84c.07-1.8-.32-3.53.3-5.28.17-.47.37-.94.57-1.41a7.4,7.4,0,0,0,1.08-1.42,5.52,5.52,0,0,0,.28-.54c0-.1.09-.2.14-.31h0c.08-.2.15-.39.21-.58a15.37,15.37,0,0,1,1.28,4.36A6.52,6.52,0,0,1,256.8,441.6Z" fill="#453509"/>
          <path d="M256,434.21a7.26,7.26,0,0,1-.21,1.32l-.18.07-.1,0h0l-.1-.07a5.57,5.57,0,0,0-.57-.37l-.11-.06a6.54,6.54,0,0,0-.59-.3l.53-.2a.46.46,0,0,1,.1-.05l.35-.11a.35.35,0,0,1,.11,0l.13,0,.11,0A5.54,5.54,0,0,1,256,434.21Z" fill="#453509"/>
          <path d="M255.32,435.67h0s0,0,0,0Z" fill="#453509"/>
          <path d="M255.32,435.8s0,0,0,0h0Z" fill="#453509"/>
          <path d="M255.83,433.9s1.11-2.74.62-3.55l.76,0s-.3,3.43-.76,3.77A.38.38,0,0,0,255.83,433.9Z" fill="#453509"/>
        </g>
        <g>
          <path d="M263.85,434.58h0v0a0,0,0,0,1,0,0s0,0,0,0Z" fill="#453509"/>
          <path d="M264,434.58h0s0,0,0,0Z" fill="#453509"/>
          <path d="M263.85,434.58h0v0a0,0,0,0,1,0,0s0,0,0,0Z" fill="#453509"/>
          <path d="M263.89,434.7h0Z" fill="#453509"/>
          <path d="M264.61,434.47l0,.11a7.53,7.53,0,0,0,.57,1.09,11,11,0,0,0,1.29,1.53,14.9,14.9,0,0,1,2.57,1.48,3.19,3.19,0,0,1,1.31,2.78c-.07.87-.33,1.84.38,2.48l.11.09,0,0a1.86,1.86,0,0,0,.77.32,5.23,5.23,0,0,1,0-1.81c.26-1.77.6-3.33-.17-5.05a7.41,7.41,0,0,0-6.48-4.16,6.37,6.37,0,0,0-.57.59C264.49,434.13,264.55,434.3,264.61,434.47Z" fill="#453509"/>
          <path d="M261.75,439.13a5.66,5.66,0,0,0,3.51,2.88,5.69,5.69,0,0,1-.73-1.06,2.56,2.56,0,0,1-.11-.24,4.28,4.28,0,0,1-1.39-2.56,5.13,5.13,0,0,1,.61-3.23c-.06-.07-.1-.14-.16-.22a2.37,2.37,0,0,1-.69-.11,1.9,1.9,0,0,1-.62-.31A5.86,5.86,0,0,0,261.75,439.13Z" fill="#453509"/>
          <path d="M264,434.58h0s0,0,0,0Z" fill="#453509"/>
          <path d="M263.85,434.58v0a0,0,0,0,1,0,0Z" fill="#453509"/>
          <path d="M264.53,440.65a1.05,1.05,0,0,0,.13.26,5.13,5.13,0,0,0,.83,1.18,1.45,1.45,0,0,0,.18.17A5.9,5.9,0,0,0,270,444a6,6,0,0,1-.38-.76c-.7-1.67-.93-3.42-2.12-4.85-.33-.38-.68-.75-1-1.11a8.26,8.26,0,0,1-1.51-1c-.15-.13-.3-.26-.44-.4l-.24-.24h0c-.14-.15-.27-.31-.4-.47a15,15,0,0,0,.32,4.54A4.88,4.88,0,0,0,264.53,440.65Z" fill="#453509"/>
          <path d="M262.75,433.43a6.91,6.91,0,0,0,.65,1.16,1.33,1.33,0,0,0,.2,0,.34.34,0,0,0,.1,0h0v0l.07-.1c.13-.19.26-.37.4-.54l.09-.1a5.11,5.11,0,0,1,.45-.48,5.42,5.42,0,0,0-.57,0H264l-.37,0h-.11l-.14,0a.21.21,0,0,0-.11,0A4.8,4.8,0,0,0,262.75,433.43Z" fill="#453509"/>
          <path d="M263.85,434.58h0v0a0,0,0,0,1,0,0s0,0,0,0Z" fill="#453509"/>
          <path d="M263.89,434.7h0Z" fill="#453509"/>
          <path d="M262.75,433.1s-2-2.19-1.82-3.12l-.69.31s1.47,3.12,2,3.28C262.27,433.57,262.16,433,262.75,433.1Z" fill="#453509"/>
        </g>
      </g>
      <g>
        <g>
          <path d="M170.17,308.77s48.31-107.7,106.11-59C276.28,249.77,258.47,304,170.17,308.77Z" fill="#92bb4d"/>
          <path d="M104.41,277.87s25.73-21.78,40-23.17c11.21-1.09,21.38,19.61,38.41,21.59C182.81,276.29,182.81,291.73,104.41,277.87Z" fill="#92bb4d"/>
          <path d="M139.29,241.06s-29.31,9.5-38,31.68-26.13-33.26,6.34-58.61C107.61,214.13,142.06,242.25,139.29,241.06Z" fill="#92bb4d"/>
          <path d="M107.61,201.46s37.61-18.61,38.8-23,18.22,24.94,23.76,24.94c2.86,0-4.87,10.11-15.79,13.84-10.66,3.64-13.42,17.33-14.7,14.28C135.74,222.13,138,227.16,107.61,201.46Z" fill="#92bb4d"/>
          <path d="M93.85,174.81c.34-.67,1.53-30.59,59.34-18.59,0,0-5.92,35.5-58.15,19.1" fill="#92bb4d"/>
          <path d="M192.4,100.61s-10.31,6.59-3.71,29.75-65.08,16.06-65.08,16.06S175.5,96.72,192.4,100.61Z" fill="#92bb4d"/>
          <path d="M198.54,97.1l25.27-8.42a136.94,136.94,0,0,1,60-6l15.77,1.93s-23.22,25.57-33.13,24.93c-32.78-2.1-47.05,22.51-47.05,22.51S199.9,109.32,198.54,97.1Z" fill="#92bb4d"/>
          <path d="M376.83,155.26s-18.27,31.16-17.91,58c0,0-13.95,11.94-70.19-6.81C287.66,206.11,315.59,126.26,376.83,155.26Z" fill="#92bb4d"/>
          <path d="M389.72,159.56s-28.65-.54-18.27,108.15c0,0,71.29-52,41.9-92.86-.22-.31,9,21.85-19.27,36.18a4.63,4.63,0,0,1-3.55.2s2.3-15.69,3.77-27.9C395.74,171.43,391.77,160.42,389.72,159.56Z" fill="#92bb4d"/>
          <path d="M354.4,142s-66.89-61-119.28-3.63c0,0,43.5,16.15,54.7,45.8C289.82,184.19,318.16,129.5,354.4,142Z" fill="#92bb4d"/>
          <path d="M300.91,89.91c.31-1,72.35-20.66,88.81,59.45.62,3,.35,2.5.35,2.5S295.9,106.74,300.91,89.91Z" fill="#92bb4d"/>
          <path d="M342.27,228.81c-.1-1.32-28.74-15.93-40.29-5.31S269.8,290.66,245.44,300C245.44,300,347,293.16,342.27,228.81Z" fill="#92bb4d"/>
          <path d="M211.91,203s45.42-54.08,75.42-9.5c0,0-9.08,20.32,5,26.65,0,0-6.61,17.15-11,14.25-1.85-1.22-8.93-13.35-23.13-14.52C235.58,218,214.79,208,211.91,203Z" fill="#92bb4d"/>
          <path d="M151.55,234.94s27.72-30.3,32.3-27.24c3.26,2.18,45.07,13.08,58.64,18.16,3.15,1.18-18,4.7-21.05,6.11-10.86,5-24.5,14.59-27.59,31.73C193.85,263.7,155.84,261.25,151.55,234.94Z" fill="#92bb4d"/>
          <path d="M154.25,174.88c-1.17.25,28.93,37.24,35.92,30.92s63.52-42.07,63.52-42.07L204.8,128.09S180.85,169.22,154.25,174.88Z" fill="#92bb4d"/>
          <g>
            <path d="M135.89,323.07c0,.06,0,.12,0,.19a6.87,6.87,0,0,1-2.38,3.76,6.79,6.79,0,0,1-4.12,1.4h-.23l.08-.21a9.93,9.93,0,0,1,2.26-3.85,4.81,4.81,0,0,1,4.23-1.36Z" fill="#453509"/>
            <g>
              <path d="M169.4,288.64a.27.27,0,0,0-.12.1.5.5,0,0,1-.2-.08s.06-.08.1-.1Z" fill="#453509"/>
              <path d="M169.88,292.15a2,2,0,0,0-.06.23l-.33.25c0-.09.06-.17.08-.25v0Z" fill="#453509"/>
              <path d="M195.77,294.56h0a.34.34,0,0,0-.14,0A.76.76,0,0,1,195.77,294.56Z" fill="#453509"/>
              <path d="M253.67,273.52a.28.28,0,0,1-.12.16,36.33,36.33,0,0,1-5.92,6.29c-7.67,6.4-17.39,9.59-27.18,11-7.74,1.09-17.35.16-24.67,3.62h0a.76.76,0,0,0-.16,0,.34.34,0,0,1,.14,0c-.21.08-.37.19-.58.28l-.36.21c-.27.08-.54.17-.81.28a63,63,0,0,0-7.71,3.31,66,66,0,0,0-27.2,25.84c.08-.27.16-.55.25-.82,3.18-10.2,10.85-18.53,20-23.92a55,55,0,0,1,5-2.61c.36-.17.73-.35,1.1-.51l-1,.27a90,90,0,0,0-20.31,8.35l-.22.12-.25.14-.23.14a1,1,0,0,1,0,.24,8.57,8.57,0,0,1-1.72,5.05,15.39,15.39,0,0,1-5.65,3.79c-.12-2.2-.26-4.52,1.15-6.07l.22-.22a1.45,1.45,0,0,1-.3,0,5.37,5.37,0,0,1-.7,0,10.11,10.11,0,0,1-2.9-.24,2.59,2.59,0,0,1-1.71-1.85c-.07-.19-.14-.37-.22-.56a.6.6,0,0,0-.08-.19,14.44,14.44,0,0,1,6-2.07,12.33,12.33,0,0,1,5.24,1.1l.72-.38a1,1,0,0,1,.21-.1,131.85,131.85,0,0,1,45.26-14.07h0c2.34-.38,4.7-.74,7-1.16a35.68,35.68,0,0,0,6.18-1.64c-5.24-.05-10.47-.47-15.56-.61q-2.16-.06-4.29,0s0,0,0,0c-5.12,1.28-10.39,1.94-15.56,3.1-5.86,1.31-12.61,3.42-16.35,8.37a2.1,2.1,0,0,0-.22.3c0-.12,0-.24,0-.35.49-4.87,6.57-6.69,10.65-7.9l8.24-2.45c-1.64.21-3.29.44-4.92.7-3,.47-7.24.82-10.76,2.06l-.37.13a1,1,0,0,1-.24,0,18.73,18.73,0,0,0-2.25-.06,2.25,2.25,0,0,0-.12.21,11.87,11.87,0,0,0-.54,1.35l-.31.21v0c0,.08-.06.16-.08.25l.33-.25c-.37,1.1-.57,2.22-.84,3.38a4.38,4.38,0,0,1-2.34,3.21,9.78,9.78,0,0,1-4.15.72s-.09,0-.09-.07c-.27-1.28,1.2-2,1.84-2.85.93-1.23,1.26-2.8,1.94-4.15a13.23,13.23,0,0,1,.88-1.49c-1.63.45-3.13,1.18-4.71.16-.7-.47-1.3-1.11-2-1.52s-1.62-.46-2.06-1.17.09-1.18.48-1.7l1.15-1.59a1,1,0,0,1,.14-.17.86.86,0,0,1,.23,0,27.51,27.51,0,0,1,5.6,1.26,1.86,1.86,0,0,1,.31.1h0a3.25,3.25,0,0,0,.39.35,10.87,10.87,0,0,0,1.39,1,11.29,11.29,0,0,0,1.23.66s-.06.06-.1.1a.5.5,0,0,0,.2.08.27.27,0,0,1,.12-.1,8.37,8.37,0,0,0,1.74.49.64.64,0,0,0,.22,0c2.67.48,5.47-.05,8.16-.45,4.42-.66,8.83-1.48,13.26-2h0l1.18-.14q2.85-.35,5.73-.47c1.51-.07,3-.07,4.53-.06H205c5.19.07,10.4.36,15.57-.24a45.34,45.34,0,0,0,7.16-1.41h0a2.88,2.88,0,0,0,.5-.15h0a49.16,49.16,0,0,0,21.21-12.55s.09-.08.15-.14a.81.81,0,0,0,.18.1c.74.43,1.5.82,2.27,1.17a1,1,0,0,0,.18.1c.41.19.83.38,1.24.55Z" fill="#453509"/>
              <path d="M169.4,288.64a.27.27,0,0,0-.12.1.5.5,0,0,1-.2-.08s.06-.08.1-.1Z" fill="#453509"/>
              <path d="M169.88,292.15a2,2,0,0,0-.06.23l-.33.25c0-.09.06-.17.08-.25v0Z" fill="#453509"/>
              <path d="M150.56,295.82s0,0,0,0,0,0,0,0Z" fill="#453509"/>
              <path d="M142.4,297.79l-.16.16a10.7,10.7,0,0,1-7.88,3.24h-.29a1.75,1.75,0,0,1,.19-.2,12.19,12.19,0,0,1,3.15-2.52,6.7,6.7,0,0,1,4.75-.73A2.1,2.1,0,0,1,142.4,297.79Z" fill="#453509"/>
              <path d="M143.35,304a10.22,10.22,0,0,1-2.14.13c.58,0,1.18,0,1.75-.09Z" fill="#453509"/>
              <path d="M150.56,295.82s0,0,0,0,0,0,0,0Z" fill="#453509"/>
              <path d="M150.56,295.82s0,0,0,0,0,0,0,0Z" fill="#453509"/>
              <path d="M150.56,295.82s0,0,0,0,0,0,0,0Z" fill="#453509"/>
              <path d="M160.56,293.29c0,.08,0,.15-.06.22-.35,1.25-.66,2.49-.94,3.75v0a1.16,1.16,0,0,0-.05.28l-.26.2a19.33,19.33,0,0,1-8.37,3.56l-.22,0a1,1,0,0,0,.07-.21c.34-1.09.66-2.18,1-3.27,0-.1.06-.18.08-.27.18-.55.34-1.12.5-1.67a2.09,2.09,0,0,0,.08-.23l.22-.07h0l.27-.08c2.45-.8,4.94-1.51,7.43-2.17Z" fill="#453509"/>
              <path d="M160.31,292.61A33,33,0,0,1,153,294.4l-.21,0c-.42.06-.82.1-1.24.13l-.23-.19-.15-.14a9.89,9.89,0,0,1-2.9-5.15c2.58,0,5.23-1.5,7.75-.5C157.88,289.32,159,291.06,160.31,292.61Z" fill="#453509"/>
              <path d="M150.42,299.63a4.5,4.5,0,0,1-1,1.66l-.21.21a6.69,6.69,0,0,1-1.59,1.12h0l0,0a10.33,10.33,0,0,1-4.1,1.34.2.2,0,0,0-.11,0h0l-.39,0c-.57.05-1.17.08-1.75.09H141c-.34,0-.66,0-1,0h-.2c-1,0-1.91,0-2.86.08a26,26,0,0,0-6.17,1.31c-6.59,2.18-12.31,6.25-18.63,9a5.44,5.44,0,0,1-.66.28l.59-.47a59,59,0,0,1,28.29-12.27h0a8.91,8.91,0,0,1,2.16-3,12.13,12.13,0,0,1,2.82-1.84,11.3,11.3,0,0,1-2.6,0,1.81,1.81,0,0,1-.23,0,8.87,8.87,0,0,1-1-.17,8,8,0,0,1-3.51-1.79c-4.89,2.9-10.59,4.41-15.6,7.16-3.1,1.71-6.11,4.48-9.87,4.38a5,5,0,0,1-4.63-3.06c0-.07,0-.15-.08-.23a.56.56,0,0,0,.2.06c3.37,1.13,6.73-.18,9.84-1.58,2.64-1.2,5.31-2.35,8-3.33,3.38-1.21,8-2.19,11.1-4.53a5.18,5.18,0,0,1-.61-1.07.41.41,0,0,1-.08-.19l.17-.06c.88-.3,1.77-.6,2.64-.87h0l.28-.08,1.54-.5c1.61-.5,3.36-1.13,5.06-.62,1.92.57,3.08,2.14,4.06,3.84a1.13,1.13,0,0,1,.1.13s0,0,0,0h0s0,0,0,0h0c.06.11.12.21.18.33a.47.47,0,0,1,.08.14h0v0h0a1.2,1.2,0,0,1,0,.31,1.1,1.1,0,0,1,0,.16h0s0,0,0,0,0,0,0,0a.62.62,0,0,1,0,.13A8.48,8.48,0,0,1,150.42,299.63Z" fill="#453509"/>
              <path d="M129.34,275.2l-.19.1a1.63,1.63,0,0,1-.11-.17l.18-.09A.83.83,0,0,0,129.34,275.2Z" fill="#453509"/>
              <path d="M155.05,313.46a5.39,5.39,0,0,1-1,3.67c-1.63,2.22-4.38,3-7,3.53l-.2,0a1.41,1.41,0,0,1-.06-.22,9.93,9.93,0,0,1,0-5.69,9,9,0,0,1-1.79-.3c-1.28-.35-3.54-1.32-3.88-2.81a1.46,1.46,0,0,1,0-.22.57.57,0,0,0,.23-.08c2.43-.79,4.61-2.23,7.08-2.86a9.72,9.72,0,0,1,6,.63.58.58,0,0,1,.22.08.62.62,0,0,0,0,.19A30.5,30.5,0,0,0,155.05,313.46Z" fill="#453509"/>
              <path d="M128.14,272.25c-.07,0-.13.1-.19.14a1.42,1.42,0,0,1,0-.22l.19-.13A.36.36,0,0,0,128.14,272.25Z" fill="#453509"/>
              <path d="M129.34,275.2l-.19.1a1.63,1.63,0,0,1-.11-.17,4.76,4.76,0,0,1-.28-.49l-.11-.19.18-.1a1.54,1.54,0,0,0,.08.19,3.21,3.21,0,0,0,.31.5A.83.83,0,0,0,129.34,275.2Z" fill="#453509"/>
              <path d="M128.14,272.25c-.07,0-.13.1-.19.14a1.42,1.42,0,0,1,0-.22l.19-.13A.36.36,0,0,0,128.14,272.25Z" fill="#453509"/>
              <path d="M144.42,323.71c-1.21,2-3.31,3.14-5.33,4.13a.36.36,0,0,1-.12-.16,3.21,3.21,0,0,1-.31-.5c0-.06-9.56,6.16-13.64,10.18a140.22,140.22,0,0,1-11.12,10.31c-.16.14-.33.27-.49.39a4,4,0,0,1,.39-.59c6.17-9.17,15-16.11,23.85-22.65,0,.08,0,0,0,0a10.91,10.91,0,0,1-.19-1.12,6.34,6.34,0,0,1,.19-2.37c-.33,0-.63.05-.94.07h-.21a7.27,7.27,0,0,1-2.16-.3,5.19,5.19,0,0,1-1.62-.79c-2.88,5.41-8.53,9.23-13.12,13.21-3.58,3.11-9.37,9.66-14.83,8.81l-.35-.07a3,3,0,0,0,.41-.18c5.91-2.53,11-7.17,15.83-11.29,2.51-2.12,5-4.3,7.34-6.57a17.85,17.85,0,0,0,3.82-4.69,4.52,4.52,0,0,1-.55-.77l.17-.11.94-.58.25-.16,1.11-.63.26-.15c3.3-1.79,7.05-3,10.47-1.33l.24.12C145.36,318.49,145.87,321.33,144.42,323.71Z" fill="#453509"/>
              <path d="M128.91,274.54a.56.56,0,0,0-.15.1l-.11-.19.18-.1A1.54,1.54,0,0,0,128.91,274.54Z" fill="#453509"/>
              <path d="M195.77,294.56h0a.34.34,0,0,0-.14,0A.76.76,0,0,1,195.77,294.56Z" fill="#453509"/>
            </g>
          </g>
          <g>
            <path d="M253.22,291.92h0v0a0,0,0,0,0,0,0,0,0,0,0,0,0,0Z" fill="#453509"/>
            <path d="M253,292a0,0,0,0,0,0,0s0,0,0,0S253,292,253,292Z" fill="#453509"/>
            <path d="M253.22,291.92h0v0a0,0,0,0,0,0,0,0,0,0,0,0,0,0Z" fill="#453509"/>
            <path d="M253.22,292.14s0,0,0,0h0S253.21,292.14,253.22,292.14Z" fill="#453509"/>
            <path d="M251.85,292.23v.2a12.84,12.84,0,0,1-.28,2.22,19.41,19.41,0,0,1-1.23,3.42,26.32,26.32,0,0,0-3.44,4.16,5.8,5.8,0,0,0-.48,5.57c.68,1.44,1.74,2.93.93,4.47l-.13.23a.21.21,0,0,0,0,.06,3.56,3.56,0,0,1-1.11,1,9.23,9.23,0,0,0-1.11-3.1c-1.56-2.86-3.13-5.3-2.91-8.72.35-5.22,3.89-9.16,8.41-11.21a11.17,11.17,0,0,1,1.35.65C251.84,291.55,251.85,291.89,251.85,292.23Z" fill="#453509"/>
            <path d="M259.68,298.35c-.15,2.84-1.9,5.28-4.16,7.13a10.25,10.25,0,0,0,.57-2.26,2.59,2.59,0,0,0,0-.48,7.72,7.72,0,0,0,.74-5.25,9.29,9.29,0,0,0-3.08-5.12c.05-.16.09-.31.13-.47a4.74,4.74,0,0,0,1.12-.63,3.78,3.78,0,0,0,.86-.93C258.09,292.54,259.84,295.13,259.68,298.35Z" fill="#453509"/>
            <path d="M253,292a0,0,0,0,0,0,0s0,0,0,0S253,292,253,292Z" fill="#453509"/>
            <path d="M253.22,291.93v0a0,0,0,0,0,0,0Z" fill="#453509"/>
            <path d="M255.91,302.71a2.16,2.16,0,0,1-.06.51,9.61,9.61,0,0,1-.68,2.55,1.81,1.81,0,0,1-.19.4,10.73,10.73,0,0,1-6.23,5.69,12.57,12.57,0,0,0,.16-1.53c.14-3.29-.57-6.42.56-9.61.31-.86.67-1.71,1-2.56a14.23,14.23,0,0,0,2-2.6c.17-.32.35-.63.5-1,.09-.18.17-.37.25-.56h0c.15-.35.27-.7.39-1,1,2.59,2.12,5.15,2.33,7.94A9.83,9.83,0,0,1,255.91,302.71Z" fill="#453509"/>
            <path d="M254.37,289.25a12.88,12.88,0,0,1-.38,2.41l-.33.12a1.27,1.27,0,0,1-.18.06h0v0l0,0-.17-.12a10.88,10.88,0,0,0-1-.68l-.2-.11a12,12,0,0,0-1.08-.53,10.09,10.09,0,0,1,1-.38.84.84,0,0,1,.19-.08,5.35,5.35,0,0,1,.64-.2.62.62,0,0,1,.19-.07l.24-.07.2-.05A9.2,9.2,0,0,1,254.37,289.25Z" fill="#453509"/>
            <path d="M253.22,291.92h0v0a0,0,0,0,0,0,0,0,0,0,0,0,0,0Z" fill="#453509"/>
            <path d="M253.22,292.14s0,0,0,0h0S253.21,292.14,253.22,292.14Z" fill="#453509"/>
            <path d="M254.16,288.7s2-5,1.12-6.47l1.38.09s-.53,6.24-1.38,6.87A.69.69,0,0,0,254.16,288.7Z" fill="#453509"/>
          </g>
          <g>
            <path d="M268.74,289.93h0v0s0,0,0,0Z" fill="#453509"/>
            <path d="M269,289.92h0s0,0,0,0S269,289.93,269,289.92Z" fill="#453509"/>
            <path d="M268.74,289.93h0v0s0,0,0,0Z" fill="#453509"/>
            <path d="M268.82,290.14s0,0,0,0l0,0Z" fill="#453509"/>
            <path d="M270.14,289.74l.07.19a12,12,0,0,0,1,2,20,20,0,0,0,2.34,2.78,26.84,26.84,0,0,1,4.68,2.7,5.78,5.78,0,0,1,2.38,5.06c-.13,1.58-.6,3.35.69,4.51l.2.17.07.05a3.49,3.49,0,0,0,1.39.58,9.32,9.32,0,0,1,0-3.29c.47-3.23,1.08-6.06-.31-9.19-2.15-4.77-6.84-7.23-11.79-7.58a13.26,13.26,0,0,0-1,1.08C269.91,289.1,270,289.42,270.14,289.74Z" fill="#453509"/>
            <path d="M264.92,298.21c1.13,2.61,3.62,4.28,6.39,5.24a10.6,10.6,0,0,1-1.32-1.93,3.55,3.55,0,0,1-.21-.44,7.77,7.77,0,0,1-2.52-4.66,9.29,9.29,0,0,1,1.11-5.87c-.11-.13-.2-.26-.29-.39a5,5,0,0,1-1.27-.21,3.76,3.76,0,0,1-1.13-.57C264.39,292.2,263.65,295.25,264.92,298.21Z" fill="#453509"/>
            <path d="M269,289.92h0s0,0,0,0S269,289.93,269,289.92Z" fill="#453509"/>
            <path d="M268.75,289.94v0Z" fill="#453509"/>
            <path d="M270,301a2,2,0,0,0,.24.46,9.9,9.9,0,0,0,1.51,2.15,3.14,3.14,0,0,0,.32.31,10.77,10.77,0,0,0,7.83,3.17,14.79,14.79,0,0,1-.69-1.38c-1.27-3-1.69-6.22-3.86-8.82-.59-.7-1.23-1.37-1.87-2a14,14,0,0,1-2.74-1.75c-.28-.24-.55-.47-.81-.73l-.43-.44v0c-.26-.27-.49-.56-.73-.84,0,2.78-.19,5.56.58,8.25A10.66,10.66,0,0,0,270,301Z" fill="#453509"/>
            <path d="M266.74,287.83a13,13,0,0,0,1.19,2.13h.36a.55.55,0,0,0,.18,0h0v-.05l.12-.17c.24-.35.48-.68.74-1l.15-.17a11.51,11.51,0,0,1,.83-.88c-.34,0-.69,0-1,0a.72.72,0,0,0-.21,0c-.21,0-.44,0-.67,0h-.2l-.25,0-.21,0A8.6,8.6,0,0,0,266.74,287.83Z" fill="#453509"/>
            <path d="M268.74,289.93h0v0s0,0,0,0Z" fill="#453509"/>
            <path d="M268.82,290.14s0,0,0,0l0,0Z" fill="#453509"/>
            <path d="M266.74,287.24s-3.63-4-3.3-5.68l-1.27.56s2.68,5.68,3.69,6A.69.69,0,0,1,266.74,287.24Z" fill="#453509"/>
          </g>
          <g>
            <g>
              <path d="M346,253.2a.27.27,0,0,1,.16.05.58.58,0,0,0,.15-.16l-.14-.05Z" fill="#453509"/>
              <path d="M346.93,256.61a1.25,1.25,0,0,1,.15.19l.4.1a1.77,1.77,0,0,0-.17-.2h0Z" fill="#453509"/>
              <path d="M324.16,269.15h0l.15,0Z" fill="#453509"/>
              <path d="M262.67,273a.31.31,0,0,0,.17.1,36.76,36.76,0,0,0,7.94,3.4c9.59,2.82,19.77,1.86,29.3-.78,7.53-2.09,16-6.77,24.06-6.52h0l.16,0-.15,0c.23,0,.43,0,.65,0l.41,0c.28,0,.57-.05.86-.06a61.8,61.8,0,0,1,8.39,0A65.93,65.93,0,0,1,369.73,282c-.18-.22-.37-.44-.56-.65-7-8.09-17.34-12.67-27.88-14a53.08,53.08,0,0,0-5.62-.4c-.41,0-.81,0-1.22,0l1-.15a90.11,90.11,0,0,1,22-.45l.24,0,.29,0,.27,0a.91.91,0,0,0,.11.22,8.57,8.57,0,0,0,3.59,3.94,15.36,15.36,0,0,0,6.7,1.23c-.77-2.08-1.57-4.25-3.48-5.11l-.29-.12a1,1,0,0,0,.27-.11c.22-.07.45-.15.66-.24a10.27,10.27,0,0,0,2.57-1.38,2.61,2.61,0,0,0,.83-2.38l0-.6a1.33,1.33,0,0,1,0-.2,14.65,14.65,0,0,0-6.32.48,12.52,12.52,0,0,0-4.36,3.1l-.81-.05-.23,0a132,132,0,0,0-47.12,5.15l0,0c-2.3.59-4.6,1.2-6.91,1.75a36.24,36.24,0,0,1-6.33,1c4.78-2.14,9.42-4.61,14-6.77,1.31-.61,2.61-1.18,3.94-1.71,0,0,0,0,0,0,5.2-.87,10.31-2.37,15.51-3.37,5.89-1.13,12.93-1.89,18.33,1.16a2.58,2.58,0,0,1,.32.18c-.05-.11-.1-.22-.15-.31-2.39-4.28-8.7-3.52-12.92-3-2.84.34-5.69.68-8.53,1q2.39-.69,4.79-1.32c3-.78,7-2.13,10.69-2.4.13,0,.26,0,.39,0a1.13,1.13,0,0,0,.21-.12,18.81,18.81,0,0,1,2-1,1.73,1.73,0,0,1,.2.15,9.93,9.93,0,0,1,1,1l.37.08h0a1.77,1.77,0,0,1,.17.2l-.4-.1c.78.86,1.41,1.81,2.12,2.76a4.38,4.38,0,0,0,3.43,2,9.85,9.85,0,0,0,4.08-1s.08-.06.06-.1c-.26-1.28-1.89-1.35-2.83-1.88-1.34-.76-2.26-2.07-3.43-3a13.77,13.77,0,0,0-1.39-1c1.67-.23,3.33-.16,4.38-1.73.45-.71.74-1.53,1.26-2.21s1.31-1.07,1.42-1.89-.54-1.05-1.11-1.37l-1.7-1-.19-.1a.64.64,0,0,0-.2.11,27.46,27.46,0,0,0-4.63,3.38,1.75,1.75,0,0,0-.24.23h0a4.1,4.1,0,0,1-.21.48,12.32,12.32,0,0,1-.87,1.49,9.57,9.57,0,0,1-.87,1.1l.14.05a.58.58,0,0,1-.15.16.27.27,0,0,0-.16-.05,8.94,8.94,0,0,1-1.39,1.15,1.07,1.07,0,0,1-.19.13c-2.26,1.49-5,2.13-7.67,2.83-4.31,1.16-8.68,2.16-13,3.42h0l-1.14.34c-1.84.55-3.65,1.16-5.45,1.86-1.41.53-2.79,1.14-4.17,1.75l-.68.3c-4.73,2.13-9.39,4.48-14.37,6a45.16,45.16,0,0,1-7.13,1.56h0a4.18,4.18,0,0,1-.51.06h0a49.14,49.14,0,0,1-24.46-3.05.48.48,0,0,1-.2-.07.7.7,0,0,1-.13.17c-.5.69-1,1.35-1.6,2a1.07,1.07,0,0,1-.14.16c-.29.33-.6.67-.91,1Z" fill="#453509"/>
              <path d="M346,253.2a.27.27,0,0,1,.16.05.58.58,0,0,0,.15-.16l-.14-.05Z" fill="#453509"/>
              <path d="M346.93,256.61a1.25,1.25,0,0,1,.15.19l.4.1a1.77,1.77,0,0,0-.17-.2h0Z" fill="#453509"/>
              <path d="M366.12,252.27s0,0,0,0,0,0,0,0Z" fill="#453509"/>
              <path d="M374.38,250.82l.22.09a10.72,10.72,0,0,0,8.51-.17l.27-.13-.26-.11a12.28,12.28,0,0,0-3.89-1.05,6.62,6.62,0,0,0-4.64,1.23Z" fill="#453509"/>
              <path d="M376,256.91a10.71,10.71,0,0,0,2-.73c-.53.21-1.09.43-1.64.61Z" fill="#453509"/>
              <path d="M366.12,252.27s0,0,0,0,0,0,0,0Z" fill="#453509"/>
              <path d="M366.12,252.27s0,0,0,0,0,0,0,0Z" fill="#453509"/>
              <path d="M366.12,252.27s0,0,0,0,0,0,0,0Z" fill="#453509"/>
              <path d="M355.94,253.94l.14.18c.82,1,1.59,2,2.36,3.07h0a1.13,1.13,0,0,1,.17.24l.31.08a19.31,19.31,0,0,0,9.1-.08l.2-.06a1,1,0,0,1-.14-.17c-.75-.87-1.48-1.74-2.21-2.61l-.18-.22c-.38-.43-.76-.89-1.12-1.33l-.17-.17a.86.86,0,0,0-.22,0,0,0,0,0,0,0,0h0l-.27,0c-2.57.24-5.14.58-7.68,1A1.75,1.75,0,0,0,355.94,253.94Z" fill="#453509"/>
              <path d="M355.89,253.22a33.6,33.6,0,0,0,7.45-1.29l.21-.06c.41-.12.79-.25,1.18-.39a1.3,1.3,0,0,0,.14-.26L365,251a9.92,9.92,0,0,0,.61-5.89c-2.38,1-5.4.72-7.31,2.63C356.81,249.23,356.44,251.29,355.89,253.22Z" fill="#453509"/>
              <path d="M367.76,255.71a4.61,4.61,0,0,0,1.55,1.13l.29.12a6.9,6.9,0,0,0,1.9.39h.06a10.53,10.53,0,0,0,4.3-.4l.1,0h0l.37-.12c.55-.18,1.11-.4,1.64-.61l.18-.08.92-.38h0a.55.55,0,0,1,.18-.06c.87-.38,1.75-.76,2.65-1.07a26.1,26.1,0,0,1,6.18-1.26c6.91-.63,13.78.83,20.68.82a4.21,4.21,0,0,0,.71,0c-.23-.07-.48-.14-.73-.19a59.09,59.09,0,0,0-30.84,0h0a8.66,8.66,0,0,0-3.17-1.85,11.91,11.91,0,0,0-3.31-.57,11.9,11.9,0,0,0,2.39-1l.2-.12a7.79,7.79,0,0,0,.85-.56,8,8,0,0,0,2.51-3.05c5.64.72,11.48-.17,17.16.35,3.52.33,7.39,1.67,10.8.09a5,5,0,0,0,3-4.66c0-.08,0-.16,0-.25a.73.73,0,0,1-.16.15c-2.64,2.38-6.25,2.51-9.66,2.47-2.9-.05-5.8,0-8.68.15-3.58.23-8.18,1.16-12,.26a5.62,5.62,0,0,0,.13-1.22.45.45,0,0,0,0-.2,1.21,1.21,0,0,0-.19,0c-.92.07-1.85.16-2.76.26h0l-.29,0-1.6.16c-1.68.19-3.54.31-4.89,1.45-1.54,1.29-2,3.19-2.2,5.14a1.1,1.1,0,0,0,0,.16,0,0,0,0,0,0,0h0a0,0,0,0,0,0,0h0l0,.38a.78.78,0,0,0,0,.16v0h0a1.18,1.18,0,0,0,.09.3.75.75,0,0,0,0,.16h0s0,0,0,0v0s0,.09,0,.13A8.51,8.51,0,0,0,367.76,255.71Z" fill="#453509"/>
              <path d="M377.35,224.9h.21a1.29,1.29,0,0,0,0-.19l-.2,0A.53.53,0,0,1,377.35,224.9Z" fill="#453509"/>
              <path d="M369,270.24a5.38,5.38,0,0,0,2.37,3c2.38,1.39,5.2,1,7.79.46l.2,0a2.07,2.07,0,0,0,0-.22,9.82,9.82,0,0,0-2.25-5.23,8.88,8.88,0,0,0,1.53-1c1-.83,2.72-2.62,2.43-4.12a.83.83,0,0,0-.06-.21.67.67,0,0,1-.24,0c-2.54.23-5.12-.22-7.64.19a9.71,9.71,0,0,0-5.28,3,.49.49,0,0,0-.16.16.83.83,0,0,1,.09.16A30,30,0,0,1,369,270.24Z" fill="#453509"/>
              <path d="M377.27,221.72l.23.05a.93.93,0,0,0,0-.22l-.22-.05A.33.33,0,0,1,377.27,221.72Z" fill="#453509"/>
              <path d="M377.35,224.9h.21a1.29,1.29,0,0,0,0-.19,5.51,5.51,0,0,0,.06-.57c0-.08,0-.14,0-.21l-.2,0a1.34,1.34,0,0,1,0,.2,2.8,2.8,0,0,1-.08.58A.53.53,0,0,1,377.35,224.9Z" fill="#453509"/>
              <path d="M377.27,221.72l.23.05a.93.93,0,0,0,0-.22l-.22-.05A.33.33,0,0,1,377.27,221.72Z" fill="#453509"/>
              <path d="M389.52,273.71a9.81,9.81,0,0,0-.27-1.1,6.4,6.4,0,0,0-1.12-2.09c.31-.1.6-.21.89-.32l.19-.08a7.39,7.39,0,0,0,1.87-1.14,5.09,5.09,0,0,0,1.16-1.37c4.8,3.82,11.51,5.07,17.31,6.89,4.52,1.42,12.44,5.11,17.11,2.16l.29-.21a3.38,3.38,0,0,1-.45,0c-6.43,0-12.94-2.19-19-4q-4.71-1.43-9.35-3.1a17.92,17.92,0,0,1-5.37-2.78,4.81,4.81,0,0,0,.2-.93l-.21,0c-.36-.06-.72-.11-1.09-.15l-.29-.05-1.28-.14-.29,0c-3.74-.33-7.68,0-10.13,3a1.81,1.81,0,0,1-.18.21c.44,2.62,1.1,5.43,3.38,7,1.9,1.32,4.29,1.56,6.54,1.66,0-.07.31-.82.3-.75a70.69,70.69,0,0,1,16.39,3.87,139.66,139.66,0,0,0,14.31,5l.61.16a6.7,6.7,0,0,0-.59-.39c-9.32-5.94-20.18-8.79-30.91-11.26" fill="#453509"/>
              <path d="M377.48,224.12a1.13,1.13,0,0,1,.18,0c0-.08,0-.14,0-.21l-.2,0A1.34,1.34,0,0,1,377.48,224.12Z" fill="#453509"/>
              <path d="M324.16,269.15h0l.15,0Z" fill="#453509"/>
            </g>
            <path d="M389.4,270.86l.11.16a6.63,6.63,0,0,0,8,2.26l.21-.09-.16-.16a9.83,9.83,0,0,0-3.56-2.68,4.78,4.78,0,0,0-4.43.37A1.07,1.07,0,0,0,389.4,270.86Z" fill="#453509"/>
          </g>
        </g>
        <path d="M291.88,55.52a.1.1,0,0,0,0,.2A.1.1,0,0,0,291.88,55.52Z" fill="#51a5a0"/>
        <path d="M173.51,237.12s0,0,0,0a.55.55,0,0,1-.17.11.78.78,0,0,0,0,.22l.19-.12C173.53,237.27,173.51,237.2,173.51,237.12Z" fill="#51a5a0"/>
        <path d="M173.53,237.34l-.19.12a.78.78,0,0,1,0-.22.55.55,0,0,0,.17-.11s0,0,0,0S173.53,237.27,173.53,237.34Z" fill="#51a5a0"/>
        <path d="M173.53,237.34l0-.21s0,0,0,0S173.53,237.27,173.53,237.34Z" fill="#51a5a0"/>
        <path d="M193.77,239.57l-.16.14-.11-.19a.44.44,0,0,0,.16-.14A1.86,1.86,0,0,0,193.77,239.57Z" fill="#51a5a0"/>
        <path d="M192.22,246.15a.74.74,0,0,1-.21,0,.28.28,0,0,0,0-.12h.2A.35.35,0,0,1,192.22,246.15Z" fill="#51a5a0"/>
        <path d="M192.17,246H192a.28.28,0,0,1,0,.12.74.74,0,0,0,.21,0A.35.35,0,0,0,192.17,246Z" fill="#51a5a0"/>
        <path d="M193.66,239.38a.44.44,0,0,1-.16.14l.11.19.16-.14A1.86,1.86,0,0,1,193.66,239.38Z" fill="#51a5a0"/>
        <g>
          <path d="M360.5,146.05c0,.37,0,.72,0,1.08v.25c0,.52,0,1-.08,1.51,0-.48,0-1,0-1.46a2,2,0,0,1,0-.25C360.44,146.81,360.46,146.43,360.5,146.05Z" fill="#453509"/>
          <path d="M360.43,147.18a2,2,0,0,0,0,.25s0,0,.05-.05v-.25Z" fill="#453509"/>
          <path d="M360.5,146.05c0,.37,0,.72,0,1.08v.25c0,.52,0,1-.08,1.51,0-.48,0-1,0-1.46a2,2,0,0,1,0-.25C360.44,146.81,360.46,146.43,360.5,146.05Z" fill="#453509"/>
          <ellipse cx="308.44" cy="96.58" rx="4.99" ry="6.31" fill="#453509"/>
          <path d="M179.83,129.74v7.8s-6.82.26-11.49-3.26c-7.41-5.6-10.52-17.69,19.26-32.41,0,0,2-10.36,1.37-11.34h8.25s-.11,8.9-2.93,10.31l.32,40.71L208.07,140s-1-22.33,2.54-38.51c4-18.33,18.73-27.55,25.85-4.64l-8.05,1.7s-2.79-21.36-11.14-.31,1.93,94.4,1.93,94.4l-9.48,1.76-2.28-50.52-12.62,2.28s6.84,54.93-27.81,57.86c-24.75,2.09-27.84-19.6-27.59-32.16a28.66,28.66,0,0,1,6-17.14c5.77-7.39,15.92-15,28.41-1.7,8.06,8.54,1,23.67,1,23.67l-7.57-2.93s8.22-24.13-8.15-23.16c-12.92.77-13.68,17.32-12.89,27.58a23.21,23.21,0,0,0,9.59,17.38c4.94,3.46,11.69,5.25,19.34-.67a27.1,27.1,0,0,0,9.79-16.31c1.52-7.71,3.43-20.17,2.34-29.71,0,0-5.62,1.95-5.86,3.66l-3.17-5.62s7.07-5.85,9.51-4.14L187,107.9s-18.72,5.86-16.75,17.5C170.8,128.53,174.84,130.28,179.83,129.74Z" fill="#453509"/>
          <path d="M187,229.05a.11.11,0,0,1,0-.21A.11.11,0,0,1,187,229.05Z" fill="#453509"/>
          <path d="M206.57,229.61h0s0-.06,0-.08A.14.14,0,0,1,206.57,229.61Z" fill="#453509"/>
          <path d="M206.57,229.61h0s0-.06,0-.08A.14.14,0,0,1,206.57,229.61Z" fill="#453509"/>
          <path d="M228.46,202.85a.34.34,0,0,0,0,.2h-.21a.67.67,0,0,1,0-.2Z" fill="#453509"/>
          <path d="M228.15,213.71V214l-.21-.12v-.26Z" fill="#453509"/>
          <path d="M228.46,202.85a.34.34,0,0,0,0,.2h-.21a.67.67,0,0,1,0-.2Z" fill="#453509"/>
          <path d="M239.38,221.94c0,.07,0,.13,0,.2l-.19,0a1,1,0,0,0,0-.18Z" fill="#453509"/>
          <path d="M228.15,213.71V214l-.21-.12v-.26Z" fill="#453509"/>
          <path d="M239.38,221.94c0,.07,0,.13,0,.2l-.19,0a1,1,0,0,0,0-.18Z" fill="#453509"/>
          <path d="M206.57,229.61h0s0-.06,0-.08A.14.14,0,0,1,206.57,229.61Z" fill="#453509"/>
          <path d="M240.81,222.07l-1.43-.13c0,.07,0,.13,0,.2l-.19,0a37.87,37.87,0,0,1-1.39,7.62,17.33,17.33,0,0,1-1,2.64,3.17,3.17,0,0,1-.79,1.12c-.73.59-2,.68-2.08-.76a11.54,11.54,0,0,1,.6-2.82c.17-.85.32-1.7.44-2.55.43-2.88.82-6-1-8.46a22.56,22.56,0,0,0-5.77-5.19V214l-.21-.12v-.26l.21.13c0-3.55.16-7.1.31-10.66h-.21a.67.67,0,0,1,0-.2c-1.92-.05-3.83-.2-5.74-.43a1,1,0,0,1-.19,0,.71.71,0,0,0,0,.2c-.4,4.31-.36,8.79,2.48,12.32.28.34.57.67.85,1a58.17,58.17,0,0,1-.59,8.64c-.62,3.86-1.77,9.43-5.62,11.4a4.5,4.5,0,0,1-6.15-1.67A11.85,11.85,0,0,1,212,230a8.23,8.23,0,0,0,2.47-.89,15.1,15.1,0,0,0,6.24-8.53,14.05,14.05,0,0,0-.53-6c-.32-1.29-.65-3-2-3.54a5.53,5.53,0,0,0-4.54.6,10,10,0,0,0-3.66,3.58,22.12,22.12,0,0,0-2.29,5.07c-.06.23-.13.44-.2.66,0,.39,0,.77,0,1.14s0,.73,0,1.09a31.66,31.66,0,0,1-.66,5.75c0,.14-.07.28-.11.42l0,.11a.14.14,0,0,1,0,.09h0c0,.08-.05.17-.08.25a8.25,8.25,0,0,1-2.14,3.48,4.92,4.92,0,0,1-4.48,1.22c1-3.74,1.88-7.52,2.55-11.35.54-2.94,1.15-6.16-.21-9-1-2.07-3.41-3.82-5.78-2.86-2.61,1.06-3.56,4.71-3.94,7.18a26.89,26.89,0,0,0,.53,10,14.19,14.19,0,0,0,2.75,6.15l-.12.55c-.33,1.4-.8,3.17-2,4.16a1.86,1.86,0,0,0,.11.19l-.16.14-.11-.19a.44.44,0,0,0,.16-.14,24.68,24.68,0,0,1-1.25-2.76,55.35,55.35,0,0,1-2.07-6,28.52,28.52,0,0,1-.73-4.11h0c0-.23-.05-.46-.08-.69-.26-2.62-.26-5.3-.32-7.91a.78.78,0,0,0,0-.22.68.68,0,0,1-.2.07,27.44,27.44,0,0,1-3.59.82l-.22,0h0a1.39,1.39,0,0,1,.06.19A54.24,54.24,0,0,1,186.6,230c0,.19,0,.39,0,.58a20.35,20.35,0,0,1-2.54,9.73,7.86,7.86,0,0,1-4.48,3.94c-2.72.7-4-1.57-4.77-3.75-.38-1.11-.7-2.24-1-3.38,4.7-3,9.67-7.15,8.86-13.22-.32-2.41-1.93-5-4.64-4.87-2.91.15-5.25,2.92-6.69,5.17-3.84,6-3.53,13.67-.8,20.07,1,2.44,2.61,5.14,5.49,5.62s5.43-1.13,7.07-3.24c2.53-3.29,3.57-7.8,4.59-11.73.05-.22.12-.44.17-.67q2.07,5.88,4.1,11.75h.2a.35.35,0,0,1,.05.13,5.69,5.69,0,0,0,3.6-1.72c1.84-1.86,2.65-4.66,3.33-7.27a6.87,6.87,0,0,0,5.82-.46,8.55,8.55,0,0,0,2.84-2.63c.35,1,.73,2,1.14,3,1.13,2.72,2.55,5.57,5.94,5.28a11.7,11.7,0,0,0,7.59-4.32c2.19-2.67,2.85-6,3.16-9.33s.45-7.23,2.14-10.3a.6.6,0,0,0,.11.12v0a2.75,2.75,0,0,1,.19.28v0a9.78,9.78,0,0,1,1.32,2.3v0a74.8,74.8,0,0,1,0,7.78c-.16,2.86-1.29,6.63.52,9.17,1.43,2,4.18,1.48,5.88.2,2.25-1.69,3.15-4.48,3.77-7.1a72.5,72.5,0,0,0,1.38-8.9,1.23,1.23,0,0,0,0-.19Zm-67.66,11.65a21,21,0,0,1,.34-4,13,13,0,0,1,2.71-6.1c.44-.5,1.11-1.29,1.85-.89s.86,1.6,1,2.28a8.92,8.92,0,0,1-5.63,9.68C173.39,234.9,173.22,234.23,173.15,233.72Zm.19,3.74a.78.78,0,0,1,0-.22.55.55,0,0,0,.17-.11s0,0,0,0,0,.15,0,.22ZM187,229.05a.11.11,0,0,1,0-.21A.11.11,0,0,1,187,229.05Zm11.25-10.48a79,79,0,0,1-1.63,11.54,1,1,0,0,0,0,.17,16.63,16.63,0,0,1-2.42-6.89,18.27,18.27,0,0,1,.24-5.81c.08-.37.15-.74.26-1.09a2.18,2.18,0,0,1,2.11-1.83C198.35,214.71,198.27,217.56,198.24,218.57Zm13.86,2.8a15.66,15.66,0,0,1,1.08-3.2,6.86,6.86,0,0,1,.58-1,2.78,2.78,0,0,1,.71-.88.87.87,0,0,1,1-.25c.57-.34.92-.25,1.05.29.72.93.56,2.71.39,3.8a8.48,8.48,0,0,1-1.26,3.43,8.65,8.65,0,0,1-4,3.28A20.85,20.85,0,0,1,212.1,221.37Z" fill="#453509"/>
          <path d="M262.86,203.49a1.41,1.41,0,0,1,0,.2.74.74,0,0,1-.21,0,.68.68,0,0,0,0-.2A.69.69,0,0,0,262.86,203.49Z" fill="#453509"/>
          <path d="M262.86,203.49a1.41,1.41,0,0,1,0,.2.74.74,0,0,1-.21,0,.68.68,0,0,0,0-.2A.69.69,0,0,0,262.86,203.49Z" fill="#453509"/>
          <path d="M267,203.12a.67.67,0,0,0,0,.2.82.82,0,0,1-.21,0,1.34,1.34,0,0,1,0-.2A.69.69,0,0,0,267,203.12Z" fill="#453509"/>
          <path d="M267,203.12a.67.67,0,0,0,0,.2.82.82,0,0,1-.21,0,1.34,1.34,0,0,1,0-.2A.69.69,0,0,0,267,203.12Z" fill="#453509"/>
          <path d="M273.16,222.89c-.06.14-.11.27-.18.41l0-.39v0c.05-.13.12-.26.17-.4Z" fill="#453509"/>
          <path d="M277.7,225.13h0v0Z" fill="#453509"/>
          <path d="M285.35,198.72a1.55,1.55,0,0,0,0,.22h-.21v-.2Z" fill="#453509"/>
          <path d="M282.85,199a.64.64,0,0,0,0,.2h-.23a1.38,1.38,0,0,0,0-.2Z" fill="#453509"/>
          <path d="M285.35,198.72a1.55,1.55,0,0,0,0,.22h-.21v-.2Z" fill="#453509"/>
          <path d="M285.35,198.72a1.55,1.55,0,0,0,0,.22h-.21v-.2Z" fill="#453509"/>
          <path d="M273.11,222.49c-.05.14-.12.27-.17.4v0l0,.39c.07-.14.12-.27.18-.41Z" fill="#453509"/>
          <path d="M282.85,199a.64.64,0,0,0,0,.2h-.23a1.38,1.38,0,0,0,0-.2Z" fill="#453509"/>
          <path d="M302.89,212.44a.06.06,0,0,0,0,.08l0,0A.09.09,0,0,1,302.89,212.44Zm.07-2.87a.62.62,0,0,0,0,.23,2.4,2.4,0,0,0,.26-.18,1,1,0,0,1,0-.24C303.14,209.45,303.05,209.5,303,209.57Z" fill="#453509"/>
          <path d="M302.69,212.4l0,0a.88.88,0,0,0,0,.23.12.12,0,0,0,.08,0C302.71,212.53,302.7,212.46,302.69,212.4Zm.18-.11s0,0,0,0,0,0,0,0S302.89,212.3,302.87,212.29Zm0,.15a.06.06,0,0,0,0,.08l0,0A.09.09,0,0,1,302.89,212.44Z" fill="#453509"/>
          <path d="M303.22,209.38a1,1,0,0,0,0,.24,2.4,2.4,0,0,1-.26.18.62.62,0,0,1,0-.23C303.05,209.5,303.14,209.45,303.22,209.38Z" fill="#453509"/>
          <path d="M302.73,212.61a.12.12,0,0,1-.08,0,.88.88,0,0,1,0-.23,1.41,1.41,0,0,1,0-.2.62.62,0,0,0,0,.18C302.7,212.46,302.71,212.53,302.73,212.61Z" fill="#453509"/>
          <path d="M302.9,212.29s0,0,0,0,0,0,0,0S302.89,212.29,302.9,212.29Z" fill="#453509"/>
          <path d="M366,119.17a41.24,41.24,0,0,1-3.35,14.38,47.67,47.67,0,0,1-2.47,5h0c-.06.11-.12.22-.19.33,0-.14,0-.26,0-.38-.16-2.2-.39-4.39-.6-6.58v0c0-.14,0-.29-.05-.45-.18-1.93-.36-3.87-.49-5.79a194.43,194.43,0,0,1,.4-26.33c-2,.55-4,1-6,1.52.17,5.22.23,10.46.19,15.68,0,3.33-.08,6.65-.17,10-.07,2,0,4-.1,6v0l0,.53h0a20.23,20.23,0,0,1-.33,2.61c-.3,1.5-1.38,3.21-3.14,3s-2.31-2.19-2.54-3.62a68,68,0,0,1-.39-9.15c-.06-3.34-.11-6.68-.17-10-.08-4.55-.14-9.09-.22-13.63-2.09.4-4.19.76-6.29,1.1a160.45,160.45,0,0,1,.28,18.48c-.05,1-.12,2-.2,3,0,.2,0,.39,0,.59h0c0,.34-.06.66-.1,1s-.05.52-.09.79c-.18,1.7-.41,3.38-.7,5.05-.47,2.75-.81,6.38-2.63,8.63-1.19,1.48-3.29,2.26-4.95,1.05-1.87-1.35-2.34-4.24-2.91-6.3a34.14,34.14,0,0,1-1.54-10.18c0-.33,0-.66.06-1a3.19,3.19,0,0,1,.06-.54c.09-.18.17-.36.25-.54h0c.29-.55.55-1.11.81-1.67l.12-.26a75.93,75.93,0,0,0,5.08-15.14h0c.09-.42.18-.82.26-1.24v0L334,104a67.56,67.56,0,0,0,.56-23.6c-.63-3.58-2.53-9.82-7.33-9-5,.89-5.56,7-6.07,11a162.51,162.51,0,0,0-1.24,25c.15,6,.19,12.69,1.92,18.68h0a3.4,3.4,0,0,0,.15.49c0,.12-.05.22-.07.35h0l-.08.41c-.34,1.64-.59,3.31-.86,5v0c0,.13,0,.25-.07.39-.26,1.56-.52,3.11-.87,4.65-.43,1.9-3.3,12-6.75,7.47a6.34,6.34,0,0,1-.93-3.28c-.16-1.68-.25-3.38-.31-5.09-.09-3.51,0-7,.11-10.54a110.45,110.45,0,0,0-.4-17.45l-1.11.29L305,110.3q-.11,6.53-.2,13c-.08,5,.09,10.08-.32,15.08h0c0,.18,0,.32,0,.5h0s0,.07,0,.11a16.26,16.26,0,0,1-4.56,10.49,15,15,0,0,1-5.82,3.53,22.48,22.48,0,0,0,1.75-6.52,106.57,106.57,0,0,0,.46-17.86c-.2-5.23-.13-12.82-5.21-16-5.47-3.38-7.47,3.34-9.24,7.82-.25.62-.49,1.2-.73,1.7-.13-.59-.23-1.2-.31-1.79h0a28.78,28.78,0,0,1-.23-5.48,34.77,34.77,0,0,1-3.79.39c-.19,3.77-.26,7.55-.19,11.33.11,5.37.72,10.8,0,16.14a20.79,20.79,0,0,1-4.88,11.51,12.81,12.81,0,0,1-5.72,3.73,5.8,5.8,0,0,1-1.23.18c.15-.32.29-.66.41-1,.21-.55.39-1.1.56-1.63a43.49,43.49,0,0,0,1.77-8.11,77.13,77.13,0,0,0,0-15.86c-.4-4.6-.44-12.34-6.08-13.8-4.61-1.18-5.91,3.89-7.78,7.37-.23.4-.46.79-.7,1.14a.39.39,0,0,1-.19-.3c-.05-.33-.09-.65-.13-1a40,40,0,0,1-.38-4.62,41.42,41.42,0,0,1-5.08.61q.65,8.47,1.27,16.94a26.28,26.28,0,0,1-.15,6.42v0a10.32,10.32,0,0,1-.85,2.76,5.69,5.69,0,0,1-2.45,2.7v0a5.44,5.44,0,0,1-1.07.44c0-.36.09-.71.13-1.08a45.1,45.1,0,0,0,.27-8.13,29.24,29.24,0,0,0-2.4-10.29c-1.22-2.79-3.14-6.25-6-7.61-3.7-1.73-7.31,2.26-8.94,5.16a14.53,14.53,0,0,0-1.76,9v1l-.8,0h0c-.89,0-1.78,0-2.66-.09.16,7.92.3,16.13,2.94,23.71,1.25,3.58,3.69,6.37,7.81,6,3.3-.33,6.06-2.62,7.79-5.34a21.75,21.75,0,0,0,2.72-7c.1-.41.18-.85.26-1.28a10.61,10.61,0,0,0,1.17-.76,16.62,16.62,0,0,0,3.22-3c.33-.39.64-.81.94-1.24l.08,1.58q1.15,20.85,1.38,41.73c1.77-.39,3.56-.72,5.35-1q-1.28-16.48-1.39-33.07c0-.6,0-1.19,0-1.8a.37.37,0,0,1,.21.2,12.64,12.64,0,0,0,.81,1.28,9.37,9.37,0,0,0,5.34,3.58,5.52,5.52,0,0,0,.68.15l.52.07a7.92,7.92,0,0,0,1.08,0h.05a11.68,11.68,0,0,0,7.37-3.33,26.8,26.8,0,0,0,5.37-7.88c.55-1.11,1.07-2.2,1.61-3.3v0c.32-.67.65-1.34,1-2,0,.76,0,1.52.05,2.28q.33,15.06,1.45,30.09v.12c-2.32-.19-5,1.75-6,3.93-1.56,3.38-1.12,7.58-.9,11.18.49,8,1.87,16.92.1,24.92h0c0,.19-.08.38-.13.57v0c-.05.18-.09.37-.15.55s0,.19-.08.29a24.25,24.25,0,0,1-2.6,6.16s0,0,0,0c-.26.42-.53.85-.82,1.25,0,0,0,0,0,0s-.25.12-.38.16l-.27.07c-1.59.22-1.56-1.86-1.56-2.87,0-2.65,0-5.3.05-8,0-4.37.07-8.75.1-13.11a1.34,1.34,0,0,1,0-.2c-1.32.17-2.64.29-4,.34a1.41,1.41,0,0,1,0,.2.74.74,0,0,1-.21,0c0,.94-.09,1.87-.14,2.81a6.15,6.15,0,0,0-2-2.5c-1.51-1-3.25-.26-4.53.78-3.56,2.88-4.2,8.1-4.63,12.36a43,43,0,0,0-.05,8.34,23.75,23.75,0,0,0,1.56,7.28c1.54,3.45,4.89,2.36,7.09.34l.25-.23a6.53,6.53,0,0,0,.56-.62,14.33,14.33,0,0,0,2.48-4.37c.08.31.16.6.25.91a7.31,7.31,0,0,0,1.19,2.92c1.26,1.43,3.32.49,4.4-.66,1.68-1.76,2.45-4.34,3.38-6.55l.51-1.2.08.76c.34,3.32.66,6.63,1,9.94.25,2.4.26,5,1.16,7.31a5.36,5.36,0,0,0,8.47,2.1c3.47-2.8,2.88-7.94.82-11.36a23.76,23.76,0,0,0-4.67-5.33,19.87,19.87,0,0,0,6.35-6.64,22,22,0,0,0,.82,2.36c.73,1.76,1.74,4.09,3.66,4.86,4.4,1.76,6.28-6.18,7.14-8.84.14-.48.29-.95.43-1.42.64,2.72,1.76,5.48,4,6.88,2.8,1.7,6.46,1,8.94-.9,3.12-2.46,4.46-6.41,5.07-10.19.65-4,.92-8.16,1.2-12.25a16.51,16.51,0,0,1,1.16,1.35c1.87,2.46,2.2,5.6,2.07,8.6s-2.06,9.26,2.09,10.34c3.63.94,6.52-2.7,7.53-5.71a33.34,33.34,0,0,0,1.23-8.32c.05-.78.09-1.55.1-2.33h0a.34.34,0,0,0,0-.2l-.18,0a18.2,18.2,0,0,1-1.81.19h-.2v.2a26.28,26.28,0,0,1-1,7.61,9.88,9.88,0,0,1-1.55,3.43c-1,1.23-2.86,1.25-3.39-.47a4.67,4.67,0,0,1,.23-2.56,36.3,36.3,0,0,0,1.55-6.18,9,9,0,0,0-3.88-8.69,12,12,0,0,1-3.48-3.42c.25-3,.51-5.92.76-8.88,0-.07,0-.14,0-.21h-.19c-1.55-.15-3.08-.32-4.63-.52a1.25,1.25,0,0,1-.19,0v.2c0,1.71-.08,3.42-.11,5.13-.05,2.18-.15,4.52.76,6.55a5.22,5.22,0,0,0,.72,1.23h0c.19,5.86,1.44,11.87-1.8,17a8.93,8.93,0,0,1-4.82,3.9,4.87,4.87,0,0,1-3.62-.13,4.17,4.17,0,0,1-1.91-3.46c-.05-.58-.1-1.16-.1-1.74a.45.45,0,0,1,0-.11q0-.42,0-.84a.06.06,0,0,1,0-.08.09.09,0,0,0,0,.06,20.75,20.75,0,0,0,3.13-2.16c2.76-2.29,5.64-5.62,5.69-9.4,0-2.84-1.76-5.69-4.76-5.95s-5.41,1.79-7,4.22h0c-.09.15-.18.27-.27.43h0v0a13.19,13.19,0,0,0-.79,1.48,20.41,20.41,0,0,0-1.54,10.89v0c-.16.88-.32,1.75-.48,2.64a1.7,1.7,0,0,0,0,.22,37.61,37.61,0,0,1-1.19,4.73c-.37,1.17-.89,2.43-2.2,2.75s-2.28-.57-2.66-1.82a21.1,21.1,0,0,1-.48-4.28c-.36-5.09-.58-10.17-.65-15.27a1.48,1.48,0,0,1,0-.21l3.11-.78c0-.8,0-1.61,0-2.42-1,.24-2.1.46-3.16.66a.41.41,0,0,1,0-.22c0-5.12.09-10.24.36-15.35a1.62,1.62,0,0,1,0-.22,1.29,1.29,0,0,1-.21.06,32.37,32.37,0,0,1-3.91.71,1.77,1.77,0,0,0-.21,0c-.48,0-1,.09-1.47.12q.1-13.87-.6-27.72c0-.48,0-1-.08-1.45a8.48,8.48,0,0,0,1.07,1.09,8.82,8.82,0,0,0,6.21,2.19,7,7,0,0,0,.64-.58,1.89,1.89,0,0,1-.2.27,14.08,14.08,0,0,0,10.55-6.17,25.09,25.09,0,0,0,3.77-8.85,1.55,1.55,0,0,0,.08-.36l.12.35h0c.46,1.34.91,2.65,1.36,4,.66,1.91,1.26,4,2.68,5.49,2.12,2.19,5.24,1.43,7.26-.46,3.08-2.91,4.82-7.55,5.56-11.63.09-.55.17-1.09.23-1.64h0c0-.15,0-.29.05-.43.05.13.09.25.15.39h0l.87,2.35c.85,2.32,1.51,5,2.9,7,1.92,2.87,5.3,2.63,7.91.86,4.13-2.77,6-8.06,6.31-12.84v-.05c0-.38,0-.74.06-1.12,0,0,0,.07,0,.09,0,.33.09.65.13,1v0c.33,2.54.54,5.34,1.61,7.63,1.5,3.26,5.23,3.85,8.19,2.12a11.15,11.15,0,0,0,3.81-4.11,2.26,2.26,0,0,0,.16-.26c0,.15,0,.27.06.41h0c.2,1.43.33,2.86.44,4.3,0,.16,0,.33,0,.49s-.12.18-.19.26c-.63.87-1.28,1.75-1.94,2.62-3.87,5.15-8,11-7.58,17.76.23,3.56,2,7.27,6,7.51a8.18,8.18,0,0,0,4.54-1.09,20.44,20.44,0,0,0,4.17-11.19c.41-4.2-.12-8.44-.13-12.66v-.14c0-.48,0-1,0-1.46a2,2,0,0,1,0-.25c0-.37,0-.75.07-1.13,0,0,0,0,0-.06,0-.54.09-1.07.16-1.61a21.83,21.83,0,0,1,2.68-7.31,41.08,41.08,0,0,0,3.44-8.11,54.55,54.55,0,0,0,1.79-9.54ZM236.22,157.59a13.3,13.3,0,0,1-1.69,2.93,2.92,2.92,0,0,1-2.56,1.31,3.78,3.78,0,0,1-2.37-1.48,15.29,15.29,0,0,1-2.89-11.9c0-.37.12-.73.2-1.08a.38.38,0,0,1,.2-.29c.2.4.42.8.65,1.19a21.44,21.44,0,0,0,7.92,7.9c.31.18.61.34.92.5C236.48,157,236.36,157.29,236.22,157.59Zm1.24-5.22c-.07.34-.13.68-.19,1h0l0,0a1.83,1.83,0,0,1-.28-.14,6,6,0,0,1-.62-.31,17.15,17.15,0,0,1-8-9.09,16,16,0,0,1-1-5.55l0-1a17.8,17.8,0,0,1,1.6-6.51.08.08,0,0,0,0,0,3.17,3.17,0,0,1,2.78-2.45c3-.23,4.37,3,5.18,5.34C239,139.66,238.56,146.17,237.46,152.37Zm20.7,3.51c-2,.05-3.12-1.67-3.55-3.33a44.85,44.85,0,0,1-1.29-8.25,54.15,54.15,0,0,1,.9-14.76c.19-2.08.93-4.69,2.73-5.47s3.36,1.83,3.85,3.25C263.5,135.31,263.14,155.73,258.16,155.88ZM262,213.5c-.18,2.21-.37,4.4-.57,6.59v0c0,.23,0,.43-.06.66h0c-.13,1.16-.23,2.3-.37,3.46a19.06,19.06,0,0,1-.68,1.83c-.33.74-1.16,2.72-2.14,2.71q-.63-.28-1.23-.6a2.58,2.58,0,0,1-.28-.76,12.29,12.29,0,0,1-.3-1.44c-.17-1-.31-2.1-.4-3.15a29.4,29.4,0,0,1,.87-11.4,7,7,0,0,1,1.28-2.67c1.51-1.57,2.38.32,2.8,1.43s.74,2.19,1.08,3.3ZM273,223.3l0-.39v0c.05-.13.12-.26.17-.4l.05.4C273.1,223,273.05,223.16,273,223.3Zm29.67-10.65a.88.88,0,0,1,0-.23,1.41,1.41,0,0,1,0-.2.62.62,0,0,0,0,.18c0,.06,0,.13,0,.21A.12.12,0,0,1,302.65,212.65Zm.24-.32s0,0,0,0,0,0,0,0S302.89,212.31,302.89,212.33ZM303,203c.37-1.25.92-2.89,2.16-3.55a1.62,1.62,0,0,1,2.33,1,4.49,4.49,0,0,1,0,2.33,10.08,10.08,0,0,1-1.24,3.3,10.34,10.34,0,0,1-3.07,3.31,1,1,0,0,0,0,.24,2.4,2.4,0,0,1-.26.18.62.62,0,0,1,0-.23c-.14.09-.29.19-.44.27a23.5,23.5,0,0,1-.13-2.52A15.65,15.65,0,0,1,303,203Zm-26.43-10.54c.07-1.17.17-2.32.25-3.48a14.15,14.15,0,0,1,.49-3.8,1.67,1.67,0,0,1,2.63-1c.07.83.13,1.68.21,2.51a8.89,8.89,0,0,0,.88.13,19.64,19.64,0,0,1,0,3c-.1,2.26-.25,4.51-.46,6.77-.08.85-.18,1.7-.31,2.56a.69.69,0,0,1,0,.2,21.68,21.68,0,0,1-.5,2.5c0,.07,0,.14-.05.21a16,16,0,0,1-2.27,5.07l0,0h0c0-.13-.05-.26-.08-.38h0a37.74,37.74,0,0,1-.9-7.27C276.33,197.08,276.43,194.75,276.57,192.43Zm5.35,40.28a9.39,9.39,0,0,1,1.18,4,5.65,5.65,0,0,1-.7,3.77,1.55,1.55,0,0,1-2.41.17,4,4,0,0,1-.95-2c-.35-1.4-.62-2.81-.84-4.24a49.65,49.65,0,0,1-.52-5.71A9.62,9.62,0,0,1,281.92,232.71Zm-4.26-7.57v0l0,0Zm5.95-5.71a10.84,10.84,0,0,1-5.88,5.47,1.31,1.31,0,0,1-.21.08l-.15,0a.49.49,0,0,0,0-.17,1.22,1.22,0,0,0,0-.27c0-2.32-.14-4.63-.36-7h0q1.17-2.44,2.15-5a2.72,2.72,0,0,1,.11-.25h0a69.61,69.61,0,0,0,3-10.26l0-.2c.91,0,1.82-.11,2.72-.23a.68.68,0,0,0,0,.2,81.57,81.57,0,0,0,.21,13.45l0,.24h0A29.28,29.28,0,0,1,283.61,219.43Zm0-28.09c.06-1.45.09-2.28.09-3.86l1.82-.34c-.12,3.46-.24,6.91-.35,10.37,0,.42,0,.82-.06,1.24l.22,0a1.55,1.55,0,0,0,0,.22h-.21v-.2c-.75.09-1.52.16-2.28.23a.64.64,0,0,0,0,.2h-.23a1.38,1.38,0,0,0,0-.2h.23A70.12,70.12,0,0,0,283.63,191.34Zm7.64-48.24c-.15,2.12-.09,4.81-1.34,6.63a3.15,3.15,0,0,1-4.12,1c-2.12-1.07-2.64-3.55-3-5.68a63.27,63.27,0,0,1-.52-18.07c0-.39,2.52-10,6.09-8.17,1.95,1,2.15,3.33,2.37,5.27.33,3.15.58,6.33.68,9.49A93.91,93.91,0,0,1,291.27,143.1Zm35.51-27.55c0-.11,0-.21,0-.32h0a53.72,53.72,0,0,1-.55-8.4,224.6,224.6,0,0,1,1.46-23.75c.15-1.46,0-3.43.69-4.77a1.42,1.42,0,0,1,.84-.84c2.39-.67,2.22,4,2.3,5.06a103.27,103.27,0,0,1-.92,22.43c-.19,1.26-.36,2.58-.58,3.9v0c-.06.37-.13.74-.2,1.1h0l-.08.21c-.15.36-.31.72-.48,1.07v0a16.47,16.47,0,0,1-2,5.65c-.1-.53-.19-1.06-.27-1.6A1.93,1.93,0,0,0,326.78,115.55Zm28.48,52.16c-.2,1.29-1,2.38-2.48,2.23-1-.09-1.69-1.44-1.92-2.27a11.62,11.62,0,0,1-.07-4.2,22.51,22.51,0,0,1,4.73-10.7c0,2.42-.06,4.84-.08,7.23A55.08,55.08,0,0,1,355.26,167.71Z" fill="#453509"/>
        </g>
      </g>
    </g>
  </g>
  <g id="tap">
    <g>
      <g>
        <path d="M203.35,484.83l-.2-.05.1-.08Z" fill="#c79e70"/>
        <path d="M491.76,161.77A251.84,251.84,0,1,0,161.68,491.85l.78.33c17.75,7.5,57.68,37.77,68.93,91.38,23.62,112.6-2.64,156.87-10.52,170.28l0,0s-8.43,5.82-15.25,7.23a8.49,8.49,0,0,0-1.47.38l0,.07c-.68,1.68-2.27,5.12-4.29,9.35l-.12.25c-5.73,12.54-13.81,30.26-13.81,30.26l157-.67S330.5,776.27,324,760.16c0,0-.44,0-1.18-.17a19.29,19.29,0,0,1-11.44-6.47c-13.62-32.46-27.21-82.19-15.46-171.81a176.3,176.3,0,0,1,4.58-23.17,164.19,164.19,0,0,1,10.78-28.88q2.08-4.33,4.27-8.33l.75-1.38a25.38,25.38,0,0,1,5.14-6c9.58-8.77,27.85-18.51,36.15-22l.15-.07a252.13,252.13,0,0,0,134-330.08Zm-463.89,98C27.87,131.76,131.67,28,259.71,28A231.75,231.75,0,0,1,491.55,259.8c0,128.05-103.79,231.85-231.84,231.85a232.12,232.12,0,0,1-56.36-6.9l-.07,0h-.05l-.08,0A231.81,231.81,0,0,1,27.87,259.8Z" fill="#c79e70"/>
      </g>
      <g mask="url(#mask)">
        <path d="M487.05,165.43C452.14,77.67,365.77,15.51,271.15,11.84,220.38,9.15,169.5,24.74,127.36,52.73c-35.23,23.68-64,56.59-83.56,94.18C-10.73,251.76,3,344.74,86,424.64c8.22,7.9,63,41.27,91.06,59.41,23.88,15.46,42.47,39.69,44.79,44.75,43.49,95,22.21,198.69,8.87,215.63a48.19,48.19,0,0,1-9.86,9.41l-.09.07-.21.14a47.61,47.61,0,0,1-6,3.61c-.31.17-.62.32-.92.46-.74.37-1.46.7-2.14,1a43.79,43.79,0,0,1-5.76,2c-1,.26-1.56.38-1.66.4h0l-4.28,9.35-.12.25c-5.73,12.54-13.81,30.26-13.81,30.26l157-.67S330.5,776.27,324,760.16a11.13,11.13,0,0,1-1.18-.17A21.81,21.81,0,0,1,315,756.7a21.49,21.49,0,0,1-2.07-1.58c-.12-.09-.23-.19-.35-.3l-.39-.36-.49-.47c-4.24-4.21-7.38-11.83-10.17-21.28-4.85-16.39-25-94.51-1-174.17a237.92,237.92,0,0,1,10.78-28.88c.61-1.37,1.24-2.73,1.88-4.09a35.49,35.49,0,0,1,2.39-4.24,54.58,54.58,0,0,1,5.89-7.41c20.6-22.1,64.84-41.62,77-48.93C499.89,404,534.53,276.87,487.05,165.43ZM249.71,492.75a231.12,231.12,0,0,1-45.58-6.66l-.2,0A231.81,231.81,0,0,1,28.7,266C26,136.55,130.92,29.33,260.44,29.3a231.74,231.74,0,0,1,231.79,225C496.16,390.63,385.92,499,249.71,492.75Z" fill="#efd7b3"/>
      </g>
      <g mask="url(#mask-2)">
        <path d="M322.83,760c-19.56,8.44-39.56,11.09-56.95,11.09a184.2,184.2,0,0,1-23.69-1.56,196.76,196.76,0,0,1-36.43-8.37l-.16,0a53.16,53.16,0,0,0,5.92-2c.68-.28,1.4-.61,2.14-1l.89-.47h0a191.63,191.63,0,0,0,28.92,6.11c18.77,2.46,45.36,2.89,71.47-7.07A21.81,21.81,0,0,0,322.83,760Z" fill="#c79e70"/>
      </g>
    </g>
  </g>
</svg>
