<svg xmlns="http://www.w3.org/2000/svg" xmlns:xlink="http://www.w3.org/1999/xlink" viewBox="0 0 520 810">
  <defs>
    <filter id="luminosity-noclip" x="8.91" y="8.95" width="502" height="795" filterUnits="userSpaceOnUse" color-interpolation-filters="sRGB">
      <feFlood flood-color="#fff" result="bg"/>
      <feBlend in="SourceGraphic" in2="bg"/>
    </filter>
    <mask id="mask" x="8.91" y="8.95" width="502" height="795" maskUnits="userSpaceOnUse">
      <g filter="url(#luminosity-noclip)">
        <image width="502" height="795" transform="translate(8.91 8.95)" xlink:href="beer_data1.png"/>
      </g>
    </mask>
    <filter id="luminosity-noclip-2" x="202.91" y="753.95" width="122" height="20" filterUnits="userSpaceOnUse" color-interpolation-filters="sRGB">
      <feFlood flood-color="#fff" result="bg"/>
      <feBlend in="SourceGraphic" in2="bg"/>
    </filter>
    <mask id="mask-2" x="202.91" y="753.95" width="122" height="20" maskUnits="userSpaceOnUse">
      <g filter="url(#luminosity-noclip-2)">
        <image width="122" height="20" transform="translate(202.91 753.95)" xlink:href="beer_data2.png"/>
      </g>
    </mask>
  </defs>
  <g id="icon">
    <g>
      <circle cx="260" cy="258.88" r="233.24" fill="#00b0ea"/>
      <path d="M50.23,156.8A232.31,232.31,0,0,0,26.76,258.88c0,2.58.06,5.16.14,7.73,31.22-22.57,67.69-40.38,108.43-53,43.28-13.35,89.35-20.12,136.93-20.12s93.65,6.77,136.92,20.12a386.22,386.22,0,0,1,83.9,36.83,232,232,0,0,0-30.25-106.83C404.4,121.63,339.46,110,272.26,110,192.73,110,116.37,126.29,50.23,156.8Z" fill="#003d8a"/>
      <path d="M388.54,188.09c0,8.65.8,20.93-.87,29.09-1.79,8.76,2.08,22-1.44,30-2.85,6.48-10.23,6.46-16.7,12.38s-12.17,17.89-17,23.05C329.66,307,294.75,295,258.63,295c-37.58,0-64.88,4.59-87.85-21.6-9.95-11.34-30.94-19.59-36.3-34-5.06-13.61,10.91-11.93-.29-22.47-9.37-8.82-11.41-43.86-8.06-49.25,10-16,20.19-25.87,30.24-40.91,12.77-19.07,11.73-40.64,41.75-41.14,17.63-.3,14.63-18.92,40.62-20.69,26.69-1.81,31.15,11.17,41.12,10.35,48.69-4,53.8,11.28,70.89,35.31C365.3,131,388.54,161.06,388.54,188.09Z" fill="#0a0000"/>
      <path d="M358.84,287.91c.53,3.33-.41,14.56-.72,20.35a5.14,5.14,0,0,1-4.21,4.82c-2,.34-5.26-1.33-5.69.22-1.5,5.33,3.44,14,2.81,18.36s-3.53,12.34-9.7,12-20.86-21.45-31.45-25-33.54,13.68-33.54,13.68l-68.06-.25s4.56-27.21-28,2.82c-21.1,19.47-20,20.9-25.83,18.57s-7.64-25,11.39-56c0,0-1.75-22,1.07-25.17s1.1-10.33,5.84-9.76,6.77,5.67,6.77,5.67.81-6.24,4.61-6.05c3.62.18,6,8.55,6.24,9.23-.12-.68-1.42-8.64,4.75-8.47,6.44.18,5.87,11.18,5.87,11.18s1.71-9.47,7.2-8.91c5.31.55,2.32,11.71,2.11,12.48.48-.83,8.06-13.88,15.09-10.3,7.26,3.69-6.38,14.89-6.38,14.89l7.39,7.39,17.43-13.84s5.85-30.45-.89-54.4a42.57,42.57,0,0,1-.51-21.47c2.23-9.39,6.74-20,15.7-20,16,0,26.85,3.39,29.78,22.1s6.76,25.49,4.5,30.23-8.79,16.24-10.38,23-6.64,13.09.81,16.6,31.71,19.11,35.07,21.44c0,0-1.26-30,2.61-35.64S329,244,328.12,227.43c0,0-2.73-7,6.52-7.45s6.87,8.38,6.87,8.38-.39,22.36,4.59,26.87S350.37,274,350.37,274l.31,6.64C354.54,281.08,358.37,285,358.84,287.91Z" fill="#1c0000"/>
      <path d="M388.82,453.33c-41.84-18.17-83.48-38.2-82.69-45.62,1.6-14.86,2.66-25.47,2.66-36.62s4.77-23.35,4.77-30.77-5.83-33.43-10.61-37.68,4.78-19.63,0-24.94-19.63-13.26-19.63-13.26l-4,.29s11.78,9.73,12.91,19.47-6.11,9.5-5.66,15.39-2.27,19-5.66,23.09c0,0-18.57-13.81-19.25-22s1.36-18.56,0-19.24-7.24,2.26-11.09.23-12.06,7.66-14.55,0L226,284.74A364.86,364.86,0,0,1,208.15,332l7,52.72s-44.33,48-80.41,57.53c-8.17,2.16-8,6.36-2.89,11.57a233.29,233.29,0,0,0,257-.44Z" fill="#f2e5c9"/>
      <path d="M388,405.45c-6.54-5.34-91-35.94-109.51-47.34-5.27-3.24-5-12.81-5.25-19-.42-11.86-4.74-27.79-3-30.73,1.07-2.67,20.55-22.59,29.27-22.67,2.8,0,44.9-1.87,52.7-2.33a2.74,2.74,0,0,0,2.41-1.8,8.25,8.25,0,0,0,.44-2.82c0-1.52-1.78-3.17-2.89-4.06a2.73,2.73,0,0,0-1.93-.57c-7.18.65-46.84,2.53-53.09,2.68-30.36.78-30.35,42.95-41.62,19.58-12.79-19.51-30.36-22.55-50.83-21.66-4.35-1.1-6.69,10.57-4.14,11.81.88,0,17.22-2.46,28.25-1a14.4,14.4,0,0,1,4.73,1.42c8.14,4.14,12.51,12.44,16.64,17.44,5.13,7.54.59,37.38.88,41.81,1.56,23.69-117.94,36-139.13,92.85q4.44,3.66,9.07,7.1c11.1-43.64,66-57.42,88.38-64.42,48.35-15.15,51.35-32.94,52.33-33,.61,0,2,9,15.29,16.05,19.08,10.07,54.52,20.72,78.12,34.73,18.54,11,38.63,24.88,44.76,46q4.22-3.15,8.27-6.5C402.62,426.6,393.22,408.56,388,405.45Z" fill="#351e14"/>
      <path d="M334.29,220.05c3.26-.24,1.6,7.23,1.71,7.71a3,3,0,0,0,.42,1.38c6.47,1,2.39,9.55,3.79,14.13.77,3.3-3.61,4.66-6,5.47-5.5.22-5.06-16.35-1.35-20.8C333.42,227.22,331,219.65,334.29,220.05Z" fill="#f8ce38"/>
      <path d="M346.19,271.11c-3.47,3.41-11.5,1.24-16.45,2.1-.53-1.4-.66-3.22-2.68-2.57-3.32-2.85-4.21-8.88-.68-13.11v.11a5.49,5.49,0,0,0,.56,0c-.19,0-.34-.16-.56-.12C330.11,246.52,351.3,257.19,346.19,271.11Z" fill="#f8ce38"/>
      <path d="M337.1,297.57c-1.13,1-.7-8.33-1.79-8.32-5-.16-1.17,10.84-3.42,15.19a.28.28,0,0,1-.53-.14c-.15-5.19-4.14-20.85,2.65-17a1.77,1.77,0,0,0,1.27-.12c.7-.82,1.67-.61,2.53-.54s4.61-.91,5,.45c.25.84-3.2.22-4.79,2C336.79,290.46,338.49,298.27,337.1,297.57Z" fill="#f8ce38"/>
      <path d="M282.54,208.93a67.14,67.14,0,0,0-4.7-11.89c-7.62-3.15-11.68-.36-11.63-1.8s2.64-1.59,2.64-1.59a12.21,12.21,0,0,1,8.09,1.78c-5.13-9-13.72-16.86-25.38-2.62,0,0,9.57,5.71,9.42,8.7s-2.7,5,1.44,9l.14,4.72s9.27-.29,11.42,6.84-14,6-14,6-13.42,7.28,1,14.56,24.14-7.42,23.14-12.7S289.11,217.93,282.54,208.93Zm-2.46-4.23c-.43,1.4-3.45-2.72-12-2-2.51.19,3.7-3.45,10-.33C278.1,202.34,280.5,203.31,280.08,204.7Z" fill="#66330f"/>
      <path d="M244.81,197.59s7.56,2.85,6,7.74-8.63,2-5.78,14.86S250,232,250,232s1.33-6.85,0-12.72,5.51-8.72,5.51-11.83S258.86,194.13,244.81,197.59Z" fill="#66330f"/>
      <path d="M266.58,248.47s11.67-2.17,14.8-5.14c.43-.4-12,34.13,4.06,35.53,0,0-8.77,11.22-24.31-6.55C255.67,266.08,266.58,248.47,266.58,248.47Z" fill="#66330f"/>
      <path d="M217.9,269.16c-2,2.11-3.19,5.87-.62,6,3,.1,4.44.38,6.4-1.74s3.62-4.16,1.74-5.9S219.85,267,217.9,269.16Z" fill="#66330f"/>
      <path d="M204.05,267.92c-2,2.12-7.72,21.43-6.52,23.7,2.37,4.5,4.43,4.87,5.3,2,.44-1.47.36-7.13,1.21-8.41,1.84-2.78,5.43-8,6.07-8.68,2-2.11,3.34-8.55,1.46-10.29S206,265.81,204.05,267.92Z" fill="#66330f"/>
      <path d="M192.22,264.42c-.12,6.5-6.88,26.87-5.69,29.13,2.38,4.51,5.52,6,6.38,3.14.45-1.47-.46-7.89.68-12.17.86-3.22,4.49-8.14,5.13-8.84,1.95-2.12,3.62-8.59,1.74-10.33S192.27,261.54,192.22,264.42Z" fill="#66330f"/>
      <path d="M184.21,283c-1.14,4.27-.35,12.65-2.66,12.29-3-.44-2.37-3.49-2.21-8.59,0-.83-.05-2.11-.16-3.7-.37,1.22-.66,2-.66,2s-6.84-.12-7.65-8.71c-.59-6.25-2.79-5-3.94-3.85a.27.27,0,0,1-.46-.26c.84-3.54,4-14,10.2-8.19a11.55,11.55,0,0,1,2.87,4.36,10,10,0,0,1,2-4.48c2.55-2.9,6.34-.81,8.23.94S185.07,279.77,184.21,283Z" fill="#66330f"/>
      <path d="M165.87,282.63s11.12,1.19,10.65,10.29,7.89,3.35,7.89,3.35,1,8.49-3.23,10.41-3.23,11-3.23,11-10.89,28.24-20.82,29.67c0,0-4.31-3.83-6.22.84s-1.61-13.29-1.32-14.48c1.2-4.9,12-19.78,16.28-36.14C167.34,292,166.39,286.91,165.87,282.63Z" fill="#66330f"/>
      <path d="M188.1,304l-7,25a.52.52,0,0,0,.78.58c5.48-3.57,28.76-18.9,29.78-22.57,0,0-.34-1.5,7.62-2.65,0,0,7.85-17.66,6.58-19.51l-14.31.7s-3.33,12.86-20.82,16.07A3.36,3.36,0,0,0,188.1,304Z" fill="#66330f"/>
      <path d="M354.65,284c-1.7,1-1.65,2.14-6.16,2.84s-2.11,6.61-1,6.3,6-.62,6.62.47.93,4-1.64,4.2-8.09,2.41-7.54,4.67,5.68,3.58,8.63,1.48.24,2.64.24,2.64-6.38-.54-5.68,3,8.56,2.25,8.79.62.47-7.39.85-8.95,1.72-5.29.08-6.61,1.79-5.53,1-6.77S356.27,283.06,354.65,284Z" fill="#66330f"/>
      <polygon points="86.84 195.24 61.03 171.28 61.74 173.37 62.62 175.97 62.63 175.99 74.75 211.69 73.5 212.11 60.61 174.12 59.72 171.49 58.95 169.25 60.02 168.56 87.74 194.28 86.84 195.24" fill="#fff"/>
      <rect x="77.29" y="161.42" width="1.31" height="37.9" transform="translate(-106.7 113.19) rotate(-46.64)" fill="#fff"/>
      <polygon points="118.74 197.77 117.5 198.2 104.32 161.27 103.41 158.72 102.82 157.08 97.2 190.31 96.97 191.66 96.8 191.71 95.87 192.03 67.52 165.69 68.41 164.73 69.9 166.11 95.87 190.24 96.04 189.22 101.95 154.39 103.21 154.27 103.86 156.07 104.76 158.62 118.74 197.77" fill="#fff"/>
      <polygon points="86.58 207.79 85.35 208.22 79.55 191.7 81.6 193.6 86.58 207.79" fill="#fff"/>
      <polygon points="83.01 209.01 81.77 209.46 73.06 185.76 73.13 185.73 75.14 187.61 83.01 209.01" fill="#fff"/>
      <g>
        <polygon points="68.02 179.21 67.81 179.01 67.94 178.97 68.02 179.21" fill="#fff"/>
        <polygon points="78.66 210.42 77.41 210.84 66.9 179.95 68.91 181.83 78.66 210.42" fill="#fff"/>
      </g>
      <polygon points="98.64 155.4 94.11 185.12 93.74 185.06 92.9 184.29 97.34 155.2 98.64 155.4" fill="#fff"/>
      <polygon points="94.02 156.89 90.21 181.78 89.05 180.7 92.73 156.69 94.02 156.89" fill="#fff"/>
      <polygon points="106.36 200.93 105.12 201.34 100.11 186.02 100.11 186.01 100.52 183.66 100.7 183.59 106.36 200.93" fill="#fff"/>
      <polygon points="110.46 199.7 109.22 200.12 101.57 177.48 102.03 174.74 110.46 199.7" fill="#fff"/>
      <polygon points="113.87 198.23 112.62 198.63 103 169 103 168.98 103.41 166.57 103.58 166.51 113.87 198.23" fill="#fff"/>
      <polygon points="389.98 180.73 381.17 146.63 380.64 148.77 379.98 151.43 379.98 151.45 370.91 188.05 369.64 187.73 379.28 148.79 379.95 146.1 380.52 143.79 381.78 143.79 391.24 180.4 389.98 180.73" fill="#fff"/>
      <rect x="389.85" y="144.45" width="1.31" height="37.9" transform="translate(-27.92 99.23) rotate(-13.99)" fill="#fff"/>
      <polygon points="415.47 200.06 414.2 199.76 423.01 161.55 423.63 158.92 424.01 157.22 401.36 182.16 400.44 183.17 400.26 183.13 399.31 182.89 389.65 145.42 390.92 145.09 391.43 147.05 400.27 181.38 400.97 180.61 424.74 154.48 425.86 155.06 425.43 156.92 424.82 159.56 415.47 200.06" fill="#fff"/>
      <polygon points="382.99 191.15 381.71 190.85 385.75 173.81 386.45 176.52 382.99 191.15" fill="#fff"/>
      <polygon points="379.32 190.25 378.04 189.96 383.49 165.31 383.56 165.32 384.24 167.99 379.32 190.25" fill="#fff"/>
      <g>
        <polygon points="382.78 157.07 382.71 156.79 382.84 156.83 382.78 157.07" fill="#fff"/>
        <polygon points="374.9 189.09 373.62 188.77 381.43 157.1 382.11 159.76 374.9 189.09" fill="#fff"/>
      </g>
      <polygon points="421.4 153.55 401.56 176.12 401.27 175.88 400.98 174.77 420.41 152.68 421.4 153.55" fill="#fff"/>
      <polygon points="416.71 152.3 400.07 171.21 399.68 169.68 415.73 151.44 416.71 152.3" fill="#fff"/>
      <polygon points="403.34 196.05 402.07 195.72 406.12 180.12 406.13 180.11 407.74 178.35 407.93 178.4 403.34 196.05" fill="#fff"/>
      <polygon points="407.46 197.22 406.18 196.9 411.96 173.72 413.82 171.66 407.46 197.22" fill="#fff"/>
      <polygon points="411.12 197.82 409.85 197.49 417.74 167.35 417.75 167.34 419.39 165.52 419.57 165.57 411.12 197.82" fill="#fff"/>
      <path d="M141.33,180.41A12.45,12.45,0,1,1,153.78,168,12.46,12.46,0,0,1,141.33,180.41Zm0-23.58A11.14,11.14,0,1,0,152.46,168,11.15,11.15,0,0,0,141.33,156.83Z" fill="#fff"/>
      <path d="M141.34,150.79A17.18,17.18,0,1,0,158.5,168,17.2,17.2,0,0,0,141.34,150.79Zm0,33A15.87,15.87,0,1,1,157.19,168,15.89,15.89,0,0,1,141.34,183.83Z" fill="#fff"/>
      <path d="M141.34,146.69A21.27,21.27,0,1,0,162.6,168,21.29,21.29,0,0,0,141.34,146.69Zm0,41.22A20,20,0,1,1,161.29,168,20,20,0,0,1,141.34,187.91Z" fill="#fff"/>
      <path d="M141.34,142.58A25.39,25.39,0,1,0,166.72,168,25.42,25.42,0,0,0,141.34,142.58Zm0,49.46A24.08,24.08,0,1,1,165.4,168,24.1,24.1,0,0,1,141.34,192Z" fill="#fff"/>
      <g>
        <polygon points="182.77 136.16 188.5 150.72 188.07 153.27 181.55 136.64 182.77 136.16" fill="#fff"/>
        <polygon points="189.48 153.23 189.4 153.26 189.43 153.1 189.48 153.23" fill="#fff"/>
      </g>
      <polygon points="187.13 159.04 186.71 161.65 177.45 136.97 178.67 136.51 187.13 159.04" fill="#fff"/>
      <polygon points="185.9 166.55 185.9 166.57 185.5 169.04 185.46 169.05 173.18 137.68 174.4 137.21 185.9 166.55" fill="#fff"/>
      <polygon points="185.9 182.03 168.65 137.68 169.87 137.2 186.25 179.31 193.53 134.81 194.82 135.02 187.16 181.9 185.9 182.03" fill="#fff"/>
      <rect x="170.54" y="157.74" width="47.45" height="1.31" transform="translate(9.8 328.1) rotate(-81.81)" fill="#fff"/>
      <polygon points="195.87 181.54 194.57 181.34 201.63 134.03 202.93 134.23 195.87 181.54" fill="#fff"/>
      <path d="M218.18,132.73l-3,18.77-8.3-17.83-1.25.19-7.06,46.79,1.3.2L203,160.42l8,18.06,1.25-.16,7.24-45.4Zm-6.88,43.2-8-17.9.73-4.93,8,16.78.24-.11Zm1.28-8-8.16-17.13.88-5.89,8,16.19.42-.21Zm1.35-8.49-8.29-16.78,1-6.44,8.21,17.6Z" fill="#fff"/>
      <rect x="195.67" y="154.73" width="47.66" height="1.31" transform="translate(32.49 348.65) rotate(-81.24)" fill="#fff"/>
      <rect x="199.99" y="154.17" width="47.74" height="1.31" transform="translate(37.95 353.62) rotate(-81.59)" fill="#fff"/>
      <rect x="204.25" y="153.85" width="47.45" height="1.31" transform="translate(39.37 355.2) rotate(-80.91)" fill="#fff"/>
      <rect x="241.09" y="131.58" width="1.31" height="45.62" transform="translate(-2.91 4.65) rotate(-1.1)" fill="#fff"/>
      <rect x="245.08" y="131.58" width="1.31" height="45.62" transform="translate(-2.91 4.73) rotate(-1.1)" fill="#fff"/>
      <rect x="248.82" y="131.58" width="1.31" height="45.62" transform="translate(-2.91 4.8) rotate(-1.1)" fill="#fff"/>
      <rect x="252.8" y="131.58" width="1.31" height="45.62" transform="translate(-2.91 4.88) rotate(-1.1)" fill="#fff"/>
      <rect x="332.97" y="161.14" width="45.62" height="1.31" transform="translate(139.96 487.64) rotate(-80.94)" fill="#fff"/>
      <rect x="336.89" y="161.84" width="45.62" height="1.31" transform="translate(142.57 492.11) rotate(-80.94)" fill="#fff"/>
      <rect x="340.57" y="162.5" width="45.62" height="1.31" transform="translate(145.02 496.3) rotate(-80.94)" fill="#fff"/>
      <rect x="344.5" y="163.21" width="45.62" height="1.31" transform="translate(147.63 500.77) rotate(-80.94)" fill="#fff"/>
      <polygon points="289.72 177.65 263.8 132.86 261.91 176.22 260.59 176.17 262.59 130.56 263.81 130.26 290.85 176.99 289.72 177.65" fill="#fff"/>
      <polygon points="274.92 156.61 274.24 176.72 272.93 176.67 273.67 154.74 273.84 154.74 274.92 156.61" fill="#fff"/>
      <polygon points="271.07 149.91 271.07 149.94 270.26 176.47 268.94 176.42 269.81 148.02 269.96 148.02 271.07 149.91" fill="#fff"/>
      <g>
        <polygon points="266.3 141.71 267.54 143.84 266.26 176.22 264.95 176.17 266.3 141.71" fill="#fff"/>
        <polygon points="267.64 141.2 267.63 141.38 267.52 141.2 267.64 141.2" fill="#fff"/>
      </g>
      <rect x="280.9" y="127.19" width="1.31" height="53.78" transform="translate(-39.39 156.49) rotate(-29.12)" fill="#fff"/>
      <rect x="285.95" y="127.16" width="1.31" height="53.84" transform="translate(-38.74 159.6) rotate(-29.24)" fill="#fff"/>
      <polygon points="303.92 178.39 277.25 131.41 278.39 130.76 303.9 175.7 305.2 132.06 306.52 132.1 305.15 178.09 303.92 178.39" fill="#fff"/>
      <g>
        <polygon points="299.99 166.59 300.2 166.96 299.97 166.95 299.99 166.59" fill="#fff"/>
        <polygon points="302.54 131.61 301.31 166.26 300.08 164.08 300.08 164.07 301.22 131.56 302.54 131.61" fill="#fff"/>
      </g>
      <g>
        <polygon points="295.87 159.34 296.02 159.59 295.86 159.59 295.87 159.34" fill="#fff"/>
        <polygon points="298.29 131.73 297.2 159.03 295.97 156.87 295.97 156.86 296.98 131.68 298.29 131.73" fill="#fff"/>
      </g>
      <polygon points="294.68 131.61 293.93 153.27 292.69 151.09 293.37 131.56 294.68 131.61" fill="#fff"/>
      <rect x="335.86" y="121.74" width="1.31" height="29.4" transform="translate(158.39 452.88) rotate(-82.69)" fill="#fff"/>
      <rect x="335.61" y="126.33" width="1.31" height="29.33" transform="translate(160.35 460.38) rotate(-83.9)" fill="#fff"/>
      <rect x="334.99" y="130.01" width="1.31" height="29.7" transform="translate(145.7 457.2) rotate(-82.04)" fill="#fff"/>
      <rect x="308.76" y="161.69" width="36.97" height="1.31" transform="translate(125.27 466.73) rotate(-82.82)" fill="#fff"/>
      <rect x="313.05" y="162.22" width="36.83" height="1.31" transform="translate(128.43 471.38) rotate(-82.82)" fill="#fff"/>
      <rect x="316.92" y="162.66" width="36.72" height="1.31" transform="translate(130.13 474.76) rotate(-82.6)" fill="#fff"/>
      <rect x="321.14" y="163.22" width="36.73" height="1.31" transform="translate(132.64 479.04) rotate(-82.49)" fill="#fff"/>
      <rect x="405.59" y="179.25" width="45.8" height="1.31" transform="translate(115.89 523.79) rotate(-70.5)" fill="#fff"/>
      <rect x="409.55" y="180.47" width="45.55" height="1.31" transform="translate(114.3 525.47) rotate(-70.01)" fill="#fff"/>
      <rect x="412.92" y="181.98" width="46.1" height="1.32" transform="translate(114.01 528.72) rotate(-69.8)" fill="#fff"/>
      <polygon points="448.38 163.35 447.35 166.21 467.53 173.95 467.07 175.19 446.91 167.45 446.01 169.93 465.86 177.54 465.4 178.76 445.58 171.16 442.65 179.31 453.17 183.74 452.66 184.94 442.22 180.54 441.23 183.3 451.58 187.48 451.08 188.7 440.78 184.55 439.72 187.48 450.22 191.15 449.78 192.38 439.27 188.73 436.51 196.43 456.36 204.05 455.89 205.27 436.07 197.68 435.23 200.04 455.04 207.62 454.56 208.85 434.78 201.27 433.39 205.16 453.05 212.4 452.61 213.64 432.32 206.17 431.93 205.33 447.37 162.28 448.21 161.89 468.52 169.43 468.06 170.67 448.38 163.35" fill="#fff"/>
      <path d="M271.22,224.52c1.61.39,2.42-3.85-1.55-6.32s-9.94-4-14.83,2,1.61,3.5,1.61,3.5.23-4.42,5.63-4.25S268.81,224,271.22,224.52Z" fill="#fff"/>
      <path d="M318.64,422.24c.09.79.5,1.71.24,2.37-2.12,5.31-4,10.43-4.18,16.49-.13,5.19-10.13,6.65-14.07.43,0-1.69-.82-1.91-2.32-1.43-4,1.27-7.63.89-10-3-2.21-3.6-1-6.91,1.41-10,2-1.49,3.25-3.25,3-6-.3-3.61,1.2-6.14,5.09-6.72,2.73,4.24,6.58,7.8,7.83,12.93a4.21,4.21,0,0,1,.31,1.22l-.39.34c.23.46.53.52.91.17,3,0,.52-1.25.43-2-2.8-3.88.2-7.06,1.24-10.48a5.93,5.93,0,0,1,5.27-.3C315.77,417.77,317,420.15,318.64,422.24Z" fill="#2d7495"/>
      <path d="M277.16,407.62c-.66-1.3-1.32-2.59-2-3.88,5.26-1.44,5.66-4.46,2.78-8.56a5.21,5.21,0,0,1,.34-1.78,11,11,0,0,0,.8-1.61c3-10.89,7.1-12.59,17.24-7.17,1.62,1.45.53,2.45-.65,3.35s-2.6,1.92-2.88,3.67c-.11,2.15,1.63,3,2.9,4.17,1.89,1.71,1.7,3.35,0,5a27.6,27.6,0,0,0-2.67,2.84c-2.15,4.59,2.59,4.77,4.38,6.82a4.4,4.4,0,0,1,1.11,2.2,1.54,1.54,0,0,1-.73,1.35c-2.75,1.3-5.8.19-8.61,1.09-3.12-2.34-3.61-8.53-9.66-6.58A4,4,0,0,1,277.16,407.62Z" fill="#f4c05c"/>
      <path d="M278.56,395.45c2.29,1.71,4.87,3.48,3.54,6.81-1.42,3.54-4.63.83-6.93,1.48-.43-.79-.86-1.58-1.3-2.37C272.2,395.64,273.13,394.46,278.56,395.45Z" fill="#533721"/>
      <path d="M330.08,416.77c-2.68,4.11-7.2,2.65-10.92,3.61-2.54-.76-.93-6.67-5.74-4.6a15.65,15.65,0,0,1-5.2,0c-2.29-.84-4.34-2-5.55-4.24a4.24,4.24,0,0,1,1.57-4.75c3.91-2.46,3.23-5.66,2.07-9.11,1.91-2.56,1.26-6.83,5.3-8,.35-.11.69-.2,1.05-.28,2.71.54,4,2.11,3.63,4.94a17,17,0,0,0,0,5.24c.48,1.59-.25,3.58,1.54,4.73,1.6-.49.27-1.49.39-2.23a39.41,39.41,0,0,1,.37-5.2c.53-2.93,2.06-4,5.1-3.17,3.7,1,7.29,1.93,9.86,5a6,6,0,0,1-.45,6.32c-1.43,1.63-1.58,3.42-1.14,5.53C332.49,412.85,332.89,415.38,330.08,416.77Z" fill="#de376f"/>
      <path d="M296.45,385.65c.43-3.5-3.39-2.9-4.63-4.79a17.49,17.49,0,0,1,11,4.95,2.75,2.75,0,0,0-.28,1.75c.68,4-.39,7.81-4.3,8.89-3.34.91-5.77-2-7.34-5C290.53,387.37,294.89,387.85,296.45,385.65Z" fill="#5a3c20"/>
      <path d="M290.93,391.44c.6.52,1.22,1,1.81,1.57,1.6,1.47,3.16,3.76,5.55,2.57s3.15-4,3.26-6.67c.05-1.23-2.11-3.29,1.3-3.1l1.36,1.2c2.56,2.69,3.55,5.7,1.91,9.26a5.39,5.39,0,0,1-2.31,1.77c-3,1-5.27,5.17-9.27,2.32.78-1.33,2.89-2.58-.13-3.94C292.38,395.51,290.77,394,290.93,391.44Z" fill="#e9b960"/>
      <path d="M289.84,403c7.09-10.18,10.41,2.54,10.85-6.07.05-1.24-2.11-3.29,1.3-3.1,4,2.68,6.34,9.77,1,12.23-3,1-3.69,10.51-7.68,7.66C299.89,409.54,288.86,408,289.84,403Z" fill="#e9b960"/>
      <path d="M305.58,429.49c-.32,1.51-.91,2.77-2.78,2.13a1.61,1.61,0,0,1-.62-1.44c.69-1.31,2-1,3.19-1Z" fill="#9cb3c5"/>
      <path d="M277.84,413.24c-.83-2.36,1.48-3.72,1.8-5.72,5.51-2,6.91-1.07,9.68,6.78a4.07,4.07,0,0,1-1,4C283.35,419.66,280.44,416.76,277.84,413.24Z" fill="#422a1e"/>
      <path d="M303,396.51c-1.36,3.38-2.49,6.87-4.87,9.74-2.25,1.64-2.94-.56-4.1-1.64-.38-.29-.74-.6-1.11-.9a3.37,3.37,0,0,1-.88-1.1l2.5-2.25C298.41,401.37,300,397.42,303,396.51Z" fill="#866234"/>
      <path d="M292.7,398.19c-.27,1.06-.87,1.63-1.71,1.55a1.55,1.55,0,0,1-1-1.07,1.35,1.35,0,0,1,1.53-1.39C291.94,397.32,292.34,397.9,292.7,398.19Z" fill="#faeccc"/>
      <path d="M315.18,400.19c2.88,1.71,3.4-1.3,4.87-2.43.33,1.78-.43,3.26-1.29,4.72a3.63,3.63,0,0,1-1.27,3.82C313.71,405.4,315.72,402.31,315.18,400.19Z" fill="#a32f53"/>
      <path d="M317.49,406.3c.19-1.35-.23-2.91,1.27-3.82,1.24.46,2.91.71,2.22,2.61C320.39,406.73,318.81,406.33,317.49,406.3Z" fill="#e298a6"/>
      <path d="M211.71,381.79c-.74.32-1.74.43-2.17,1-3.53,4.51-7,8.73-12.14,11.92-4.42,2.73-.64,12.11,6.72,12.37,1.47-.84,2.06-.26,2.41,1.27.9,4.08,3.07,7.05,7.62,7.15,4.23.09,6.46-2.65,7.89-6.24.27-2.5,1.17-4.45,3.66-5.64,3.28-1.55,4.7-4.13,3.24-7.78-5-.22-10.05-1.75-15.11-.24a4,4,0,0,0-1.21.35c-.06.33-.1.51-.1.51-.52,0-.71-.2-.6-.71-1.56-2.63.82-1.08,1.47-1.36,4.76.46,6-3.73,8.43-6.35a6,6,0,0,0-2.4-4.71C217,382,214.32,382.12,211.71,381.79Z" fill="#7a130d"/>
      <path d="M245.24,410.24l4.35-.23c-1.41-5.27,1-7.14,6-6.72A5.2,5.2,0,0,0,257,402.1a10.52,10.52,0,0,1,1-1.5c7.88-8.11,7.29-12.48-2.5-18.51-2.08-.67-2.38.78-2.57,2.25s-.35,3.22-1.72,4.34c-1.8,1.18-3.43.11-5.06-.4-2.43-.77-3.75.22-4.35,2.53a25.83,25.83,0,0,1-1.1,3.74c-2.88,4.17-5.42.17-8.1-.34a4.48,4.48,0,0,0-2.46.14,1.59,1.59,0,0,0-.8,1.31c.27,3,2.77,5.11,3.4,8,3.59,1.51,9.19-1.19,10.56,5A4,4,0,0,0,245.24,410.24Z" fill="#135a32"/>
      <path d="M255,402.9c-2.63-1.11-5.46-2.45-7.66.37-2.34,3,1.61,4.42,2.21,6.74l2.7-.08C258.09,408.49,258.63,407.09,255,402.9Z" fill="#533721"/>
      <path d="M210.66,369.15c-2.2,4.39,1.34,7.55,2.39,11.25,1.93,1.81,6.22-2.56,6.86,2.64a15.81,15.81,0,0,0,2.66,4.47c1.89,1.55,3.92,2.74,6.47,2.65a4.23,4.23,0,0,0,3.3-3.75c.16-4.61,3.27-5.64,6.83-6.38,1.24-2.94,5.26-4.53,4.21-8.6-.08-.35-.17-.7-.28-1-1.84-2.07-3.85-2.4-6.11-.65a16.42,16.42,0,0,1-4.54,2.6c-1.62.39-3,2-4.86,1.06-.39-1.63,1.15-1,1.72-1.47a39.37,39.37,0,0,0,4.31-2.93c2.26-1.94,2.38-3.78.16-6-2.69-2.71-5.34-5.32-9.3-6a6,6,0,0,0-5.23,3.58c-.68,2.05-2.15,3.08-4.2,3.77C212.82,365.1,210.44,366,210.66,369.15Z" fill="#f4c05c"/>
      <path d="M254.49,382.51c2.8-2.13,4.21,1.46,6.47,1.58a17.53,17.53,0,0,0-9.84-7,2.65,2.65,0,0,1-1.37,1.12c-3.81,1.44-6.54,4.28-5.5,8.2.88,3.35,4.63,4,8,3.81C256,388.49,253.37,385,254.49,382.51Z" fill="#5a3c20"/>
      <path d="M252.27,390.19c-.76-.25-1.51-.53-2.27-.76-2.07-.65-4.84-.85-5-3.51s1.85-4.72,4.11-6.17c1-.67,3.9.16,2-2.69l-1.72-.57c-3.62-.86-6.72-.19-9,3a5.27,5.27,0,0,0-.36,2.88c.68,3.12-1.81,7.17,2.67,9.18.75-1.34.77-3.79,3.46-1.87C248,391,250.12,391.63,252.27,390.19Z" fill="#135a32"/>
      <path d="M242.82,397c5.23-11.26-7.44-7.72-.22-12.43,1-.67,3.9.16,2-2.69-4.32-2.09-11.63-.54-11,5.33.68,3.12-7.23,8.49-2.75,10.5C232.11,391.58,239.05,400.31,242.82,397Z" fill="#135a32"/>
      <path d="M212,396.72c-1.14,1-1.93,2.19-.43,3.48a1.59,1.59,0,0,0,1.55-.2c.78-1.24-.19-2.23-.78-3.24Z" fill="#422a1e"/>
      <path d="M240,412.49c2.45-.48,2.47-3.16,4-4.44-1-5.79-2.56-6.51-10.73-4.94a4.1,4.1,0,0,0-3,2.9C231.72,411,235.69,412,240,412.49Z" fill="#422a1e"/>
      <path d="M241.81,382.33c-2.24,2.87-4.68,5.61-6,9.11-.29,2.77,2,2.26,3.48,2.72l1.34.5a3.32,3.32,0,0,0,1.4.21c.22-1.1.45-2.2.68-3.3C239.92,388.74,242.52,385.37,241.81,382.33Z" fill="#866234"/>
      <path d="M245.55,392.07c-.78.77-1,1.57-.48,2.25a1.51,1.51,0,0,0,1.45.36,1.35,1.35,0,0,0,.43-2C246.68,392.29,246,392.23,245.55,392.07Z" fill="#52996e"/>
      <path d="M232.49,373.66c-2.93-1.62-.59-3.6-.36-5.43-1.7.61-2.6,2-3.42,3.49a3.63,3.63,0,0,0-2.66,3C228.73,377.56,230.38,374.27,232.49,373.66Z" fill="#866234"/>
      <path d="M226.05,374.75c1.07-.85,2.62-1.27,2.66-3-1-.84-2.08-2.15-3.38-.6C224.21,372.46,225.35,373.62,226.05,374.75Z" fill="#faeccc"/>
      <path d="M228.64,279.17c3.74-.22,15.71,6.4,12,8.4C236.65,283.53,214.73,277.27,228.64,279.17Z" fill="#f2f0ef"/>
      <path d="M298.64,282c-5.54.7-10.34,3.42-15.33,5.6-2.79-3.25,15.37-9.12,18.93-7.31C301.21,281.76,299.74,281.49,298.64,282Z" fill="#eeebe9"/>
      <path d="M257.22,340.52c.92-.55,4.56-15.24,4.85-14.91.37,2.18,3.68,14.49,5.08,15.24C265.74,342.2,257.9,342.28,257.22,340.52Z" fill="#f1efed"/>
    </g>
  </g>
  <g id="tap">
    <g>
      <g>
        <path d="M203.35,484.83l-.2-.05.1-.08Z" fill="#c79e70"/>
        <path d="M491.76,161.77A251.84,251.84,0,1,0,161.68,491.85l.78.33c17.75,7.5,57.68,37.77,68.93,91.38,23.62,112.6-2.64,156.87-10.52,170.28l0,0s-8.43,5.82-15.25,7.23a8.49,8.49,0,0,0-1.47.38l0,.07c-.68,1.68-2.27,5.12-4.29,9.35l-.12.25c-5.73,12.54-13.81,30.26-13.81,30.26l157-.67S330.5,776.27,324,760.16c0,0-.44,0-1.18-.17a19.29,19.29,0,0,1-11.44-6.47c-13.62-32.46-27.21-82.19-15.46-171.81a176.3,176.3,0,0,1,4.58-23.17,164.19,164.19,0,0,1,10.78-28.88q2.08-4.33,4.27-8.33l.75-1.38a25.38,25.38,0,0,1,5.14-6c9.58-8.77,27.85-18.51,36.15-22l.15-.07a252.13,252.13,0,0,0,134-330.08Zm-463.89,98C27.87,131.76,131.67,28,259.71,28A231.75,231.75,0,0,1,491.55,259.8c0,128.05-103.79,231.85-231.84,231.85a232.12,232.12,0,0,1-56.36-6.9l-.07,0h-.05l-.08,0A231.81,231.81,0,0,1,27.87,259.8Z" fill="#c79e70"/>
      </g>
      <g mask="url(#mask)">
        <path d="M487.05,165.43C452.14,77.67,365.77,15.51,271.15,11.84,220.38,9.15,169.5,24.74,127.36,52.73c-35.23,23.68-64,56.59-83.56,94.18C-10.73,251.76,3,344.74,86,424.64c8.22,7.9,63,41.27,91.06,59.41,23.88,15.46,42.47,39.69,44.79,44.75,43.49,95,22.21,198.69,8.87,215.63a48.19,48.19,0,0,1-9.86,9.41l-.09.07-.21.14a47.61,47.61,0,0,1-6,3.61c-.31.17-.62.32-.92.46-.74.37-1.46.7-2.14,1a43.79,43.79,0,0,1-5.76,2c-1,.26-1.56.38-1.66.4h0l-4.28,9.35-.12.25c-5.73,12.54-13.81,30.26-13.81,30.26l157-.67S330.5,776.27,324,760.16a11.13,11.13,0,0,1-1.18-.17A21.81,21.81,0,0,1,315,756.7a21.49,21.49,0,0,1-2.07-1.58c-.12-.09-.23-.19-.35-.3l-.39-.36-.49-.47c-4.24-4.21-7.38-11.83-10.17-21.28-4.85-16.39-25-94.51-1-174.17a237.92,237.92,0,0,1,10.78-28.88c.61-1.37,1.24-2.73,1.88-4.09a35.49,35.49,0,0,1,2.39-4.24,54.58,54.58,0,0,1,5.89-7.41c20.6-22.1,64.84-41.62,77-48.93C499.89,404,534.53,276.87,487.05,165.43ZM249.71,492.75a231.12,231.12,0,0,1-45.58-6.66l-.2,0A231.81,231.81,0,0,1,28.7,266C26,136.55,130.92,29.33,260.44,29.3a231.74,231.74,0,0,1,231.79,225C496.16,390.63,385.92,499,249.71,492.75Z" fill="#efd7b3"/>
      </g>
      <g mask="url(#mask-2)">
        <path d="M322.83,760c-19.56,8.44-39.56,11.09-56.95,11.09a184.2,184.2,0,0,1-23.69-1.56,196.76,196.76,0,0,1-36.43-8.37l-.16,0a53.16,53.16,0,0,0,5.92-2c.68-.28,1.4-.61,2.14-1l.89-.47h0a191.63,191.63,0,0,0,28.92,6.11c18.77,2.46,45.36,2.89,71.47-7.07A21.81,21.81,0,0,0,322.83,760Z" fill="#c79e70"/>
      </g>
    </g>
  </g>
</svg>
