<svg xmlns="http://www.w3.org/2000/svg" xmlns:xlink="http://www.w3.org/1999/xlink" viewBox="0 0 520 810">
  <defs>
    <filter id="luminosity-noclip" x="8.91" y="8.95" width="502" height="795" filterUnits="userSpaceOnUse" color-interpolation-filters="sRGB">
      <feFlood flood-color="#fff" result="bg"/>
      <feBlend in="SourceGraphic" in2="bg"/>
    </filter>
    <mask id="mask" x="8.91" y="8.95" width="502" height="795" maskUnits="userSpaceOnUse">
      <g filter="url(#luminosity-noclip)">
        <image width="502" height="795" transform="translate(8.91 8.95)" xlink:href="beer_data1.png"/>
      </g>
    </mask>
    <filter id="luminosity-noclip-2" x="202.91" y="753.95" width="122" height="20" filterUnits="userSpaceOnUse" color-interpolation-filters="sRGB">
      <feFlood flood-color="#fff" result="bg"/>
      <feBlend in="SourceGraphic" in2="bg"/>
    </filter>
    <mask id="mask-2" x="202.91" y="753.95" width="122" height="20" maskUnits="userSpaceOnUse">
      <g filter="url(#luminosity-noclip-2)">
        <image width="122" height="20" transform="translate(202.91 753.95)" xlink:href="beer_data2.png"/>
      </g>
    </mask>
  </defs>
  <g id="icon">
    <g>
      <circle cx="260.2" cy="260.3" r="232.7"/>
      <path d="M439.32,111.76,50.25,159.84A233.36,233.36,0,0,0,36,322.57L491.74,237A231.64,231.64,0,0,0,439.32,111.76Z" fill="#731110"/>
      <path d="M411.89,217.4c-.18.45-.27.71-.27.71l-12.91-7.06,11,5.44S410.58,216.82,411.89,217.4Z" fill="#1d1919"/>
      <path d="M409.75,216.49l-11-5.44-13.83-7.54-112.5,19.06L262,217.09s3.36-15.83-9.13-32.27l11.27-48.4,35.31-12.49,3.65-10.05,8.53-3.34,12.78,5.17,40.56-9s28.74,7.72,39.79,25c0,0,23.42-.89,25.41,20.55s-2,25.2-2.87,26.3-13.41,33.63-15.43,38.86C410.58,216.82,409.75,216.49,409.75,216.49Z" fill="#1d1919"/>
      <path d="M465.39,242.35l-23.69,6.83L167.33,302.07l-8.08-8.45-13.6,4.78-22.41-7.35-.36-3.67-6.25-1.47-11-25.71,13.23-18h4.4L134.64,226,160,234.11l12.11,29.76-2.2,2.94,5.88,5.88,3.67-3.31,25.71,23.14s11.76-55.83,37.84-63.17,142.88-24.61,142.88-24.61l12.84,6.31,12.91,7.06s.09-.26.27-.71c4.39,2,14.08,6.77,15.49,11.58C427.38,229,447.59,219.89,465.39,242.35Z" fill="#1d1919"/>
      <path d="M411.89,217.4c-.18.45-.27.71-.27.71l-12.91-7.06,11,5.44S410.58,216.82,411.89,217.4Z" fill="#1d1919"/>
      <g>
        <path d="M430.45,157.59c-.24.5-.73,1-.71,1.48A18.71,18.71,0,0,1,427,170.36a13.2,13.2,0,0,1-5.32,4.37c-6.32,3.06-11.9,1-16.66-3.45-3.73-3.5-4-8.36-3.76-13.06a18,18,0,0,1,5.42-12.34c3.59-3.58,10.72-4.59,15.08-2,2.63,1.59,5.16,3.21,6.35,6.26a4,4,0,0,1-3.5,5.23,11,11,0,0,0-3.11,1.29c.09.18.18.37.26.55l2.54.57c0-.42.05-.84.09-1.51l1.51.71.57-1.19c.48.52.87.91,1.18,1.24a11.93,11.93,0,0,0,1.11-2.09l7.59-1.82-.63-1.75-5.9,1.45a10.32,10.32,0,0,0,.31-3.39A25,25,0,0,0,423.22,137c-2.71-2.65-6-3.09-9.88-2.32a19.23,19.23,0,0,0-9.11,4.93,23.46,23.46,0,0,0-6.8,9.31,5.91,5.91,0,0,1-1.1,1.38l-.68-.4,3.35-7.2h-2l2.2-2.07c-.09-.16-.18-.32-.28-.48a6.52,6.52,0,0,0-2.09,1.12c-.94,1.17-1.52,2.62-2.49,3.78a3.76,3.76,0,0,1-2.24,1.14c-3.29.37-5.16,1.88-6.12,4.91a37.65,37.65,0,0,0,.13,22.12c1.25,4.27,4.42,7.13,7.82,9.72a2.19,2.19,0,0,0,1.45.16c3.13-.44,6.26-.92,9.91-1.48-1.45-1.06-2.52-1.91-3.67-2.64-.31-.2-.88,0-1.32,0-2.31.38-4.61.8-6.92,1.19-.05-.24-.1-.49-.14-.73,2.25-.46,4.49-.9,6.94-1.38A28.15,28.15,0,0,1,394,156.27a36.2,36.2,0,0,1,1.27-4.75l.76.19a13,13,0,0,1-.43,2.46c-2.1,5.44-.46,10.5,1.21,15.7,2.24,6.94,7.88,10.3,13.66,13.19,6.08,3,12.29.88,16.62-4.92s5-12.42,4.65-19.29C431.76,158.41,430.91,158,430.45,157.59ZM401.6,179.77c.06.34.11.67.17,1l-7.62,1.13c0-.23-.09-.46-.13-.68Z" fill="#fff"/>
        <path d="M403.58,212.56c-4.6-2.72-9.23-5.36-13.72-8.22a11.63,11.63,0,0,0-7.13-1.7,82.06,82.06,0,0,0-11.16,1.89c-5.8,1.23-11.51,2.87-17.34,3.92-10.21,1.84-20.49,3.34-30.74,5-7.66,1.25-15.31,2.57-23,3.87l-28.23,4.81c-6.71,1.17-13.42,2.24-20.09,3.62A59.55,59.55,0,0,0,241.68,229a32.08,32.08,0,0,0-11.77,8.8c-2.19,2.47-4.75,4.68-6.62,7.36A104,104,0,0,0,207,283.06c-.5,2.28-.7,4.63-1,7,3.11.14,3.12.14,3.68-2.33.14-.65.26-1.3.36-2a97.22,97.22,0,0,1,7.64-26,2.71,2.71,0,0,1,1.57-1.42,11.38,11.38,0,0,1,3,.18c-1.31,1-3.38,1.85-4,3.29-2.06,5-3.75,10.16-5.31,15.32a54.56,54.56,0,0,0-1.38,7.88,1.82,1.82,0,0,0,.53,1.25,1,1,0,0,0,1,0c.95-1.24,1.82-2.53,2.84-4-.07-.1-.31-.37-.67-.78l5.87-.79c-2.21,1.63-2.24,3.11-.58,7.08l15.65-3c.21-1.8.39-3.37.59-4.95H237l.24,1.85,1.49-.71c-.21,1.29-.37,2.25-.52,3.19,3.16-.13,3.15-.13,3-3a2.31,2.31,0,0,1,.32-1c.38-.85.83-1.67,1.17-2.52a10.18,10.18,0,0,0,.35-1.64l.72.12c-.23,2.37-.45,4.74-.68,7.13,3.3-.1,3.27-.22,3.4-3.07a46.83,46.83,0,0,1,1-7.45c.15-.72,1.12-1.29,1.72-1.92-.11,3.41-2.14,6.12-1,9.5.2.56-.48,1.73.72,2a1.93,1.93,0,0,0,2.49-1.61c.52-3,.81-6.11,1.55-9.09.6-2.45,0-5.67,3.63-6.75-.3,1-.62,1.89-.83,2.8-.92,3.77-1.9,7.55-2.66,11.36-.45,2.22.11,2.61,2.37,2.19a52.19,52.19,0,0,0,6.12-1.23c1.07-.33,54.18-10.07,66.57-12.48a3.36,3.36,0,0,0,2.2-1.57c1.44-3.15,27.19-3.84,29.55-4.41a2.07,2.07,0,0,0,1.1-1.36c.94-3.9,1.51-7.91,2.75-11.7,1-3.14,0-6.54,1.82-9.59,1.24-2,1.5-4.66,2.44-6.92,1.26-3.07,2.68-6.09,4.17-9.07,1.19-2.35,2.57-4.62,3.94-6.89,2.05-3.4,4.13-6.79,6.26-10.14a2.47,2.47,0,0,1,1.36-.92,6.41,6.41,0,0,1,5.13,1c4,2.28,8.07,4.44,12.17,6.54a33.82,33.82,0,0,0,4.23,1.54c.07-.16.13-.31.18-.46A20.4,20.4,0,0,1,403.58,212.56Zm-181.5,42.09a9.14,9.14,0,0,1-2.49-.08,5.9,5.9,0,0,1,.39-2,62.92,62.92,0,0,1,14.89-17.12,54.61,54.61,0,0,1,7.77-5.08c1.29-.68,3.05-.5,4.59-.7.44-.05.9,0,1.32-.07,3.71-.76,7.43-1.55,11.14-2.32a7.71,7.71,0,0,1,1.5-.32c2.11,0,4.24,0,6.39,0-.23.27-.63,1.15-1.3,1.46-7.8,3.56-13.1,9.5-17,17-2.62,5.11-3.58,5.52-9.47,5.94a95.93,95.93,0,0,0-10,1.05C227.18,252.88,224.68,254,222.08,254.65Zm-1.74,19.09-1.27.57c.46.13.84.23,1.57.45l-4.09,1.35.09.62,4.29-.3c0,.19,0,.38.08.57-2.21.39-4.41.76-7.12,1.22C215.62,275.59,216.26,272.49,220.34,273.74Zm-5.9,6.62c-.06-.33-.11-.64-.17-1l6.7-1.07c0,.25.09.51.13.76ZM224,263.63c-.19-.72-.34-1.31-.62-2.45a28.53,28.53,0,0,0-3.65,2.61c-1.19,1.15-1.12,2.58-.23,4.23l1.85-1.64c.1,1,.18,1.74.27,2.63l1.69.28.06.54-4.21.45c-2.26-5-1.95-6.77,1.41-8.9,1.94-1.24,3.3-.88,5.43,1.61Zm14.94,15.46-2.59-1.22c.13-.71.32-1.61.51-2.56C239.32,275.79,239.5,277.18,238.91,279.09Zm-.41-10.47c.15-.72.28-1.39.44-2.19,1.06.2,1.74.32,2.42.43C241.09,268.56,241.09,268.56,238.5,268.62Zm50.58-13.21-1.14-.83-4.79,6c0-.81-.19-1.43,0-1.75.73-1,1.72-1.83,2.42-2.86a7,7,0,0,0,.61-2.16l-.52-.28c-1.58,1.18-3.94,1.62-3.67,4.55l-.75-.21c.23-1.13.15-2.5.77-3.35,1.09-1.48,2.64-2.91,4.7-2.19,1.1.39,1.93,1.57,2.88,2.4Zm32-8.64c-7.43.93-14.89,1.55-22.34,2.28-10.07,1-20.18,1.71-30.21,3-10.71,1.41-21.34,3.39-32,5.09-2.8.44-5.62.76-8.43,1.15,0-.3-.07-.58-.1-.87,4.43-.81,8.84-1.75,13.28-2.42,12.25-1.81,24.49-3.63,36.78-5.22,6-.77,12.12-1,18.17-1.51,8.65-.78,17.31-1.46,25.91-2.54,9.17-1.16,18.31-2.72,27.45-4.14,2.61-.41,5.2-.91,7.8-1.36.09.22.17.45.26.67a22.86,22.86,0,0,1-4,1.37C342.83,243.84,332,245.41,321.1,246.77Zm35.9-1.09-.92-.44,1.71-4.06,1,.46C358.21,243,357.6,244.33,357,245.68Zm16.76-34.36c-3.27,3.07-4.77,7.09-6.32,11.1-.83,2.12-1.72,4.22-2.57,6.33s-1.75,4.36-2.65,6.52c-.16.38-.41.91-.74,1a25.22,25.22,0,0,1-4.43,1c-4.73.52-9.48.86-14.2,1.37-2.73.29-5.44.74-8.14,1.22-.49.08-.89.66-1.48,1.13-1.08-.33-2.64-2-3.65.7-1.14-.27-2.39-2.35-3.48.14-1.3-.56-2.63-1.88-3.85.09-.11.17-.82,0-1.22-.06a8.69,8.69,0,0,0-6.51,1c-.31.18-.84-.07-1.23,0-.86.21-1.69.52-3,.93,0,0-.55-.32-1.32-.78-.09.77-.15,1.32-.22,1.88-.29,0-.5.09-.57,0a3,3,0,0,0-3.11-.9c-4.46.77-9.06.65-13.56,1.2-8.17,1-16.31,2.28-24.47,3.35a18.43,18.43,0,0,1-3.94-.41l-.73.81c-2.71-2.51-5.55-.69-8.26-.76,0,.19,0,.38,0,.57h5.31l.06.64a39.79,39.79,0,0,1-6.31,1.06c-1.3,0-1.71-1.38-1-2.54a66.13,66.13,0,0,1,4.6-7.31,114.93,114.93,0,0,1,8.79-10.16,24.89,24.89,0,0,1,7-5c2.2-1,4.89-1,7.36-1.42q27.31-4.76,54.62-9.54c10.82-1.88,21.65-3.74,32.46-5.73,2.43-.45,4.75-1.41,7.15-2a15.7,15.7,0,0,1,3.11,0A35.57,35.57,0,0,1,373.76,211.32Z" fill="#fff"/>
        <path d="M363,107.76c-1.18.2-2.38.31-3.54.58-4.14,1-8.27,1.91-12.37,3-8.24,2.17-16.47,4.42-24.69,6.66-1.86.5-3.69,1.06-5.54,1.6a1.5,1.5,0,0,0,1.14.29,8.75,8.75,0,0,1,.92.08l-3.25,2c3.22-.61,6.15-1.6,9.17-2,3.45-.51,7-.27,10.46-.77,3.07-.43,6.05-1.41,9.08-2.14.5-.11,1-.13,1.55-.2.07.18.14.35.2.53-.34.26-.66.67-1.05.76-3.39.78-6.8,1.44-10.17,2.28-5.43,1.37-10.84,2.83-16.24,4.32-.75.21-1.77.66-2,1.26-1.28,3.25-2.34,6.58-3.47,9.9l-.59.1v0a.08.08,0,0,0,0,0c-1.89,6.34-3.81,12.69-5.78,19.25L305.16,154c-.08.27-.15.54-.23.81a10,10,0,0,0,2.77.45c5.36-.58,10.72-1.26,16.08-1.93,4.53-.58,9.07-1.23,13.62-1.79,1.57-.19,2-1.24,2.34-2.55.94-3.89,1.92-7.78,2.86-11.66s1.9-7.71,2.75-11.58c.68-3.07,1.21-6.18,1.87-9.67,1.85,1.34,3.52,2.48,5.1,3.77.29.24.28,1.07.16,1.56-1.56,6.73-3.23,13.43-4.76,20.17-1,4.53-1.85,9.11-2.82,13.88l7.91-1c0,.26.05.54.08.8a34.57,34.57,0,0,0-4.46.5c-1.92.44-3.74,1.41-5.67,1.7-9,1.35-18,2.46-27,3.81-3.87.58-7.68,1.48-11.5,2.32a5.82,5.82,0,0,0-1.63,1l.24.42L316.54,163a3,3,0,0,1-1.84.89c-3.35.6-6.71,1.15-10.06,1.84a8.48,8.48,0,0,0-2.13,1.25c.1.21.2.41.29.62l8.62-1.52c-2.77,1.47-6.1,1-8.65,3.14,16.73-.67,33.1-3.89,49.57-6.35l0-.65h-6.63c0-.22,0-.45,0-.68a45.2,45.2,0,0,1,5-.6,2.3,2.3,0,0,0,2.56-2.16c.33-1.58.78-3.11,1.16-4.67,1.39-5.57,2.79-11.15,4.16-16.72q1.56-6.24,3.08-12.49c1.23-5,2.5-10,3.65-15C365.74,108.22,364.77,107.45,363,107.76Zm-32.83,41.29c-2.87,1.45-5.59,3.88-9.06,2.79-2.49-.77-4.75-2.29-7.3-3.59l-1.2.55-.33,3.43a9.12,9.12,0,0,1-2.74-.71c-.45-.28-.4-1.32-.58-2l.6-.16c.37.65.75,1.28,1.11,1.91l.51-.13c-.09-1-.2-2.06-.24-3.09a2.87,2.87,0,0,1,.33-.91l1,.63c1.52-1.59.59-3.39.56-5.15-.05-2.25.26-4.49.41-6.73h0c1.2-1.51,2.47-3,3.58-4.56,2.21-3.14,4.05-6.45,8.21-7.71,8.64-2.63,14.54,2.81,14.29,10.31C339.15,140.44,336.42,145.91,330.21,149.05Zm12.41-23.32c-.78,1.32-1.92,1.63-2.93,1.07a22,22,0,0,0,2.4-2.44c.13-.17-.51-.93-1.28-1.25l-.17,2.58-2.26-3.12c1-1.84,2.48-.46,3.7.12C343.48,123.33,343.3,124.59,342.62,125.73ZM358.09,117c-1.75,0-2.43-1.12-2.45-2.77s1.42-3.47,2.91-3.09c1.09.28,2,1.35,2.92,2.06C361.13,115.22,359.57,117,358.09,117Z" fill="#fff"/>
        <path d="M351.75,184.36l-1,0a47.54,47.54,0,0,1-.38,4.8,8.09,8.09,0,0,1-1.27,3.75c-.47.58-2,.27-3.22.37a11.14,11.14,0,0,1,0-1.16c.55-4.94,1.16-9.86,1.64-14.81a10.11,10.11,0,0,0-.54-2.8l-.69.11a20.66,20.66,0,0,0-.56,2.57c-.42,4.83-.87,9.68-1.12,14.53-.1,1.84-.7,2.44-2.46,1.95a13.62,13.62,0,0,0-1.68-.21c.62-6.44,1.23-12.74,1.84-19l-.9-.09c-.39,3.49-.82,7-1.15,10.48-.28,2.87-.3,5.77-.69,8.62-.29,2.14-2.31,1.81-3.75,1.86-1.78.06-1.11-1.35-1-2.27.69-5.53,1.41-11.05,2.09-16.57a7.23,7.23,0,0,0-.15-1.66c-.61.23-.82.45-.86.7-.83,5.63-1.78,11.25-2.42,16.91-.4,3.55-1.4,4.46-5.31,3.74.46-2.57.92-5.13,1.38-7.64a13.6,13.6,0,0,0,2,1.51c.14.07.91-.56,1-.93.57-4,1.06-8,1.56-12l-.71-.4c-.48.48-1.18.88-1.39,1.45a16.19,16.19,0,0,0-.54,3.06q-.46,3.06-.91,6.11l-.56-.09c.25-3.73.51-7.46.8-11.61l-4.55,1.36s0,0,0,0c-.52.25-1.47.44-1.52.76-.76,5.09-1.39,10.21-2.1,15.29-.31,2.22.72,5.19-3.33,5.27-2.31.05-4.59.8-7.33,1.31,1.22-7.14,2.32-13.58,3.46-20.34-4.34.89-8.55,1.65-12.7,2.59-6.2,1.42-12.37,2.89-18.51,4.5-1.1.29-2.69,1.2-2.9,2.1-1.29,5.47-2.34,11-3.26,16.54-.51,3.11-1.36,3.77-4.71,2.69,1-6,2-12.08,3.06-18.14l-1-.35a12.36,12.36,0,0,0-1.28,2.84c-.59,3.42-1,6.88-1.48,10.31-.34,2.44-.65,4.89-1,7.65,1.27-.13,2-.14,2.69-.29,3.92-.87,7.81-1.82,11.74-2.64q23.06-4.85,46.16-9.59c6.1-1.25,12.24-2.32,18.34-3.54.56-.11,1.43-.76,1.44-1.18C352,189.87,351.85,187.12,351.75,184.36Zm-62.32,1.91,2.78-.77a18.15,18.15,0,0,1,0,3.38c-.42,2.31-1,4.59-1.6,6.88-.06.23-.28.43-.93.53.31-2.27.51-4.56,1-6.8a4.59,4.59,0,0,0,.1-1.74.45.45,0,0,0,0-.16l-.06-.19a.61.61,0,0,0-.05-.12,1.5,1.5,0,0,0-.46-.58.31.31,0,0,0-.11-.09.8.8,0,0,0-.19-.13l-.23-.12-.18-.08h0Zm-9.87,20.58a1.5,1.5,0,0,1-1.09-.19c.81-3.89,1.42-6.71,2-9.53.52-2.61,1.05-5.22,1.43-7.86.16-1.1.27-1.91,1.68-1.66a2.77,2.77,0,0,0,1.07-.2l2-.59a9.93,9.93,0,0,1,0,2.25c-1.19,5.13-2.57,10.21-3.59,15.36C282.56,206.62,280.91,206.39,279.56,206.85Zm25.18-6.22c-4.34,1.13-8.69,2.2-13.07,3.13-.57.13-1.32-.6-1.88-.88-.6,2.12-3.12,1-5.21,2.35.32-2,.48-3.37.75-4.69.88-4.25,1.76-8.5,2.74-12.73.13-.57.85-1,1.31-1.51l0,0-.9,5.23-.9,5.22a4.8,4.8,0,0,0-.27,1.29,6,6,0,0,0,.61,1.46,13.07,13.07,0,0,0,1.05-.9,3.13,3.13,0,0,0,.42-.76c1.42.42,2.06.21,2.29-1.49a99.65,99.65,0,0,1,2.12-10.67c.54-2.2,2.53-1.37,4.24-1.66-1.13,5.75-2.23,11.26-3.31,16.77l.81.17c.38-1.73.8-3.47,1.14-5.21.69-3.56,1.3-7.12,2-10.67a1.66,1.66,0,0,1,1-1c1-.42,2-.69,3.54-1.17-1,5.95-2.06,11.68-3.06,17.41l.81.15q1.8-9.13,3.58-18.28l4.46-.51c-.69,3.16-1.41,6.08-2,9s-.87,5.7-1.38,8.53C305.54,199.72,305.15,200.52,304.74,200.63Zm2-.51a1.23,1.23,0,0,1-.46-1c1.3-5.83,2.52-11.69,4.12-17.45.23-.83,2.21-1.18,3.4-1.75l.65.66c-.74,3.73-1.54,7.45-2.22,11.19-.35,2-.48,4-.74,5.94C311.27,199.34,308.24,200.93,306.74,200.12ZM326.58,197a21,21,0,0,1-3.48.28,11.47,11.47,0,0,1,0-2c.29-1.84.67-3.67,1.14-6.11.7,1.2,1,1.71,1.31,2.22l.73,0c.68-4.32,1.34-8.64,2-13l-.68-.19c-1.27,1.34-1,3.24-1.43,4.9a36,36,0,0,1-1.25,5c-.43-3.86.39-7.54,1.31-11.23a8,8,0,0,0,.84.05c3.05-.07,2.79-.11,2.28,2.86-.89,5.16-1.42,10.37-2.13,15.56C327.14,196,326.91,196.92,326.58,197Z" fill="#fff"/>
        <path d="M119.89,241.68c.48,1.36.81,2.32,1.15,3.27,1.22,3.4,2.38,6.83,3.67,10.2a14.72,14.72,0,0,0,1.66,2.56,4.5,4.5,0,0,1,.68,1.09c1,3.24,2,6.5,3,9.72.58,1.75-.25,3.36-2.59,4.57-1.8.92-2.63-.59-3-1.65-.69-1.86-1.88-2-3.29-1.41a3.43,3.43,0,0,0-2.14,4.21c.82,1.95,1.58,3.92,2.38,5.92l-3.22,3.71c-3.28-2.71-4.52-6.71-6.17-10.43-1.81-4.06-3.5-8.18-5.08-12.33a3.88,3.88,0,0,1,0-3.07c3.48-4.89,7.14-9.65,10.78-14.42A17.68,17.68,0,0,1,119.89,241.68Z" fill="#fff"/>
        <path d="M122.87,289.05c3-3.58,5.65-6.68,8.24-9.81,1.65-2,3.27-4,4.84-6.09.7-.92,1.22-.93,2.39-.55,4.57,1.49,9.24,2.67,13.86,4,1.33.38,2.62.91,4.31,1.5-1.19,1.56-2.15,2.81-3.1,4.07l.17.26,1.46-.77.25.25c-.61.66-1.28,1.29-1.84,2-1.59,2-4.06,3.9-4.43,6.13a15.61,15.61,0,0,1-2,5c-.14.27-.47.43-1.06.42l1.09-2.82c-1.34.64-2.37.82-2.91,1.44-1.65,1.88-3.44,1.2-5.25.58-2.71-.94-5.4-2-8.1-2.91C128.3,290.85,125.79,290,122.87,289.05Z" fill="#fff"/>
        <path d="M298.8,146.53,301,146c-1.62,6.82-1.62,6.82-2.88,7.48,1.25.72.62,3.67-.92,4.27a5.55,5.55,0,0,0-1.59.77l2.15-.21c.14,3.9-1.14,5.61-4.63,6.35-1.47.32-2.92.74-4.89,1.25,1.11-5.51,2.27-10.53,3.09-15.6.59-3.61,2.77-6.51,3.83-9.88s2.29-6.86,3.44-10.29c1-3,2-6,3.06-9a1.49,1.49,0,0,1,.87-.76c2-.68,4.05-1.29,6.07-1.93l.43.46-1.11.82a7.34,7.34,0,0,1,.2,2.23c-2,7.14-3.85,14.3-6.1,21.35C301.62,144.65,299.77,145.6,298.8,146.53Z" fill="#fff"/>
        <path d="M288.87,171.13c-.86.43-1.73.85-2.57,1.3-1.14.62-2.75.47-3.3,2.11-.07.22-.89.19-1.37.26s-1-.07-1.2.16c-2.12,2.83-5.51,2.66-8.41,3.6-2.21.72-4.52,1.15-6.77,1.77-3.66,1-7.3,2.09-11.32,3.24,2.3-9.38,4.53-18.49,6.81-27.83.18,2.09.36,4.06.51,6a10.52,10.52,0,0,0,9.5,9.55c2.14.14,4.3,0,6.44.13.63,0,1.23.57,1.87.71a4.14,4.14,0,0,0,1.68-.06c2.63-.51,5.25-1.07,7.88-1.61Z" fill="#fff"/>
        <path d="M377.8,149.28l3.75.32c-.14,3.09-3.29,2-4.43,3.55h3.2l.29.72L378,155.28l1.91.75c-.84,8.8-1.26,17.52,4.72,25.38-2,.27-3.78.37-5.51.79-2.38.56-3.18-1.34-4.56-2.64l1-.67c-1-1.36-2.42-2.54-2.7-3.95a49.76,49.76,0,0,1-1.13-10.45,48.23,48.23,0,0,1,1.43-9.11c.16-.74,1-1.34,1.61-2.1-.78-1.92-.19-2.76,3.12-4.05Z" fill="#fff"/>
        <path d="M262,149.63c.66-2.6,1.41-5.19,1.94-7.82.64-3.19,2.28-4.88,5.53-6.07,9-3.26,17.71-7.13,26.54-10.75a4.08,4.08,0,0,1,2.45-.3l-11.3,4.88.22.57,10.23-3.64.4.68c-1.9,2.77-5.91,2.27-8.53,4.84l4.57-1.55.16.43-4.1,1.89.17.49,5.91-1.68c-.15.48-.17,1.09-.38,1.16q-6,2.16-12.11,4.17a2.9,2.9,0,0,1-1.75,0c-5.25-1.84-9.34.85-13.06,3.77-1.95,1.53-3.1,4.09-4.57,6.22-.64.94-1.18,1.95-1.77,2.93Z" fill="#fff"/>
        <path d="M264.43,149.14c-.21,2.92-1,6.54-.62,10.05.65,6.26,5.44,9.39,11.77,8.21a4.31,4.31,0,0,0,2.5-1.28,64.55,64.55,0,0,0,5.23-7.61c2.21-3.94,1.09-11.93-1.79-15.4-2.18-2.64-9.6-3.56-12.25,0-.82,1.1-1.85,2.05-3,3.31,2-6.29,9.11-10.11,14.75-7.63a9.63,9.63,0,0,1,5.51,7.53,26.2,26.2,0,0,1-.91,13.57c-.95,2.61-2.5,5.9-5.78,7.22-1.12.45-2.21,1-3.3,1.53-7,3.36-13.33-.18-14.23-7.87A19.51,19.51,0,0,1,264.43,149.14Z" fill="#fff"/>
        <path d="M373.13,107.35l-1.57-5.47-.65.14c.13,1.61.27,3.21.41,4.82l-.62.18L369.14,102l-.47.1v2.55l-1.42-.86c-.31,1.33-.74,2.57-2.43,1.42-.09-.06-.43.33-.68.38-.78.15-1.56.23-2.34.33l-.28-.82-1,2.63-1-.85c-.14-.72-.28-1.45-.55-2.8l-1.85,3.48c-.31-.83-.51-1.35-.76-2L354,108.33l-.47-.29v-1.83l-.41-.23-2.28,3.12-.17-2.59-2.19,3.07-.53-.3a15.05,15.05,0,0,0,1-2c.37-1,1.72-1.76.88-3.3-.17-.31,1.2-1.72,2.07-2.29a32.77,32.77,0,0,1,4.34-2.21,8.31,8.31,0,0,1,5.52-.82c2,.44,4.21-.34,6.23,0,3.08.49,5.12,1.26,5.2,5.35a20.06,20.06,0,0,0,.58,3.21Z" fill="#fff"/>
        <path d="M399.67,133.55c-3.42,2.83-6.61,4.86-9,7.6A26.3,26.3,0,0,0,384.08,154c-1.29,8.08-1.76,16.47,2.81,23.69,4,6.31,10.16,10.32,17.52,12.11,1.58.39,3.34.06,5,.36-2.83.43-5.73.91-8.48-.13-6.55-2.47-12.46-5.92-16.6-11.84-2.27-3.24-2.62-7-3.17-10.77-.86-5.87.23-11.57,2.07-17.07,2.22-6.65,6.91-11.54,12.48-15.58C396.65,134.12,398,134.05,399.67,133.55Z" fill="#fff"/>
        <path d="M269.14,153.37c-.29-1.73.56-2.86,2.46-3a3.75,3.75,0,0,1,3.86,3.43c0,1.8-1.81,3.72-3.45,3.68S269.1,155.9,269.14,153.37Z" fill="#fff"/>
        <path d="M316.84,196.84c.14-6.19,2.36-12.19,2.39-18.72l2-.52c-1.33,6.69-2.58,13-3.84,19.35Z" fill="#fff"/>
        <path d="M282.35,154.92c-1,.66-1.89,1.73-3,1.9-1.51.25-2.48-.91-2.48-2.45s1-2.68,2.5-2.43c1.06.18,2,1.25,2.93,1.92Z" fill="#fff"/>
        <path d="M388.26,185.34c-3,.23-5.68,1.31-8.4.56l-.07-.74,4.9-.93-.09-.67-6.44.53C381,181.61,385.89,182.2,388.26,185.34Z" fill="#fff"/>
        <path d="M365.76,77.34l-2.32,19-.85-.1,2.1-19Z" fill="#fff"/>
        <path d="M377.87,149.23l-1.52-.08c.64-3.22,2.79-4.32,7.25-3.75a3.06,3.06,0,0,1-2.91,3,17.15,17.15,0,0,0-2.88.91Z" fill="#fff"/>
        <path d="M312.67,135.93a18.32,18.32,0,0,0-1.65,2.78c-1.5,4-2.9,8-4.34,12l-.67-.24,6.69-19.57.66.19a20,20,0,0,0-.52,2.13c-.12.91-.14,1.85-.2,2.76Z" fill="#fff"/>
        <path d="M278.91,189.56c.34,5.59-.79,9.41-2.78,9.74A22.67,22.67,0,0,1,278.91,189.56Z" fill="#fff"/>
        <path d="M369.08,75l-7.37-.41a5.54,5.54,0,0,1,5.91-1.93c.76.17,1.34,1.16,2,1.77Z" fill="#fff"/>
        <path d="M309.65,114c-.32,4-1.48,4.73-7.44,5,.56-.22,1.14-.41,1.69-.67,1.29-.63,2.94-.62,3.46-2.56C307.55,115,308.86,114.58,309.65,114Z" fill="#fff"/>
        <path d="M287.06,136.72l8.11-2.47C295.05,136.47,290.55,138,287.06,136.72Z" fill="#fff"/>
        <path d="M323.15,179.26c-.77,8.19-.77,8.19-2.63,8.23.63-2.88,1.25-5.68,1.86-8.48Z" fill="#fff"/>
        <path d="M385.1,143c-1.74,2-4.11,1.11-6.24,1.39C380.53,142.22,382.89,143,385.1,143Z" fill="#fff"/>
        <path d="M390.21,187.14c-2.87.35-5.67,1.51-8.63.88l-.07-.76,8.62-1Z" fill="#fff"/>
        <path d="M293.12,142l-2-3.87,3.65-1.23C294.07,139,293.58,140.57,293.12,142Z" fill="#fff"/>
        <path d="M344.66,175.81c-.26,2.3-.51,4.59-.77,6.89l-1.08-.13.76-6.9Z" fill="#fff"/>
        <path d="M375,102.35l1.54,6.3-.85.23c-.56-2.09-1.13-4.18-1.69-6.27Z" fill="#fff"/>
        <path d="M310.1,113.17l-6,1.69C304.67,113.24,304.67,113.24,310.1,113.17Z" fill="#fff"/>
        <path d="M363,70.31a16,16,0,0,1,3-.64c.27,0,.58,1,1.17,2l-4.13-.45Z" fill="#fff"/>
        <path d="M339.71,175.57c-.23,1.47.58,3.28-1,4.29l-.9-.28.93-4.28Z" fill="#fff"/>
        <path d="M381.55,141.33l5.1-1,.16.93-5.2.73Z" fill="#fff"/>
        <path d="M356.08,245.24l1.71-4.06,1,.46c-.61,1.35-1.22,2.69-1.82,4Z"/>
        <path d="M313.27,135.87l0,0h0l0,0h0Z"/>
        <path d="M289.39,186.25s0,0,0,.05l0,0v0Z"/>
        <path d="M326.25,176.84s0,0,0,0,0,0,0,0h-.05Z"/>
        <path d="M289.42,186.27h0v0Z"/>
        <path d="M328.6,135.71c-.44,1.09-1.05,1.19-2.9.09h2l.45-.45a11.19,11.19,0,0,1-2.15-2.08,29.87,29.87,0,0,1-1.64-4A4.88,4.88,0,0,1,328.6,135.71Z" fill="#fff"/>
        <path d="M323.53,130.7c-2.81-.65-4.5.38-5.58,2.79.59-1.91.86-4.18,3.48-4.26C322.13,129.2,322.86,129.91,323.53,130.7Z" fill="#fff"/>
        <path d="M333.53,130.65c-.19.61-1,1-1.49,1.53-.37-.43-1-.86-1-1.3s.48-1.14,1-2.15C332.78,129.66,333.63,130.3,333.53,130.65Z" fill="#fff"/>
        <path d="M320.75,139.5c-2.68.62-3.37-.4-3.12-4.39C318.3,137,318.1,139.24,320.75,139.5Z" fill="#fff"/>
        <path d="M359.5,115.38c-.49.47-2.09-.18-3.17-.32-.07-.32-.14-.63-.2-1l1.76-2C358.16,113.59,361.28,113.61,359.5,115.38Z" fill="#fff"/>
        <path d="M307.46,183.12c-1,3.2-.79,6.53-2.9,9.21C303.82,188.73,305.41,183.6,307.46,183.12Z" fill="#fff"/>
        <path d="M293.67,191.74c.83-2.18.33-4.58,2.38-6.46C296.53,188.82,295.73,191.15,293.67,191.74Z" fill="#fff"/>
        <path d="M309.78,187.18c.77-2.12,1.39-3.84,2-5.57C313.16,184.81,312.46,186.68,309.78,187.18Z" fill="#fff"/>
        <path d="M282.14,195.65c.59-2.55,0-5.42,2.76-7.35C285.18,192.55,284.27,195,282.14,195.65Z" fill="#fff"/>
      </g>
      <g>
        <path d="M209.13,351.2c-1.37-3.64.18-7.65-1-11.24-1.73-5.19-3.58-10.26-2.1-15.86a3.44,3.44,0,0,0-.16-1.87c-2.35-7.54-6.67-13.88-11.88-19.7a1.77,1.77,0,0,1-1-1.17h0c-.28-.86-.32-1.9-1.31-2.31a33.75,33.75,0,0,1-3-3.64c-.45-.52-.94-1-1.38-1.58-.93-2.58-3.59-.55-5-1.86a3.88,3.88,0,0,0-1.3-.32c-1.08-.08-2.18,0-3.26,0-2.44.17-4.91-.66-7.31.23a4.43,4.43,0,0,0-2.19,2.22c-.31.64-.48,1.38-1.15,1.77a1.84,1.84,0,0,0,.43-2c-3.08-1.77-4.53.65-6.23,2.44-.26.48-.46,1-.73,1.48l0,.1c-1.06,1.49-1.44,3.3-2.29,4.89a5.22,5.22,0,0,0-.39.74,14,14,0,0,0-1.84,5.07c0,.12,0,.23,0,.34-1.48,6.12-3.35,12.22-3.75,18.48-.51,8.33,1.27,16.6,2.11,24.88a44.94,44.94,0,0,0,8.11,21.17c4.32,6.17,9.91,11.37,14.93,17,3.8,4.29,8.11,5.55,13.12,5.77,2.27.1,5.28-.1,6.77-1.47,6.18-5.62,9.94-12.87,11.86-21C210.91,366.3,212,358.73,209.13,351.2Zm-35.41-29c.19-.78-.37-1.91.57-2.28s1.79.53,2.4,1.19c2.62,2.85,5.16,5.74,7.75,8.65h0c.14,1.33,1.07,2.07,2.13,3.19.54-2.52-2-4.23-.85-6.41a8.9,8.9,0,0,1,3.74,7.6v13.27a3.29,3.29,0,0,0-.23,2.45,25.21,25.21,0,0,1-1,14.66c-1,.56-.14,2.41-1.55,2.44a3,3,0,0,1-2.58-2.08c-1.76-4.28-6.22-6.63-7.66-11.09-.08-.27-.41-.64-.64-.65-3.79-.27-2.64-3.1-2.66-5.22C173,339.39,171.71,330.78,173.72,322.24Z" fill="#93211d"/>
        <path d="M273.05,378.26c0,.5.05,1.17-.64,1.25a1.57,1.57,0,0,1-1-.53,5.08,5.08,0,0,1-1.11-1.51c-3.88-9.9-9.91-18.7-14.57-28.22-2.95-6-6.35-11.84-9.65-17.71-.34-.63-.54-1.4-1.54-1.56-2.93,10.09-5.74,20.24-8.08,30.5-.38,1.76-.48,3.51-2.15,4.66a2.4,2.4,0,0,0-.8,2c-.11,4.8-1.88,9.24-3.13,13.8-.93,3.4-.76,7.08-2.36,10.34-.35.73-.38,1.93-1.32,2-1.33.07-1.18-1.4-1.34-2.14-.66-3.47-.2-7.07-1.67-10.48-3.65-8.55-2.54-18.07-5.14-26.84a224,224,0,0,1-6.43-27.18c-1.16-6.91-2.47-13.87-1.26-21,.45-2.64,1.44-4.39,3.87-5.65a12.12,12.12,0,0,0,4.59-3.76s0,0,0,0c1-1.95,2.59-2.19,4.49-1.57a3,3,0,0,1,.39.32c-.2,0-.4.06-.6.07.21.36.58.7.62,1.07.7,5.27,1.53,10.55,2,15.85.48,5.8,3,11.06,4,17.56,1.34-3.95.8-7.39,1.91-10.29,1.86-4.86,1.4-9.42-.15-14.1,1.68-2.32.38-4.32-.72-6.33l-.6-.68a2,2,0,0,1-.2-1.54c.36-.47,1.09-.49,2-.17a12.72,12.72,0,0,0,2.48-3.05A11.17,11.17,0,0,1,236,291a5.89,5.89,0,0,1,1.71-1.47c1.78-.59,3.18.77,4.82.92a5.48,5.48,0,0,0,3.7.19c1.6-.73,3.42-.47,5-1.28a2.37,2.37,0,0,1,2.19.42s0,0,0,.05a1,1,0,0,0-.27.24c-.26.6-1,.43-1.35,1.11-2.57,4.82,1.38,9.85-.55,14.65,0,.07.09.19.13.29,1.74,4.22,5.11,7.48,6.67,11.84a1.88,1.88,0,0,0,.33-1.24c-1.32-7.1-2.45-14.16-1.3-21.43a6,6,0,0,0-2.22-5.52,2.92,2.92,0,0,0-.46-.13,1.31,1.31,0,0,1,0-.28c.62-1.17.73-2.57,1.61-3.64a11.43,11.43,0,0,1,2.47-1.86c1.44-.15,2.58-.6,3.11-2.14a4.11,4.11,0,0,1,3.18-2.74c1.22-.37,1.45-2,2.8-2.25a4.32,4.32,0,0,1,.94-.12,2,2,0,0,1,1.91,1.39c.19,2.73,1.9,5.34.87,8.18h0c-.05.15-.11.29-.17.43-1.18,6.63-.33,13.34-.33,20,0,4.93,1.6,10.08,1.17,15.06-.59,6.82,1.59,13.5.46,20.26-.39,2.24.94,4.29.41,6.54-1.78,7.54-.15,15.07.13,22.61C273.07,373.44,273.05,375.85,273.05,378.26Z" fill="#93211d"/>
        <path d="M158.05,385.78c-3.41-4.34-8.33-7-12.12-11-4-4.15-8.64-7.68-12-12.4a6.19,6.19,0,0,1-.61-7.19c2.79-5.71,4.1-12.11,7.45-17.64a6,6,0,0,0,.4-1.53c.53-1.83-.4-4.26,2.44-5.18.8-.26.47-1.71.18-2.64-1.64-5.26-2-11-5.51-15.55-.13-.26-.24-.51-.39-.77a9.35,9.35,0,0,0-1.62-2.52l-.13-.17a.24.24,0,0,0-.06-.09s0,0,0,0a4.28,4.28,0,0,0-.52-.67.3.3,0,0,0-.09-.1,1.42,1.42,0,0,0-.13-.12,2,2,0,0,0-1-.48,6.88,6.88,0,0,0-.77.13c-.67.14-1.32.32-2,.51h0a5.66,5.66,0,0,1-4.69-.33c-.41-.24-1,0-1.49.21a3.16,3.16,0,0,1-4.44-1,.66.66,0,0,1-.08-.13c-.09-.1-.14-.2-.22-.3a5,5,0,0,0-4.94-1.09,32.62,32.62,0,0,0-6,1.7,8.44,8.44,0,0,1-2.7.63l-.57.13-.58.12s0,0,0,0c-2.62.55-5.23,1.06-7.52,2.54l-.47.33-.14.1c-1.26,1.25-3,1.22-4.55,1.78h0c-.42.16-.85.29-1.27.43a8.47,8.47,0,0,0-2.47,1.21l0,0a1.62,1.62,0,0,0-.19.18c-1.52,1.4-2.09,3.28-2.69,5.16-.09.27-.17.54-.26.82a.53.53,0,0,0,0,.12v0c-.05.21-.08.43-.12.65a1.83,1.83,0,0,1-.15.45c-.4,2.35,0,3.94,3,3.8,1.89-.08,2.51,1.06,2.71,3,.5,5.32,1.73,10.58,2,15.9.26,4.74,2.58,9,2.41,13.79-.21,5.79.57,11.52,1.11,17.28a66.25,66.25,0,0,0,3,13c1.94,6.34,2.68,13.05,7.06,18.46,1,1.22,2,3.22,3.32,3.07,2.36-.25,2.44,1.26,3.09,2.57.34.68.31,1.72,1.64,1.84.47-2,.39-4.41,2.52-5.72.23-.14.29-.81.22-1.18-1.5-8.17-.87-16.55-2.73-24.71a31.85,31.85,0,0,1-.69-12.86,133.93,133.93,0,0,1,11.66,10.22c.82.84,1.42,1.67,2.83.55,1.91-1.52,3.08-.34,3.49,1.63.23,1,.12,2.41,1.26,2.69,4,1,6.83,4.17,10.6,5.42,2.43.8,5.69,1.88,7.43.21,1.52-1.45,2.46-2,4.39-1.75,1,.14,2.73,0,3.16-.71C160,387.76,158.73,386.65,158.05,385.78Zm-46-30.78c-.32-4.34-1.08-8.37-.78-12.33.27-3.79.21-7.56.31-11.32.09-3,6.1-8.07,9-7.55,2.68.48,4.41,4.86,3.49,8.33A60.52,60.52,0,0,1,117.94,348C116.53,350.35,115.53,353.36,112.09,355Z" fill="#93211d"/>
        <path d="M431.22,338.05c-1.34,1.81-3.62,1.37-5.39,2.21-1.94.94-4.23,1-5.81,2.85a1.54,1.54,0,0,1-2.76-.64c-.68-2.13-1.72-2-3.23-1s-2.81-.53-4.29,0a14,14,0,0,0-5.93,4,6.15,6.15,0,0,1-6.74,2.22,6.14,6.14,0,0,0-5.7,1.12c-5.36,4.46-11.85,5.57-18.45,6.2-4,.38-7.86,1.32-11.83,1.76-7.66.86-17.07-3.53-16.71-13.95.12-3.69,1.46-7,2.89-10.25A259.63,259.63,0,0,1,358.63,309c1.84-3.29,2.93-6.73,1.95-10.59a7.53,7.53,0,0,1,.34-2.77c1-5.77-2.51-12.33-7.82-14.78-1.21-.55-1.78,0-2.4.77a14.93,14.93,0,0,0-2.59,5.68c-.26.92.58,3.22-2.18,2.66-.66-.13-1,1.94-.84,3.09a21.64,21.64,0,0,1-1.76,10.74c-1,2.26-1.56,1.86-3.05.68-4.51-3.59-7.38-8-7.11-14,.1-2.08-1.88-3.07-2.15-5.1a22,22,0,0,1,1-10.13.67.67,0,0,1-.08-.3c-.17-.84.68-1.31.88-2,3.52-5.84,6.4-12.07,10.53-17.54a17,17,0,0,1,2.18-2.68c1.9-1.7,2.88-1.65,4.12.53,1,1.74,2.15,1.88,3.59.85s2.71-.6,4.1.16a28.16,28.16,0,0,1,7.86,7.17,61.52,61.52,0,0,0,5.5,6.13l.19.17c2.42,2.63,3.42,5.46,1.57,8.89a2.2,2.2,0,0,0,1.21,3.37c3.31,1.48,4.7,4.43,5.51,7.65a93.84,93.84,0,0,1,2.6,13.95,30.58,30.58,0,0,1-2.35,15.14c-1.37,3.19-2.47,6.5-4.12,9.56-.79,1.47-.9,2.44,1.15,2.95a52.74,52.74,0,0,0,8.75,1.36c4.07-.07,8,.34,11.11,3.43,2.36,2.41,5,2.67,8.09,1.63,2.7-.91,5.29-2.1,8-2.81a5.19,5.19,0,0,1,5.05.91A5.8,5.8,0,0,0,422.8,335c1.29-.21,2.8-.86,3.62,1.29.34.88,2,0,3.05.3.24.07.49.11.72.18a1.13,1.13,0,0,1,.94.67A1.47,1.47,0,0,1,431.22,338.05Z" fill="#93211d"/>
        <path d="M459.51,317.11c-.3-5.26-3.21-10.15-2.72-15.62a4.84,4.84,0,0,0-.69-2.71c-1.32-2.18-1.16-4.54-.69-6.77a11.36,11.36,0,0,0-1.16-7.3c-1.89-4.16-5.93-6.51-8.54-10.06s-5.36-6.74-10.23-6.84a.86.86,0,0,1-.3-.09c-1.22-.45-1.67-1.21-.26-1.83,3.48-1.57,4.52-4.76,5.71-7.94.47-1.26.65-2.68,1.82-3.59a2.58,2.58,0,0,0,.78-.8,4.19,4.19,0,0,0,.43-.94,4.11,4.11,0,0,1,4.69-3.07,6.63,6.63,0,0,0,3.42-.87c1.8-.25,3.45.49,5.19.67,1.84.44,3,.26,1.85-2-.33-.64-.57-1.31-.84-2-1.42-3-3.75-5.29-6.13-7.52-.65-.85-1.76-1.49-1.25-2.85a1.68,1.68,0,0,0-1.11-1.38,4.52,4.52,0,0,0-1.46-.25,10,10,0,0,0-3,.28,16.82,16.82,0,0,1-3.34.9,11.36,11.36,0,0,0-7,2.35c-2.07,4-4.26,7.9-5.56,12.23a9.39,9.39,0,0,1-.3,3.42,6.43,6.43,0,0,1-1,1.35,7.93,7.93,0,0,0-.54.67,16.2,16.2,0,0,0-1.67,2.63.3.3,0,0,0,0,.1,4.37,4.37,0,0,0-.22.95,11.57,11.57,0,0,1-1,4.9c-4.6,8.41-6.47,17.69-8.3,27a10,10,0,0,0,0,2.84c.38,6.3,1.61,12.47,2.57,18.7A38.94,38.94,0,0,0,431,335.17a3.3,3.3,0,0,0,.5.8,3.21,3.21,0,0,0,1.31.84h0c.68.26,1.44.37,2.15.58.54.65,1.06,1.3,1.61,1.94,4.21,4.89,11.12,4.62,14.8-.58.37-.52.77-1,1.15-1.51C456.93,331.25,459.94,324.62,459.51,317.11ZM432.67,311c-1.07-.26-.95-1.3-.92-2.11.08-4.21.12-8.43.4-12.62.14-2.22-.8-4.39-.15-6.57.22-.74,0-1.87,1-2.09.8-.19,1.26.64,1.77,1.14,2.14,2,3.45,4.79,6.1,6.6.41-1-.83-1.79.07-2.64,2.08,1,2.6,2.89,2.78,4.89a45,45,0,0,1-.1,12.54c-.1.61-.47,1.25,0,1.82,2.61,3.35-.74,5.82-1.35,8.66-.23,1-1.26.44-1.85.08-1.56-.94-2.11-2.56-2.81-4.1C436.55,314.28,435.65,311.75,432.67,311Z" fill="#93211d"/>
      </g>
    </g>
  </g>
  <g id="tap">
    <g>
      <g>
        <path d="M203.35,484.83l-.2-.05.1-.08Z" fill="#c79e70"/>
        <path d="M491.76,161.77A251.84,251.84,0,1,0,161.68,491.85l.78.33c17.75,7.5,57.68,37.77,68.93,91.38,23.62,112.6-2.64,156.87-10.52,170.28l0,0s-8.43,5.82-15.25,7.23a8.49,8.49,0,0,0-1.47.38l0,.07c-.68,1.68-2.27,5.12-4.29,9.35l-.12.25c-5.73,12.54-13.81,30.26-13.81,30.26l157-.67S330.5,776.27,324,760.16c0,0-.44,0-1.18-.17a19.29,19.29,0,0,1-11.44-6.47c-13.62-32.46-27.21-82.19-15.46-171.81a176.3,176.3,0,0,1,4.58-23.17,164.19,164.19,0,0,1,10.78-28.88q2.08-4.33,4.27-8.33l.75-1.38a25.38,25.38,0,0,1,5.14-6c9.58-8.77,27.85-18.51,36.15-22l.15-.07a252.13,252.13,0,0,0,134-330.08Zm-463.89,98C27.87,131.76,131.67,28,259.71,28A231.75,231.75,0,0,1,491.55,259.8c0,128.05-103.79,231.85-231.84,231.85a232.12,232.12,0,0,1-56.36-6.9l-.07,0h-.05l-.08,0A231.81,231.81,0,0,1,27.87,259.8Z" fill="#c79e70"/>
      </g>
      <g mask="url(#mask)">
        <path d="M487.05,165.43C452.14,77.67,365.77,15.51,271.15,11.84,220.38,9.15,169.5,24.74,127.36,52.73c-35.23,23.68-64,56.59-83.56,94.18C-10.73,251.76,3,344.74,86,424.64c8.22,7.9,63,41.27,91.06,59.41,23.88,15.46,42.47,39.69,44.79,44.75,43.49,95,22.21,198.69,8.87,215.63a48.19,48.19,0,0,1-9.86,9.41l-.09.07-.21.14a47.61,47.61,0,0,1-6,3.61c-.31.17-.62.32-.92.46-.74.37-1.46.7-2.14,1a43.79,43.79,0,0,1-5.76,2c-1,.26-1.56.38-1.66.4h0l-4.28,9.35-.12.25c-5.73,12.54-13.81,30.26-13.81,30.26l157-.67S330.5,776.27,324,760.16a11.13,11.13,0,0,1-1.18-.17A21.81,21.81,0,0,1,315,756.7a21.49,21.49,0,0,1-2.07-1.58c-.12-.09-.23-.19-.35-.3l-.39-.36-.49-.47c-4.24-4.21-7.38-11.83-10.17-21.28-4.85-16.39-25-94.51-1-174.17a237.92,237.92,0,0,1,10.78-28.88c.61-1.37,1.24-2.73,1.88-4.09a35.49,35.49,0,0,1,2.39-4.24,54.58,54.58,0,0,1,5.89-7.41c20.6-22.1,64.84-41.62,77-48.93C499.89,404,534.53,276.87,487.05,165.43ZM249.71,492.75a231.12,231.12,0,0,1-45.58-6.66l-.2,0A231.81,231.81,0,0,1,28.7,266C26,136.55,130.92,29.33,260.44,29.3a231.74,231.74,0,0,1,231.79,225C496.16,390.63,385.92,499,249.71,492.75Z" fill="#efd7b3"/>
      </g>
      <g mask="url(#mask-2)">
        <path d="M322.83,760c-19.56,8.44-39.56,11.09-56.95,11.09a184.2,184.2,0,0,1-23.69-1.56,196.76,196.76,0,0,1-36.43-8.37l-.16,0a53.16,53.16,0,0,0,5.92-2c.68-.28,1.4-.61,2.14-1l.89-.47h0a191.63,191.63,0,0,0,28.92,6.11c18.77,2.46,45.36,2.89,71.47-7.07A21.81,21.81,0,0,0,322.83,760Z" fill="#c79e70"/>
      </g>
    </g>
  </g>
</svg>
