<svg xmlns="http://www.w3.org/2000/svg" xmlns:xlink="http://www.w3.org/1999/xlink" viewBox="0 0 520 810">
  <defs>
    <filter id="luminosity-noclip" x="8.21" y="9.41" width="502" height="795" filterUnits="userSpaceOnUse" color-interpolation-filters="sRGB">
      <feFlood flood-color="#fff" result="bg"/>
      <feBlend in="SourceGraphic" in2="bg"/>
    </filter>
    <mask id="mask" x="8.21" y="9.41" width="502" height="795" maskUnits="userSpaceOnUse">
      <g filter="url(#luminosity-noclip)">
        <image width="502" height="795" transform="translate(8.21 9.41)" xlink:href="beer_data1.png"/>
      </g>
    </mask>
    <filter id="luminosity-noclip-2" x="203.21" y="754.41" width="122" height="19" filterUnits="userSpaceOnUse" color-interpolation-filters="sRGB">
      <feFlood flood-color="#fff" result="bg"/>
      <feBlend in="SourceGraphic" in2="bg"/>
    </filter>
    <mask id="mask-2" x="203.21" y="754.41" width="122" height="19" maskUnits="userSpaceOnUse">
      <g filter="url(#luminosity-noclip-2)">
        <image width="122" height="19" transform="translate(203.21 754.41)" xlink:href="beer_data2.png"/>
      </g>
    </mask>
  </defs>
  <g id="icon">
    <g>
      <circle cx="259.34" cy="259.7" r="231.84" fill="#f0d0a8"/>
      <path d="M121.31,140s-.71-7.3-3.89-8.66l2.42-2.71a8.44,8.44,0,0,0-1.34-12.27,10,10,0,0,0-5.89-1.89c-5-.07-17.37-.22-17.27-.13v5.41l3,.07v20.66h-3V146h12.79V140.3h-2.47v-7s4.11-1.48,6.76,1.35c1.58,1.7,2.14,4.88,2.38,11h9.3V140Zm-7-13.6c-1.83,1.68-5.27,2-7.32,2-.92,0-1.57-.06-1.65-.06l-.45,0v-8.6l.45,0c.27,0,6.66-.67,9.18,1.6a3,3,0,0,1,1.05,2.32A3.73,3.73,0,0,1,114.36,126.38Z" fill="#1d7e39"/>
      <path d="M155.61,114.44v4.83H153v15.24a13.11,13.11,0,0,1-1.36,6,9.59,9.59,0,0,1-9,5.43h-.31a12.85,12.85,0,0,1-12.51-12.81c0-13.71-.16-13.76-.58-13.94l-.32-.12-.09.09h-2.18v-4.4h11.68v4.83h-3.1v14.25a6.79,6.79,0,0,0,3,5.71,6,6,0,0,0,3.34,1,5.41,5.41,0,0,0,3.47-1.23,6.16,6.16,0,0,0,2.22-4.85V119.49h-3v-5Z" fill="#1d7e39"/>
      <path d="M169.6,119.25v21.57h2.66v4.59H160.1v-4.34h3.25V119.16h-3.17v-4.4c1.62-.1,8.06-.07,12.41,0v4.51Z" fill="#1d7e39"/>
      <polygon points="208.05 114.76 208.05 119.19 205.7 119.19 205.7 145.46 199.49 145.46 185.18 124.13 185.18 140.95 187.69 140.95 187.69 145.71 176.86 145.71 176.86 140.95 179.45 140.95 179.45 119.19 177.1 119.19 177.1 114.84 186.14 114.84 199.88 136.41 199.88 119.11 197.37 119.11 197.37 114.76 208.05 114.76" fill="#1d7e39"/>
      <path d="M231.15,124.45v-4.58h-9.41v7.65h6v4.73h-6.12v8.42H231v-5.43h5.57V145.4H212.65v-4.73h3.13V119.79h-3.29v-5.12c2.72,0,16.48,0,24.39.09v9.69Z" fill="#1d7e39"/>
      <path d="M261,117.66a18.05,18.05,0,0,0-9.34-2.66l-10.93-.18v4.36h2.37v21.76h-2.45v4.68h11.68a14.77,14.77,0,0,0,8.8-2.73c4.19-3.06,6.31-7.76,6.31-14A12.66,12.66,0,0,0,261,117.66Zm-3.06,20.89a10.66,10.66,0,0,1-6.94,2.31,10.46,10.46,0,0,1-1.45-.09l-.43-.06V119.6l.48,0c.22,0,5.31-.22,8.7,3a9.94,9.94,0,0,1,2.87,7.53C261.13,133.86,260.05,136.7,257.9,138.55Z" fill="#1d7e39"/>
      <path d="M367.11,154.82a18.05,18.05,0,0,0-9.34-2.66L346.84,152v4.36h2.37V178.1h-2.45v4.68h11.68a14.77,14.77,0,0,0,8.8-2.73c4.19-3.06,6.31-7.76,6.31-14A12.66,12.66,0,0,0,367.11,154.82Zm-3.06,20.89a10.66,10.66,0,0,1-6.94,2.31,10.46,10.46,0,0,1-1.45-.09l-.43-.06V156.76l.48,0c.22,0,5.31-.22,8.7,3a9.94,9.94,0,0,1,2.87,7.53C367.28,171,366.2,173.86,364.05,175.71Z" fill="#1d7e39"/>
      <path d="M229.83,155.51a18.05,18.05,0,0,0-9.34-2.66l-10.93-.18V157h2.37v21.76h-2.45v4.68h11.68a14.77,14.77,0,0,0,8.8-2.73c4.19-3.06,6.31-7.76,6.31-14A12.66,12.66,0,0,0,229.83,155.51Zm-3.06,20.89a10.66,10.66,0,0,1-6.94,2.31,10.46,10.46,0,0,1-1.45-.09l-.43-.06V157.45l.48,0c.22,0,5.31-.22,8.7,3A9.94,9.94,0,0,1,230,168C230,171.71,228.92,174.55,226.77,176.4Z" fill="#1d7e39"/>
      <path d="M258.26,122.57c-3.39-3.22-8.48-3-8.7-3l-.48,0v21.11l.43.06a10.46,10.46,0,0,0,1.45.09,10.66,10.66,0,0,0,6.94-2.31c2.15-1.85,3.23-4.69,3.23-8.45A9.94,9.94,0,0,0,258.26,122.57Zm-1,15.22c-2.51,2.16-6,2.13-7.18,2V120.57c1.3,0,5,.34,7.5,2.73a9,9,0,0,1,2.55,6.8C260.13,133.55,259.17,136.14,257.26,137.79Z" fill="#1d7e39"/>
      <path d="M121.36,174.63c-2.35,5.49-7.78,9.55-13.53,9.55a15.22,15.22,0,0,1-15.11-15.52c0-9,6.35-17.28,14.38-17.28,2.82,0,5.53.54,7.88,3.13,0,0,5.44.07,5.44.07s0,5.54,0,7l-6.24,0c-1.7-2.4-3.56-3.78-6.38-3.78-5.1,0-8.47,3.56-8.47,9.69s2.7,10.3,7.8,10.3a9.53,9.53,0,0,0,7.89-4.82Z" fill="#1d7e39"/>
      <path d="M125.7,152v5.34h3v20.81h-2.81v5.48h13.26v-5.55h-3.19v-7.93h14.45v7.93H147v5.55h13.26V178h-3.18V157.57h3.18v-5.48H147.18v5.33h3.11v7H135.7v-7H139v-5.33S125.81,151.9,125.7,152Z" fill="#1d7e39"/>
      <path d="M240.14,151.71v5.34h3v20.81h-2.82v5.48h13.26v-5.55h-3.18v-7.93h14.44v7.93h-3.33v5.55h13.26v-5.62h-3.19V157.27h3.19v-5.48H261.63v5.33h3.11v7h-14.6v-7h3.34v-5.33S240.26,151.6,240.14,151.71Z" fill="#1d7e39"/>
      <path d="M165.51,152.16h13.2v5.57h-3.17v20.58h3v5.31H165.7v-5.5h2.78V157.66h-3S165.51,152.49,165.51,152.16Z" fill="#1d7e39"/>
      <path d="M182,152v5.5h3v20.59h-3.11v5.76h25.37V172.36h-6.66v3.73a1.77,1.77,0,0,1-1.77,1.77h-6.45v-20.2h2.91v-5.5Z" fill="#1d7e39"/>
      <path d="M294.33,152.18a15.65,15.65,0,1,0,15.33,15.65A15.51,15.51,0,0,0,294.33,152.18Zm0,25.88c-4.76,0-8.64-4.59-8.64-10.23s3.88-10.23,8.64-10.23,8.63,4.59,8.63,10.23S299.09,178.06,294.33,178.06Z" fill="#1d7e39"/>
      <path d="M328.47,152.18a15.65,15.65,0,1,0,15.33,15.65A15.51,15.51,0,0,0,328.47,152.18Zm0,25.88c-4.76,0-8.64-4.59-8.64-10.23s3.88-10.23,8.64-10.23,8.63,4.59,8.63,10.23S333.23,178.06,328.47,178.06Z" fill="#1d7e39"/>
      <g>
        <path d="M332.89,241.47c-1.15-.43-3.5.07-8.14,4.91-9.78,10.17-12.53,17.36-12.55,17.42s-2.2,4-4.34,13.27c-2,8.49-4.35,23.31-4.47,45.73l13.52,7.06,17.55-85.62C334.44,243.92,334.22,242,332.89,241.47Zm-15.41,89.38h.39l-.36-.17Zm-2.82-.64-14.94-6.91-7.6,15.17A20.58,20.58,0,0,0,290,346.6l-.85,16.08,12.57,5.93c-1-21.69,3.5-31.09,7.5-35.16A11.18,11.18,0,0,1,314.66,330.21Z" fill="#e81f18"/>
        <path d="M309.2,333.45c-4,4.07-8.53,13.47-7.5,35.16l-12.57-5.93L290,346.6a20.58,20.58,0,0,1,2.14-8.13l7.6-15.17,14.94,6.91A11.18,11.18,0,0,0,309.2,333.45Z" fill="#1d7e39"/>
        <path d="M266.61,330.22a24.8,24.8,0,0,0-2.16,11.49l.52,9.58L213.37,327c-.22-.92-1.26-5.12-2.9-9.89-.36-1-.74-2.09-1.13-3.15-1.49-4.08-3-8.3-2.36-10.06,1.85-5,5.54-11.64,16.07-12.45a26.74,26.74,0,0,1,13.19,2.5l38.69,17.91Z" fill="#1d7e39"/>
        <path d="M303,416.3,296.76,414l-5.41-8.25a10,10,0,0,0-3.21-3.07l-2.5-1.49,1.25-2.75,1.66-1.46.48-3.69,1.54-6.68-2.1-2.68.75-18.57,12.4,5.7c.23,1.78,1.75,14.62-.41,21.43S302.2,413,303,416.3Z" fill="#1d7e39"/>
        <path d="M274.35,405.56l-48.13-18a62.18,62.18,0,0,1-8-18.7c-1.61-6.17-2-13.7-2.56-22.42-.08-1.41-.17-2.86-.26-4.34a32.33,32.33,0,0,0-.86-5.13,30.13,30.13,0,0,1-.92-6.42l51,23.48,1.12,17.81-.08.08a5.76,5.76,0,0,0-1.94,4.27c0,.39-.1.76-.16,1.13l-.26,1.34a6.28,6.28,0,0,0,2.37,6.2l1.81,1.38L265,389.49a2.48,2.48,0,0,0,.61,3.35l1.93,1.42-.35,1.09a3.39,3.39,0,0,0,1.77,4.09l1.8.86.1.88a3.18,3.18,0,0,0,1.44,2.33l2,1.25Z" fill="#1d7e39"/>
        <path d="M230.52,402l-1-.4c-.2-1.3-1.26-7.83-3.16-11.86l2.65.92Z" fill="#1d7e39"/>
        <path d="M236.34,393.46l-.58,8.56-2.8.64c-.05-1.66-.31-7.24-1.52-10.88Z" fill="#1d7e39"/>
        <polygon points="303.74 425.62 298.54 417.29 302.51 418.63 303.74 425.62" fill="#1d7e39"/>
        <path d="M310,433.14l-2.4.78-.21-.64.06-.16a2.94,2.94,0,0,0-.45-2.66l-.27-.35-2-11.5,4.52-1.42Z" fill="#1d7e39"/>
        <g>
          <path d="M317.15,330.84l.3.16,0-.15Z" fill="#1d7e39"/>
          <path d="M334.46,244.24l-17.55,85.62-13.52-7.06c.12-22.42,2.5-37.24,4.47-45.73,2.14-9.23,4.29-13.17,4.34-13.27s2.77-7.25,12.55-17.42c4.64-4.84,7-5.34,8.14-4.91C334.22,242,334.44,243.92,334.46,244.24Z" fill="#1d7e39"/>
        </g>
        <path d="M382.87,234.32l-46.48,8.11a4.06,4.06,0,0,0-4-3,8.34,8.34,0,0,0-3.3.81c16.75-13.35,30.32-15.31,40.46-16.77l1.22-.17C377.72,222.3,382,232.15,382.87,234.32Z" fill="#1d7e39"/>
        <path d="M424.26,226.52l-21.12,3.72a30.91,30.91,0,0,0-3.94-9.6C414,219.64,422.08,224.84,424.26,226.52Z" fill="#1d7e39"/>
        <path d="M412.26,342.26v.1c.91,17.29-9.25,42.27-10.2,44.54l-96.79,29c-2.37-7-2.5-18.86-.35-35.18.51-3.87.58-6.68.22-8.35a32.29,32.29,0,0,1-.81-7.37c.32-15.34,1.94-19.42,3.82-24.15.2-.51.41-1,.61-1.55,2.28-5.95,9.86-6,9.94-6H319L336.87,245l46.63-8.29,2,6.28a15.46,15.46,0,0,0,4.05,6.43l3.17,2.83a5,5,0,0,1,1.77,3.71l-.73-.14a1,1,0,0,0-1.15.86l0,.09a2.37,2.37,0,0,0-2.08,0,1.87,1.87,0,0,0-1,1.24,4.94,4.94,0,0,0,.11,1.77,4.57,4.57,0,0,1,.12.93,2.11,2.11,0,0,1-.6.47c-.38.23-.74.45-.86.8a1.52,1.52,0,0,0,.25,1.27,1.13,1.13,0,0,1,.23.58c0,.22-.2.44-.41.67a1.58,1.58,0,0,0-.55,1.32,6.33,6.33,0,0,0,1.26,2.27l.27.31a6,6,0,0,0,2.45,2,3.61,3.61,0,0,0,1.91-.51,3.86,3.86,0,0,1,1.21-.43,4.22,4.22,0,0,1,1.2.39,4,4,0,0,0,1.64.47c1-.07,3.71-.9,4.28-2.15a3.35,3.35,0,0,0-.16-2,3.11,3.11,0,0,1-.2-1.46,3,3,0,0,1,.72-.68c.53-.41,1.08-.85,1.11-1.39.05-1.05-1.76-2.8-2.43-3.43.42-1.43,2.58-8.86,2.89-11.64.37-3.34-.21-12.59-.34-14.52l21.91-3.9L412.2,313.36l.36.07a5.09,5.09,0,0,1,3.69,2.72c3.87,7.3-3.89,25.85-4,26Z" fill="#1d7e39"/>
        <path d="M399.19,257.81a6.09,6.09,0,0,0-2.6-1.15A4.76,4.76,0,0,0,395,251c-.53-.44-1.06-.8-1.61-1.18-2.67-1.84-5.7-3.92-8.27-14.13-3.09-12.28-7.71-14.19-10.91-14.55-2.84-.33-8.35.32-16.39,1.94,2.34-3,11.78-13.67,26.07-8.84,17.19,5.82,17.48,12.46,17.79,19.51C402.09,242.72,401.46,253.87,399.19,257.81Z" fill="#e81f18"/>
        <path d="M399.19,257.81a6.09,6.09,0,0,0-2.6-1.15A4.76,4.76,0,0,0,395,251c-.53-.44-1.06-.8-1.61-1.18-2.67-1.84-5.7-3.92-8.27-14.13-3.09-12.28-7.71-14.19-10.91-14.55-2.84-.33-8.35.32-16.39,1.94,2.34-3,11.78-13.67,26.07-8.84,17.19,5.82,17.48,12.46,17.79,19.51C402.09,242.72,401.46,253.87,399.19,257.81Z" fill="#e81f18"/>
        <path d="M300.8,317.94l-10.75,19.15a19.88,19.88,0,0,0-2.8,9.46L286,381.36l-.06,1.77-1.42-1h0l-.64-.46c-1.2-.85-2.71-1.91-4.35-3l-1.25-.85-2.76-1.84-.89-.57c-2.2-1.42-4.31-2.71-5.92-3.53-.2-1.41-.92-12.18-1.92-29.17a23.71,23.71,0,0,1,1.6-10.13c15.68-40.11,30.29-49.22,36.42-51.28C304.05,285.34,299.75,308.27,300.8,317.94Z" fill="#e81f18"/>
        <polygon points="398.57 406.92 395.35 404.78 393.01 391.56 394.65 391.2 398.57 406.92" fill="#1d7e39"/>
        <polygon points="403.9 407.08 400.85 408 396.77 390.85 401.81 389.49 403.9 407.08" fill="#1d7e39"/>
        <path d="M284.14,401.76s-5.19,9.28-7.42,6.5a15.45,15.45,0,0,0,3.53,9.55c3.71,4.45,12.8,21.24,12.8,21.24s9.74.75,12.8-6.86C305.85,432.19,290.54,402.78,284.14,401.76Z" fill="#754120"/>
        <path d="M254.37,400.05l14.56,5.19-7.55,8.89a12.77,12.77,0,0,1-6.08,4.25,9.74,9.74,0,0,0-3.22,1.84c-2.22,1.86-5.48,4.45-8.47,7.44-.55.55-.31.48-.82,1.13-.71.91-1.12.6-1.35,1.18a.22.22,0,0,1-.32.13l-2.21-1.31c-.19-.12-.32-.47-.11-.55.57-.22,0-1.28.73-2.3.47-.64.78-.06,1.23-.8,3.09-5.16,6.35-9.21,6.69-11.56.39-2.75-.47-3.38,1.41-6.45A62.07,62.07,0,0,1,254.37,400.05Z" fill="#754120"/>
        <path d="M356.57,402.91l-24.07,7.36,19.24,6.35s6,2.16,10.19,1.46c1.24-.21,3.34-.71,4.56-.45,2.83.62,6.46.72,10.56,1.77,1.67.43,1.12,1.41,1.92,1.2a3.52,3.52,0,0,1,2.57.19,11.77,11.77,0,0,0,.93-3.31c-.6.07-1.8-1.22-2.12-1.53s-.86.46-1.93-.07c-6.7-3.34-10.17-4.4-11.56-6.32-1.63-2.26-1.73-2.68-4.83-4.52A15.62,15.62,0,0,0,356.57,402.91Z" fill="#754120"/>
      </g>
    </g>
  </g>
  <g id="tap">
    <g>
      <g>
        <path d="M203.35,484.83l-.2-.05.1-.08Z" fill="#c79e70"/>
        <path d="M491.76,161.77A251.84,251.84,0,1,0,161.68,491.85l.78.33c17.75,7.5,57.68,37.77,68.93,91.38,23.62,112.6-2.64,156.87-10.52,170.28l0,0s-8.43,5.82-15.25,7.23a8.49,8.49,0,0,0-1.47.38l0,.07c-.68,1.68-2.27,5.12-4.29,9.35l-.12.25c-5.73,12.54-13.81,30.26-13.81,30.26l157-.67S330.5,776.27,324,760.16c0,0-.44,0-1.18-.17a19.29,19.29,0,0,1-11.44-6.47c-13.62-32.46-27.21-82.19-15.46-171.81a176.3,176.3,0,0,1,4.58-23.17,164.19,164.19,0,0,1,10.78-28.88q2.08-4.33,4.27-8.33l.75-1.38a25.38,25.38,0,0,1,5.14-6c9.58-8.77,27.85-18.51,36.15-22l.15-.07a252.13,252.13,0,0,0,134-330.08Zm-463.89,98C27.87,131.76,131.67,28,259.71,28A231.75,231.75,0,0,1,491.55,259.8c0,128.05-103.79,231.85-231.84,231.85a232.12,232.12,0,0,1-56.36-6.9l-.07,0h-.05l-.08,0A231.81,231.81,0,0,1,27.87,259.8Z" fill="#c79e70"/>
      </g>
      <g mask="url(#mask)">
        <path d="M487.05,165.43C452.14,77.67,365.77,15.51,271.15,11.84,220.38,9.15,169.5,24.74,127.36,52.73c-35.23,23.68-64,56.59-83.56,94.18C-10.73,251.76,3,344.74,86,424.64c8.22,7.9,63,41.27,91.06,59.41,23.88,15.46,42.47,39.69,44.79,44.75,43.49,95,22.21,198.69,8.87,215.63a48.19,48.19,0,0,1-9.86,9.41l-.09.07-.21.14a47.61,47.61,0,0,1-6,3.61c-.31.17-.62.32-.92.46-.74.37-1.46.7-2.14,1a43.79,43.79,0,0,1-5.76,2c-1,.26-1.56.38-1.66.4h0l-4.28,9.35-.12.25c-5.73,12.54-13.81,30.26-13.81,30.26l157-.67S330.5,776.27,324,760.16a11.13,11.13,0,0,1-1.18-.17A21.81,21.81,0,0,1,315,756.7a21.49,21.49,0,0,1-2.07-1.58c-.12-.09-.23-.19-.35-.3l-.39-.36-.49-.47c-4.24-4.21-7.38-11.83-10.17-21.28-4.85-16.39-25-94.51-1-174.17a237.92,237.92,0,0,1,10.78-28.88c.61-1.37,1.24-2.73,1.88-4.09a35.49,35.49,0,0,1,2.39-4.24,54.58,54.58,0,0,1,5.89-7.41c20.6-22.1,64.84-41.62,77-48.93C499.89,404,534.53,276.87,487.05,165.43ZM249.71,492.75a231.12,231.12,0,0,1-45.58-6.66l-.2,0A231.81,231.81,0,0,1,28.7,266C26,136.55,130.92,29.33,260.44,29.3a231.74,231.74,0,0,1,231.79,225C496.16,390.63,385.92,499,249.71,492.75Z" fill="#efd7b3"/>
      </g>
      <g mask="url(#mask-2)">
        <path d="M322.83,760c-19.56,8.44-39.56,11.09-56.95,11.09a184.2,184.2,0,0,1-23.69-1.56,196.76,196.76,0,0,1-36.43-8.37l-.16,0a53.16,53.16,0,0,0,5.92-2c.68-.28,1.4-.61,2.14-1l.89-.47h0a191.63,191.63,0,0,0,28.92,6.11c18.77,2.46,45.36,2.89,71.47-7.07A21.81,21.81,0,0,0,322.83,760Z" fill="#c79e70"/>
      </g>
    </g>
  </g>
</svg>
