<svg xmlns="http://www.w3.org/2000/svg" xmlns:xlink="http://www.w3.org/1999/xlink" viewBox="0 0 520 810">
  <defs>
    <filter id="luminosity-noclip" x="8.21" y="9.41" width="502" height="795" filterUnits="userSpaceOnUse" color-interpolation-filters="sRGB">
      <feFlood flood-color="#fff" result="bg"/>
      <feBlend in="SourceGraphic" in2="bg"/>
    </filter>
    <mask id="mask" x="8.21" y="9.41" width="502" height="795" maskUnits="userSpaceOnUse">
      <g filter="url(#luminosity-noclip)">
        <image width="502" height="795" transform="translate(8.21 9.41)" xlink:href="beer_data1.png"/>
      </g>
    </mask>
    <filter id="luminosity-noclip-2" x="203.21" y="754.41" width="122" height="19" filterUnits="userSpaceOnUse" color-interpolation-filters="sRGB">
      <feFlood flood-color="#fff" result="bg"/>
      <feBlend in="SourceGraphic" in2="bg"/>
    </filter>
    <mask id="mask-2" x="203.21" y="754.41" width="122" height="19" maskUnits="userSpaceOnUse">
      <g filter="url(#luminosity-noclip-2)">
        <image width="122" height="19" transform="translate(203.21 754.41)" xlink:href="beer_data2.png"/>
      </g>
    </mask>
  </defs>
  <g id="icon">
    <g>
      <circle cx="258.96" cy="260.41" r="232.79" fill="#c6000e"/>
      <line x1="122.49" y1="318.94" x2="133.64" y2="318.8" fill="#1d7e39"/>
      <path d="M304.74,405.1c-.91-.14-2,.54-2.7-.58C303,404.64,304.05,403.94,304.74,405.1Z" fill="#d45b3a"/>
      <path d="M368.92,385.09v32.2c-.55,1.07-.16,2.22-.28,3.34a1.51,1.51,0,0,1-.28,1,10.67,10.67,0,0,1-3.69,8,6.73,6.73,0,0,1-3.89,1.92c-.59.52-1.46,0-2,.58-4.72,0-9.45-.05-14.17.07-1.47,0-1.38-.69-1.37-1.68q0-26.44,0-52.89c0-1.26.05-2.52,0-3.78,0-.81.27-1,1-1,5.06.05,10.11.06,15.16.08.42.34,1,.19,1.43.54,3.92.43,6.37,3,7.32,7.14a15.09,15.09,0,0,1,.22,1.79C369,383.19,368.31,384.27,368.92,385.09Z" fill="#f9f6cd"/>
      <path d="M238.73,414.62c0-2.08-.12-4.17,0-6.25.08-1.37-.45-1.63-1.68-1.61-3.41,0-3.43,0-3.4-3.52,0-3.93-.57-3.33,3.4-3.37,2.53,0,5.06.06,7.58,0,1.3-.05,1.76.2,1.75,1.65-.08,9.72-.06,19.43,0,29.14,0,1.18-.19,1.61-1.49,1.57-2.92-.09-2.92,0-3.36-2.88-.08-.52-.18-1-.3-1.69-3.34,6-10.05,6.37-14.47,3.86a11.2,11.2,0,0,1-4.72-6.07c-.37-1-1.06-1.93-.76-3.09-.6-.69,0-1.67-.59-2.37q-.27-17.77,0-35.56c.4-.46.25-1,.29-1.55a1.53,1.53,0,0,1,.28-1.12c1.12-4.69,3.28-7.77,7.61-8.91a1.53,1.53,0,0,1,1.11-.3c.53,0,1.09.11,1.56-.28h5.24c.57.54,1.45,0,2,.59a8.06,8.06,0,0,1,6.18,5.61c.35,1.05,1,2.08.78,3.27.49.61.05,1.47.54,2.09,0,2.79,0,5.59.07,8.38,0,.83-.17,1.16-1.07,1.13-2.08-.06-4.17-.05-6.25,0-.81,0-1-.28-1-1,0-2.3,0-4.61,0-6.91a10.36,10.36,0,0,0-.94-4.21,3.53,3.53,0,0,0-4.18-1.94,4.09,4.09,0,0,0-2.77,3.8c-.61.82,0,1.9-.56,2.72v32.92c.47.71.2,1.5.28,2.26a1.9,1.9,0,0,0,.29,1.39c.53,2.12,1.87,3.25,3.82,3.22a3.72,3.72,0,0,0,3.52-3.17c.24-.33.29-.76.57-1.07l.08-.63c.56-1.12.17-2.33.29-3.49C238.52,416.3,238.23,415.42,238.73,414.62Z" fill="#f9f6cd"/>
      <path d="M141.17,381.09l.07.63c.61.82,0,1.9.57,2.72,0,2,0,4.06,0,6.09,0,.94-.22,1.41-1.28,1.38-2.08-.06-4.17-.05-6.25,0-.8,0-1.07-.31-1.06-1.05,0-1.7,0-3.4,0-5.1-.67-1,.1-2.33-.57-3.38a3.39,3.39,0,0,0-2.58-3.19c-1.56-.36-2.81.6-4,2.85.07,1.9-.35,3.81.22,5.68.21,2.13,2,3.3,3.07,4.85,2.86,4,6.67,7.17,9.34,11.32,1.48,2.31,3,4.58,3.17,7.45.64.81,0,1.89.59,2.71l0,5.89c-.54.72,0,1.69-.55,2.41-.32,4.21-2,7.54-6,9.44-2.63,1.26-5.44,1.08-8.23,1-.46-.4-1-.25-1.55-.29a1.5,1.5,0,0,1-1.12-.29,8.57,8.57,0,0,1-5.82-5,11.09,11.09,0,0,1-1.45-5.51c-.56-.72,0-1.69-.56-2.41q0-4.26,0-8.53c.84-.62,1.81-.3,2.72-.33,1.53-.05,3.08,0,4.61,0,1.15,0,1.55.45,1.53,1.57,0,2.47,0,4.94,0,7.41a3.29,3.29,0,0,0,.27,1.93c.32,1.48.6,2.86,2.14,3.79,2,1.18,4.52-.33,4.78-2.7a35.13,35.13,0,0,0,0-7c-.56-.55,0-1.44-.62-2A19.29,19.29,0,0,0,128,406c-3.67-3.54-7.44-7-9.47-11.9-.28-.67-.86-1.26-.73-2.09a1.47,1.47,0,0,1-.29-1.07,1.69,1.69,0,0,0-.29-1.27l-.09-1.95a1.94,1.94,0,0,1,0-2,18.36,18.36,0,0,1,2-8.94c1.24-2.44,3.49-3.32,5.92-3.94.59-.53,1.46,0,2.05-.58,2.54.08,5.07-.28,7.61.55a8.07,8.07,0,0,1,5.9,6.31C141.13,379.64,140.61,380.53,141.17,381.09Z" fill="#f9f6cd"/>
      <path d="M377.48,402.47c0-9.33,0-18.67,0-28,0-1.22.2-1.69,1.58-1.67,5.65.09,11.31.08,17,0,1.29,0,1.73.37,1.61,1.67a19.89,19.89,0,0,0,0,3.78c.13,1.33-.45,1.55-1.59,1.52-2.8-.06-5.61,0-8.41,0-.91,0-1.21.23-1.2,1.18q.06,7.9,0,15.81c0,1,.3,1.19,1.21,1.17,2.69,0,5.38,0,8.07,0,1,0,1.38.16,1.32,1.24a47.89,47.89,0,0,0,0,4.94c0,.87-.23,1.13-1.11,1.11-2.69,0-5.38.05-8.07,0-1.2,0-1.43.37-1.41,1.48q.07,8.48,0,17c0,1,.21,1.41,1.33,1.38,3-.08,5.94,0,8.9-.05,1.16,0,1.57.38,1.51,1.53-.07,1.42-.06,2.86,0,4.28,0,1-.27,1.49-1.39,1.48-6,0-12.08-.06-18.13,0-1.39,0-1.16-.74-1.16-1.55Z" fill="#f9f6cd"/>
      <path d="M175.41,402.52c0-9.39,0-18.78,0-28.17,0-1.21.28-1.56,1.53-1.54,5.6.07,11.2.05,16.81,0,1.08,0,1.63.21,1.49,1.44-.2,1.78.76,4.11-.38,5.21s-3.35.23-5.1.28c-1.43,0-2.86.06-4.28,0-.9,0-1.1.29-1.09,1.13,0,5.27,0,10.54,0,15.81,0,1.1.39,1.24,1.33,1.22,2.58,0,5.16,0,7.74,0,.94,0,1.24.25,1.2,1.19-.08,1.64-.08,3.3,0,4.94,0,1-.33,1.18-1.22,1.16-2.64,0-5.28,0-7.91,0-.83,0-1.14.18-1.13,1.08q.06,8.81,0,17.62c0,.88.25,1.12,1.11,1.1,2.8-.05,5.61.08,8.4-.05,1.59-.07,2,.5,1.91,2a37.75,37.75,0,0,0,0,4.12c0,.83-.32,1.19-1.17,1.19-6.09,0-12.19,0-18.29,0-1.27,0-.87-.87-.87-1.48Q175.4,416.61,175.41,402.52Z" fill="#f9f6cd"/>
      <path d="M149.37,402.51c0-9.39,0-18.78,0-28.17,0-1.26.33-1.59,1.55-1.53a59.42,59.42,0,0,0,6.26,0c1.21-.06,1.57.25,1.55,1.51-.08,5.77,0,11.54,0,17.3,0,10.6,0,21.2,0,31.8,0,1.26.35,1.55,1.55,1.51,2.86-.09,5.72,0,8.57,0,1,0,1.5.2,1.42,1.35a44.83,44.83,0,0,0,0,4.78c0,.88-.28,1.15-1.12,1.14-6.21,0-12.42,0-18.62,0-1.31,0-1-.78-1-1.5Z" fill="#f9f6cd"/>
      <path d="M324.53,402.44c0-9.34,0-18.67,0-28,0-1.35.42-1.68,1.67-1.62a56.23,56.23,0,0,0,6.09,0c1.68-.13,2,.56,2,2.07-.05,15.82,0,31.63,0,47.44,0,2.8,0,5.6,0,8.4,0,1.06-.34,1.48-1.42,1.45-2.26-.06-4.51-.08-6.76,0-1.23.05-1.55-.34-1.54-1.57C324.55,421.22,324.53,411.83,324.53,402.44Z" fill="#f9f5cc"/>
      <path d="M202.57,402.5c0-9.28,0-18.56,0-27.84,0-1.6.52-1.93,1.94-1.85a47.56,47.56,0,0,0,5.6,0c1.44-.08,1.89.38,1.88,1.85-.07,8.51,0,17,0,25.53,0,10.05,0,20.1,0,30.14,0,1.47-.43,1.94-1.87,1.85a44.44,44.44,0,0,0-5.77,0c-1.5.1-1.78-.45-1.77-1.85C202.6,421.06,202.57,411.78,202.57,402.5Z" fill="#f9f5cc"/>
      <path d="M239.77,87.38a9,9,0,0,0-6.22,4.25c-1.37,2.22-1.93,5.17-3.06,7.67A21.2,21.2,0,0,0,230,94c-.78-3.36-2.85-5.54-5.14-8a7.11,7.11,0,0,1-2.23-4.23,16.52,16.52,0,0,1,.88-5.74,28.46,28.46,0,0,0,1.09-10.42,27.68,27.68,0,0,0-1.14-5.29,12.44,12.44,0,0,1,3,3.33c2.21,3.74.64,8.28,2.34,12.18,1.26,2.91,3.69,5,6.07,7A35.93,35.93,0,0,1,239.77,87.38Z" fill="#c6000e"/>
      <path d="M254.56,104.21c-.11.07-.8-.91-1.41-1.76a8.44,8.44,0,0,1-1.15-2.4c-.79-2.41-4-1.57-7.23-1.13-2.29.31-.94-.8-.94-.8C248.33,93.38,254.9,99.36,254.56,104.21Z" fill="#c6000e"/>
      <path d="M248.16,101.62l.05,0Z" fill="#c6000e"/>
      <path d="M237,100.71s-.52,2.38.76,1.56,1.51-3,1.51-3,2-1.74,2.73-1.22.23-1,.23-1-2.85-.46-3.6.76S237,100.71,237,100.71Z" fill="#c6000e"/>
      <path d="M242,102.68s-1.11.52-.7.93,1.34-.17,1.51.47,1.11,1,1.11.34S242,102.68,242,102.68Z" fill="#c6000e"/>
      <path d="M248.6,105.41s-.46-1.39.35-1.33,2.5-1,3.14-.35-.24.69-.93.69-1.69-.4-1.75.18.76,1,1.34,1,2.56.34,1.51.81-2.79.64-3.08.17A9.44,9.44,0,0,1,248.6,105.41Z" fill="#c6000e"/>
      <line x1="107.43" y1="359.17" x2="120.2" y2="359" fill="#1d7e39"/>
      <path d="M302.66,397.18c-4,.18-4,.18-4-3.85V381.88c0-2.61,0-2.61,2.69-2.51.83.65,1.94,0,2.78.6,1.29.45,1.52,1.56,1.68,2.72.71,1.31-.15,2.84.57,4.15-.22,2.48-.39,5-.66,7.42a3.35,3.35,0,0,1-1.57,2.36C303.68,397,303.07,396.8,302.66,397.18Z" fill="#c7000e"/>
      <path d="M356.34,380c1.89.63,2.42,2.23,2.67,3.95,1.06,7.28.46,14.61.58,21.91.07,4.43,0,8.86.05,13.28-.7.94.08,2.18-.62,3.11-.44,1.09-.85,2.19-2.06,2.68-.78.74-1.92,0-2.71.66-2.35.07-2.35.07-2.35-2.2v-41.8c0-2.28,0-2.28,2.35-2.18C354.85,379.92,355.74,379.43,356.34,380Z" fill="#c7010e"/>
      <path d="M275.61,396c1.56-.52,3.13-1.33,4.62.15a.4.4,0,0,1-.35.31c-.51.5-1.31.52-1.77,1.1l.05,0a9.4,9.4,0,0,1-3.46.32.91.91,0,0,1-.51-1.09C274.41,396,275.19,396.34,275.61,396Z" fill="#f8f5cc"/>
      <path d="M45.34,166.55l91.95,74.28c-.53-.18-18.41-6.58-17.94-5.81S252.94,377.13,252.94,377.13a6.87,6.87,0,0,1,2.18,5.26c-.05,15.32,0,30.65,0,46,0,.76,0,1.54,0,2.3.09,1.68.65,2.27,2.31,2.34s3.3,0,4.95,0c2.49,0,3-.5,3-3,0-5.11,0-10.23,0-15.33,0-2.53,0-5.05,0-7.58,0-1.25.51-1.82,1.78-1.76.87,0,1.75,0,2.63,0,1.91,0,2.09.19,2.11,2.05,0,2.26,0,4.51,0,6.76,0,5.38,0,10.77,0,16.15,0,2.08.61,2.64,2.66,2.7,1.42,0,2.85,0,4.28,0,3.82,0,4-.18,4-4,0-9.89,0-19.77,0-29.65a3.42,3.42,0,0,1,1.8-3.4,7.9,7.9,0,0,0,2.77-2.77c.46-.75,1.12-1.47,2-1.21.65.21.34,1.18.34,1.81q0,17.55,0,35.08c0,.72,0,1.44,0,2.15a1.84,1.84,0,0,0,1.84,1.93c2.25.12,4.51.11,6.76,0a1.9,1.9,0,0,0,1.94-2c0-.65,0-1.32,0-2q0-10.71,0-21.42c0-1.19.1-2.24,1.66-2.26a2.91,2.91,0,0,1,2.59.31,6.56,6.56,0,0,1,1.74,1.82c.71,1.06.38,2.19.25,3.31-.1,6.55-.06,13.12,0,19.69,0,2,.6,2.56,2.7,2.61,1.58,0,3.18,0,4.77,0a3.59,3.59,0,0,0,2.51-.49c.57-.64.33-1.47.51-2.19-.09-7.45.87-14.93-.66-22.34-.18-.6-.73-1-.73-1.7,0-.33,0-.65,0-1,.18-1.42-.8-2.23-1.67-3-1-.91-1-1.65,0-2.54a6.6,6.6,0,0,0,2.31-5.22,4.85,4.85,0,0,1,.66-3.26,15,15,0,0,0,0-5.3c-.89-1.25-.63-2.64-.59-4a6.57,6.57,0,0,0-.85-4.58c-1.1-2.29-2.64-4.17-5.51-4.23a3.15,3.15,0,0,1-2.24-.59,6.21,6.21,0,0,0-2.27-.22c-3.51,0-7,0-10.52,0a3.09,3.09,0,0,1-3-1.56,13,13,0,0,1-2-4.79c-.21-.54-.69-1-.66-1.6l5.31-92.46L301,280.7c-.17-.77-6.06-26.38-5.59-25.61s10,12.29,10,12.29l-8.36-36.22,8.75,8-1.47-23.85,7.17,7.85-6.29-24.71-5.59-43.23-9.41-17.38-2.12,12.8-29-123.33h-.55C163.27,27.28,81.36,84.55,45.34,166.55Z" fill="#f9f6cd"/>
      <path d="M183,187a11,11,0,0,0-.6,8.29c1.73,6.11,7.3,10.11,12.19,13.67a1.75,1.75,0,0,1,.34,2.71L183.6,223.15l-2.78,2.8c-.37-1.26-.72-2.54-1.07-3.82-2.36-8.46-4.57-17-6.82-25.44-1.62-6.11-3.25-12.24-4.88-18.35-.16-.62-.33-1.25-.5-1.87a6.06,6.06,0,0,1,1.14-5.3c.25-.32.51-.63.77-.94,6.41-7.62,15.52-12.83,25.06-15.76,1-.32,2.09-.61,3.14-.88s2.29-.55,3.44-.77a20.07,20.07,0,0,0,1.39,7.79,20.23,20.23,0,0,0,2.33,4.16A12.93,12.93,0,0,1,207,168.6a7.7,7.7,0,0,1-2.35,7.48c-4.1,4.12-10.25,4.4-15.45,6.28A11,11,0,0,0,183,187Z" fill="#714c28"/>
      <path d="M285.65,389.56c-4.73-27.84-9.83-55.89-18.62-82.76a2.47,2.47,0,0,1,.13-1.85c13.68-28.26-3.63-56.27-14.35-82.36a2.47,2.47,0,0,0-.9-1.12c-27.2-18.22-56.24,18.83-63.17,24.82A2.46,2.46,0,0,0,188,249c9,25.7,22.15,50.75,43.4,68.37a2.41,2.41,0,0,1,.79,1.19c8,27.34,27.28,50.38,32.78,78.82a2.47,2.47,0,0,0,2.26,2c2.28.12,16.32-4,17.74-5a2.49,2.49,0,0,0,1-2.34C285.89,391.19,285.77,390.38,285.65,389.56ZM192.8,252.25a1,1,0,0,1,0-.14l.15,0Z" fill="#714c28"/>
      <path d="M254.31,174.81c-2.28,6.36-9-1.22-12.39-4.5-6.41-4.7-15.59-6.5-19-14.21-2.08-4.83,0-12.67-3-17.2-2.54-3.81-3.47-3.79-4.89,1.42-1.18,5.06,1.12,8.25-1.85,13.27-5.84,11.48,6.14,19.08,16.41,14.57.54-.14,1.74-.52,1.77.26-1.86,2.78-6.55,3.27-8.62,6.33-3.47,2.77-3.73,9.82-6.19,12.89-2.06-.84-6.07-5-8.59-5-3.08.14-11.48-2-6.09-5.44,8.09-3.57,6-9.79.33-15-7.77-11.91,1.45-42.42,17.86-38.85,3,.66,4.34,5.11,7.06,8.22,6.82,7.81,12,17.31,24.91,14.62C256.74,145.19,255.58,171.73,254.31,174.81Z" fill="#c6000e"/>
      <path d="M284.78,194c-.54-8.9-12.84-22.37-17.22-10.77-2.49.3-10.12,3.93-12.77,2.25-1.56-1.53.55-11.56,1.86-13.78.45-.76,4.5,2.07,5.11,1.7,10.34-6.21,3.73-22.21-5.84-28.29,3.87,2.45,15.62-.73,18.28,6C279,162.93,297.85,180,284.78,194Z" fill="#c6000e"/>
      <path d="M276.93,259.74c-1.1,1.76-6.67,7.78-8.08,4.07C260.91,250,260.76,225,243.5,220.56c-36.53-9.32-29.4,28.19-59.28,30.63-6.46-.95-8.66-10.87-8.28-16.83.23-11.8,17.86-19.68,18-24.91,0-1.44-2.92-2.24-2.06-3.76,2.32-2.23,4.36-10.83-2.43-13.23-2.22-.78,7.32-3.58,9.29-2.3,2.36,1.53,7,5.18,9.7,5.4,6.16.91,13.41,2.13,17.83,7.31,6.66,7.78,21.85,14.38,25.78,1.89.31-1,.16-2.67,1.3-3.09,5.1-.35,5.11,6.53,6.67,9.78,2.84,8.34,12.49.8,17.51,11.3.78,1.62-.4,2.66-1.32,3.95C271.29,236.75,287.39,244.13,276.93,259.74Z" fill="#c6000e"/>
      <path d="M170.7,235.76c-.35,2-.18,3.24,2.2,8.66.5,1.13-4.58,10.52-5.93,10.36-3.6-.42-3.32-5.21-3.69-6.26-.92-2.59.46-5.36.74-8.11.31-3.08,2-4.28,3.39-7,.74-1.47.5-3.29.64-4.95.1-1.38,1-2.44,2.21-3.52.87-.82,2.38-.12,3.38.1a3,3,0,0,1,1.38,2.8C174.11,230.77,171.22,232.74,170.7,235.76Z" fill="#c6000e"/>
      <path d="M241.84,93.77a10.24,10.24,0,0,0-7.13,4.87c-1.57,2.55-2.2,5.92-3.51,8.79a24,24,0,0,0-.52-6c-.89-3.85-3.27-6.34-5.9-9.13a8.17,8.17,0,0,1-2.55-4.85,18.81,18.81,0,0,1,1-6.57,32.41,32.41,0,0,0,1.24-12,30.53,30.53,0,0,0-1.3-6.07,14.56,14.56,0,0,1,3.46,3.83c2.53,4.28.72,9.48,2.68,13.95,1.44,3.34,4.22,5.77,7,8.05A40.17,40.17,0,0,1,241.84,93.77Z" fill="#c6000e"/>
      <path d="M235.34,122.17s4.34,4.61,7.88,2.21c2.36-1.59,1.73.94,1,2.8a2.43,2.43,0,0,0,1.88,3.27,2,2,0,0,0,2.06-1.28c3-5.29,5.82,1.59,5.82,1.59s3.72.8,4.34.18-3.72-2.48-3.63-2.75a6.06,6.06,0,0,0-3.49-3.39c-1-.31-1.29-1.82-3.37-1.75a3.65,3.65,0,0,1-2.64-1.06,1.62,1.62,0,0,0-1.74-.26C241.27,122.44,235.6,120.22,235.34,122.17Z" fill="#c6000e"/>
      <path d="M258.79,113.06c-.12.08-.91-1-1.62-2a9.87,9.87,0,0,1-1.31-2.76c-.91-2.76-4.62-1.79-8.29-1.3-2.62.36-1.08-.9-1.08-.9C251.65,100.65,259.19,107.5,258.79,113.06Z" fill="#c6000e"/>
      <path d="M251.45,110.09l.06,0Z" fill="#c6000e"/>
      <path d="M238.65,109s-.6,2.73.86,1.8,1.73-3.39,1.73-3.39,2.27-2,3.13-1.4.27-1.13.27-1.13-3.26-.54-4.13.86S238.65,109,238.65,109Z" fill="#c6000e"/>
      <path d="M244.37,111.31s-1.26.6-.8,1.06,1.54-.2,1.73.54,1.27,1.19,1.27.4S244.37,111.31,244.37,111.31Z" fill="#c6000e"/>
      <path d="M252,114.44s-.53-1.6.4-1.53,2.86-1.2,3.6-.4-.27.8-1.07.8-1.93-.47-2,.2.87,1.13,1.54,1.13,2.93.4,1.73.93-3.2.73-3.53.2A11.86,11.86,0,0,1,252,114.44Z" fill="#c6000e"/>
      <path d="M303.58,396.62c-4.27.19-4.27.19-4.27-4.07V380.46c0-2.76,0-2.76,2.85-2.66.87.68,2,0,2.93.63,1.37.48,1.61,1.65,1.77,2.87.76,1.39-.15,3,.61,4.39-.23,2.62-.41,5.24-.7,7.84a3.47,3.47,0,0,1-1.66,2.49C304.66,396.38,304,396.21,303.58,396.62Z" fill="#c7000e"/>
      <path d="M264.06,303.1c7.51,7.21-9.05,2.73-12.95,4-11.37,3.57-11.77,7.58-18.26,7.42C229.89,297.34,254.12,290.05,264.06,303.1Z" fill="#f9f6cd"/>
      <path d="M256.87,366c-3.33-4-8.87-22.16-2.27-18.05a2.55,2.55,0,0,1,1.09,1.88c.87,6.33,11.37,14.75,3.05,16.78A1.8,1.8,0,0,1,256.87,366Z" fill="#f8f5cc"/>
      <path d="M267.62,339.91c-1.46-.51-5.23-14.08-5.65-14.65-.36-1.82.54-2.14,1.59-2.27a1.39,1.39,0,0,1,1.54,1.12C265.22,324.75,271.64,340.07,267.62,339.91Z" fill="#f7f3ca"/>
      <path d="M261.47,309.85a1.38,1.38,0,0,1,.34.46c.81,1.72-.3,3.82,1,5.43.57.43.65,5.62-1.34,4.86a29.57,29.57,0,0,1-2.93-7.79,4.6,4.6,0,0,1,.18-2.21,1.73,1.73,0,0,1,2.72-.77Z" fill="#f6f2c9"/>
      <path d="M228.25,309.65c-3-2-12.6-9.16-15.67-18a.26.26,0,0,1,0-.15c0-.66.28-5.71,1.5-8.66,1.41-3.41,13.86,18.37,15,20.34a.34.34,0,0,1,0,.28,12.37,12.37,0,0,0-.24,5.79A.38.38,0,0,1,228.25,309.65Z" fill="#f8f5cc"/>
      <path d="M257.87,295.93a22.22,22.22,0,0,0-.73-8.62.48.48,0,0,1,.22-.55c.89-.54,3.47-1.81,4.83.56.55.95.62,8.43.62,11.42a.5.5,0,0,1-.84.37,15.37,15.37,0,0,0-3.81-2.66A.51.51,0,0,1,257.87,295.93Z" fill="#f8f5cc"/>
      <path d="M264.21,394.07s-.13-3.58,2.37-1.81c0,0,.51-4.27,4.63-.93,0,0-.48-5.31,3.13-.5,0,0-.77-7.66,3-.62,0,0,.12-7.75,4.4-.18,0,0-.69-8.79,2.52-.45,0,0-.68-6,.88-2.82l.35,1.86a3.42,3.42,0,0,1-3.66,1.38,11.66,11.66,0,0,1-4.72.36s-5.18,1.65-5.87,1.19c0,0-3.38,2.35-4.53,1.64,0,0-.31,2.62-2.21,2.16Z" fill="#f8f5cc"/>
      <path d="M263.18,389.09s9.26-9,21.34-5.95C284.52,383.14,271.38,377.76,263.18,389.09Z" fill="#f8f5cc"/>
    </g>
  </g>
  <g id="tap">
    <g>
      <g>
        <path d="M203.35,484.83l-.2-.05.1-.08Z" fill="#c79e70"/>
        <path d="M491.76,161.77A251.84,251.84,0,1,0,161.68,491.85l.78.33c17.75,7.5,57.68,37.77,68.93,91.38,23.62,112.6-2.64,156.87-10.52,170.28l0,0s-8.43,5.82-15.25,7.23a8.49,8.49,0,0,0-1.47.38l0,.07c-.68,1.68-2.27,5.12-4.29,9.35l-.12.25c-5.73,12.54-13.81,30.26-13.81,30.26l157-.67S330.5,776.27,324,760.16c0,0-.44,0-1.18-.17a19.29,19.29,0,0,1-11.44-6.47c-13.62-32.46-27.21-82.19-15.46-171.81a176.3,176.3,0,0,1,4.58-23.17,164.19,164.19,0,0,1,10.78-28.88q2.08-4.33,4.27-8.33l.75-1.38a25.38,25.38,0,0,1,5.14-6c9.58-8.77,27.85-18.51,36.15-22l.15-.07a252.13,252.13,0,0,0,134-330.08Zm-463.89,98C27.87,131.76,131.67,28,259.71,28A231.75,231.75,0,0,1,491.55,259.8c0,128.05-103.79,231.85-231.84,231.85a232.12,232.12,0,0,1-56.36-6.9l-.07,0h-.05l-.08,0A231.81,231.81,0,0,1,27.87,259.8Z" fill="#c79e70"/>
      </g>
      <g mask="url(#mask)">
        <path d="M487.05,165.43C452.14,77.67,365.77,15.51,271.15,11.84,220.38,9.15,169.5,24.74,127.36,52.73c-35.23,23.68-64,56.59-83.56,94.18C-10.73,251.76,3,344.74,86,424.64c8.22,7.9,63,41.27,91.06,59.41,23.88,15.46,42.47,39.69,44.79,44.75,43.49,95,22.21,198.69,8.87,215.63a48.19,48.19,0,0,1-9.86,9.41l-.09.07-.21.14a47.61,47.61,0,0,1-6,3.61c-.31.17-.62.32-.92.46-.74.37-1.46.7-2.14,1a43.79,43.79,0,0,1-5.76,2c-1,.26-1.56.38-1.66.4h0l-4.28,9.35-.12.25c-5.73,12.54-13.81,30.26-13.81,30.26l157-.67S330.5,776.27,324,760.16a11.13,11.13,0,0,1-1.18-.17A21.81,21.81,0,0,1,315,756.7a21.49,21.49,0,0,1-2.07-1.58c-.12-.09-.23-.19-.35-.3l-.39-.36-.49-.47c-4.24-4.21-7.38-11.83-10.17-21.28-4.85-16.39-25-94.51-1-174.17a237.92,237.92,0,0,1,10.78-28.88c.61-1.37,1.24-2.73,1.88-4.09a35.49,35.49,0,0,1,2.39-4.24,54.58,54.58,0,0,1,5.89-7.41c20.6-22.1,64.84-41.62,77-48.93C499.89,404,534.53,276.87,487.05,165.43ZM249.71,492.75a231.12,231.12,0,0,1-45.58-6.66l-.2,0A231.81,231.81,0,0,1,28.7,266C26,136.55,130.92,29.33,260.44,29.3a231.74,231.74,0,0,1,231.79,225C496.16,390.63,385.92,499,249.71,492.75Z" fill="#efd7b3"/>
      </g>
      <g mask="url(#mask-2)">
        <path d="M322.83,760c-19.56,8.44-39.56,11.09-56.95,11.09a184.2,184.2,0,0,1-23.69-1.56,196.76,196.76,0,0,1-36.43-8.37l-.16,0a53.16,53.16,0,0,0,5.92-2c.68-.28,1.4-.61,2.14-1l.89-.47h0a191.63,191.63,0,0,0,28.92,6.11c18.77,2.46,45.36,2.89,71.47-7.07A21.81,21.81,0,0,0,322.83,760Z" fill="#c79e70"/>
      </g>
    </g>
  </g>
</svg>
