<svg xmlns="http://www.w3.org/2000/svg" xmlns:xlink="http://www.w3.org/1999/xlink" viewBox="0 0 520 810">
  <defs>
    <filter id="luminosity-noclip" x="8.21" y="9.41" width="502" height="795" filterUnits="userSpaceOnUse" color-interpolation-filters="sRGB">
      <feFlood flood-color="#fff" result="bg"/>
      <feBlend in="SourceGraphic" in2="bg"/>
    </filter>
    <mask id="mask" x="8.21" y="9.41" width="502" height="795" maskUnits="userSpaceOnUse">
      <g filter="url(#luminosity-noclip)">
        <image width="502" height="795" transform="translate(8.21 9.41)" xlink:href="beer_data1.png"/>
      </g>
    </mask>
    <filter id="luminosity-noclip-2" x="203.21" y="754.41" width="122" height="19" filterUnits="userSpaceOnUse" color-interpolation-filters="sRGB">
      <feFlood flood-color="#fff" result="bg"/>
      <feBlend in="SourceGraphic" in2="bg"/>
    </filter>
    <mask id="mask-2" x="203.21" y="754.41" width="122" height="19" maskUnits="userSpaceOnUse">
      <g filter="url(#luminosity-noclip-2)">
        <image width="122" height="19" transform="translate(203.21 754.41)" xlink:href="beer_data2.png"/>
      </g>
    </mask>
  </defs>
  <g id="icon">
    <g>
      <g>
        <path d="M491.62,259.6a232.48,232.48,0,0,1-5.4,50c-22.85,104-115.55,181.87-226.44,181.87S56.19,413.59,33.34,309.57a232.48,232.48,0,0,1-5.4-50c0-128,103.79-231.84,231.84-231.84S491.62,131.56,491.62,259.6Z" fill="#e9c995"/>
        <path d="M486.22,309.57c-22.85,104-115.55,181.87-226.44,181.87S56.19,413.59,33.34,309.57Z" fill="#4c220f"/>
      </g>
      <g>
        <path d="M181.28,347.54v8.18c-1.11-3.57-3.5-4.08-6.06-4.16a54,54,0,0,0-7,.09,2.61,2.61,0,0,0-1.79,1.78,100.91,100.91,0,0,0,.17,10.58c.05.84,1.1,2.29,1.72,2.3a82.26,82.26,0,0,0,11.32-.36c1.58-.17,3.06-1.37,4.56-2.08-.17,4.15-.62,4.57-4.44,4.51-4.31-.06-8.62-.11-12.93,0-1.88.05-2.6-.56-2.58-2.49q.09-14.34,0-28.69c0-1.73.59-2.48,2.4-2.48,4.82,0,9.65-.08,14.47-.2,1.34,0,1.91.44,1.9,1.76,0,1,.08,2,.15,3.54-4.23-5.09-9.66-3.11-14.61-3.25-.64,0-1.8,1.4-1.88,2.23a84.54,84.54,0,0,0-.24,9.55,2.17,2.17,0,0,0,1.54,1.48,60.27,60.27,0,0,0,9-.23C178.48,349.4,179.81,348.28,181.28,347.54Z" fill="#eb9b58"/>
        <path d="M261.53,368.26c.58-2.5,1.58-4.85,1.57-7.19,0-6.1-.47-12.2-.77-18.3a2.52,2.52,0,0,0-.9-1.79c-3.17,6.88-6.35,13.76-9.86,21.34l-12.57-27,.76-.66a9,9,0,0,1,1.82,1.95c2.83,5.8,5.56,11.65,8.33,17.47.43.91.9,1.8,1.63,3.22.63-1.08,1.05-1.66,1.34-2.29,2.54-5.56,5.05-11.12,7.58-16.68a10.83,10.83,0,0,1,1-2.08,9.34,9.34,0,0,1,1.65-1.39c.38.69,1.05,1.35,1.09,2.05.24,3.86.29,7.74.48,11.61.25,5.15.59,10.3.86,15.45C265.79,368.64,265.75,368.66,261.53,368.26Z" fill="#eb9b58"/>
        <path d="M323.42,335c-2.53,2.6-2.78,5.55-2.75,8.62.06,4.73-.06,9.48.05,14.21.16,7.18,4.4,10.4,11.48,8.86.58-.12,1.18-.23,1.76-.39,5.75-1.6,6.38-2.43,6.37-8.36,0-5.08.07-10.17,0-15.25-.06-3-.23-6.1-3.38-8a2.82,2.82,0,0,1,.62-.19c4.82.32,4.82.33,4.82,5.07,0,8.7,0,17.4,0,26.1,0,1.15.51,2.86-1.89,2.51-.16-.77-.32-1.56-.47-2.25-3.24.88-6.31,2.06-9.48,2.51-7.49,1.06-11.71-2.72-11.79-10.29-.07-6.55,0-13.1,0-19.65C318.68,334.47,318.8,334.36,323.42,335Z" fill="#eb9b58"/>
        <path d="M194.39,368.25h-7.54c6.92-8,10.13-17.86,15.17-26.71a3.54,3.54,0,0,0-.36-3.2,30,30,0,0,0-4.15-3.67c4.87-.58,5.19-.34,7.41,4.38,4.13,8.81,8.35,17.58,12.53,26.37.36.77.66,1.56,1.16,2.73l-5.06.3c1.93-3,.53-5.44-.63-7.78-3.77-7.61-1.71-5.79-9.58-6.34-4.58-.32-7.24,1.08-8.74,5.47C193.64,362.64,191.83,365.24,194.39,368.25Zm4.11-15.75H209c-1.75-3.58-3.28-6.7-4.8-9.83l-.82.09C201.87,345.84,200.31,348.92,198.5,352.5Z" fill="#eb9b58"/>
        <path d="M354.12,334.63a8,8,0,0,1,6.59,2.24c10.92,9.49,22,18.84,32.92,28.28a13.48,13.48,0,0,1,1.78,2.34l-.84.77-28.46-24.17c-.42.4-.65.51-.65.63.06,6.26,0,12.53.34,18.78.09,1.6,1.5,3.12,2.31,4.7h-7.58c2.66-2.51,2.75-5.64,2.72-8.83,0-5.17.09-10.34-.09-15.5a5.37,5.37,0,0,0-1.59-3.49C359.28,338.33,356.71,336.59,354.12,334.63Z" fill="#eb9b58"/>
        <path d="M290.37,368.22c-4.8.26-4.81.26-4.81-4.12q0-12.77,0-25.54c0-3.64,0-3.73,3.53-3.89a29,29,0,0,1,7.16.24c4.63,1,7.06,4.62,7,9.78,0,4.88-2.61,8.6-7.15,9.42-2.61.48-5.39.09-8.51.09C287.56,359,286.8,363.83,290.37,368.22Zm-2.84-23.33h-.07a41.9,41.9,0,0,0,.07,5.14,3.15,3.15,0,0,0,1.38,2.15,8.53,8.53,0,0,0,10.82-12.55c-1.61-2.76-5.46-4.24-9-3.52a3.19,3.19,0,0,0-2.85,3.14C287.73,341.12,287.64,343,287.53,344.89Z" fill="#eb9b58"/>
        <path d="M248.63,367.76q-6.25-13.25-12.49-26.5h-.65a10.51,10.51,0,0,0-.46,2c-.3,6.44-.71,12.89-.74,19.33,0,1.89,1.1,3.78,1.7,5.69h-6.46c3.85-4.84,2.6-10.54,3.14-15.88.35-3.5.23-7.05.54-10.56.23-2.66.1-5-2.72-6.44,3.31-1.38,4.68-1,6.06,1.93,4.3,9,8.58,18,12.76,27.08.42.92.18,2.15.24,3.24Z" fill="#eb9b58"/>
        <path d="M395.08,362.39l-31.54-27,.43-.84a14.1,14.1,0,0,1,3.17,1.53c7.85,6.58,15.63,13.25,23.43,19.88.64.54,1.31,1,2.21,1.75a7.35,7.35,0,0,0,.59-1.89c0-4.39,0-8.78-.06-13.17-.06-2.89-.66-5.63-3.81-7.76h9.05c-3.42,2.71-3.24,6.14-3.28,9.49,0,4.82,0,9.64,0,14.46C395.23,359.76,395.16,360.68,395.08,362.39Z" fill="#eb9b58"/>
        <path d="M414.78,368.27c-4.15.24-4.14.24-4.14-3.84q0-13.17,0-26.34c0-3.55.23-3.73,3.94-3.1-2.47,4.55-1.44,9.5-1.86,13.64a32.57,32.57,0,0,1,3.8,3c5,5.35,9.84,10.78,14.75,16.18l-.49.78a12,12,0,0,1-2.94-1.72c-4.27-4.61-8.44-9.3-12.62-14a15.5,15.5,0,0,1-1.35-2.14l-1.16.66C413.08,357,411.52,362.77,414.78,368.27Z" fill="#eb9b58"/>
        <path d="M115,362.29c.21-6.3-2.68-9.77-7.87-11.64C104,349.54,101,348.3,98,347.09a5.13,5.13,0,0,1-3.48-4.93c-.11-2.61.59-4.83,2.92-6.17,5.1-2.92,10.46-2.11,15.79-.8a1.79,1.79,0,0,1,.94,1.33c.12,1.51,0,3,0,4.83-3.36-5.14-8.12-5.74-13.29-4.72-2.3.45-4.22,1.77-4.52,4.35s1.35,3.82,3.35,4.66c3.56,1.5,7.22,2.77,10.77,4.3a8.91,8.91,0,0,1,5.2,11.23A7.74,7.74,0,0,1,115,362.29Z" fill="#eb9b58"/>
        <path d="M91.45,342.53c.71,6,5.17,7.57,9.59,9.19,2.26.83,4.54,1.63,6.73,2.63,2.84,1.29,4.44,3.54,4.17,6.77s-1.83,6.22-5.15,7a24.27,24.27,0,0,1-8.63.25c-5.85-.78-5.83-1-6.06-6.82,0-.77,0-1.54,0-3,1.58,4.38,4,7.23,8,8.18,3,.72,6,.67,8.38-1.86,2.6-2.82,2.12-6.71-1.37-8.46-3.21-1.62-6.67-2.75-10-4.07-4.86-1.9-6.64-4.48-6.1-8.88C91,343.29,91.1,343.16,91.45,342.53Z" fill="#eb9b58"/>
        <path d="M426.87,334.61h9.78c-4.62,3.42-9.72,7.3-14.93,11-1.91,1.36-1.93,2.33-.32,4,5.79,6.11,11.43,12.37,17.54,19-1.53-.51-3.21-.55-4-1.42-5.74-6.07-11.29-12.32-16.89-18.52a12.87,12.87,0,0,1-.95-1.38c3-2.55,6.06-4.94,8.92-7.53C428.19,337.81,428.18,337.2,426.87,334.61Z" fill="#eb9b58"/>
        <path d="M154.53,341.38c-2.05-4.17-3-4.94-7.68-4.92-8.9,0-7.3-1.11-7.43,7.27-.08,5.35,0,10.69,0,16,0,3,.31,5.89,2.75,8.09-3.76,1.35-4.82.69-4.83-2.94,0-9,.09-17.92-.05-26.88,0-2.66.87-3.46,3.43-3.36,4,.14,7.93,0,11.89-.12,1.48-.05,2,.46,1.95,1.93C154.47,338.11,154.53,339.75,154.53,341.38Z" fill="#eb9b58"/>
        <path d="M117.14,341.62c0-6.91,0-6.91,6.47-6.9,2.84,0,5.68,0,8.51,0,1.53,0,2.17.59,2.17,2.13,0,9.81.05,19.61-.06,29.42,0,3.72-3,1.41-4.69,2,2.47-2.32,2.82-5.29,2.84-8.31.05-6.88,0-13.76.05-20.64,0-2.08-.67-3.05-2.83-2.89a29.82,29.82,0,0,1-4.12,0C121.46,336.13,118.29,337.16,117.14,341.62Z" fill="#eb9b58"/>
        <path d="M404.48,334.93c3.2-.55,3.4-.41,3.41,2.93v27.58c0,.84-.08,1.68-.13,2.74l-4.49.28c3.05-3.17,2.34-6.73,2.37-10.14,0-5.58.11-11.17-.05-16.75A47.65,47.65,0,0,0,404.48,334.93Z" fill="#eb9b58"/>
        <path d="M277.11,334.83a4.23,4.23,0,0,1,.7-.28c5.5.42,4.84-.56,4.86,4.92,0,8.17,0,16.33,0,24.49,0,4.64,0,4.64-5,4.24,3.41-3.44,2.86-7.75,2.92-11.85.07-4.9-.11-9.79-.2-14.69C280.38,339,279.84,336.53,277.11,334.83Z" fill="#eb9b58"/>
        <path d="M226.89,368.17c-4.81.43-4.75.4-6.46-3.24-4.28-9.11-8.63-18.19-12.94-27.3-.36-.76-.66-1.55-1-2.41,1.93-1,2.37.29,2.91,1.47,2.38,5.15,4.71,10.33,7.18,15.45C219.27,357.76,221.45,363.73,226.89,368.17Z" fill="#eb9b58"/>
        <path d="M272.39,335c-3.09,2.55-3.1,5.65-2.95,8.79.3,5.76.44,11.54,1,17.28.25,2.44,1.4,4.8,2.12,7.14-3.9.54-3.88.51-4.09-3.84-.43-9-.92-18.05-1.42-27.08C266.91,334.67,267.42,334.39,272.39,335Z" fill="#eb9b58"/>
        <path d="M156.16,334.79a3.06,3.06,0,0,1,.59-.24c4.52.07,4.52.07,4.52,4.52q0,12.65,0,25.28c0,4.18,0,4.18-4.64,3.84,2.91-3.16,2.65-6.95,2.65-10.69,0-5.07,0-10.14,0-15.22C159.28,339.45,158.75,336.81,156.16,334.79Z" fill="#eb9b58"/>
        <path d="M351,334.67c-2.91,1.83-3.54,4.48-3.53,7.46,0,6.18-.18,12.38.08,18.56.11,2.52,1.18,5,1.81,7.48-3.77.65-4,.49-4-3.55,0-8.25,0-16.5,0-24.76C345.4,334.46,344.41,334.71,351,334.67Z" fill="#eb9b58"/>
        <path d="M317.4,366.93a5.91,5.91,0,0,1-3.56-5.69c-.12-6.27-.2-12.55-.29-18.83-.05-3.8-.46-4.92-2.92-7.66.12-.08.25-.23.37-.22,5.37.39,4.68-.32,4.72,4.85,0,6.62-.09,13.25.15,19.86C316,361.82,316.86,364.36,317.4,366.93Z" fill="#eb9b58"/>
        <path d="M304.8,337.39c5.14,1.89,5.06,12.14.33,14,.38-2.27,1.09-4.58,1-6.88S305.3,339.83,304.8,337.39Z" fill="#eb9b58"/>
      </g>
      <path d="M219,229.48,240.67,270s15.74,28.59,31.37-8.67S304,192,304,192l4.39-10.69-1-5.23s32.12.47,16.42-9.52l-10-.95H268.38l-46.63,8.09-15.56.33s-26.06,21,3.38,39.81c0,0-1.46,7.25,7.43,12.14,1.15.63.73,2.63,2,3.55" fill="#1b0c04"/>
      <path d="M237.5,268.92s-4.33,11.66-23,21.71c-4.45,2.39-26.15,16.06-27.2,19.05L378.2,310l-.39-14a19.09,19.09,0,0,0-11.2-16.87l-50.84-23.09-18.49,8.16a20.51,20.51,0,0,0-8.53,7l-17.68,25.27-14.18,3.19-20-29.29" fill="#1b0c04"/>
      <polygon points="238.15 255.4 289.98 247.37 295.67 267.8 274.4 303.09 252.75 304.79 231.21 259.8 238.15 255.4" fill="#654330"/>
      <polygon points="260.21 395.14 270.52 416.03 293.57 419.38 276.89 435.64 280.83 458.6 260.21 447.76 239.59 458.6 243.53 435.64 226.84 419.38 249.9 416.03 260.21 395.14" fill="#c54929"/>
      <path d="M204.39,85c-9.84,5.26-15.89,6.1-10.86,22.93,6.64,22.25,8.8,51,8.8,51s-27.66-1.88-22.78,5,21.57,12.62,21.57,12.62,80.79,4.16,101.38-3.59a48.18,48.18,0,0,0,27.23-25.9s3.74-18.57-27-8.84h0L297.4,89.5S299,79.32,284.56,75.78C270.69,72.36,226.18,73.32,204.39,85Z"/>
      <polygon points="233.86 180.69 244.95 177.73 246.43 216.37 239.77 226.91 245.32 230.6 239 234.88 230.57 228.11 228.78 215.94 236.38 206.68 233.86 180.69" fill="#5a4d39"/>
      <polygon points="234.32 275.19 239.16 299.35 243.88 291.33 236.8 270.1 234.32 275.19" fill="#654330"/>
      <polyline points="295.67 267.8 285.44 283.15 292.19 293.37 315.92 255.53 311.62 246.94 295.67 267.8" fill="#654330"/>
      <ellipse cx="214.13" cy="192.88" rx="15.23" ry="15.16" fill="#584a3a"/>
      <path d="M216.68,231.86s-15.91,8.36-17.48,19.57S211,277.3,217.84,277s16.13-7.64,19.06-6.59,3.77-.42,3.77-.42l-7.23-24.82L222.86,230l-6.18,1.9" fill="#1b0c04"/>
      <path d="M294.2,222.77s15.92,8.36,17.49,19.56-11.83,25.87-18.64,25.56-16.13-7.65-19.06-6.6-3.77-.42-3.77-.42l7.22-24.82L288,220.86l6.18,1.91" fill="#1b0c04"/>
      <path d="M259.84,175.36,275.53,166,290,172.89,304,192l5.06-12h0a7,7,0,0,1,4.4,7.63L310.52,206a10.2,10.2,0,0,1-9.89,8.62h0L293,221.5l-12.92-1.18,5.09-24.65H273.43L263.64,190Z" fill="#654330"/>
      <path d="M202.19,156.91s57,9.07,100.3-22.73l.22,4S242,175,202.33,158.89Z" fill="#654330"/>
      <polygon points="267.78 171.78 275.88 168.88 287.54 178.37 282.14 192.99 266.86 187.39 267.78 171.78"/>
      <polygon points="280.12 189.94 275.84 183.49 270.3 187.26 273.51 181.46 269.07 176.88 275.84 177.9 279.43 172.19 278.81 178.66 286.23 180.82 279.23 182.51 280.12 189.94" fill="#c54929"/>
      <polygon points="217.87 190.49 222.59 188.49 227.38 192.44 222.59 195.1 217.87 190.49"/>
      <polygon points="212.19 184.05 215.44 188.31 221.12 185.94 217.75 181.39 212.19 184.05"/>
      <polygon points="207.28 181.81 208.82 183.76 203.91 188.01 203.09 185.47 207.28 181.81"/>
      <polygon points="205.04 190.2 209.18 185.59 212.9 190.08 208.29 194.51 205.04 190.2"/>
      <polygon points="203.44 192.5 206.04 195.34 206.22 199.3 204.8 200.9 201.85 197.59 203.44 192.5"/>
      <polygon points="211.07 194.87 211.07 197.94 214.44 201.72 219.22 197.23 214.67 192.33 211.07 194.87"/>
      <path d="M217.69,202.85l3.78-3.67,2,2.07s-1.48,4.14-3.66,4.32A9,9,0,0,1,217.69,202.85Z"/>
      <polygon points="213.02 202.85 211.84 207.52 206.99 203.26 208.53 198.71 213.02 202.85"/>
      <path d="M232.82,246.49l.4.64,4.66-8.66-.17-.23c-.39-.5-9.43-12.32-15-13a3.18,3.18,0,0,0-2.43.61l-.36.3.32.34a1.42,1.42,0,0,1,.25,1.1c-.11.88-.86,2.33-3.83,4.3L214.91,233l2.09-.38a4.07,4.07,0,0,1,1.6.15,25.26,25.26,0,0,0-3.38,1.77l-.82.55a34.1,34.1,0,0,0-4.52,3.66,12.49,12.49,0,0,0-2-.62l-.15.85a14.48,14.48,0,0,1,1.49.43,49.55,49.55,0,0,0-4.68,5.44,8.47,8.47,0,0,0-2.52-.8l-.08.86a7.65,7.65,0,0,1,2.06.69,56.89,56.89,0,0,0-4.93,8.13l.79.37a58.91,58.91,0,0,1,4.9-8.1,20.2,20.2,0,0,1,6.92,7.08,64,64,0,0,0-11.43,10.39l.68.54a65.05,65.05,0,0,1,11.2-10.18,40.71,40.71,0,0,1,3,6.24,96.17,96.17,0,0,0-9.21,7.12l.58.66a96.64,96.64,0,0,1,9-6.91,66.76,66.76,0,0,1,2.08,7.16c-3.78,2.51-6.69,4.83-7,5.05l.55.68c.06-.05,2.89-2.29,6.61-4.8.44,2,.83,4.19,1.17,6.55l.87-.12c-.36-2.51-.78-4.81-1.26-6.94a60.14,60.14,0,0,1,8-4.58,67,67,0,0,1,1,10.89h.88a67.43,67.43,0,0,0-1-11.24,11.74,11.74,0,0,1,5.73-1.23l.13-.86a12.59,12.59,0,0,0-6,1.22,46,46,0,0,0-2.06-7.26,28,28,0,0,1,5.07-1.71c.52,1.12,1,2.3,1.49,3.55l.81-.32c-.45-1.19-.93-2.32-1.42-3.41a15.21,15.21,0,0,1,2-.21l0-.88a19.06,19.06,0,0,0-2.31.27,51.26,51.26,0,0,0-4.26-7.39c1.43-.68,2.91-1.33,4.46-1.95C231.48,244.37,232.14,245.38,232.82,246.49Zm-12.9-13.27a17.83,17.83,0,0,1,5.56,3.82c-1.66.61-3.16,1.27-4.54,1.93a30.15,30.15,0,0,0-4.88-3.87A21.87,21.87,0,0,1,219.92,233.22Zm5.13,11.83c-1.52.74-3,1.5-4.36,2.28a26.78,26.78,0,0,0-4.42-4.72,42.68,42.68,0,0,1,4.49-2.57A41.18,41.18,0,0,1,225.05,245.05Zm-9.81-9.44a30.35,30.35,0,0,1,4.85,3.78,43.43,43.43,0,0,0-4.55,2.63,23,23,0,0,0-4.77-2.87A31.9,31.9,0,0,1,215.24,235.61Zm-9.93,9.68a47.43,47.43,0,0,1,4.78-5.5,21.61,21.61,0,0,1,4.71,2.73,26.8,26.8,0,0,0-6,5.44A16.56,16.56,0,0,0,205.31,245.29Zm4.11,3.31a26.87,26.87,0,0,1,6.11-5.5,25.44,25.44,0,0,1,4.4,4.65,87.61,87.61,0,0,0-7.5,4.81A26.11,26.11,0,0,0,209.42,248.6Zm3.46,4.72a82.51,82.51,0,0,1,7.57-4.86A33,33,0,0,1,224,255a60.11,60.11,0,0,0-8.11,4.59A40.33,40.33,0,0,0,212.88,253.32Zm13.43,9.79a60.2,60.2,0,0,0-8.06,4.52,62.44,62.44,0,0,0-2.08-7.16,59.67,59.67,0,0,1,8.11-4.62A45.78,45.78,0,0,1,226.31,263.11ZM229.75,253a29.27,29.27,0,0,0-5,1.69A34.15,34.15,0,0,0,221.2,248c1.39-.76,2.83-1.52,4.37-2.27A50.14,50.14,0,0,1,229.75,253Zm-3.89-8.3a41.32,41.32,0,0,0-4.25-5c1.38-.66,2.89-1.3,4.55-1.91a40,40,0,0,1,4.14,5Q228,243.65,225.86,244.67Z" fill="#584a3a"/>
      <path d="M268.84,251.72l-3.71-9.17s12.44-27,23-26.44a4,4,0,0,1,2.43.61l.36.3-.31.34a1.44,1.44,0,0,0-.25,1.1c.11.88.86,2.33,3.82,4.31l1.77,1.17-2.09-.38a4,4,0,0,0-1.59.15,24.79,24.79,0,0,1,3.38,1.78c.28.17.55.35.82.54a34.1,34.1,0,0,1,4.52,3.66,12.49,12.49,0,0,1,2-.62l.15.85a13,13,0,0,0-1.49.43,48.36,48.36,0,0,1,4.67,5.44,8.49,8.49,0,0,1,2.53-.8l.08.86a7.54,7.54,0,0,0-2.06.69,58,58,0,0,1,4.93,8.13l-.8.37a57.71,57.71,0,0,0-4.9-8.1,20.19,20.19,0,0,0-6.91,7.08,64.15,64.15,0,0,1,11.42,10.39L310,255a64.09,64.09,0,0,0-11.2-10.18,39.82,39.82,0,0,0-2.95,6.24,96.51,96.51,0,0,1,9.21,7.13l-.59.65a95.64,95.64,0,0,0-8.94-6.91,66.76,66.76,0,0,0-2.08,7.16c3.78,2.51,6.69,4.83,7,5l-.55.68c-.06,0-2.9-2.29-6.61-4.79-.44,2-.84,4.18-1.18,6.54l-.86-.12c.36-2.51.78-4.81,1.26-6.94a63.81,63.81,0,0,0-8-4.58,66.88,66.88,0,0,0-1,10.89h-.87a66.41,66.41,0,0,1,1-11.25,11.62,11.62,0,0,0-5.73-1.22l-.13-.87a12.61,12.61,0,0,1,6,1.22,46,46,0,0,1,2.05-7.26,28.75,28.75,0,0,0-5.06-1.71c-.53,1.12-1,2.3-1.49,3.55l-.82-.32c.46-1.19.94-2.32,1.43-3.4a13.81,13.81,0,0,0-2-.22l0-.87a15.47,15.47,0,0,1,2.3.27,51.39,51.39,0,0,1,4.27-7.4q-2.14-1-4.46-1.95C279.41,235.27,268.84,251.72,268.84,251.72ZM291,224.12a17.61,17.61,0,0,0-5.56,3.83c1.65.61,3.16,1.26,4.54,1.92a30.17,30.17,0,0,1,4.87-3.87A22.12,22.12,0,0,0,291,224.12ZM285.83,236q2.3,1.11,4.36,2.28a27.54,27.54,0,0,1,4.42-4.72,42.68,42.68,0,0,0-4.49-2.57A42.89,42.89,0,0,0,285.83,236Zm9.81-9.44a30.81,30.81,0,0,0-4.85,3.78,42.64,42.64,0,0,1,4.56,2.63,23,23,0,0,1,4.77-2.87A31.42,31.42,0,0,0,295.64,226.51Zm9.94,9.68a47.43,47.43,0,0,0-4.78-5.5,22,22,0,0,0-4.71,2.73,26.8,26.8,0,0,1,6,5.44A16.65,16.65,0,0,1,305.58,236.19Zm-4.11,3.31a26.7,26.7,0,0,0-6.11-5.49,25.4,25.4,0,0,0-4.41,4.64,87.87,87.87,0,0,1,7.51,4.81A24.87,24.87,0,0,1,301.47,239.5ZM298,244.22a83.9,83.9,0,0,0-7.57-4.86,33.34,33.34,0,0,0-3.51,6.55A58.91,58.91,0,0,1,295,250.5,40.3,40.3,0,0,1,298,244.22ZM284.58,254a59.48,59.48,0,0,1,8.05,4.52,62.35,62.35,0,0,1,2.09-7.16,59.67,59.67,0,0,0-8.11-4.62A45.78,45.78,0,0,0,284.58,254Zm-3.45-10.14a29.66,29.66,0,0,1,5,1.69,33.1,33.1,0,0,1,3.54-6.63c-1.39-.76-2.84-1.52-4.37-2.26A50.94,50.94,0,0,0,281.13,243.87Zm3.9-8.3a41.19,41.19,0,0,1,4.25-5q-2.07-1-4.56-1.91a41.73,41.73,0,0,0-4.14,5Q282.9,234.55,285,235.57Z" fill="#584a3a"/>
    </g>
  </g>
  <g id="tap">
    <g>
      <g>
        <path d="M203.35,484.83l-.2-.05.1-.08Z" fill="#c79e70"/>
        <path d="M491.76,161.77A251.84,251.84,0,1,0,161.68,491.85l.78.33c17.75,7.5,57.68,37.77,68.93,91.38,23.62,112.6-2.64,156.87-10.52,170.28l0,0s-8.43,5.82-15.25,7.23a8.49,8.49,0,0,0-1.47.38l0,.07c-.68,1.68-2.27,5.12-4.29,9.35l-.12.25c-5.73,12.54-13.81,30.26-13.81,30.26l157-.67S330.5,776.27,324,760.16c0,0-.44,0-1.18-.17a19.29,19.29,0,0,1-11.44-6.47c-13.62-32.46-27.21-82.19-15.46-171.81a176.3,176.3,0,0,1,4.58-23.17,164.19,164.19,0,0,1,10.78-28.88q2.08-4.33,4.27-8.33l.75-1.38a25.38,25.38,0,0,1,5.14-6c9.58-8.77,27.85-18.51,36.15-22l.15-.07a252.13,252.13,0,0,0,134-330.08Zm-463.89,98C27.87,131.76,131.67,28,259.71,28A231.75,231.75,0,0,1,491.55,259.8c0,128.05-103.79,231.85-231.84,231.85a232.12,232.12,0,0,1-56.36-6.9l-.07,0h-.05l-.08,0A231.81,231.81,0,0,1,27.87,259.8Z" fill="#c79e70"/>
      </g>
      <g mask="url(#mask)">
        <path d="M487.05,165.43C452.14,77.67,365.77,15.51,271.15,11.84,220.38,9.15,169.5,24.74,127.36,52.73c-35.23,23.68-64,56.59-83.56,94.18C-10.73,251.76,3,344.74,86,424.64c8.22,7.9,63,41.27,91.06,59.41,23.88,15.46,42.47,39.69,44.79,44.75,43.49,95,22.21,198.69,8.87,215.63a48.19,48.19,0,0,1-9.86,9.41l-.09.07-.21.14a47.61,47.61,0,0,1-6,3.61c-.31.17-.62.32-.92.46-.74.37-1.46.7-2.14,1a43.79,43.79,0,0,1-5.76,2c-1,.26-1.56.38-1.66.4h0l-4.28,9.35-.12.25c-5.73,12.54-13.81,30.26-13.81,30.26l157-.67S330.5,776.27,324,760.16a11.13,11.13,0,0,1-1.18-.17A21.81,21.81,0,0,1,315,756.7a21.49,21.49,0,0,1-2.07-1.58c-.12-.09-.23-.19-.35-.3l-.39-.36-.49-.47c-4.24-4.21-7.38-11.83-10.17-21.28-4.85-16.39-25-94.51-1-174.17a237.92,237.92,0,0,1,10.78-28.88c.61-1.37,1.24-2.73,1.88-4.09a35.49,35.49,0,0,1,2.39-4.24,54.58,54.58,0,0,1,5.89-7.41c20.6-22.1,64.84-41.62,77-48.93C499.89,404,534.53,276.87,487.05,165.43ZM249.71,492.75a231.12,231.12,0,0,1-45.58-6.66l-.2,0A231.81,231.81,0,0,1,28.7,266C26,136.55,130.92,29.33,260.44,29.3a231.74,231.74,0,0,1,231.79,225C496.16,390.63,385.92,499,249.71,492.75Z" fill="#efd7b3"/>
      </g>
      <g mask="url(#mask-2)">
        <path d="M322.83,760c-19.56,8.44-39.56,11.09-56.95,11.09a184.2,184.2,0,0,1-23.69-1.56,196.76,196.76,0,0,1-36.43-8.37l-.16,0a53.16,53.16,0,0,0,5.92-2c.68-.28,1.4-.61,2.14-1l.89-.47h0a191.63,191.63,0,0,0,28.92,6.11c18.77,2.46,45.36,2.89,71.47-7.07A21.81,21.81,0,0,0,322.83,760Z" fill="#c79e70"/>
      </g>
    </g>
  </g>
</svg>
