<svg xmlns="http://www.w3.org/2000/svg" xmlns:xlink="http://www.w3.org/1999/xlink" viewBox="0 0 540 467">
  <defs>
    <filter id="luminosity-noclip" x="4.6" y="0.34" width="531" height="466" filterUnits="userSpaceOnUse" color-interpolation-filters="sRGB">
      <feFlood flood-color="#fff" result="bg"/>
      <feBlend in="SourceGraphic" in2="bg"/>
    </filter>
    <mask id="mask" x="4.6" y="0.34" width="531" height="466" maskUnits="userSpaceOnUse">
      <g filter="url(#luminosity-noclip)">
        <image width="531" height="466" transform="translate(4.6 0.34)" xlink:href="storage1.png"/>
      </g>
    </mask>
    <filter id="luminosity-noclip-2" x="51.6" y="19.34" width="483" height="428" filterUnits="userSpaceOnUse" color-interpolation-filters="sRGB">
      <feFlood flood-color="#fff" result="bg"/>
      <feBlend in="SourceGraphic" in2="bg"/>
    </filter>
    <mask id="mask-2" x="51.6" y="19.34" width="483" height="428" maskUnits="userSpaceOnUse">
      <g filter="url(#luminosity-noclip-2)">
        <image width="483" height="428" transform="translate(51.6 19.34)" xlink:href="storage2.png"/>
      </g>
    </mask>
  </defs>
  <g id="background_color">
    <path d="M270,6.61c92.65,0,186.8,18.32,232.51,82.51,24.79,34.81,26.25,100.32,26.25,144.38,0,50.57-1.84,106.66-33.75,144.38-47.14,55.75-139.78,82.51-225,82.51S94,433.63,46.89,377.88C15,340.16,11.26,284.07,11.26,233.5c0-44.06-2.29-102.07,22.5-136.88C79.47,32.43,177.37,6.61,270,6.61Z" fill="#5d7357"/>
  </g>
  <g id="icon-2" data-name="icon">
    <g>
      <path d="M532.33,190.9c-.07-1.4-.14-2.81-.22-4.21-.59-10.31-1.48-20.71-2.82-30.88a236.52,236.52,0,0,0-7.69-37.21c-.09-.32-.19-.62-.28-.93-3.86-12.51-8.68-22.86-14.43-30.92-21.26-29.85-54.8-52-99.7-65.87C369.4,9.21,323.25,3.29,270,3.29c-39.59,0-77.68,4.56-111.76,13.28q-7.86,2-15.42,4.32-6,1.8-11.77,3.82c-45.89,15.9-80.14,39.38-101.8,69.8C18.5,109.66,11.81,130.94,8.84,159.56c-2.18,21.05-2.1,42.42-2,63.08,0,3.66,0,7.29,0,10.86,0,54.08,4.34,109.25,35.79,146.45q3.16,3.75,6.65,7.34c.45.49.93,1,1.41,1.46,45.79,46.48,128.38,75,219.34,75,44.55,0,88.65-7,127.7-20.14l2-.67q2.79-1,5.52-2c40.26-14.68,72.72-35.69,94.11-61A110.83,110.83,0,0,0,513,359.55c1.87-3.55,3.59-7.29,5.18-11.19a177.39,177.39,0,0,0,10.05-36A304.38,304.38,0,0,0,532,280.05a1.38,1.38,0,0,0,0-.22c1.07-15.93,1.21-31.8,1.21-46.33C533.21,220.25,533.06,205.71,532.33,190.9Zm-15.68,76.44c-.23,5.52-.55,11.09-1,16.62-.71,8.7-1.73,17.31-3.2,25.62-2.56,14.4-6.28,26.88-11.26,37.67a99.13,99.13,0,0,1-12.85,20.94c-.4.48-.79,1-1.19,1.42-17.58,20.79-43.61,38.53-75.94,51.85q-8.08,3.36-16.69,6.3l-2.08.7a359,359,0,0,1-56.62,13.93q-9,1.49-18.11,2.55A411.7,411.7,0,0,1,270,447.71a405.34,405.34,0,0,1-52.29-3.38c-5.38-.69-10.71-1.51-16-2.42a358,358,0,0,1-44.85-10.71q-5.22-1.63-10.32-3.41-2.44-.84-4.85-1.75c-30-11-55.3-25.81-74.31-43.36a146.47,146.47,0,0,1-12.56-13.07l-.3-.36C26.69,336,22.84,284.36,22.84,233.5c0-3.59,0-7.24,0-10.93-.08-20.24-.16-41.16,1.94-61.36,2.67-25.8,8.42-44.59,17.55-57.42A135,135,0,0,1,55.38,88.14,149.83,149.83,0,0,1,67.13,77.21C85.32,62,108.47,49.48,136.32,39.82c3.7-1.28,7.47-2.51,11.3-3.66,5-1.55,10.17-3,15.41-4.31a399.11,399.11,0,0,1,44.43-8.49c5.31-.7,10.68-1.33,16.1-1.86C238.67,20,254.22,19.29,270,19.29q29.21,0,55.34,2.42,8.81.81,17.25,1.9a378,378,0,0,1,47.94,9.16q6.09,1.59,11.91,3.4,3.25,1,6.41,2.06c38.23,12.85,66.8,32.28,85,57.8a71.48,71.48,0,0,1,6.25,10.81,124.8,124.8,0,0,1,7.65,21.5,232.91,232.91,0,0,1,5.66,29.57c1,7.34,1.7,14.85,2.24,22.38.41,5.69.72,11.39.94,17,.5,12.55.61,24.85.61,36.19C517.21,244.23,517.14,255.71,516.65,267.34Z" fill="#c79e70"/>
      <g mask="url(#mask)">
        <path d="M532.33,190.9c-.07-1.4-.14-2.81-.22-4.21-.59-10.31-1.48-20.71-2.82-30.88a236.52,236.52,0,0,0-7.69-37.21c-.09-.32-.19-.62-.28-.93-3.86-12.51-8.68-22.86-14.43-30.92-21.26-29.85-54.8-52-99.7-65.87C369.4,9.21,323.25,3.29,270,3.29c-39.59,0-77.68,4.56-111.76,13.28q-7.86,2-15.42,4.32-6,1.8-11.77,3.82c-45.89,15.9-80.14,39.38-101.8,69.8C18.5,109.66,11.81,130.94,8.84,159.56c-2.18,21.05-2.1,42.42-2,63.08,0,3.66,0,7.29,0,10.86,0,54.08,4.34,109.25,35.79,146.45q3.16,3.75,6.65,7.34c.45.49.93,1,1.41,1.46,45.79,46.48,128.38,75,219.34,75,44.55,0,88.65-7,127.7-20.14l2-.67q2.79-1,5.52-2c40.26-14.68,72.72-35.69,94.11-61A110.83,110.83,0,0,0,513,359.55c1.87-3.55,3.59-7.29,5.18-11.19a177.39,177.39,0,0,0,10.05-36A304.38,304.38,0,0,0,532,280.05a1.38,1.38,0,0,0,0-.22c1.07-15.93,1.21-31.8,1.21-46.33C533.21,220.25,533.06,205.71,532.33,190.9Zm-15.68,76.44c-.23,5.52-.55,11.09-1,16.62-.71,8.7-1.73,17.31-3.2,25.62-2.56,14.4-6.28,26.88-11.26,37.67a99.13,99.13,0,0,1-12.85,20.94c-.4.48-.79,1-1.19,1.42-17.58,20.79-43.61,38.53-75.94,51.85q-8.08,3.36-16.69,6.3l-2.08.7a359,359,0,0,1-56.62,13.93q-9,1.49-18.11,2.55A411.7,411.7,0,0,1,270,447.71a405.34,405.34,0,0,1-52.29-3.38c-5.38-.69-10.71-1.51-16-2.42a358,358,0,0,1-44.85-10.71q-5.22-1.63-10.32-3.41-2.44-.84-4.85-1.75c-30-11-55.3-25.81-74.31-43.36a146.47,146.47,0,0,1-12.56-13.07l-.3-.36C26.69,336,22.84,284.36,22.84,233.5c0-3.59,0-7.24,0-10.93-.08-20.24-.16-41.16,1.94-61.36,2.67-25.8,8.42-44.59,17.55-57.42A135,135,0,0,1,55.38,88.14,149.83,149.83,0,0,1,67.13,77.21C85.32,62,108.47,49.48,136.32,39.82c3.7-1.28,7.47-2.51,11.3-3.66,5-1.55,10.17-3,15.41-4.31a399.11,399.11,0,0,1,44.43-8.49c5.31-.7,10.68-1.33,16.1-1.86C238.67,20,254.22,19.29,270,19.29q29.21,0,55.34,2.42,8.81.81,17.25,1.9a378,378,0,0,1,47.94,9.16q6.09,1.59,11.91,3.4,3.25,1,6.41,2.06c38.23,12.85,66.8,32.28,85,57.8a71.48,71.48,0,0,1,6.25,10.81,124.8,124.8,0,0,1,7.65,21.5,232.91,232.91,0,0,1,5.66,29.57c1,7.34,1.7,14.85,2.24,22.38.41,5.69.72,11.39.94,17,.5,12.55.61,24.85.61,36.19C517.21,244.23,517.14,255.71,516.65,267.34Z" fill="#ead2ae"/>
      </g>
      <path d="M174.16,74.58C170.84,60,167.06,45.5,163,31.85c-5.24,1.34-10.38,2.76-15.41,4.31,3.09,10.4,6,21.32,8.7,32.41a271.41,271.41,0,0,0-49,6.78c-13.39,3.15-24.89,7-33.42,11.1a52.92,52.92,0,0,0-5.46-7.68l-1.26-1.56A149.83,149.83,0,0,0,55.38,88.14l.6.74a32.93,32.93,0,0,1,6.7,11.57A216.28,216.28,0,0,1,72.4,138a348.24,348.24,0,0,1,4.53,45.32c2.46,63.47-9.08,136.53-22.38,185.89l.3.36a146.47,146.47,0,0,0,12.56,13.07q1.07-3.68,2.13-7.58c20,8.08,54.82,12.78,85,13.68q-5.67,19.08-12.83,37.26,2.4.91,4.85,1.75,5.1,1.79,10.32,3.41c22.39-57.27,34.24-120.86,35.26-189.16S182.93,113.23,174.16,74.58ZM160,84.45a727,727,0,0,1,13,83.17,359.14,359.14,0,0,0-38.65-2c-17.31.15-31.38,2-42,5.4-1.76-26.51-5.92-49.91-12.41-69.8C95.91,93.18,128.29,85.4,160,84.45ZM159,372.9c-33.88-.64-69.68-6.34-85.43-13.44,4.69-19.39,9-41.45,12.4-64.67,25.5,7.6,64.77,7.37,86.44,5.8A522.75,522.75,0,0,1,159,372.9Zm17.17-131.1q-.33,21.65-2.13,42.63c-21.11,1.76-63.6,2-85.9-5.66,3.74-30.06,5.77-61.41,5-90.95,17.65-7.65,52.78-7.14,81.31-4C175.75,202.21,176.45,221.66,176.15,241.8ZM521.32,117.67c.09.31.19.61.28.93l.34-.56ZM515.65,284c.45-5.53.77-11.1,1-16.62-27.59,6.34-64.65,11.74-82.49,10.94a784.44,784.44,0,0,0-.73-89.85c20.75-1.07,60.82,1,83.17,8.88-.22-5.63-.53-11.33-.94-17-25.94-7.34-63-8.91-83.42-7.83-2.26-26.84-5.7-51.86-9.73-74.27,21,2.81,62.53,17.85,85.25,30.15a124.8,124.8,0,0,0-7.65-21.5c-10-4.54-21.6-9.15-33.18-13.2-14.84-5.19-34-11-47.55-11.8-3.33-16.34-6.92-31-10.5-43.61q-3.15-1.06-6.41-2.06-5.82-1.81-11.91-3.4c23.05,73.84,49.95,240.8,1.88,395.69l2.08-.7q8.6-3,16.69-6.3,6.32-22.09,10.77-44.34a266.83,266.83,0,0,0,58.68-7c2.64-.61,5.2-1.26,7.68-1.92a99.13,99.13,0,0,0,12.85-20.94c-18,7.16-47.6,13.37-76.19,13.84a670.47,670.47,0,0,0,8.18-66.84C452.93,295.17,488.68,289.83,515.65,284ZM532,279.83a1.38,1.38,0,0,1,0,.22l.07,0ZM369.59,199.6c-3-71.24-15.12-134.8-27-176q-8.43-1.08-17.25-1.9c4,13,8,28.77,11.83,46.64H234c-3.27-18.21-6.88-33.95-10.47-46.85-5.42.53-10.79,1.16-16.1,1.86,22.84,79.6,41.84,266.89-5.72,418.55,5.29.91,10.62,1.73,16,2.42,4.67-15.12,8.65-30.42,12-45.68H333.15a456.57,456.57,0,0,1-15.44,46.29q9.14-1.06,18.11-2.55C361.67,372.89,373.32,289.38,369.59,199.6ZM340.39,84.35c4.53,24.05,8.43,51.21,10.93,80.33-18.81-.92-51.84-.29-79.29.22-10.28.18-19.48.35-26.62.42-1.87-30-5-57.22-8.69-81Zm-3.08,298.3H233.1a757.72,757.72,0,0,0,11.25-82.94H351.09A593.22,593.22,0,0,1,337.31,382.65Zm15.13-98.94H245.5c1.92-30.48,2.1-58.66,1.47-82.68q-.25-10-.7-19.72c7.12-.06,16.08-.24,26.06-.41,27-.51,62.7-1.19,80.22-.15q.63,9.66,1.05,19.51A734.76,734.76,0,0,1,352.44,283.71Z" fill="#c79e70"/>
      <g mask="url(#mask-2)">
        <path d="M174.16,74.58C170.84,60,167.06,45.5,163,31.85c-5.24,1.34-10.38,2.76-15.41,4.31,3.09,10.4,6,21.32,8.7,32.41a271.41,271.41,0,0,0-49,6.78c-13.39,3.15-24.89,7-33.42,11.1a52.92,52.92,0,0,0-5.46-7.68l-1.26-1.56A149.83,149.83,0,0,0,55.38,88.14l.6.74a32.93,32.93,0,0,1,6.7,11.57A216.28,216.28,0,0,1,72.4,138a348.24,348.24,0,0,1,4.53,45.32c2.46,63.47-9.08,136.53-22.38,185.89l.3.36a146.47,146.47,0,0,0,12.56,13.07q1.07-3.68,2.13-7.58c20,8.08,54.82,12.78,85,13.68q-5.67,19.08-12.83,37.26,2.4.91,4.85,1.75,5.1,1.79,10.32,3.41c22.39-57.27,34.24-120.86,35.26-189.16S182.93,113.23,174.16,74.58ZM160,84.45a727,727,0,0,1,13,83.17,359.14,359.14,0,0,0-38.65-2c-17.31.15-31.38,2-42,5.4-1.76-26.51-5.92-49.91-12.41-69.8C95.91,93.18,128.29,85.4,160,84.45ZM159,372.9c-33.88-.64-69.68-6.34-85.43-13.44,4.69-19.39,9-41.45,12.4-64.67,25.5,7.6,64.77,7.37,86.44,5.8A522.75,522.75,0,0,1,159,372.9Zm17.17-131.1q-.33,21.65-2.13,42.63c-21.11,1.76-63.6,2-85.9-5.66,3.74-30.06,5.77-61.41,5-90.95,17.65-7.65,52.78-7.14,81.31-4C175.75,202.21,176.45,221.66,176.15,241.8ZM521.32,117.67c.09.31.19.61.28.93l.34-.56ZM515.65,284c.45-5.53.77-11.1,1-16.62-27.59,6.34-64.65,11.74-82.49,10.94a784.44,784.44,0,0,0-.73-89.85c20.75-1.07,60.82,1,83.17,8.88-.22-5.63-.53-11.33-.94-17-25.94-7.34-63-8.91-83.42-7.83-2.26-26.84-5.7-51.86-9.73-74.27,21,2.81,62.53,17.85,85.25,30.15a124.8,124.8,0,0,0-7.65-21.5c-10-4.54-21.6-9.15-33.18-13.2-14.84-5.19-34-11-47.55-11.8-3.33-16.34-6.92-31-10.5-43.61q-3.15-1.06-6.41-2.06-5.82-1.81-11.91-3.4c23.05,73.84,49.95,240.8,1.88,395.69l2.08-.7q8.6-3,16.69-6.3,6.32-22.09,10.77-44.34a266.83,266.83,0,0,0,58.68-7c2.64-.61,5.2-1.26,7.68-1.92a99.13,99.13,0,0,0,12.85-20.94c-18,7.16-47.6,13.37-76.19,13.84a670.47,670.47,0,0,0,8.18-66.84C452.93,295.17,488.68,289.83,515.65,284ZM532,279.83a1.38,1.38,0,0,1,0,.22l.07,0ZM369.59,199.6c-3-71.24-15.12-134.8-27-176q-8.43-1.08-17.25-1.9c4,13,8,28.77,11.83,46.64H234c-3.27-18.21-6.88-33.95-10.47-46.85-5.42.53-10.79,1.16-16.1,1.86,22.84,79.6,41.84,266.89-5.72,418.55,5.29.91,10.62,1.73,16,2.42,4.67-15.12,8.65-30.42,12-45.68H333.15a456.57,456.57,0,0,1-15.44,46.29q9.14-1.06,18.11-2.55C361.67,372.89,373.32,289.38,369.59,199.6ZM340.39,84.35c4.53,24.05,8.43,51.21,10.93,80.33-18.81-.92-51.84-.29-79.29.22-10.28.18-19.48.35-26.62.42-1.87-30-5-57.22-8.69-81Zm-3.08,298.3H233.1a757.72,757.72,0,0,0,11.25-82.94H351.09A593.22,593.22,0,0,1,337.31,382.65Zm15.13-98.94H245.5c1.92-30.48,2.1-58.66,1.47-82.68q-.25-10-.7-19.72c7.12-.06,16.08-.24,26.06-.41,27-.51,62.7-1.19,80.22-.15q.63,9.66,1.05,19.51A734.76,734.76,0,0,1,352.44,283.71Z" fill="#ead2ae"/>
      </g>
    </g>
  </g>
</svg>
