<svg xmlns="http://www.w3.org/2000/svg" viewBox="0 0 1232.21 524.04">
  <g id="icon">
    <g>
      <g>
        <polygon points="560.97 69.24 144.24 78.76 135.63 204.03 127.11 59.77 560.97 69.24" fill="#efd7b3"/>
        <polygon points="671.25 454.8 1087.98 445.28 1096.59 320.01 1105.11 464.27 671.25 454.8" fill="#efd7b3"/>
      </g>
      <g>
        <path d="M352.69,219.21h-3.8c-6.14-38-21-52-53.18-50.84H263v88.25h17.53c25.72.58,31.27-5,32.44-32.15v-5.26H317v78.9H313v-6.43c-1.17-22.5-9.64-30.1-32.73-29.8H263v90.87h27.18V358H210.38v-5.26h25.43V168.37H210.38v-5.26H348.89Z" fill="#efd7b3"/>
        <path d="M469.28,302.2c0,32.14-25.72,58.73-57,58.73-31.56,0-57-26.29-57-59.61,0-32.72,25.42-59.31,57-59.31C444.44,242,469.28,268.3,469.28,302.2Zm-86.79,6.43c.88,27.17.88,28.93,4.09,34.19,4.68,7.6,14,12.27,25.43,12.27,12.56,0,22.5-5.26,26.59-14.32,2-4.38,3.5-16.95,3.5-32.14V294.31c0-18.12-1.46-29.22-4.38-34.19-5-7.89-14.32-12.27-25.71-12.27-12.28,0-22.5,5.55-26.3,14.32-2.34,4.67-2.63,7-3.22,32.14Z" fill="#efd7b3"/>
        <path d="M606.61,302.2c0,32.14-25.71,58.73-57,58.73-31.56,0-57-26.29-57-59.61,0-32.72,25.42-59.31,57-59.31C581.77,242,606.61,268.3,606.61,302.2Zm-86.78,6.43c.87,27.17.87,28.93,4.09,34.19,4.67,7.6,14,12.27,25.42,12.27,12.56,0,22.5-5.26,26.59-14.32,2.05-4.38,3.51-16.95,3.51-32.14V294.31c0-18.12-1.46-29.22-4.39-34.19-5-7.89-14.32-12.27-25.71-12.27-12.27,0-22.5,5.55-26.3,14.32-2.34,4.67-2.63,7-3.21,32.14Z" fill="#efd7b3"/>
        <path d="M653.36,168.37H627.94v-5.26h71.3c24.83,0,42.37,3.51,54.35,10.52,14.61,8.47,22.5,21.62,22.5,37.11,0,22.79-17,38.28-49.68,45,20.75,3.21,30.39,6.72,40.33,14.61,11.68,9.06,16.94,19.58,16.94,35.06,0,17.25-6.72,30.69-19.87,39.75C751,354.51,734.59,358,706.25,358H627.94v-5.26h25.42Zm47.34,85c33.6,0,46.75-11.69,46.75-41.78,0-31.27-14.32-43.25-51.14-43.25H680.53v85Zm5.55,99.35c31,0,45-14.32,45-47,0-34.19-14-47-51.43-47H680.53v94.09Z" fill="#efd7b3"/>
        <path d="M876.89,266c0-12.86-6.42-19-20.74-19-10.81,0-24,6.14-24,10.81,0,.88.58,2.05,2,4.1,2.92,4.09,3.8,5.84,3.8,9.35,0,6.72-4.38,11.68-10.52,11.68S817,277.66,817,270.06c0-14.9,19.87-28.05,42.66-28.05,12.28,0,23.67,3.21,30.69,9.05,6.42,5.26,9,12.28,9,24.55v65.75c0,9.06,2.05,12.27,7.89,12.27,2.93,0,5.26-1.17,8.77-4.38l2.63,3.5c-9.64,7-12.86,8.18-19.87,8.18-13.44,0-19.58-6.72-21.92-23.66-9,16.36-20.16,23.66-36.81,23.66-18.71,0-30.69-10.51-30.69-26.88,0-14.32,9.35-26,26.3-32.73,10.52-4.09,20.16-5.55,41.2-6.13Zm0,33.6c-16.36.59-23.67,2.05-32.14,7-8.77,5.26-13.15,12.86-13.15,22.5,0,12.28,7.6,20.17,19,20.17,9.94,0,19.58-7,23.67-17.24q2.64-7.45,2.63-22.8Z" fill="#efd7b3"/>
        <path d="M974.2,274.15c3.8-10.23,5.55-14,8.76-19.29,5.26-8.18,13.44-12.85,22.5-12.85,9.65,0,16.37,6.13,16.37,15.48,0,8.77-4.68,14.61-11.4,14.61s-9.93-4.67-10.23-14.61c-.29-3.21-1.46-4.67-4.09-4.67-5.84,0-11.39,7-16.07,20.16-5,13.44-5.84,21.92-5.84,45.88v33.89h19.28V358H932.12v-5.26H951.7V250.19H932.12v-5.26H974.2Z" fill="#efd7b3"/>
      </g>
    </g>
  </g>
</svg>
